<?xml version="1.0" encoding="UTF-8" standalone="no"?>
<svg
   width="48"
   height="48"
   viewBox="0 0 48 48"
   version="1.1"
   id="svg112"
   sodipodi:docname="computer.svg"
   inkscape:version="1.1.2 (0a00cf5339, 2022-02-04)"
   xmlns:inkscape="http://www.inkscape.org/namespaces/inkscape"
   xmlns:sodipodi="http://sodipodi.sourceforge.net/DTD/sodipodi-0.dtd"
   xmlns:xlink="http://www.w3.org/1999/xlink"
   xmlns="http://www.w3.org/2000/svg"
   xmlns:svg="http://www.w3.org/2000/svg">
  <sodipodi:namedview
     id="namedview114"
     pagecolor="#ffffff"
     bordercolor="#666666"
     borderopacity="1.0"
     inkscape:pageshadow="2"
     inkscape:pageopacity="0.0"
     inkscape:pagecheckerboard="0"
     showgrid="false"
     inkscape:zoom="6.84375"
     inkscape:cx="3.2876712"
     inkscape:cy="33.826484"
     inkscape:window-width="1920"
     inkscape:window-height="1028"
     inkscape:window-x="0"
     inkscape:window-y="24"
     inkscape:window-maximized="1"
     inkscape:current-layer="svg112" />
  <defs
     id="defs55">
    <filter
       id="computer-a"
       width="1.1090909"
       height="1.0864198"
       x="-0.054545455"
       y="0.051851852"
       filterUnits="objectBoundingBox">
      <feOffset
         dy="1"
         in="SourceAlpha"
         result="shadowOffsetOuter1"
         id="feOffset2" />
      <feGaussianBlur
         in="shadowOffsetOuter1"
         result="shadowBlurOuter1"
         stdDeviation="1"
         id="feGaussianBlur4" />
      <feComposite
         in="shadowBlurOuter1"
         in2="SourceAlpha"
         operator="out"
         result="shadowBlurOuter1"
         id="feComposite6" />
      <feColorMatrix
         in="shadowBlurOuter1"
         result="shadowMatrixOuter1"
         values="0 0 0 0 0   0 0 0 0 0   0 0 0 0 0  0 0 0 0.2 0"
         id="feColorMatrix8" />
      <feMerge
         id="feMerge14">
        <feMergeNode
           in="shadowMatrixOuter1"
           id="feMergeNode10" />
        <feMergeNode
           in="SourceGraphic"
           id="feMergeNode12" />
      </feMerge>
    </filter>
    <linearGradient
       id="computer-b"
       x1="50%"
       x2="50%"
       y1="100%"
       y2="0%">
      <stop
         offset="0%"
         stop-color="#CFDAFC"
         id="stop17" />
      <stop
         offset="100%"
         stop-color="#CDCFD2"
         id="stop19" />
    </linearGradient>
    <polygon
       id="computer-c"
       points="18 32 26 32 26 36 18 36" />
    <filter
       id="computer-d"
       width="1.3"
       height="1.85"
       x="-0.15"
       y="-0.3"
       filterUnits="objectBoundingBox">
      <feGaussianBlur
         in="SourceAlpha"
         result="shadowBlurInner1"
         stdDeviation=".5"
         id="feGaussianBlur23" />
      <feOffset
         dy="1"
         in="shadowBlurInner1"
         result="shadowOffsetInner1"
         id="feOffset25" />
      <feComposite
         in="shadowOffsetInner1"
         in2="SourceAlpha"
         k2="-1"
         k3="1"
         operator="arithmetic"
         result="shadowInnerInner1"
         id="feComposite27" />
      <feColorMatrix
         in="shadowInnerInner1"
         values="0 0 0 0 0.305544245   0 0 0 0 0.316030326   0 0 0 0 0.533769248  0 0 0 0.178130463 0"
         id="feColorMatrix29" />
    </filter>
    <linearGradient
       id="computer-e"
       x1="50%"
       x2="50%"
       y1="0%"
       y2="80.104%">
      <stop
         offset="0%"
         stop-color="#FFF"
         id="stop32" />
      <stop
         offset="100%"
         stop-color="#EBF4FF"
         id="stop34" />
    </linearGradient>
    <linearGradient
       id="computer-f"
       x1="39.599%"
       x2="75.302%"
       y1="23.554%"
       y2="76.446%">
      <stop
         offset="0%"
         stop-color="#D7E4FF"
         id="stop37" />
      <stop
         offset="100%"
         stop-color="#F4F9FF"
         id="stop39" />
    </linearGradient>
    <linearGradient
       id="computer-h"
       x1="46.826%"
       x2="46.826%"
       y1=".565%"
       y2="99.664%">
      <stop
         offset="0%"
         stop-color="#4F5D73"
         id="stop42" />
      <stop
         offset="100%"
         stop-color="#313A46"
         id="stop44" />
    </linearGradient>
    <rect
       id="computer-g"
       width="42"
       height="30"
       x=".5"
       y=".688"
       rx="3.5" />
    <linearGradient
       id="computer-j"
       x1="0%"
       x2="100%"
       y1="50%"
       y2="50%">
      <stop
         offset="0%"
         stop-color="#A09AD3"
         id="stop48" />
      <stop
         offset="49.618%"
         stop-color="#988DD9"
         id="stop50" />
      <stop
         offset="100%"
         stop-color="#1654D2"
         id="stop52" />
    </linearGradient>
    <linearGradient
       inkscape:collect="always"
       xlink:href="#linearGradient1247"
       id="linearGradient1249"
       x1="858.8725"
       y1="443.02283"
       x2="892.73907"
       y2="420.9277"
       gradientUnits="userSpaceOnUse"
       gradientTransform="translate(-851.79111,-413.37507)" />
    <linearGradient
       inkscape:collect="always"
       id="linearGradient1247">
      <stop
         style="stop-color:#2c4a60;stop-opacity:1"
         offset="0"
         id="stop1243" />
      <stop
         style="stop-color:#082a21;stop-opacity:1"
         offset="1"
         id="stop1245" />
    </linearGradient>
    <radialGradient
       inkscape:collect="always"
       xlink:href="#linearGradient6978"
       id="radialGradient6980"
       cx="875.71729"
       cy="432.19739"
       fx="875.71729"
       fy="432.19739"
       r="20.113232"
       gradientTransform="matrix(0.40440316,0.55617347,-0.72582999,0.5277633,-16.514877,-696.32634)"
       gradientUnits="userSpaceOnUse" />
    <linearGradient
       inkscape:collect="always"
       id="linearGradient6978">
      <stop
         style="stop-color:#9ac332;stop-opacity:1;"
         offset="0"
         id="stop6974" />
      <stop
         style="stop-color:#9ac332;stop-opacity:0;"
         offset="1"
         id="stop6976" />
    </linearGradient>
    <radialGradient
       inkscape:collect="always"
       xlink:href="#linearGradient8763"
       id="radialGradient8765"
       cx="862.83197"
       cy="453.28485"
       fx="862.83197"
       fy="453.28485"
       r="20.113232"
       gradientTransform="matrix(0.78408073,0,0,0.51497241,-665.48906,-200.39479)"
       gradientUnits="userSpaceOnUse" />
    <linearGradient
       inkscape:collect="always"
       id="linearGradient8763">
      <stop
         style="stop-color:#3e3458;stop-opacity:1;"
         offset="0"
         id="stop8759" />
      <stop
         style="stop-color:#3e3458;stop-opacity:0;"
         offset="1"
         id="stop8761" />
    </linearGradient>
    <linearGradient
       inkscape:collect="always"
       xlink:href="#linearGradient10196"
       id="linearGradient10198"
       x1="893.64587"
       y1="445.15411"
       x2="872.68274"
       y2="424.19101"
       gradientUnits="userSpaceOnUse"
       gradientTransform="translate(-851.79111,-413.37507)" />
    <linearGradient
       inkscape:collect="always"
       id="linearGradient10196">
      <stop
         style="stop-color:#0c422b;stop-opacity:1;"
         offset="0"
         id="stop10192" />
      <stop
         style="stop-color:#0c422b;stop-opacity:0;"
         offset="1"
         id="stop10194" />
    </linearGradient>
    <linearGradient
       inkscape:collect="always"
       xlink:href="#linearGradient12018"
       id="linearGradient12020"
       x1="855.60406"
       y1="418.64188"
       x2="874.97034"
       y2="432.68942"
       gradientUnits="userSpaceOnUse"
       gradientTransform="translate(-851.79111,-413.37507)" />
    <linearGradient
       inkscape:collect="always"
       id="linearGradient12018">
      <stop
         style="stop-color:#305446;stop-opacity:1;"
         offset="0"
         id="stop12014" />
      <stop
         style="stop-color:#305446;stop-opacity:0;"
         offset="1"
         id="stop12016" />
    </linearGradient>
  </defs>
  <g
     id="g20616"
     style="opacity:0.614902"
     transform="translate(-851.79111,-413.37507)">
    <path
       id="rect957-3"
       style="fill:none;fill-opacity:1;stroke:#000000;stroke-width:0.8;stroke-linecap:round;stroke-linejoin:round;stroke-miterlimit:4;stroke-dasharray:none;stroke-opacity:0.180457"
       d="m 858.79298,416.36634 c -3.18482,0 -5.74804,2.56322 -5.74804,5.74805 v 23.76367 c 0,3.18482 2.56322,5.75 5.74804,5.75 h 11.77149 v 3.40429 h -5.74024 c -0.56662,0 -1.02148,0.45486 -1.02148,1.02149 v 1.08203 c 0,0.56663 0.45486,1.02344 1.02148,1.02344 h 21.51563 c 0.56662,0 1.02148,-0.45681 1.02148,-1.02344 v -1.08203 c 0,-0.56663 -0.45486,-1.02149 -1.02148,-1.02149 h -5.74024 v -3.40429 h 11.77149 c 3.18482,0 5.74805,-2.56518 5.74805,-5.75 v -23.76367 c 0,-3.18483 -2.56323,-5.74805 -5.74805,-5.74805 z" />
    <path
       id="path20552"
       style="fill:#282825;fill-opacity:0.0814324;stroke:none;stroke-width:0.817124;stroke-linecap:round;stroke-linejoin:round;stroke-miterlimit:4;stroke-dasharray:none;stroke-opacity:0.180457"
       d="m 858.91054,416.36634 c -3.24996,0 -5.8656,2.62054 -5.8656,5.87658 v 24.29505 c 0,3.25603 2.61564,5.87857 5.8656,5.87857 h 12.01223 v 3.48042 h -5.85763 c -0.57821,0 -1.04237,0.46503 -1.04237,1.04433 v 1.10622 c 0,0.57931 0.46416,1.04632 1.04237,1.04632 h 21.95565 c 0.57821,0 1.04237,-0.46701 1.04237,-1.04632 v -1.10622 c 0,-0.5793 -0.46416,-1.04433 -1.04237,-1.04433 h -5.85764 v -3.48042 h 12.01224 c 3.24995,0 5.86561,-2.62254 5.86561,-5.87857 v -24.29505 c 0,-3.25604 -2.61566,-5.87658 -5.86561,-5.87658 z" />
    <path
       id="path20608"
       style="fill:#282825;fill-opacity:0.0814324;stroke:none;stroke-width:0.819587;stroke-linecap:round;stroke-linejoin:round;stroke-miterlimit:4;stroke-dasharray:none;stroke-opacity:0.180457"
       d="m 858.92822,416.75241 c -3.25976,0 -5.88328,2.62844 -5.88328,5.89429 v 24.36827 c 0,3.26585 2.62352,5.89629 5.88328,5.89629 h 12.04843 v 3.49091 h -5.87528 c -0.57996,0 -1.04551,0.46643 -1.04551,1.04748 v 1.10955 c 0,0.58106 0.46555,1.04948 1.04551,1.04948 h 22.02182 c 0.57995,0 1.04551,-0.46842 1.04551,-1.04948 v -1.10955 c 0,-0.58105 -0.46556,-1.04748 -1.04551,-1.04748 h -5.8753 v -3.49091 h 12.04845 c 3.25974,0 5.88329,-2.63044 5.88329,-5.89629 V 422.6467 c 0,-3.26585 -2.62355,-5.89429 -5.88329,-5.89429 z" />
    <path
       id="path20610"
       style="fill:#282825;fill-opacity:0.0814324;stroke:none;stroke-width:0.833984;stroke-linecap:round;stroke-linejoin:round;stroke-miterlimit:4;stroke-dasharray:none;stroke-opacity:0.180457"
       d="m 859.03157,416.75241 c -3.31702,0 -5.98663,2.67461 -5.98663,5.99783 v 24.79634 c 0,3.32322 2.66961,5.99987 5.98663,5.99987 h 12.26008 v 3.55223 h -5.97849 c -0.59015,0 -1.06388,0.47463 -1.06388,1.06588 v 1.12904 c 0,0.59127 0.47373,1.06792 1.06388,1.06792 h 22.40867 c 0.59014,0 1.06388,-0.47665 1.06388,-1.06792 v -1.12904 c 0,-0.59125 -0.47374,-1.06588 -1.06388,-1.06588 h -5.97851 v -3.55223 h 12.2601 c 3.317,0 5.98664,-2.67665 5.98664,-5.99987 v -24.79634 c 0,-3.32322 -2.66964,-5.99783 -5.98664,-5.99783 z" />
  </g>
  <rect
     style="fill:#282825;fill-opacity:1;stroke-width:4.53543;stroke-linecap:round;stroke-linejoin:round"
     id="rect957"
     width="10.036255"
     height="6.3945456"
     x="18.86264"
     y="36.427479"
     rx="0"
     ry="0" />
  <rect
     style="fill:#373533;fill-opacity:1;stroke-width:4.53543;stroke-linecap:round;stroke-linejoin:round"
     id="rect849"
     width="45.074467"
     height="35.261295"
     x="1.3435359"
     y="2.8764839"
     rx="5.7487793"
     ry="5.7487793" />
  <rect
     style="fill:#ffffff;fill-opacity:0.058607;stroke-width:4.53543;stroke-linecap:round;stroke-linejoin:round"
     id="rect20070"
     width="40.226463"
     height="27.111"
     x="3.8129573"
     y="6.6901741"
     rx="3.7143381"
     ry="3.7143381" />
  <rect
     style="fill:#ffffff;fill-opacity:0.058607;stroke-width:4.53543;stroke-linecap:round;stroke-linejoin:round"
     id="rect19942"
     width="40.226463"
     height="27.111"
     x="3.8129573"
     y="5.8545113"
     rx="3.7143381"
     ry="3.7143381" />
  <rect
     style="fill:#373533;fill-opacity:1;stroke-width:4.53543;stroke-linecap:round;stroke-linejoin:round"
     id="rect853"
     width="23.559757"
     height="3.1269131"
     x="12.10086"
     y="41.542286"
     rx="1.0227898"
     ry="1.0227898" />
  <rect
     style="fill:url(#linearGradient1249);fill-opacity:1;stroke-width:4.53543;stroke-linecap:round;stroke-linejoin:round"
     id="rect1143"
     width="40.226463"
     height="27.111"
     x="3.8129573"
     y="5.2668037"
     rx="3.7143381"
     ry="3.7143381" />
  <rect
     style="fill:url(#radialGradient6980);fill-opacity:1;stroke-width:4.53543;stroke-linecap:round;stroke-linejoin:round"
     id="rect4767"
     width="40.226463"
     height="27.111"
     x="3.8129573"
     y="5.2668037"
     rx="3.7143381"
     ry="3.7143381" />
  <rect
     style="fill:url(#radialGradient8765);fill-opacity:1;stroke-width:4.53543;stroke-linecap:round;stroke-linejoin:round"
     id="rect7302"
     width="40.226463"
     height="27.111"
     x="3.8129573"
     y="5.2668037"
     rx="3.7143381"
     ry="3.7143381" />
  <rect
     style="fill:url(#linearGradient10198);fill-opacity:1;stroke-width:4.53543;stroke-linecap:round;stroke-linejoin:round"
     id="rect9039"
     width="40.226463"
     height="27.111"
     x="3.8129573"
     y="5.2668037"
     rx="3.7143381"
     ry="3.7143381" />
  <rect
     style="fill:url(#linearGradient12020);fill-opacity:1;stroke-width:4.53543;stroke-linecap:round;stroke-linejoin:round"
     id="rect10219"
     width="40.226463"
     height="27.111"
     x="3.8129573"
     y="5.2668037"
     rx="3.7143381"
     ry="3.7143381" />
  <g
     id="g19938"
     transform="translate(-851.79111,-413.37507)">
    <path
       id="rect15708"
       style="fill:#010101;fill-opacity:0.178769;stroke-width:4.53543;stroke-linecap:round;stroke-linejoin:round"
       d="m 859.31836,418.64258 c -2.05774,0 -3.71484,1.65515 -3.71484,3.71289 v 19.68359 c 0,2.05775 1.6571,3.71289 3.71484,3.71289 h 32.79687 c 2.05775,0 3.71485,-1.65514 3.71485,-3.71289 v -19.68359 c 0,-2.05774 -1.6571,-3.71289 -3.71485,-3.71289 z m 0.20312,0.25586 h 32.39258 c 1.99418,0 3.59961,1.60543 3.59961,3.59961 v 19.40039 c 0,1.99417 -1.60543,3.59765 -3.59961,3.59765 h -32.39258 c -1.99417,0 -3.5996,-1.60348 -3.5996,-3.59765 v -19.40039 c 0,-1.99418 1.60543,-3.59961 3.5996,-3.59961 z" />
    <path
       id="rect16278"
       style="fill:#010101;fill-opacity:0.178769;stroke-width:4.53543;stroke-linecap:round;stroke-linejoin:round"
       d="m 859.31836,418.64258 c -2.05774,0 -3.71484,1.65515 -3.71484,3.71289 v 19.68359 c 0,2.05775 1.6571,3.71289 3.71484,3.71289 h 32.79687 c 2.05775,0 3.71485,-1.65514 3.71485,-3.71289 v -19.68359 c 0,-2.05774 -1.6571,-3.71289 -3.71485,-3.71289 z m 0.4707,0.59765 h 31.85742 c 1.92499,0 3.47461,1.54963 3.47461,3.47461 v 18.96485 c 0,1.92499 -1.54962,3.47461 -3.47461,3.47461 h -31.85742 c -1.92499,0 -3.47461,-1.54962 -3.47461,-3.47461 v -18.96485 c 0,-1.92498 1.54962,-3.47461 3.47461,-3.47461 z" />
    <path
       id="rect16864"
       style="fill:#010101;fill-opacity:0.178769;stroke-width:4.53543;stroke-linecap:round;stroke-linejoin:round"
       d="m 859.31836,418.64258 c -2.05774,0 -3.71484,1.65515 -3.71484,3.71289 v 19.68359 c 0,2.05775 1.6571,3.71289 3.71484,3.71289 h 32.79687 c 2.05775,0 3.71485,-1.65514 3.71485,-3.71289 v -19.68359 c 0,-2.05774 -1.6571,-3.71289 -3.71485,-3.71289 z m 0.71875,1.20508 h 31.36133 c 1.68637,0 3.04297,1.3566 3.04297,3.04296 v 18.61329 c 0,1.68637 -1.3566,3.04297 -3.04297,3.04297 h -31.36133 c -1.68637,0 -3.04492,-1.3566 -3.04492,-3.04297 v -18.61329 c 0,-1.68636 1.35855,-3.04296 3.04492,-3.04296 z" />
    <path
       id="rect17455"
       style="fill:#010101;fill-opacity:0.178769;stroke-width:4.53543;stroke-linecap:round;stroke-linejoin:round"
       d="m 859.31836,418.64258 c -2.05774,0 -3.71484,1.65515 -3.71484,3.71289 v 19.68359 c 0,2.05775 1.6571,3.71289 3.71484,3.71289 h 32.79687 c 2.05775,0 3.71485,-1.65514 3.71485,-3.71289 v -19.68359 c 0,-2.05774 -1.6571,-3.71289 -3.71485,-3.71289 z m 1.01562,2.02344 h 30.76563 c 1.32752,0 2.39648,1.06896 2.39648,2.39648 v 18.26953 c 0,1.32752 -1.06896,2.39649 -2.39648,2.39649 h -30.76563 c -1.32752,0 -2.39648,-1.06897 -2.39648,-2.39649 V 423.0625 c 0,-1.32752 1.06896,-2.39648 2.39648,-2.39648 z" />
  </g>
</svg>
