<svg role="img" viewBox="0 0 24 24" xmlns="http://www.w3.org/2000/svg" id="Hyprland--Streamline-Simple-Icons.svg" height="24" width="24"><desc>Hyprland Streamline Icon: https://streamlinehq.com</desc><title>Hyprland</title><path d="M13.0998 0.001c0.071 0.0753 0.1162 0.1116 0.1476 0.1576 0.5693 0.8424 1.13 1.691 1.7078 2.5277 0.3326 0.4816 0.6866 0.9486 1.0416 1.4141 0.3433 0.451 0.7058 0.8869 1.0494 1.3378 0.3975 0.5215 0.8003 1.0402 1.1696 1.5813 0.473 0.6933 0.9496 1.388 1.3588 2.1188 0.348 0.6213 0.626 1.285 0.8919 1.9477 0.1882 0.4691 0.3144 0.9646 0.4491 1.4537 0.0624 0.2267 0.0799 0.4659 0.1163 0.6994 0.0449 0.2858 0.1211 0.5717 0.1258 0.8583 0.0125 0.7465 0.0773 1.4954 -0.0528 2.2386 -0.1433 0.8195 -0.3832 1.6041 -0.74 2.3609 -0.3607 0.7646 -0.7978 1.4708 -1.3328 2.1241 -0.4848 0.5921 -1.054 1.0812 -1.6697 1.5296 -0.452 0.329 -0.93 0.6085 -1.4387 0.8306 -0.4577 0.1996 -0.9293 0.3597 -1.4148 0.4951 -1.0961 0.3052 -2.2076 0.3722 -3.3269 0.2934 -0.6747 -0.0474 -1.3574 -0.1301 -2 -0.3729 -0.5284 -0.1996 -1.0606 -0.3967 -1.5657 -0.6462 -0.3988 -0.1968 -0.781 -0.4435 -1.131 -0.7183 -0.4591 -0.3604 -0.9097 -0.7418 -1.3072 -1.167 -0.356 -0.3808 -0.6644 -0.8153 -0.941 -1.2587 -0.2916 -0.468 -0.5486 -0.9629 -0.7693 -1.4687 -0.2385 -0.546 -0.3925 -1.121 -0.518 -1.71 -0.1953 -0.9164 -0.1322 -1.8336 -0.0923 -2.748 0.0229 -0.525 0.1615 -1.0504 0.2945 -1.5634 0.14 -0.541 0.3094 -1.0786 0.5147 -1.5983 0.2057 -0.5205 0.4445 -1.0324 0.718 -1.5204 0.3432 -0.6124 0.7218 -1.2066 1.1121 -1.7905 0.3543 -0.5304 0.7372 -1.0423 1.1218 -1.5513 0.3098 -0.41 0.6477 -0.7988 0.9614 -1.206 0.3172 -0.4116 0.6224 -0.8326 0.9293 -1.2522 0.3247 -0.4441 0.652 -0.8865 0.9656 -1.3385 0.3979 -0.5728 0.781 -1.156 1.1753 -1.7314 0.0563 -0.0823 0.1383 -0.1475 0.2082 -0.2206 0.0139 0.0078 0.0278 0.0157 0.042 0.0235 0.003 0.0631 0.0082 0.1262 0.0082 0.1893 0.0004 0.9386 0.0053 1.8771 -0.006 2.8157 -0.0019 0.1376 -0.0578 0.2905 -0.1327 0.4085 -0.303 0.4795 -0.6127 0.9553 -0.9403 1.4184 -0.3105 0.4388 -0.6459 0.8601 -0.9703 1.289 -0.2673 0.3532 -0.5336 0.7068 -0.8027 1.0587 -0.1868 0.2441 -0.3829 0.4812 -0.5654 0.7286 -0.2552 0.3465 -0.5115 0.6933 -0.7496 1.0515 -0.2873 0.432 -0.57 0.8684 -0.828 1.3179 -0.1847 0.3215 -0.3302 0.6662 -0.4845 1.0041 -0.0856 0.1875 -0.1644 0.3793 -0.2267 0.5754 -0.1105 0.3479 -0.199 0.7026 -0.3094 1.0505 -0.3109 0.9774 -0.245 1.983 -0.1754 2.9764 0.0353 0.5044 0.2178 1.0035 0.3707 1.4933 0.2142 0.6858 0.5817 1.294 0.9963 1.88 0.283 0.4003 0.6042 0.762 0.9675 1.0822 0.299 0.263 0.6238 0.5051 0.9649 0.71 0.3882 0.2332 0.7924 0.4553 1.2163 0.6085 0.4523 0.1637 0.9303 0.2849 1.4073 0.3451 0.5678 0.0717 1.1464 0.0563 1.72 0.0834 0.5325 0.025 1.049 -0.0816 1.5659 -0.1832 0.6562 -0.129 1.2558 -0.412 1.8386 -0.7222 0.6969 -0.3707 1.2826 -0.8958 1.7955 -1.4875 0.5244 -0.605 0.9646 -1.285 1.2448 -2.0319 0.2955 -0.7878 0.5418 -1.603 0.5044 -2.4688 -0.0203 -0.468 0.0053 -0.939 -0.0378 -1.4041 -0.0317 -0.3426 -0.129 -0.6813 -0.2196 -1.016 -0.1062 -0.3932 -0.215 -0.7878 -0.3622 -1.1667 -0.1465 -0.3775 -0.3336 -0.7396 -0.5175 -1.1014 -0.163 -0.3205 -0.3323 -0.6388 -0.5226 -0.9432a16.5743 16.5743 0 0 0 -0.7372 -1.0848c-0.3939 -0.5311 -0.8106 -1.0451 -1.2088 -1.5727 -0.4662 -0.6177 -0.9314 -1.2362 -1.382 -1.8654 -0.3889 -0.5425 -0.7596 -1.0982 -1.1303 -1.6536 -0.0595 -0.0891 -0.107 -0.2064 -0.108 -0.3108 -0.0082 -1.0156 -0.0053 -2.0312 -0.0046 -3.0467 0 -0.0339 0.0086 -0.0681 0.0206 -0.1583z" fill="#FF5733" stroke-width="1"></path></svg>