<?xml version="1.0" encoding="UTF-8" standalone="no"?>
<svg
   width="64"
   height="64"
   version="1.1"
   viewBox="0 0 16.933 16.933"
   id="svg58"
   sodipodi:docname="f-spot.svg"
   inkscape:version="1.1.2 (0a00cf5339, 2022-02-04)"
   xmlns:inkscape="http://www.inkscape.org/namespaces/inkscape"
   xmlns:sodipodi="http://sodipodi.sourceforge.net/DTD/sodipodi-0.dtd"
   xmlns:xlink="http://www.w3.org/1999/xlink"
   xmlns="http://www.w3.org/2000/svg"
   xmlns:svg="http://www.w3.org/2000/svg"
   xmlns:rdf="http://www.w3.org/1999/02/22-rdf-syntax-ns#"
   xmlns:cc="http://creativecommons.org/ns#"
   xmlns:dc="http://purl.org/dc/elements/1.1/">
  <sodipodi:namedview
     id="namedview60"
     pagecolor="#ffffff"
     bordercolor="#666666"
     borderopacity="1.0"
     inkscape:pageshadow="2"
     inkscape:pageopacity="0.0"
     inkscape:pagecheckerboard="0"
     showgrid="false"
     inkscape:zoom="9.921875"
     inkscape:cx="30.689764"
     inkscape:cy="32.100787"
     inkscape:window-width="1920"
     inkscape:window-height="1030"
     inkscape:window-x="0"
     inkscape:window-y="24"
     inkscape:window-maximized="1"
     inkscape:current-layer="svg58" />
  <defs
     id="defs30">
    <linearGradient
       id="linearGradient2017"
       x1="28.045"
       x2="28.045"
       y1="-16.404"
       y2="-5.2916"
       gradientTransform="matrix(-.63131 -.63131 -.63131 .63131 20.642 31.793)"
       gradientUnits="userSpaceOnUse"
       xlink:href="#linearGradient2043" />
    <linearGradient
       id="linearGradient2043">
      <stop
         stop-color="#a2a2a2"
         offset="0"
         id="stop3" />
      <stop
         stop-color="#b2b3b3"
         offset="1"
         id="stop5" />
    </linearGradient>
    <linearGradient
       id="linearGradient2061"
       x1="25.662"
       x2="36.914"
       y1="-15.481"
       y2="-4.4096"
       gradientTransform="matrix(.89281 0 0 .89281 -18.089 16.228)"
       gradientUnits="userSpaceOnUse">
      <stop
         stop-color="#e13c0a"
         offset="0"
         id="stop8" />
      <stop
         stop-color="#b4350e"
         offset="1"
         id="stop10" />
    </linearGradient>
    <linearGradient
       id="linearGradient2076"
       x1="28.045"
       x2="28.045"
       y1="-16.404"
       y2="-5.2916"
       gradientTransform="matrix(-.63132 -.63132 -.63132 .63132 20.641 31.793)"
       gradientUnits="userSpaceOnUse"
       xlink:href="#linearGradient2043" />
    <linearGradient
       id="linearGradient2106"
       x1="28.045"
       x2="28.045"
       y1="-16.404"
       y2="-5.2916"
       gradientTransform="matrix(-.64232 -.64232 -.64232 .64232 20.89 32.172)"
       gradientUnits="userSpaceOnUse"
       xlink:href="#linearGradient2043" />
    <linearGradient
       id="linearGradient1952"
       x1="28.574"
       x2="28.574"
       y1="-5.2916"
       gradientTransform="matrix(.89281 0 0 .89281 -17.146 16.14)"
       gradientUnits="userSpaceOnUse">
      <stop
         stop-color="#28c3fa"
         offset="0"
         id="stop15" />
      <stop
         stop-color="#037cd5"
         offset="1"
         id="stop17" />
    </linearGradient>
    <linearGradient
       id="linearGradient1966"
       x1="28.045"
       x2="28.045"
       y1="-16.404"
       y2="-5.2916"
       gradientTransform="matrix(.89281 0 0 .89281 -17.146 16.14)"
       gradientUnits="userSpaceOnUse">
      <stop
         stop-color="#cecece"
         offset="0"
         id="stop20" />
      <stop
         stop-color="#b2b3b3"
         offset="1"
         id="stop22" />
    </linearGradient>
    <linearGradient
       id="linearGradient2015"
       x1="28.574"
       x2="28.574"
       y1="-5.2916"
       gradientTransform="matrix(-.63131 -.63131 -.63131 .63131 20.642 31.793)"
       gradientUnits="userSpaceOnUse">
      <stop
         stop-color="#0e69b4"
         offset="0"
         id="stop25" />
      <stop
         stop-color="#1299e4"
         offset="1"
         id="stop27" />
    </linearGradient>
    <linearGradient
       inkscape:collect="always"
       xlink:href="#linearGradient1430"
       id="linearGradient1432"
       x1="0.5291667"
       y1="0.79375005"
       x2="11.641667"
       y2="11.90625"
       gradientUnits="userSpaceOnUse"
       gradientTransform="matrix(0.99998028,0,0,0.99998028,0.23521297,0.41535713)" />
    <linearGradient
       inkscape:collect="always"
       id="linearGradient1430">
      <stop
         style="stop-color:#f3f5f6;stop-opacity:1"
         offset="0"
         id="stop1426" />
      <stop
         style="stop-color:#dadee0;stop-opacity:1"
         offset="1"
         id="stop1428" />
    </linearGradient>
    <linearGradient
       inkscape:collect="always"
       xlink:href="#linearGradient1452"
       id="linearGradient1700"
       x1="40"
       y1="46"
       x2="40.000156"
       y2="62"
       gradientUnits="userSpaceOnUse"
       gradientTransform="matrix(0.26457812,0,0,0.26457812,0.23521297,0.41535713)" />
    <linearGradient
       inkscape:collect="always"
       id="linearGradient1452">
      <stop
         style="stop-color:#50baec;stop-opacity:1"
         offset="0"
         id="stop1448" />
      <stop
         style="stop-color:#1ea1e4;stop-opacity:1"
         offset="1"
         id="stop1450" />
    </linearGradient>
    <linearGradient
       inkscape:collect="always"
       xlink:href="#linearGradient1587"
       id="linearGradient1710"
       x1="9.7895832"
       y1="3.9687498"
       x2="9.7895842"
       y2="12.170834"
       gradientUnits="userSpaceOnUse"
       gradientTransform="matrix(-1.9999606,0,0,0.99998028,28.80965,0.67993551)" />
    <linearGradient
       inkscape:collect="always"
       id="linearGradient1587">
      <stop
         style="stop-color:#a0a7ac;stop-opacity:1;"
         offset="0"
         id="stop1583" />
      <stop
         style="stop-color:#81888e;stop-opacity:1"
         offset="1"
         id="stop1585" />
    </linearGradient>
    <linearGradient
       inkscape:collect="always"
       xlink:href="#linearGradient1452"
       id="linearGradient1748"
       gradientUnits="userSpaceOnUse"
       x1="52"
       y1="26.066797"
       x2="52"
       y2="40.091682"
       gradientTransform="matrix(0.26457812,0,0,0.26457812,0.23521297,0.41535713)" />
    <linearGradient
       inkscape:collect="always"
       xlink:href="#linearGradient1740"
       id="linearGradient1742"
       x1="10.583333"
       y1="12.170834"
       x2="10.583334"
       y2="8.9958334"
       gradientUnits="userSpaceOnUse"
       gradientTransform="matrix(0.99998028,0,0,0.99998028,0.23521294,-0.37837757)" />
    <linearGradient
       inkscape:collect="always"
       id="linearGradient1740">
      <stop
         style="stop-color:#000000;stop-opacity:0"
         offset="0"
         id="stop1736" />
      <stop
         style="stop-color:#000000;stop-opacity:1"
         offset="0.5"
         id="stop1744" />
      <stop
         style="stop-color:#000000;stop-opacity:0;"
         offset="1"
         id="stop1738" />
    </linearGradient>
    <linearGradient
       inkscape:collect="always"
       xlink:href="#linearGradient1587"
       id="linearGradient1612"
       x1="3.9687505"
       y1="9.7895842"
       x2="12.170834"
       y2="9.7895842"
       gradientUnits="userSpaceOnUse"
       gradientTransform="matrix(0.99998028,0,0,0.99998028,0.49979172,0.41535713)" />
  </defs>
  <metadata
     id="metadata32">
    <rdf:RDF>
      <cc:Work
         rdf:about="">
        <dc:format>image/svg+xml</dc:format>
        <dc:type
           rdf:resource="http://purl.org/dc/dcmitype/StillImage" />
      </cc:Work>
    </rdf:RDF>
  </metadata>
  <path
     id="rect833"
     style="fill:url(#linearGradient1432);fill-opacity:1;stroke-width:0.264578"
     d="m 2.351838,0.94451337 h 8.466499 c 0.879459,0 1.58747,0.70801103 1.58747,1.58746883 v 8.4664988 c 0,0.879459 -0.708011,1.58747 -1.58747,1.58747 H 2.351838 c -0.8794577,0 -1.58746879,-0.708011 -1.58746879,-1.58747 V 2.5319822 c 0,-0.8794578 0.70801109,-1.58746883 1.58746879,-1.58746883 z"
     sodipodi:nodetypes="sssssssss" />
  <path
     id="rect1538"
     style="fill:#d83b01;fill-opacity:1;stroke-width:1"
     d="M 12.888672 10.570312 C 10.98211 10.586947 9.9080219 11.692684 9.8886719 13.570312 L 9.8886719 17.570312 L 16.888672 17.570312 L 16.888672 10.570312 L 12.888672 10.570312 z M 18.888672 10.570312 L 18.888672 17.570312 L 25.888672 17.570312 L 25.888672 10.570312 L 18.888672 10.570312 z M 27.888672 10.570312 L 27.888672 17.570312 L 34.888672 17.570312 L 34.888672 13.570312 C 34.869322 11.692684 33.795235 10.586947 31.888672 10.570312 L 27.888672 10.570312 z M 9.8886719 19.570312 L 9.8886719 26.570312 L 16.888672 26.570312 L 16.888672 19.570312 L 9.8886719 19.570312 z M 9.8886719 28.570312 L 9.8886719 32.570312 C 9.905307 34.476875 11.011043 35.550962 12.888672 35.570312 L 16.888672 35.570312 L 16.888672 28.570312 L 9.8886719 28.570312 z "
     transform="scale(0.26457812)" />
  <path
     id="path1601"
     style="fill:url(#linearGradient1700);fill-opacity:1;stroke-width:0.264578"
     d="m 9.2308691,12.58595 v 0.548276 A 1.8520468,1.8520468 0 0 0 8.966291,13.115106 1.8520468,1.8520468 0 0 0 7.1142441,14.967153 1.8520468,1.8520468 0 0 0 8.966291,16.8192 a 1.8520468,1.8520468 0 0 0 1.852046,-1.852047 1.8520468,1.8520468 0 0 0 0,-0.0248 v -2.356399 z m -0.2805976,1.322891 c 0.00534,-4e-5 0.010678,-4e-5 0.01602,0 0.5844896,0 1.0583125,0.473823 1.0583125,1.058312 0,0.58449 -0.4738229,1.058313 -1.0583125,1.058313 -0.5844895,0 -1.0583122,-0.473823 -1.0583124,-1.058313 -6.59e-5,-0.57829 0.4640689,-1.049558 1.0422924,-1.058312 z" />
  <path
     id="rect1702"
     style="fill:url(#linearGradient1710);fill-opacity:1;stroke-width:0.374169"
     d="m 9.2308691,4.648607 v 7.937344 H 10.818337 V 6.2360757 c 0,-0.8794576 -0.708011,-1.5874687 -1.5874679,-1.5874687 z"
     sodipodi:nodetypes="cccsc" />
  <path
     id="rect1718"
     style="fill:url(#linearGradient1748);fill-opacity:1;stroke-width:0.264578"
     d="m 14.762205,7.2943882 a 1.8520469,1.8520469 0 0 0 -1.827243,1.8520469 1.8520469,1.8520469 0 0 0 0.01912,0.2645783 h -0.548276 v 1.5874686 h 2.381203 a 1.8520469,1.8520469 0 0 0 1.852047,-1.8520469 1.8520469,1.8520469 0 0 0 -1.852047,-1.8520469 1.8520469,1.8520469 0 0 0 -0.0248,0 z m 0.0088,0.7937346 c 0.0053,-4.04e-5 0.01068,-4.04e-5 0.01602,0 0.58449,0 1.058313,0.4738227 1.058313,1.0583123 0,0.5844895 -0.473823,1.0583119 -1.058313,1.0583129 -0.58449,0 -1.058312,-0.4738226 -1.058312,-1.0583129 -6.6e-5,-0.5782908 0.464069,-1.0495592 1.042292,-1.0583123 z" />
  <rect
     style="opacity:0.4;fill:url(#linearGradient1742);fill-opacity:1;stroke-width:0.264578"
     id="rect1734"
     width="1.587469"
     height="3.1749377"
     x="9.2308683"
     y="8.6172791" />
  <path
     id="rect1603"
     style="fill:url(#linearGradient1612);fill-opacity:1;stroke-width:0.374169"
     d="M 12.405807,9.4110137 V 10.998482 H 6.0559327 c -0.8794577,0 -1.5874687,-0.708011 -1.5874687,-1.5874683 z"
     sodipodi:nodetypes="ccscc" />
  <path
     id="rect1599"
     style="fill:#b8c2cc;fill-opacity:1;stroke-width:0.324039"
     d="m 9.2308691,9.4110134 c 0,0.4397289 -0.3540056,0.7937346 -0.7937344,0.7937346 H 5.2621975 c -0.4397288,0 -0.7937343,-0.3540057 -0.7937343,-0.7937346 8e-7,3e-7 4.7624059,0 4.7624059,0 z"
     sodipodi:nodetypes="csscc" />
  <circle
     style="fill:#c9d1d8;fill-opacity:1;stroke-width:0.264578"
     id="path1713"
     cx="10.024602"
     cy="10.204747"
     r="0.52915627" />
</svg>
