<?xml version="1.0" encoding="UTF-8" standalone="no"?>
<!-- Created with Inkscape (http://www.inkscape.org/) -->

<svg
   width="48"
   height="48"
   viewBox="0 0 48 48"
   version="1.1"
   id="svg2112"
   inkscape:version="1.2.1 (9c6d41e410, 2022-07-14, custom)"
   sodipodi:docname="bash.svg"
   xmlns:inkscape="http://www.inkscape.org/namespaces/inkscape"
   xmlns:sodipodi="http://sodipodi.sourceforge.net/DTD/sodipodi-0.dtd"
   xmlns:xlink="http://www.w3.org/1999/xlink"
   xmlns="http://www.w3.org/2000/svg"
   xmlns:svg="http://www.w3.org/2000/svg">
  <sodipodi:namedview
     id="namedview2114"
     pagecolor="#ffffff"
     bordercolor="#000000"
     borderopacity="0.25"
     inkscape:showpageshadow="2"
     inkscape:pageopacity="0.0"
     inkscape:pagecheckerboard="0"
     inkscape:deskcolor="#d1d1d1"
     inkscape:document-units="px"
     showgrid="false"
     inkscape:zoom="16.875"
     inkscape:cx="23.97037"
     inkscape:cy="24"
     inkscape:window-width="1920"
     inkscape:window-height="1012"
     inkscape:window-x="0"
     inkscape:window-y="0"
     inkscape:window-maximized="1"
     inkscape:current-layer="svg2112" />
  <defs
     id="defs2109">
    <linearGradient
       inkscape:collect="always"
       id="linearGradient2996">
      <stop
         style="stop-color:#1a1a1a;stop-opacity:1;"
         offset="0"
         id="stop2992" />
      <stop
         style="stop-color:#525252;stop-opacity:1;"
         offset="1"
         id="stop2994" />
    </linearGradient>
    <linearGradient
       inkscape:collect="always"
       xlink:href="#linearGradient2996"
       id="linearGradient12474"
       x1="45"
       y1="39"
       x2="3"
       y2="11"
       gradientUnits="userSpaceOnUse" />
  </defs>
  <rect
     style="fill:#797774;fill-opacity:1;stroke-width:2;stroke-linejoin:round"
     id="rect924"
     width="44"
     height="31.999998"
     x="2"
     y="8"
     ry="3" />
  <rect
     style="fill:url(#linearGradient12474);stroke-width:2;stroke-linejoin:round;fill-opacity:1"
     id="rect1289"
     width="42"
     height="28"
     x="3"
     y="11"
     ry="1.9999999" />
  <path
     id="rect1066"
     style="fill:#c4c4c4;fill-opacity:1;stroke-width:1.5;stroke-linecap:round;stroke-linejoin:round"
     d="M 38.000001,9.0000001 V 10 H 39 V 9.0000001 Z m 2.000002,0 V 10 h 1.000002 V 9.0000001 Z m 2.000001,0 V 10 h 0.999999 V 9.0000001 Z" />
  <rect
     style="fill:#ffffff"
     id="rect233"
     width="4"
     height="1"
     x="11"
     y="19" />
  <path
     id="rect551"
     style="fill:#ffffff;stroke-width:0.866025"
     d="m 7.0000002,13 v 1.000001 h -0.5 c -0.8284263,0 -1.5,0.671574 -1.5,1.5 0,0.828426 0.6715737,1.5 1.5,1.5 h 0.5 v 1 h -2 v 1 h 2 V 20 h 1 v -0.999999 h 0.5 c 0.8284263,0 1.4999998,-0.671574 1.4999998,-1.5 0,-0.828426 -0.6715735,-1.5 -1.4999998,-1.5 h -0.5 v -1 H 10 v -1 H 8.0000002 V 13 Z m -0.5,2.000001 h 0.5 v 1 h -0.5 c -0.2761421,0 -0.5,-0.223858 -0.5,-0.5 0,-0.276142 0.2238579,-0.5 0.5,-0.5 z m 1.5,2 h 0.5 c 0.2761421,0 0.5,0.223858 0.5,0.5 0,0.276142 -0.2238579,0.5 -0.5,0.5 h -0.5 z" />
</svg>
