<?xml version="1.0" encoding="UTF-8" standalone="no"?>
<svg
   width="64"
   height="64"
   version="1.1"
   id="svg17"
   sodipodi:docname="blackmagic-Fusion8.svg"
   inkscape:version="1.1.2 (0a00cf5339, 2022-02-04)"
   xmlns:inkscape="http://www.inkscape.org/namespaces/inkscape"
   xmlns:sodipodi="http://sodipodi.sourceforge.net/DTD/sodipodi-0.dtd"
   xmlns:xlink="http://www.w3.org/1999/xlink"
   xmlns="http://www.w3.org/2000/svg"
   xmlns:svg="http://www.w3.org/2000/svg"
   xmlns:rdf="http://www.w3.org/1999/02/22-rdf-syntax-ns#"
   xmlns:cc="http://creativecommons.org/ns#"
   xmlns:dc="http://purl.org/dc/elements/1.1/">
  <sodipodi:namedview
     id="namedview19"
     pagecolor="#ffffff"
     bordercolor="#666666"
     borderopacity="1.0"
     inkscape:pageshadow="2"
     inkscape:pageopacity="0.0"
     inkscape:pagecheckerboard="0"
     showgrid="false"
     inkscape:zoom="10.203125"
     inkscape:cx="21.12098"
     inkscape:cy="23.473201"
     inkscape:window-width="1920"
     inkscape:window-height="1030"
     inkscape:window-x="0"
     inkscape:window-y="24"
     inkscape:window-maximized="1"
     inkscape:current-layer="svg17"
     inkscape:lockguides="true" />
  <metadata
     id="metadata2">
    <rdf:RDF>
      <cc:Work
         rdf:about="">
        <dc:format>image/svg+xml</dc:format>
        <dc:type
           rdf:resource="http://purl.org/dc/dcmitype/StillImage" />
      </cc:Work>
    </rdf:RDF>
  </metadata>
  <defs
     id="defs9">
    <linearGradient
       inkscape:collect="always"
       id="linearGradient1712">
      <stop
         style="stop-color:#0078d7;stop-opacity:1;"
         offset="0"
         id="stop1708" />
      <stop
         style="stop-color:#0099bc;stop-opacity:1"
         offset="1"
         id="stop1710" />
    </linearGradient>
    <linearGradient
       id="linearGradient844"
       x1="15"
       x2="35"
       y1="8"
       y2="38"
       gradientTransform="matrix(1.3636,0,0,1.3636,-0.72727,-0.7274)"
       gradientUnits="userSpaceOnUse">
      <stop
         stop-color="#18d862"
         offset="0"
         id="stop4"
         style="stop-color:#0099bc;stop-opacity:1" />
      <stop
         stop-color="#1cd664"
         offset="1"
         id="stop6"
         style="stop-color:#0078d7;stop-opacity:1" />
    </linearGradient>
    <linearGradient
       inkscape:collect="always"
       xlink:href="#linearGradient1712"
       id="linearGradient1714"
       x1="54.60569"
       y1="51.159843"
       x2="17.024515"
       y2="8.9677591"
       gradientUnits="userSpaceOnUse" />
  </defs>
  <circle
     style="fill:url(#linearGradient1714);stroke-width:10.2409;stroke-linecap:round;stroke-linejoin:round;fill-opacity:1"
     id="path860"
     cx="31.911369"
     cy="31.987297"
     r="29.968281" />
  <path
     style="fill:#ffffff;fill-opacity:1;stroke-width:1.72883"
     d="m 31.182837,46.021848 c -0.282339,0.01762 -0.563961,0.06536 -0.837404,0.138461 -1.093792,0.293057 -2.057427,1.035172 -2.623622,2.015844 -0.566184,0.98067 -0.725285,2.188262 -0.432235,3.282061 0.293055,1.093798 1.035169,2.05743 2.01584,2.62362 0.980669,0.566181 2.18827,0.725287 3.282064,0.43223 1.093791,-0.293055 2.057435,-1.035163 2.623625,-2.015831 0.566181,-0.98067 0.725291,-2.188269 0.432232,-3.282062 -0.293056,-1.093804 -1.03517,-2.057436 -2.015838,-2.623633 -0.735502,-0.424655 -1.597585,-0.62303 -2.444662,-0.570626 z M 43.341999,28.729667 c -1.239086,0.03396 -2.471114,0.429946 -3.474525,1.158174 -1.163593,0.844445 -1.989428,2.059906 -2.897133,3.174014 -0.453859,0.557037 -0.935692,1.095254 -1.492459,1.549866 -0.556774,0.454579 -1.192735,0.827143 -1.887525,1.012979 -0.694785,0.185812 -1.430888,0.179942 -2.140771,0.06401 -0.709882,-0.11579 -1.397789,-0.341733 -2.069856,-0.597676 -1.34414,-0.511817 -2.665157,-1.152825 -4.095833,-1.30337 -1.973954,-0.207722 -4.028835,0.61068 -5.318153,2.11713 -1.289318,1.506461 -1.776586,3.660919 -1.262852,5.574782 0.513714,1.913866 2.011951,3.532641 3.883099,4.193745 1.871148,0.66111 4.060489,0.34461 5.665945,-0.820509 1.163592,-0.844447 1.989433,-2.059909 2.897132,-3.174011 0.45386,-0.557033 0.935695,-1.095257 1.492462,-1.549865 0.556774,-0.454643 1.192734,-0.827142 1.887521,-1.012985 0.694796,-0.185811 1.430892,-0.179943 2.140772,-0.06401 0.709883,0.11579 1.397789,0.341734 2.069866,0.597676 1.34413,0.511821 2.665149,1.152824 4.095823,1.303372 1.973958,0.207723 4.028839,-0.610681 5.318159,-2.117133 1.289319,-1.506457 1.77658,-3.660918 1.262846,-5.57478 -0.513713,-1.913867 -2.011944,-3.532634 -3.883098,-4.193745 -0.701681,-0.247915 -1.447964,-0.358005 -2.19142,-0.337683 z M 42.977328,11.442009 c -1.652114,0.04444 -3.294823,0.559324 -4.632706,1.505968 -1.551452,1.097781 -2.649194,2.681251 -3.85946,4.129591 -0.605125,0.724167 -1.24984,1.421466 -1.992198,2.012455 -0.742356,0.591016 -1.589187,1.071913 -2.515576,1.313508 -0.926384,0.241576 -1.906726,0.23837 -2.853237,0.08774 -0.946507,-0.150555 -1.865972,-0.44393 -2.762063,-0.776622 -1.792181,-0.665337 -3.555785,-1.499343 -5.463355,-1.695054 -2.631942,-0.270055 -5.371781,0.793547 -7.090874,2.751935 -1.719091,1.958387 -2.3698999,4.758177 -1.684925,7.2462 0.684973,2.488023 2.688229,4.593779 5.18309,5.45322 2.494865,0.859447 5.412867,0.447655 7.553472,-1.067006 1.551463,-1.09778 2.649196,-2.681257 3.859462,-4.129592 0.605125,-0.724171 1.249843,-1.421468 1.9922,-2.012459 0.742354,-0.591015 1.589184,-1.071913 2.515574,-1.313502 0.926384,-0.241552 1.906729,-0.238371 2.853234,-0.08783 0.94651,0.150555 1.865974,0.44393 2.762065,0.776621 1.792185,0.665337 3.555786,1.499349 5.463355,1.695062 2.631943,0.270053 5.371786,-0.793548 7.090877,-2.751938 1.71909,-1.958392 2.3699,-4.75818 1.684926,-7.246199 -0.684974,-2.488008 -2.68823,-4.593766 -5.183094,-5.453212 -0.935575,-0.322264 -1.929496,-0.465428 -2.920767,-0.438963 z"
     id="path10" />
</svg>
