<?xml version="1.0" encoding="UTF-8" standalone="no"?>
<!-- Created with Inkscape (http://www.inkscape.org/) -->

<svg
   width="48"
   height="48"
   viewBox="0 0 48 48"
   version="1.1"
   id="svg5"
   inkscape:version="1.2.1 (9c6d41e410, 2022-07-14, custom)"
   sodipodi:docname="calligrasheets.svg"
   xmlns:inkscape="http://www.inkscape.org/namespaces/inkscape"
   xmlns:sodipodi="http://sodipodi.sourceforge.net/DTD/sodipodi-0.dtd"
   xmlns="http://www.w3.org/2000/svg"
   xmlns:svg="http://www.w3.org/2000/svg">
  <sodipodi:namedview
     id="namedview7"
     pagecolor="#ffffff"
     bordercolor="#666666"
     borderopacity="1.0"
     inkscape:pageshadow="2"
     inkscape:pageopacity="0.0"
     inkscape:pagecheckerboard="0"
     inkscape:document-units="px"
     showgrid="false"
     units="px"
     height="48px"
     inkscape:zoom="16.875"
     inkscape:cx="24"
     inkscape:cy="24"
     inkscape:window-width="1920"
     inkscape:window-height="1012"
     inkscape:window-x="0"
     inkscape:window-y="0"
     inkscape:window-maximized="1"
     inkscape:current-layer="svg5"
     inkscape:lockguides="true"
     showguides="false"
     inkscape:showpageshadow="2"
     inkscape:deskcolor="#d1d1d1" />
  <defs
     id="defs2" />
  <rect
     style="opacity:1;fill:#26c55c;fill-opacity:1;stroke-width:1.01905;stroke-linecap:round;stroke-linejoin:round"
     id="rect1303"
     width="42"
     height="27"
     x="3"
     y="13.000217" />
  <path
     id="rect603"
     style="opacity:1;fill:#248c43;fill-opacity:1;stroke-linecap:round;stroke-linejoin:round"
     d="M 3.0000001,14 V 28 H 17 V 14 Z M 17,28 V 42 H 31 V 28 Z" />
  <path
     id="rect966"
     style="opacity:1;fill:#32ae58;fill-opacity:1;stroke-linecap:round;stroke-linejoin:round"
     d="M 17,14 V 28 H 31 V 14 Z m 14,14 v 14 h 12 c 1.107998,0 2,-0.892002 2,-2 V 28 Z" />
  <path
     id="rect1107"
     style="opacity:1;fill:#27733e;fill-opacity:1;stroke-linecap:round;stroke-linejoin:round"
     d="m 3.0000001,28 v 12 c 0,1.107999 0.892001,2 2,2 H 17 V 28 Z" />
  <path
     id="rect1478"
     style="opacity:1;fill:#0faf3d;fill-opacity:1;stroke-width:1.21126;stroke-linecap:round;stroke-linejoin:round"
     d="M 5.0000001,6 H 43 c 1.108,0 2,0.892 2,2 v 6 H 3.0000001 V 8 c 0,-1.108 0.892,-2 2,-2 z"
     sodipodi:nodetypes="sssccss" />
</svg>
