<?xml version="1.0" encoding="UTF-8" standalone="no"?>
<!-- Created with Inkscape (http://www.inkscape.org/) -->

<svg
   width="48"
   height="48"
   viewBox="0 0 48 47.999998"
   version="1.1"
   id="svg5"
   inkscape:version="1.2.1 (9c6d41e410, 2022-07-14, custom)"
   sodipodi:docname="org.xfce.xfwm4-tweaks.svg"
   xmlns:inkscape="http://www.inkscape.org/namespaces/inkscape"
   xmlns:sodipodi="http://sodipodi.sourceforge.net/DTD/sodipodi-0.dtd"
   xmlns:xlink="http://www.w3.org/1999/xlink"
   xmlns="http://www.w3.org/2000/svg"
   xmlns:svg="http://www.w3.org/2000/svg">
  <sodipodi:namedview
     id="namedview7"
     pagecolor="#ffffff"
     bordercolor="#000000"
     borderopacity="0.25"
     inkscape:showpageshadow="2"
     inkscape:pageopacity="0.0"
     inkscape:pagecheckerboard="0"
     inkscape:deskcolor="#d1d1d1"
     inkscape:document-units="px"
     showgrid="false"
     inkscape:lockguides="true"
     inkscape:zoom="17.083333"
     inkscape:cx="23.970732"
     inkscape:cy="24"
     inkscape:window-width="1920"
     inkscape:window-height="1029"
     inkscape:window-x="0"
     inkscape:window-y="0"
     inkscape:window-maximized="1"
     inkscape:current-layer="svg5" />
  <defs
     id="defs2">
    <linearGradient
       inkscape:collect="always"
       id="linearGradient7209">
      <stop
         style="stop-color:#f6f5f4;stop-opacity:1"
         offset="0"
         id="stop7205" />
      <stop
         style="stop-color:#cccccc;stop-opacity:1"
         offset="1"
         id="stop7207" />
    </linearGradient>
    <linearGradient
       inkscape:collect="always"
       xlink:href="#linearGradient7209"
       id="linearGradient1711"
       x1="2.9999998"
       y1="14"
       x2="37"
       y2="42"
       gradientUnits="userSpaceOnUse" />
    <linearGradient
       inkscape:collect="always"
       id="linearGradient2484">
      <stop
         style="stop-color:#50e6ff;stop-opacity:1;"
         offset="0"
         id="stop2480" />
      <stop
         style="stop-color:#29b1eb;stop-opacity:1;"
         offset="1"
         id="stop2482" />
    </linearGradient>
    <linearGradient
       inkscape:collect="always"
       xlink:href="#linearGradient2484"
       id="linearGradient2645"
       x1="7"
       y1="10"
       x2="41"
       y2="38"
       gradientUnits="userSpaceOnUse" />
    <linearGradient
       inkscape:collect="always"
       id="linearGradient3875">
      <stop
         style="stop-color:#22a7e4;stop-opacity:1;"
         offset="0"
         id="stop3871" />
      <stop
         style="stop-color:#0b79c2;stop-opacity:1"
         offset="1"
         id="stop3873" />
    </linearGradient>
    <linearGradient
       inkscape:collect="always"
       xlink:href="#linearGradient3875"
       id="linearGradient4582"
       x1="11"
       y1="6"
       x2="45"
       y2="34"
       gradientUnits="userSpaceOnUse" />
    <linearGradient
       inkscape:collect="always"
       xlink:href="#linearGradient8250"
       id="linearGradient8252"
       x1="5.458415"
       y1="4.8895097"
       x2="12.337581"
       y2="11.768677"
       gradientUnits="userSpaceOnUse"
       gradientTransform="matrix(0.94488187,0,0,0.94488187,11.342462,19.879995)" />
    <linearGradient
       inkscape:collect="always"
       id="linearGradient8250">
      <stop
         style="stop-color:#0568ba;stop-opacity:1;"
         offset="0"
         id="stop8246" />
      <stop
         style="stop-color:#0568ba;stop-opacity:1"
         offset="0.23999999"
         id="stop9054" />
      <stop
         style="stop-color:#0f4c8a;stop-opacity:1"
         offset="0.80000001"
         id="stop8830" />
      <stop
         style="stop-color:#0f4c8f;stop-opacity:1"
         offset="1"
         id="stop8248" />
    </linearGradient>
    <linearGradient
       inkscape:collect="always"
       xlink:href="#linearGradient7024"
       id="linearGradient7026"
       x1="14.634075"
       y1="13.653037"
       x2="4.0507412"
       y2="3.0697033"
       gradientUnits="userSpaceOnUse"
       gradientTransform="matrix(0.839895,0,0,0.839895,12.153377,20.977337)" />
    <linearGradient
       inkscape:collect="always"
       id="linearGradient7024">
      <stop
         style="stop-color:#ffffff;stop-opacity:1;"
         offset="0"
         id="stop7020" />
      <stop
         style="stop-color:#f0f0f0;stop-opacity:1"
         offset="0.25"
         id="stop7732" />
      <stop
         style="stop-color:#cccccc;stop-opacity:1"
         offset="1"
         id="stop7022" />
    </linearGradient>
    <linearGradient
       inkscape:collect="always"
       xlink:href="#linearGradient6060"
       id="linearGradient6062"
       x1="1.0583334"
       y1="1.0583338"
       x2="15.345835"
       y2="13.229167"
       gradientUnits="userSpaceOnUse"
       gradientTransform="matrix(0.94488079,0,0,0.94488079,12.000007,20.008554)" />
    <linearGradient
       inkscape:collect="always"
       id="linearGradient6060">
      <stop
         style="stop-color:#8a8f97;stop-opacity:1;"
         offset="0"
         id="stop6056" />
      <stop
         style="stop-color:#8a8f97;stop-opacity:1"
         offset="0.14573747"
         id="stop6576" />
      <stop
         style="stop-color:#616e7a;stop-opacity:1"
         offset="0.89999998"
         id="stop6770" />
      <stop
         style="stop-color:#616e7a;stop-opacity:1"
         offset="1"
         id="stop6058" />
    </linearGradient>
  </defs>
  <rect
     style="fill:url(#linearGradient4582);stroke-width:2;stroke-linecap:round;fill-opacity:1"
     id="rect292"
     width="34"
     height="28"
     x="11"
     y="6"
     ry="2" />
  <rect
     style="fill:url(#linearGradient2645);stroke-width:2;stroke-linecap:round;fill-opacity:1"
     id="rect236"
     width="34"
     height="28"
     x="7"
     y="10"
     ry="2" />
  <rect
     style="fill:url(#linearGradient1711);fill-opacity:1;stroke-width:2;stroke-linecap:round"
     id="rect234"
     width="34"
     height="28"
     x="2.9999998"
     y="14"
     ry="2" />
  <path
     id="path5884"
     style="fill:url(#linearGradient6062);fill-opacity:1;stroke-width:0.249999"
     d="M 22.621094 20.443359 A 3 3 0 0 1 20 22 A 3 3 0 0 1 17.384766 20.458984 A 7.9999986 8 0 0 0 14.769531 21.947266 A 3 3 0 0 1 14.804688 25 A 3 3 0 0 1 12.162109 26.494141 A 7.9999986 8 0 0 0 12 28 A 7.9999986 8 0 0 0 12.162109 29.505859 A 3 3 0 0 1 12.205078 29.5 A 3 3 0 0 1 14.804688 31 A 3 3 0 0 1 14.769531 34.052734 A 7.9999986 8 0 0 0 17.384766 35.541016 A 3 3 0 0 1 20 34 A 3 3 0 0 1 22.617188 35.541016 A 7.9999986 8 0 0 0 25.234375 34.048828 A 3 3 0 0 1 25.195312 31 A 3 3 0 0 1 27.794922 29.5 A 3 3 0 0 1 27.837891 29.505859 A 7.9999986 8 0 0 0 28 28 A 7.9999986 8 0 0 0 27.855469 26.492188 A 3 3 0 0 1 25.195312 25 A 3 3 0 0 1 25.234375 21.953125 A 7.9999986 8 0 0 0 22.621094 20.443359 z " />
  <circle
     style="fill:url(#linearGradient7026);fill-opacity:1;stroke-width:0.222221"
     id="path6952"
     cx="20.000013"
     cy="28"
     r="4" />
  <circle
     style="fill:url(#linearGradient8252);fill-opacity:1;stroke-width:0.249999"
     id="path8010"
     cx="20.000013"
     cy="28"
     r="3" />
</svg>
