<?xml version="1.0" encoding="UTF-8" standalone="no"?>
<!-- Created with Inkscape (http://www.inkscape.org/) -->

<svg
   width="48"
   height="48"
   viewBox="0 0 48 48"
   version="1.1"
   id="svg1015"
   inkscape:version="1.1.2 (0a00cf5339, 2022-02-04)"
   sodipodi:docname="com.github.phase1geo.outliner.svg"
   xmlns:inkscape="http://www.inkscape.org/namespaces/inkscape"
   xmlns:sodipodi="http://sodipodi.sourceforge.net/DTD/sodipodi-0.dtd"
   xmlns:xlink="http://www.w3.org/1999/xlink"
   xmlns="http://www.w3.org/2000/svg"
   xmlns:svg="http://www.w3.org/2000/svg">
  <sodipodi:namedview
     id="namedview1017"
     pagecolor="#ffffff"
     bordercolor="#000000"
     borderopacity="0.25"
     inkscape:showpageshadow="2"
     inkscape:pageopacity="0.0"
     inkscape:pagecheckerboard="0"
     inkscape:deskcolor="#d1d1d1"
     inkscape:document-units="px"
     showgrid="false"
     inkscape:zoom="8.5416666"
     inkscape:cx="-7.5512196"
     inkscape:cy="21.6"
     inkscape:window-width="1920"
     inkscape:window-height="1030"
     inkscape:window-x="0"
     inkscape:window-y="24"
     inkscape:window-maximized="1"
     inkscape:current-layer="svg1015"
     inkscape:pageshadow="2"
     showguides="true"
     inkscape:guide-bbox="true" />
  <defs
     id="defs1012">
    <linearGradient
       inkscape:collect="always"
       xlink:href="#linearGradient1777"
       id="linearGradient1779"
       x1="0.5291667"
       y1="0.52916712"
       x2="4.7625003"
       y2="4.7625003"
       gradientUnits="userSpaceOnUse"
       gradientTransform="matrix(9.9212586,0,0,9.9212586,-2.2499999,-2.2499999)" />
    <linearGradient
       inkscape:collect="always"
       id="linearGradient1777">
      <stop
         style="stop-color:#ecf5ff;stop-opacity:1"
         offset="0"
         id="stop1773" />
      <stop
         style="stop-color:#dfe1e4;stop-opacity:1"
         offset="1"
         id="stop1775" />
    </linearGradient>
  </defs>
  <rect
     style="fill:url(#linearGradient1779);fill-opacity:1;stroke-width:2.625"
     id="rect1750"
     width="42"
     height="42"
     x="3"
     y="3"
     ry="3" />
  <path
     style="opacity:0.1;stroke-width:0.588751"
     d="m 12.441966,14.110264 c -0.40132,0 -0.724445,0.323125 -0.724445,0.724444 v 3.261148 c 0,0.401318 0.323125,0.724443 0.724445,0.724443 h 3.261146 c 0.40132,0 0.724444,-0.323125 0.724444,-0.724443 v -3.261148 c 0,-0.401319 -0.323124,-0.724444 -0.724444,-0.724444 z m 8.10687,1.177509 c -0.32617,0 -0.588754,0.262584 -0.588754,0.588754 v 1.177509 c 0,0.326169 0.262584,0.588754 0.588754,0.588754 h 16.485121 c 0.326169,0 0.588755,-0.262585 0.588755,-0.588754 v -1.177509 c 0,-0.32617 -0.262586,-0.588754 -0.588755,-0.588754 z m -6.476298,7.065052 a 2.3550173,2.3550173 0 0 0 -2.355017,2.355017 2.3550173,2.3550173 0 0 0 2.355017,2.355019 2.3550173,2.3550173 0 0 0 2.355018,-2.355019 2.3550173,2.3550173 0 0 0 -2.355018,-2.355017 z m 6.476298,1.177509 c -0.32617,0 -0.588754,0.262585 -0.588754,0.588755 v 1.177508 c 0,0.326171 0.262584,0.588754 0.588754,0.588754 h 16.485121 c 0.326169,0 0.588755,-0.262583 0.588755,-0.588754 v -1.177508 c 0,-0.32617 -0.262586,-0.588755 -0.588755,-0.588755 z m -8.743921,7.067352 a 0.0919177,0.10537791 89.999985 0 0 -0.08739,0.0897 l 0.0069,2.421712 0.0046,2.104335 a 0.0919177,0.10537791 89.999985 0 0 0.158681,0.08048 l 2.401013,-1.216606 2.08594,-1.055618 a 0.0919177,0.10537791 89.999985 0 0 0,-0.158679 l -2.407936,-1.207403 -2.090539,-1.048718 a 0.0919177,0.10537791 89.999985 0 0 -0.07129,-0.0091 z m 8.743921,1.175207 c -0.32617,0 -0.588754,0.262585 -0.588754,0.588757 v 1.177506 c 0,0.32617 0.262584,0.588757 0.588754,0.588757 h 16.485121 c 0.326169,0 0.588755,-0.262587 0.588755,-0.588757 V 32.36165 c 0,-0.326172 -0.262586,-0.588757 -0.588755,-0.588757 z"
     id="path6" />
  <rect
     style="fill:#3d3d3d;stroke-width:0.588751"
     width="4.7100348"
     height="4.7100348"
     x="11.717521"
     y="13.522644"
     rx="0.72416782"
     ry="0.72416782"
     id="rect8" />
  <circle
     style="fill:#3d3d3d;stroke-width:0.588751"
     cx="14.072538"
     cy="24.120224"
     r="2.3550174"
     id="circle10" />
  <path
     style="fill:#3d3d3d;stroke-width:0.588751"
     d="m 11.875396,30.019989 2.091379,1.048104 2.407897,1.206729 a 0.0919177,0.10537791 89.999985 0 1 3.86e-4,0.159214 l -2.086293,1.055786 -2.402045,1.215574 a 0.0919177,0.10537791 89.999985 0 1 -0.158256,-0.07931 l -0.0051,-2.103895 -0.0057,-2.422303 a 0.0919177,0.10537791 89.999985 0 1 0.157878,-0.07988 z"
     id="path12" />
  <rect
     style="fill:#6c6c6c;stroke-width:0.588751"
     width="17.66263"
     height="2.3550174"
     x="19.960081"
     y="14.700152"
     rx="0.58875436"
     ry="0.58875436"
     id="rect14" />
  <rect
     style="fill:#6c6c6c;stroke-width:0.588751"
     width="17.66263"
     height="2.3550174"
     x="19.960081"
     y="22.942715"
     rx="0.58875436"
     ry="0.58875436"
     id="rect16" />
  <rect
     style="fill:#6c6c6c;stroke-width:0.588751"
     width="17.66263"
     height="2.3550174"
     x="19.960081"
     y="31.185274"
     rx="0.58875436"
     ry="0.58875436"
     id="rect18" />
</svg>
