<?xml version="1.0" encoding="UTF-8" standalone="no"?>
<svg
   width="48"
   height="48"
   version="1.1"
   viewBox="0 0 48 48"
   id="svg6"
   sodipodi:docname="disk-utility.svg"
   inkscape:version="1.2.1 (9c6d41e410, 2022-07-14, custom)"
   xmlns:inkscape="http://www.inkscape.org/namespaces/inkscape"
   xmlns:sodipodi="http://sodipodi.sourceforge.net/DTD/sodipodi-0.dtd"
   xmlns:xlink="http://www.w3.org/1999/xlink"
   xmlns="http://www.w3.org/2000/svg"
   xmlns:svg="http://www.w3.org/2000/svg"
   xmlns:rdf="http://www.w3.org/1999/02/22-rdf-syntax-ns#"
   xmlns:cc="http://creativecommons.org/ns#"
   xmlns:dc="http://purl.org/dc/elements/1.1/">
  <defs
     id="defs10">
    <linearGradient
       inkscape:collect="always"
       id="linearGradient58462">
      <stop
         style="stop-color:#636363;stop-opacity:1;"
         offset="0"
         id="stop58458" />
      <stop
         style="stop-color:#ababab;stop-opacity:0.99607843"
         offset="1"
         id="stop58460" />
    </linearGradient>
    <linearGradient
       inkscape:collect="always"
       id="linearGradient50927">
      <stop
         style="stop-color:#000000;stop-opacity:1;"
         offset="0"
         id="stop50923" />
      <stop
         style="stop-color:#000000;stop-opacity:0;"
         offset="1"
         id="stop50925" />
    </linearGradient>
    <linearGradient
       inkscape:collect="always"
       id="linearGradient50337">
      <stop
         style="stop-color:#ffffff;stop-opacity:1;"
         offset="0"
         id="stop50333" />
      <stop
         style="stop-color:#ffffff;stop-opacity:0;"
         offset="1"
         id="stop50335" />
    </linearGradient>
    <linearGradient
       inkscape:collect="always"
       id="linearGradient48004">
      <stop
         style="stop-color:#ffffff;stop-opacity:0"
         offset="0"
         id="stop48000" />
      <stop
         style="stop-color:#ffffff;stop-opacity:1"
         offset="0.50032598"
         id="stop48328" />
      <stop
         style="stop-color:#ffffff;stop-opacity:0;"
         offset="1"
         id="stop48002" />
    </linearGradient>
    <linearGradient
       inkscape:collect="always"
       id="linearGradient10484">
      <stop
         style="stop-color:#2e2e2e;stop-opacity:1;"
         offset="0"
         id="stop10480" />
      <stop
         style="stop-color:#616161;stop-opacity:1"
         offset="1"
         id="stop10482" />
    </linearGradient>
    <linearGradient
       inkscape:collect="always"
       xlink:href="#linearGradient10484"
       id="linearGradient10486"
       x1="8.9135923"
       y1="13.009702"
       x2="8.9135923"
       y2="19.269016"
       gradientUnits="userSpaceOnUse"
       gradientTransform="matrix(1.8857359,0,0,1.9171434,7.1913167,-2.9419223)" />
    <linearGradient
       inkscape:collect="always"
       xlink:href="#linearGradient48004"
       id="linearGradient48006"
       x1="0.54178363"
       y1="10.597012"
       x2="3.0651259"
       y2="13.265047"
       gradientUnits="userSpaceOnUse"
       gradientTransform="matrix(2.8347014,0,0,2.8347014,1.246292e-6,-1.2504557)" />
    <radialGradient
       inkscape:collect="always"
       xlink:href="#linearGradient50337"
       id="radialGradient50339"
       cx="3.5557096"
       cy="10.338881"
       fx="3.5557096"
       fy="10.338881"
       r="0.66144532"
       gradientUnits="userSpaceOnUse"
       gradientTransform="matrix(3.0236813,0,0,3.0236813,-1.5999994,-2.8004548)" />
    <linearGradient
       inkscape:collect="always"
       xlink:href="#linearGradient50927"
       id="linearGradient50929"
       x1="0.81698829"
       y1="6.6935077"
       x2="2.7050784"
       y2="7.9747996"
       gradientUnits="userSpaceOnUse"
       gradientTransform="matrix(2.8263539,0,0,2.8263539,0.01325215,-1.1819908)" />
    <linearGradient
       inkscape:collect="always"
       xlink:href="#linearGradient50927"
       id="linearGradient51339"
       gradientUnits="userSpaceOnUse"
       x1="0.81698829"
       y1="6.6935077"
       x2="2.7050784"
       y2="7.9747996"
       gradientTransform="matrix(-2.8263539,0,0,2.8263539,47.871904,-1.1819908)" />
    <linearGradient
       inkscape:collect="always"
       xlink:href="#linearGradient58462"
       id="linearGradient58464"
       x1="9.5248117"
       y1="8.3342104"
       x2="9.5248108"
       y2="12.787942"
       gradientUnits="userSpaceOnUse"
       gradientTransform="matrix(2.8347014,0,0,2.8347014,1.246292e-6,-1.2504557)" />
    <linearGradient
       inkscape:collect="always"
       xlink:href="#linearGradient48004"
       id="linearGradient71108"
       gradientUnits="userSpaceOnUse"
       x1="0.54178363"
       y1="10.597012"
       x2="3.0651259"
       y2="13.265047"
       gradientTransform="matrix(-2.8347014,0,0,2.8347014,47.999995,-1.2504557)" />
    <filter
       inkscape:collect="always"
       style="color-interpolation-filters:sRGB"
       id="filter1734"
       x="-0.26507999"
       y="-0.26507999"
       width="1.53016"
       height="1.53016">
      <feGaussianBlur
         inkscape:collect="always"
         stdDeviation="0.11689062"
         id="feGaussianBlur1736" />
    </filter>
    <linearGradient
       inkscape:collect="always"
       xlink:href="#linearGradient6060"
       id="linearGradient6062"
       x1="1.0583334"
       y1="1.0583338"
       x2="15.345835"
       y2="13.229167"
       gradientUnits="userSpaceOnUse"
       gradientTransform="matrix(1.4173213,0,0,1.4173213,24.000001,22.012542)" />
    <linearGradient
       inkscape:collect="always"
       id="linearGradient6060">
      <stop
         style="stop-color:#8a8f97;stop-opacity:1;"
         offset="0"
         id="stop6056" />
      <stop
         style="stop-color:#8a8f97;stop-opacity:1"
         offset="0.14573747"
         id="stop6576" />
      <stop
         style="stop-color:#616e7a;stop-opacity:1"
         offset="0.89999998"
         id="stop6770" />
      <stop
         style="stop-color:#616e7a;stop-opacity:1"
         offset="1"
         id="stop6058" />
    </linearGradient>
    <linearGradient
       inkscape:collect="always"
       xlink:href="#linearGradient7024"
       id="linearGradient7026"
       x1="14.634075"
       y1="13.653037"
       x2="4.0507412"
       y2="3.0697033"
       gradientUnits="userSpaceOnUse"
       gradientTransform="matrix(1.2598425,0,0,1.2598425,24.230047,23.465715)" />
    <linearGradient
       inkscape:collect="always"
       id="linearGradient7024">
      <stop
         style="stop-color:#ffffff;stop-opacity:1;"
         offset="0"
         id="stop7020" />
      <stop
         style="stop-color:#f0f0f0;stop-opacity:1"
         offset="0.25"
         id="stop7732" />
      <stop
         style="stop-color:#cccccc;stop-opacity:1"
         offset="1"
         id="stop7022" />
    </linearGradient>
    <linearGradient
       inkscape:collect="always"
       xlink:href="#linearGradient8250"
       id="linearGradient8252"
       x1="5.458415"
       y1="4.8895097"
       x2="12.337581"
       y2="11.768677"
       gradientUnits="userSpaceOnUse"
       gradientTransform="matrix(1.2598425,0,0,1.2598425,24.456599,23.173037)" />
    <linearGradient
       inkscape:collect="always"
       id="linearGradient8250">
      <stop
         style="stop-color:#0568ba;stop-opacity:1;"
         offset="0"
         id="stop8246" />
      <stop
         style="stop-color:#0568ba;stop-opacity:1"
         offset="0.23999999"
         id="stop9054" />
      <stop
         style="stop-color:#0f4c8a;stop-opacity:1"
         offset="0.80000001"
         id="stop8830" />
      <stop
         style="stop-color:#0f4c8f;stop-opacity:1"
         offset="1"
         id="stop8248" />
    </linearGradient>
  </defs>
  <sodipodi:namedview
     id="namedview8"
     pagecolor="#ffffff"
     bordercolor="#666666"
     borderopacity="1.0"
     inkscape:pageshadow="2"
     inkscape:pageopacity="0.0"
     inkscape:pagecheckerboard="0"
     showgrid="false"
     inkscape:zoom="16.854167"
     inkscape:cx="23.970334"
     inkscape:cy="24"
     inkscape:window-width="1920"
     inkscape:window-height="1012"
     inkscape:window-x="0"
     inkscape:window-y="0"
     inkscape:window-maximized="1"
     inkscape:current-layer="svg6"
     inkscape:showpageshadow="2"
     inkscape:deskcolor="#d1d1d1" />
  <metadata
     id="metadata2">
    <rdf:RDF>
      <cc:Work
         rdf:about="">
        <dc:format>image/svg+xml</dc:format>
        <dc:type
           rdf:resource="http://purl.org/dc/dcmitype/StillImage" />
      </cc:Work>
    </rdf:RDF>
  </metadata>
  <path
     id="rect31485"
     style="opacity:1;fill:#e1e3e6;fill-opacity:1;stroke-width:1.49558;stroke-linecap:round;stroke-linejoin:round;stroke-dasharray:17.947, 1.49558"
     d="m 13.441365,13.026048 c -0.666201,-0.0037 -1.186294,0.20391 -1.431318,0.44546 l -8.5674704,8.966195 1.0574233,-0.438158 h 8.9734971 20.93816 8.973493 l 1.057423,0.438158 -8.567465,-8.966195 c -0.245032,-0.241554 -0.765116,-0.449133 -1.43132,-0.44546 z"
     sodipodi:nodetypes="ccccccccccc" />
  <path
     id="rect31485-9"
     style="opacity:0.3;fill:url(#linearGradient50929);fill-opacity:1;stroke-width:1.49558;stroke-linecap:round;stroke-linejoin:round;stroke-dasharray:17.947, 1.49558"
     d="m 13.441365,13.026048 c -0.666201,-0.0037 -1.186294,0.20391 -1.431318,0.44546 l -8.5674704,8.966195 1.0574233,-0.438158 h 8.9734971 20.93816 8.973493 l 1.057423,0.438158 -8.567465,-8.966195 c -0.245032,-0.241554 -0.765116,-0.449133 -1.43132,-0.44546 z"
     sodipodi:nodetypes="ccccccccccc" />
  <path
     id="rect31485-9-0"
     style="opacity:0.3;fill:url(#linearGradient51339);fill-opacity:1;stroke-width:1.49558;stroke-linecap:round;stroke-linejoin:round;stroke-dasharray:17.947, 1.49558"
     d="m 34.443788,13.026048 c 0.666204,-0.0037 1.186292,0.20391 1.43132,0.44546 l 8.567465,8.966195 -1.057423,-0.438158 H 34.411654 13.473496 4.4999999 l -1.0574233,0.438158 8.5674704,-8.966195 c 0.245016,-0.241554 0.765113,-0.449133 1.431319,-0.44546 z"
     sodipodi:nodetypes="ccccccccccc" />
  <path
     id="rect849"
     style="fill:url(#linearGradient58464);fill-opacity:1;stroke-width:1.5;stroke-linecap:round;stroke-linejoin:round;stroke-dasharray:18, 1.5"
     d="M 4.4999999,21.999545 C 3.6689993,21.999545 3,22.668542 3,23.499544 v 9.499999 a 1.9999999,2.0000017 0 0 0 1.9999997,1.999998 H 42.999997 A 1.9999999,2.0000017 0 0 0 45,32.999543 v -9.499999 c 0,-0.831002 -0.669001,-1.499999 -1.500003,-1.499999 z" />
  <path
     id="rect849-5"
     style="opacity:0.4;fill:url(#linearGradient48006);fill-opacity:1;stroke-width:1.5;stroke-linecap:round;stroke-linejoin:round;stroke-dasharray:18, 1.5"
     d="M 4.4999999,21.999545 C 3.6689993,21.999545 3,22.668546 3,23.499544 v 9.499999 a 1.9999999,2.0000017 0 0 0 1.9999997,1.999998 H 42.999997 A 1.9999999,2.0000017 0 0 0 45,32.999543 v -9.499999 c 0,-0.830998 -0.669001,-1.499999 -1.500003,-1.499999 z" />
  <path
     id="rect849-5-8"
     style="opacity:0.4;fill:url(#linearGradient71108);fill-opacity:1;stroke-width:1.5;stroke-linecap:round;stroke-linejoin:round;stroke-dasharray:18, 1.5"
     d="M 4.4999999,21.999545 C 3.6689997,21.999545 3,22.668546 3,23.499544 v 9.499999 a 1.9999999,2.0000017 0 0 0 1.9999997,1.999998 H 42.999997 A 1.9999999,2.0000017 0 0 0 45,32.999543 v -9.499999 c 0,-0.830998 -0.669001,-1.499999 -1.500003,-1.499999 z" />
  <path
     id="rect1094"
     style="fill:url(#linearGradient10486);stroke-width:1.00613;stroke-linecap:round;stroke-linejoin:round;stroke-dasharray:12.0735, 1.00613"
     d="m 4.472656,21.999545 a 0.49999999,0.49999999 0 0 0 -0.4726562,0.472654 v 10.527344 c 0,0.554002 0.446001,0.999999 0.9999999,0.999999 H 42.999997 c 0.553999,0 1,-0.445997 1,-0.999999 V 22.472199 a 0.49999999,0.49999999 0 0 0 -0.472655,-0.472654 z" />
  <circle
     style="opacity:1;fill:#12ff12;fill-opacity:1;stroke-width:0.458;stroke-linecap:round;stroke-linejoin:round;stroke-dasharray:5.49599, 0.458;filter:url(#filter1734)"
     id="path25907"
     cx="4.852047"
     cy="16.987673"
     r="0.52915627"
     transform="matrix(3.7796017,0,0,3.7796017,-8.3388051,-36.207093)" />
  <circle
     style="fill:#12ff12;fill-opacity:1;stroke-width:1.6;stroke-linecap:round;stroke-linejoin:round;stroke-dasharray:19.2, 1.6"
     id="path30449"
     cx="10"
     cy="27.999544"
     r="1.9999999" />
  <circle
     style="opacity:0.7;fill:url(#radialGradient50339);fill-opacity:1;stroke-width:1.6;stroke-linecap:round;stroke-linejoin:round;stroke-dasharray:19.2, 1.6"
     id="path50091"
     cx="10"
     cy="27.999544"
     r="1.9999999" />
  <path
     id="path49923"
     style="opacity:0.2;fill:#000000;fill-opacity:1;stroke-width:1.33333;stroke-linecap:round;stroke-linejoin:round;stroke-dasharray:16, 1.33333"
     d="m 10.857881,26.786002 a 1.4999998,1.4999998 0 0 1 0.28646,0.880209 1.4999998,1.4999998 0 0 1 -1.5,1.499995 1.4999998,1.4999998 0 0 1 -0.880208,-0.286456 1.4999998,1.4999998 0 0 0 1.2135413,0.619791 1.4999998,1.4999998 0 0 0 1.4999997,-1.5 1.4999998,1.4999998 0 0 0 -0.619793,-1.213539 z" />
  <path
     id="path5884"
     style="fill:url(#linearGradient6062);fill-opacity:1;stroke-width:0.374999"
     d="m 32.270499,22.608 c -1.575874,0.516654 -3.027551,1.354342 -4.263423,2.460203 0.674586,1.350272 0.627278,2.948815 -0.125977,4.256831 -0.756811,1.286907 -2.102604,2.114686 -3.592525,2.209714 -0.182009,0.813659 -0.278723,1.644071 -0.288574,2.47778 0.01124,0.834108 0.109429,1.66477 0.292966,2.478512 1.488184,0.09629 2.832003,0.923594 3.58813,2.208987 0.75058,1.30255 0.801141,2.89388 0.134763,4.24145 1.230552,1.099666 2.6747,1.933691 4.242183,2.449946 0.834134,-1.251241 2.23815,-2.003127 3.741939,-2.003902 1.504428,-1.21e-4 2.909402,0.751562 3.744134,2.003172 1.575525,-0.518453 3.026464,-1.357893 4.261232,-2.465332 -0.667143,-1.339694 -0.624588,-2.923401 0.113537,-4.225334 0.755953,-1.285672 2.099802,-2.113269 3.588129,-2.209716 0.183495,-0.813503 0.281688,-1.643918 0.292989,-2.477783 -0.0099,-0.83371 -0.106586,-1.664122 -0.288605,-2.47778 -1.489919,-0.09503 -2.83571,-0.922808 -3.59252,-2.209714 -0.741996,-1.307431 -0.782115,-2.89903 -0.106931,-4.242183 -1.240144,-1.113383 -2.698611,-1.956235 -4.282473,-2.474851 -0.825798,1.257344 -2.225244,2.018905 -3.729486,2.029539 -1.504243,-0.01063 -2.903689,-0.772194 -3.729488,-2.029539 z"
     sodipodi:nodetypes="ccccccccccccccccccccc" />
  <circle
     style="fill:url(#linearGradient7026);fill-opacity:1;stroke-width:0.333332"
     id="path6952"
     cx="36"
     cy="33.99971"
     r="6" />
  <circle
     style="fill:url(#linearGradient8252);fill-opacity:1;stroke-width:0.333333"
     id="path8010"
     cx="36"
     cy="33.99971"
     r="4" />
</svg>
