<?xml version="1.0" encoding="UTF-8" standalone="no"?>
<svg
   version="1.1"
   id="svg2"
   viewBox="0 0 64 64"
   inkscape:version="1.1.2 (0a00cf5339, 2022-02-04)"
   sodipodi:docname="xfce-filemanager.svg"
   width="64"
   height="64"
   xmlns:inkscape="http://www.inkscape.org/namespaces/inkscape"
   xmlns:sodipodi="http://sodipodi.sourceforge.net/DTD/sodipodi-0.dtd"
   xmlns="http://www.w3.org/2000/svg"
   xmlns:svg="http://www.w3.org/2000/svg"
   xmlns:rdf="http://www.w3.org/1999/02/22-rdf-syntax-ns#"
   xmlns:cc="http://creativecommons.org/ns#"
   xmlns:dc="http://purl.org/dc/elements/1.1/">
  <sodipodi:namedview
     pagecolor="#c8c8c8"
     bordercolor="#666666"
     borderopacity="1"
     objecttolerance="10"
     gridtolerance="10"
     guidetolerance="10"
     inkscape:pageopacity="0"
     inkscape:pageshadow="2"
     inkscape:window-width="1920"
     inkscape:window-height="1054"
     id="namedview12"
     showgrid="true"
     inkscape:zoom="1.84375"
     inkscape:cx="-152.67797"
     inkscape:cy="5.4237288"
     inkscape:window-x="0"
     inkscape:window-y="0"
     inkscape:window-maximized="1"
     inkscape:current-layer="svg2"
     inkscape:pagecheckerboard="0"
     inkscape:lockguides="true"
     inkscape:snap-bbox="true"
     inkscape:bbox-nodes="true">
    <inkscape:grid
       type="xygrid"
       id="grid818" />
  </sodipodi:namedview>
  <metadata
     id="metadata18">
    <rdf:RDF>
      <cc:Work
         rdf:about="">
        <dc:format>image/svg+xml</dc:format>
        <dc:type
           rdf:resource="http://purl.org/dc/dcmitype/StillImage" />
      </cc:Work>
    </rdf:RDF>
  </metadata>
  <defs
     id="defs3051">
    <style
       type="text/css"
       id="current-color-scheme">
      .ColorScheme-Text {
        color:#31363b;
      }
      .ColorScheme-Background {
        color:#eff0f1;
      }
      .ColorScheme-Highlight {
        color:#3daee9;
      }
      .ColorScheme-ViewText {
        color:#31363b;
      }
      .ColorScheme-ViewBackground {
        color:#fcfcfc;
      }
      .ColorScheme-ViewHover {
        color:#93cee9;
      }
      .ColorScheme-ViewFocus{
        color:#3daee9;
      }
      .ColorScheme-ButtonText {
        color:#31363b;
      }
      .ColorScheme-ButtonBackground {
        color:#eff0f1;
      }
      .ColorScheme-ButtonHover {
        color:#93cee9;
      }
      .ColorScheme-ButtonFocus{
        color:#3daee9;
      }
      </style>
  </defs>
  <path
     id="path1277"
     style="fill:#000000;fill-opacity:0.05882771;stroke:none;stroke-width:0.442465;stroke-linecap:round;stroke-opacity:0.992157"
     d="m 21.103515,3.047691 -9.828125,0.008 c -3.7581568,0.00285 -6.7636718,2.3329227 -6.7636718,7.234436 -0.00306,0.08194 -0.011719,7.719898 -0.011719,7.802627 v 13.986709 c -2.7e-6,0.0036 0,0.0064 0,0.01004 v 1.456491 13.290475 1.514509 c 0,7.754552 6.0938068,13.996713 13.6640628,13.996713 H 48.53125 c 6.233219,0 11.457351,-4.235568 13.111328,-10.059388 0.346437,-0.788627 0.544922,-1.660978 0.544922,-2.584869 V 48.55105 c 9.23e-4,-0.06736 0.0098,-0.132473 0.0098,-0.200068 v -16.26148 c 0,-0.06979 -0.0088,-0.136527 -0.0098,-0.206069 V 18.09279 c 0,-0.217913 -0.0123,-0.434138 -0.0332,-0.646218 C 61.92432,15.113047 60.461145,13.16584 58.437504,12.292837 58.253615,12.213447 58.065671,12.14187 57.87305,12.080766 57.680425,12.019626 57.483542,11.968454 57.283203,11.92668 56.882524,11.84313 56.468436,11.798637 56.042968,11.798637 H 32 C 32,9.4584696 26.127801,3.0476909 21.103515,3.047691 Z" />
  <path
     id="path1275"
     style="fill:none;fill-opacity:1;stroke:#000000;stroke-width:2;stroke-linecap:round;stroke-opacity:0.03785348;stroke-miterlimit:4;stroke-dasharray:none"
     d="M 19.720703 3.1210938 L 9.8925781 3.1289062 C 6.1344212 3.1316963 3.1289062 5.406384 3.1289062 10.191406 C 3.1258462 10.271396 3.1171875 17.727831 3.1171875 17.808594 L 3.1171875 31.462891 C 3.1171848 31.466491 3.1171875 31.469076 3.1171875 31.472656 L 3.1171875 32.894531 L 3.1171875 45.869141 L 3.1171875 47.347656 C 3.1171875 54.917911 9.210994 61.011719 16.78125 61.011719 L 47.148438 61.011719 C 53.381657 61.011719 58.605789 56.876815 60.259766 51.191406 C 60.606203 50.421521 60.804688 49.569903 60.804688 48.667969 L 60.804688 47.542969 C 60.805611 47.477208 60.814453 47.413645 60.814453 47.347656 L 60.814453 31.472656 C 60.814453 31.404526 60.805628 31.339374 60.804688 31.271484 L 60.804688 17.808594 C 60.804688 15.256417 59.262433 13.076978 57.056641 12.146484 C 57.056081 12.146249 57.055247 12.14672 57.054688 12.146484 C 56.686911 11.991466 56.301069 11.870626 55.900391 11.789062 C 55.499712 11.707499 55.085624 11.664062 54.660156 11.664062 L 30.617188 11.664062 C 30.617188 9.3795123 24.744989 3.1210937 19.720703 3.1210938 z " />
  <path
     id="path1214"
     style="fill:none;fill-opacity:1;stroke:#000000;stroke-width:1;stroke-linecap:round;stroke-opacity:0.03785348;stroke-miterlimit:4;stroke-dasharray:none"
     d="M 19.720703 3.1210938 L 9.8925781 3.1289062 C 6.1344212 3.1316963 3.1289062 5.406384 3.1289062 10.191406 C 3.1258462 10.271396 3.1171875 17.727831 3.1171875 17.808594 L 3.1171875 31.462891 C 3.1171848 31.466491 3.1171875 31.469076 3.1171875 31.472656 L 3.1171875 32.894531 L 3.1171875 45.869141 L 3.1171875 47.347656 C 3.1171875 54.917911 9.210994 61.011719 16.78125 61.011719 L 47.148438 61.011719 C 53.381657 61.011719 58.605789 56.876815 60.259766 51.191406 C 60.606203 50.421521 60.804688 49.569903 60.804688 48.667969 L 60.804688 47.542969 C 60.805611 47.477208 60.814453 47.413645 60.814453 47.347656 L 60.814453 31.472656 C 60.814453 31.404526 60.805628 31.339374 60.804688 31.271484 L 60.804688 17.808594 C 60.804688 15.256417 59.262433 13.076978 57.056641 12.146484 C 57.056081 12.146249 57.055247 12.14672 57.054688 12.146484 C 56.686911 11.991466 56.301069 11.870626 55.900391 11.789062 C 55.499712 11.707499 55.085624 11.664062 54.660156 11.664062 L 30.617188 11.664062 C 30.617188 9.3795123 24.744989 3.1210937 19.720703 3.1210938 z " />
  <path
     id="path1286"
     style="fill:#e2ae4b;fill-opacity:1;stroke:none;stroke-width:0.437175;stroke-linecap:round;stroke-opacity:0.992157"
     d="m 30.617218,11.664769 c 0,-2.2845502 -5.871889,-8.5432692 -10.896175,-8.5432692 l -9.8282171,0.0073 c -3.7581569,0.00279 -6.7644661,2.2784349 -6.7644661,7.0634572 -0.00306,0.07999 -0.011749,7.535265 -0.011749,7.616028 V 32.894874 45.86923 l 1.1020303,2.798517 C 4.8393637,50.24402 4.898437,51.890694 6,53 c 2.5372916,4.741737 6.428374,7.955278 12.202664,7.955278 h 27.514485 c 5.77429,0 10.767935,-3.213541 13.305227,-7.955278 1.101563,-1.109306 1.781359,-2.638167 1.781359,-4.332258 V 45.869214 32.894858 17.808269 c 0,-3.403739 -2.740294,-6.1435 -6.144036,-6.1435 z"
     sodipodi:nodetypes="ccscsccscsscsccssc" />
  <path
     id="path7427"
     style="fill:#171308;fill-opacity:0.0342865;stroke:none;stroke-width:0.437175;stroke-linecap:round;stroke-opacity:0.992157"
     d="m 30.670925,11.664971 c -0.106039,2.972338 -2.526928,5.335005 -5.526056,5.335005 H 3.1174906 c -1.776e-4,0.157126 -0.00109,0.799924 -0.00109,0.808495 V 32.89506 45.869416 l 1.1020084,2.798518 c 0.6207226,1.576277 0.6797959,3.222951 1.7813589,4.332257 1.1732078,2.192509 2.6404348,4.051685 4.4448601,5.424127 2.195055,1.244964 4.732016,1.961737 7.446167,1.961737 h 27.514476 c 5.77429,0 10.767936,-3.213544 13.305227,-7.955281 1.101563,-1.109307 1.781359,-2.638167 1.781359,-4.332258 V 45.300002 32.325642 17.239056 c 0,-0.959134 -0.223929,-1.861597 -0.61264,-2.668837 -1.081579,-1.744508 -3.007705,-2.905248 -5.219736,-2.905248 z" />
  <path
     id="path7902"
     style="fill:#171308;fill-opacity:0.0342865;stroke:none;stroke-width:0.437175;stroke-linecap:round;stroke-opacity:0.992157"
     d="m 30.466601,11.095351 v 0.368227 c 0,3.067049 -2.254617,5.031352 -5.321664,5.031352 H 3.1186245 c -5.465e-4,0.376897 -0.00219,1.299412 -0.00219,1.313339 v 15.086589 l 5.7314438,10.710031 v 2.798517 c 0,0.957441 0.2233527,1.858589 0.611042,2.664567 0.2462387,0.397521 0.5309953,0.768305 0.8586607,1.098274 2.537292,4.741737 1.798961,10.219606 7.57325,10.219606 h 27.514477 c 5.77429,0 10.767936,-3.213544 13.305227,-7.955281 1.101563,-1.109307 1.781359,-2.638167 1.781359,-4.332255 V 45.2998 32.32544 17.238854 c 0,-0.958918 -0.224093,-1.861198 -0.612643,-2.668304 -1.081576,-1.744506 -3.007703,-2.905781 -5.219733,-2.905781 H 30.617041 c 0,-0.167949 -0.0406,-0.362577 -0.101395,-0.569418 z"
     sodipodi:nodetypes="csscsccsccsscsccscsccc" />
  <path
     id="path8284"
     style="fill:#171308;fill-opacity:0.0342865;stroke:none;stroke-width:0.437175;stroke-linecap:round;stroke-opacity:0.992157"
     d="m 30.465532,10.954466 c -0.0096,3.055781 -2.260106,5.011608 -5.320595,5.011608 H 3.1191601 c -8.198e-4,0.673752 -0.00273,1.822661 -0.00273,1.842195 v 15.086589 12.974356 2.798518 c 0,0.385082 0.040048,0.759935 0.1072663,1.124957 0.3083585,0.79656 0.7719578,1.514931 1.3624362,2.10956 2.5372916,4.741737 7.5304044,7.955278 13.3046934,7.955278 h 27.514477 c 5.77429,0 10.767936,-3.213541 13.305227,-7.955278 1.101563,-1.109307 1.781359,-2.638167 1.781359,-4.332258 V 44.771474 31.797117 16.710531 c 0,-0.385331 -0.03951,-0.760725 -0.106733,-1.126026 -0.888184,-2.296722 -3.107936,-3.919736 -5.725643,-3.919736 H 30.61703 c 0,-0.204502 -0.06228,-0.449449 -0.151561,-0.710303 z" />
  <path
     id="path8366"
     style="fill:#171308;fill-opacity:0.0342865;stroke:none;stroke-width:0.437175;stroke-linecap:round;stroke-opacity:0.992157"
     d="m 30.442586,10.888824 c -0.244525,2.762309 -2.410642,4.503565 -5.297649,4.503565 H 3.1202257 c -0.00137,1.03894 -0.00374,2.390261 -0.00374,2.41588 v 15.086589 12.974356 2.798518 c 0,0.100563 0.010219,0.198436 0.014946,0.297781 0.3028965,0.898725 0.8022103,1.705381 1.4547593,2.362517 2.5372916,4.741738 7.530404,7.955279 13.304694,7.955279 h 27.514477 c 5.774289,0 10.767935,-3.213541 13.305227,-7.955279 1.101563,-1.109306 1.781359,-2.638167 1.781359,-4.332257 V 44.197256 31.222899 16.13631 c 0,-0.101318 -0.01014,-0.19983 -0.01495,-0.299915 -0.818703,-2.429389 -3.104912,-4.171626 -5.817434,-4.171626 h -24.04248 c 0,-0.2215 -0.07024,-0.489054 -0.174506,-0.775945 z" />
  <path
     id="path8448"
     style="opacity:0.656608;fill:#171308;fill-opacity:0.0342865;stroke:none;stroke-width:0.437175;stroke-linecap:round;stroke-opacity:0.992157"
     d="m 30.383349,10.721255 c -0.422964,2.508884 -2.505954,4.070232 -5.238412,4.070232 H 3.121294 c -0.00191,1.429485 -0.00481,2.984792 -0.00481,3.016782 0,-0.08076 0.00869,-0.159091 0.011749,-0.23908 h 21.952666 c 0.19169,0 0.381252,-0.0095 0.567817,-0.02828 1.67906,-0.1695 3.131748,-1.083455 4.025401,-2.408412 0.19859,-0.294434 0.36941,-0.608916 0.509112,-0.940308 0.279404,-0.662787 0.433866,-1.392429 0.433866,-2.159193 v -0.368224 c 0,-0.264942 -0.08628,-0.587634 -0.233743,-0.943514 z m 24.852577,0.972332 c 0.06145,0.0057 0.121627,0.01492 0.182512,0.0224 -0.0609,-0.0075 -0.121062,-0.01675 -0.182512,-0.0224 z m 0.56248,0.08005 c 0.06824,0.01271 0.135904,0.02618 0.203324,0.04109 -0.06742,-0.01492 -0.135084,-0.02839 -0.203324,-0.04109 z m 0.565679,0.133948 c 0.06137,0.01749 0.123062,0.03396 0.183578,0.05336 -0.06052,-0.0194 -0.122239,-0.03579 -0.183578,-0.05336 z m 0.61798,0.211863 c 0.04744,0.01929 0.09459,0.03881 0.141418,0.05924 -0.04684,-0.02044 -0.09397,-0.03995 -0.141418,-0.05924 z m 0.547534,0.254023 c 0.07154,0.0377 0.14045,0.07913 0.210262,0.11954 -0.06981,-0.04041 -0.138727,-0.08184 -0.210262,-0.11954 z m 0.464285,0.273767 c 0.07216,0.04658 0.142915,0.09461 0.212931,0.144088 -0.07002,-0.04948 -0.140773,-0.09751 -0.212931,-0.144088 z m 0.424262,0.30152 c 0.07574,0.05851 0.151306,0.116821 0.224137,0.178774 -0.07283,-0.06195 -0.148419,-0.120231 -0.224137,-0.178774 z m 0.375161,0.315927 c 0.162487,0.147792 0.316919,0.303678 0.462684,0.46802 -0.145767,-0.164353 -0.300194,-0.320222 -0.462684,-0.46802 z m 0.544868,0.558742 c 0.07412,0.087 0.143169,0.177854 0.212398,0.268964 -0.06923,-0.09111 -0.138281,-0.181966 -0.212398,-0.268964 z m 0.323933,0.417857 c 0.06512,0.09135 0.127174,0.184635 0.187315,0.279636 -0.06016,-0.09501 -0.122179,-0.188285 -0.187315,-0.279636 z m 0.273234,0.421057 c 0.06298,0.10561 0.124778,0.211614 0.181444,0.321263 -0.05666,-0.109646 -0.118496,-0.215631 -0.181444,-0.321263 z m 0.210795,0.382634 c 0.132852,0.264223 0.2479,0.538291 0.342078,0.822905 -0.09418,-0.28461 -0.209235,-0.55868 -0.342078,-0.822905 z" />
  <path
     id="path8450"
     style="fill:#171308;fill-opacity:0.0342865;stroke:none;stroke-width:0.437175;stroke-linecap:round;stroke-opacity:0.992157"
     d="m 55.235926,11.693587 c 0.06145,0.0057 0.121611,0.01497 0.182512,0.0224 -0.0609,-0.0075 -0.121062,-0.01675 -0.182512,-0.0224 z m 0.56248,0.08005 c 0.06696,0.01246 0.13342,0.02544 0.199586,0.04002 -0.06616,-0.01459 -0.13263,-0.02756 -0.199586,-0.04002 z m 0.570483,0.135549 c 0.05973,0.01705 0.119851,0.03287 0.178774,0.05176 -0.05893,-0.01891 -0.11907,-0.0346 -0.178774,-0.05176 z m 0.613176,0.210262 c 0.04745,0.01929 0.09458,0.03881 0.141418,0.05924 -0.04684,-0.02044 -0.09397,-0.03995 -0.141418,-0.05924 z m 0.547534,0.254023 c 0.07154,0.0377 0.14045,0.07913 0.210262,0.11954 -0.06981,-0.04041 -0.138727,-0.08184 -0.210262,-0.11954 z m 0.464285,0.273767 c 0.07216,0.04658 0.142912,0.09461 0.212931,0.144088 -0.07002,-0.04948 -0.140773,-0.09751 -0.212931,-0.144088 z m 0.42853,0.304722 c 0.0743,0.05744 0.148393,0.114772 0.219869,0.175572 -0.07148,-0.0608 -0.145607,-0.118054 -0.219869,-0.175572 z m 0.370893,0.312725 c 0.16249,0.147798 0.316917,0.303667 0.462684,0.46802 -0.145767,-0.164353 -0.300194,-0.320222 -0.462684,-0.46802 z m 0.544868,0.558742 c 0.07412,0.087 0.143169,0.177854 0.212398,0.268964 -0.06923,-0.09111 -0.138281,-0.181966 -0.212398,-0.268964 z m 0.325534,0.419991 c 0.06457,0.09066 0.126034,0.18325 0.185714,0.277502 -0.05968,-0.09425 -0.121133,-0.186846 -0.185714,-0.277502 z m 0.272701,0.421057 c 0.06187,0.103856 0.122428,0.208204 0.178242,0.315927 -0.05578,-0.107772 -0.116387,-0.212035 -0.178242,-0.315927 z m 0.210795,0.38317 c 0.1323,0.263436 0.247138,0.536544 0.34101,0.820235 -0.09387,-0.283688 -0.208716,-0.556794 -0.34101,-0.820235 z" />
  <path
     id="path10424"
     style="fill:#fed057;fill-opacity:1;stroke:none;stroke-width:0.437175;stroke-linecap:round;stroke-opacity:0.992157"
     d="m 30.617445,11.664646 v 0.368227 c 0,3.067049 -2.46915,5.536196 -5.536196,5.536196 H 3.1285839 c -0.00306,0.07999 -0.011749,0.158317 -0.011749,0.23908 v 13.65424 c -2.7e-6,0.0036 -5.464e-4,0.0071 -5.464e-4,0.01068 v 15.873739 c 0,7.570255 6.0946595,13.664915 13.6649155,13.664915 h 30.36796 c 7.570256,0 13.664916,-6.09466 13.664916,-13.664915 V 31.473072 c 0,-0.06813 -0.0092,-0.133833 -0.01014,-0.201723 V 17.80816 c 0,-3.40374 -2.740294,-6.143503 -6.144036,-6.143503 z" />
  <g
     id="g13643"
     style="fill:#000000;fill-opacity:0.0535217;opacity:0.39836466"
     transform="matrix(0.27323426,0,0,0.27323426,-146.91427,-23.342634)">
    <g
       id="g12069"
       style="fill:#000000;fill-opacity:0.0535217">
      <path
         id="path11697"
         style="color:#000000;fill:#000000;fill-opacity:0.0535217;stroke-linecap:round;-inkscape-stroke:none"
         d="m 498.23047,308.08789 c -14.40207,0 -26.0293,11.62518 -26.0293,26.02734 v 54.83399 c 6.16459,2.7062 12.97201,4.23242 20.15821,4.23242 h 111.14257 c 7.18566,0 13.99397,-1.5266 20.15821,-4.23242 v -54.83399 c 0,-14.40206 -11.62527,-26.02734 -26.02735,-26.02734 z m 0,2 h 99.40234 c 13.32872,0 24.02735,10.69864 24.02735,24.02734 v 54.53907 c -5.61846,2.23477 -11.72262,3.52734 -18.15821,3.52734 H 492.35938 c -6.43634,0 -12.53915,-1.29384 -18.15821,-3.5293 v -54.53711 c 0,-13.32861 10.70059,-24.02734 24.0293,-24.02734 z"
         transform="translate(106.74327,-84.457035)" />
      <path
         id="path11843"
         style="color:#000000;fill:#000000;fill-opacity:0.0535217;stroke-linecap:round;-inkscape-stroke:none"
         d="m 498.23047,307.08789 c -14.93875,0 -27.0293,12.08841 -27.0293,27.02734 v 54.35352 c 6.42673,2.99449 13.57612,4.71289 21.15821,4.71289 h 111.14257 c 7.58169,0 14.73173,-1.71869 21.15821,-4.71289 v -54.35352 c 0,-14.93874 -12.08859,-27.02734 -27.02735,-27.02734 z m 0,4 h 99.40234 c 12.79204,0 23.02735,10.23532 23.02735,23.02734 v 53.80274 c -5.3369,2.03955 -11.08298,3.26367 -17.15821,3.26367 H 492.35938 c -6.07586,0 -11.82075,-1.22534 -17.15821,-3.26562 v -53.80079 c 0,-12.79183 10.23727,-23.02734 23.0293,-23.02734 z"
         transform="translate(106.74327,-84.457035)" />
      <path
         id="path11845"
         style="color:#000000;fill:#000000;fill-opacity:0.0535217;stroke-linecap:round;-inkscape-stroke:none"
         d="m 498.23047,306.08789 c -15.47543,0 -28.0293,12.55163 -28.0293,28.02734 v 53.87305 c 6.67879,3.29533 14.18024,5.19336 22.15821,5.19336 h 111.14257 c 7.97742,0 15.47976,-1.8965 22.15821,-5.19141 v -53.875 c 0,-15.47542 -12.55191,-28.02734 -28.02735,-28.02734 z m 0,6 h 99.40234 c 12.25536,0 22.02735,9.772 22.02735,22.02734 v 53.06641 c -5.05121,1.84873 -10.44424,3 -16.15821,3 H 492.35938 c -5.7145,0 -11.10649,-1.15245 -16.15821,-3.00195 v -53.06446 c 0,-12.25506 9.77395,-22.02734 22.0293,-22.02734 z"
         transform="translate(106.74327,-84.457035)" />
      <path
         id="path11847"
         style="color:#000000;fill:#000000;fill-opacity:0.0535217;stroke-linecap:round;-inkscape-stroke:none"
         d="m 498.23047,304.58789 c -16.28045,0 -29.5293,13.24647 -29.5293,29.52734 v 53.1543 c 7.03716,3.76923 15.08671,5.91211 23.65821,5.91211 h 111.14257 c 8.57147,0 16.62107,-2.14291 23.65821,-5.91211 v -53.1543 c 0,-16.28044 -13.24689,-29.52734 -29.52735,-29.52734 z m 0,9 h 99.40234 c 11.45034,0 20.52735,9.07702 20.52735,20.52734 v 51.96094 c -4.6161,1.57282 -9.48605,2.60547 -14.65821,2.60547 H 492.35938 c -5.17233,0 -10.04187,-1.03199 -14.65821,-2.60547 v -51.96094 c 0,-11.4499 9.07897,-20.52734 20.5293,-20.52734 z"
         transform="translate(106.74327,-84.457035)" />
      <path
         id="path11849"
         style="color:#000000;fill:#000000;fill-opacity:0.0535217;stroke-linecap:round;-inkscape-stroke:none"
         d="m 498.23047,303.08789 c -17.08547,0 -31.0293,13.94131 -31.0293,31.02734 v 52.27149 c 7.38815,4.2968 15.96185,6.79492 25.15821,6.79492 h 111.14257 c 9.19636,0 17.77006,-2.49812 25.15821,-6.79492 v -52.27149 c 0,-17.08546 -13.94187,-31.02734 -31.02735,-31.02734 z m 0,12 h 99.40234 c 10.64532,0 19.02735,8.38204 19.02735,19.02734 v 50.85743 c -4.17233,1.31025 -8.52853,2.20898 -13.15821,2.20898 H 492.35938 c -4.63057,0 -8.98511,-0.8996 -13.15821,-2.21094 v -50.85547 c 0,-10.64474 8.38399,-19.02734 19.0293,-19.02734 z"
         transform="translate(106.74327,-84.457035)" />
      <path
         id="path11851"
         style="color:#000000;fill:#000000;fill-opacity:0.0535217;stroke-linecap:round;-inkscape-stroke:none"
         d="m 498.23047,301.08789 c -18.15883,0 -33.0293,14.86776 -33.0293,33.02734 v 51.0586 c 7.81549,5.05035 17.12184,8.00781 27.15821,8.00781 h 111.14257 c 10.03637,0 19.34272,-2.95746 27.15821,-8.00781 v -51.0586 c 0,-18.15882 -14.86851,-33.02734 -33.02735,-33.02734 z m 0,16 h 99.40234 c 9.57196,0 17.02735,7.4554 17.02735,17.02734 V 383.5 c -3.56714,0.98446 -7.25243,1.68164 -11.15821,1.68164 H 492.35938 c -3.90574,0 -7.59113,-0.69858 -11.15821,-1.68359 v -49.38282 c 0,-9.57119 7.45735,-17.02734 17.0293,-17.02734 z"
         transform="translate(106.74327,-84.457035)" />
      <path
         id="path11853"
         style="color:#000000;fill:#000000;fill-opacity:0.0535217;stroke-linecap:round;-inkscape-stroke:none"
         d="m 498.23047,299.08789 c -19.23219,0 -35.0293,15.79421 -35.0293,35.02734 v 49.6836 c 8.20341,5.88617 18.24721,9.38281 29.15821,9.38281 h 111.14257 c 10.911,0 20.9548,-3.49664 29.15821,-9.38281 v -49.6836 c 0,-19.23218 -15.79515,-35.02734 -35.02735,-35.02734 z m 0,20 h 99.40234 c 8.4986,0 15.02735,6.52876 15.02735,15.02734 v 47.91407 c -2.94482,0.69079 -5.97834,1.15234 -9.15821,1.15234 H 492.35938 c -3.18043,0 -6.21306,-0.4628 -9.15821,-1.1543 v -47.91211 c 0,-8.49764 6.53071,-15.02734 15.0293,-15.02734 z"
         transform="translate(106.74327,-84.457035)" />
    </g>
  </g>
  <path
     id="path11207"
     style="fill:currentColor;fill-opacity:1;stroke:none;stroke-width:0.437175;stroke-linecap:round;stroke-opacity:0.992157"
     d="m 18.385286,38.034208 c -3.788503,0 -6.838863,3.049825 -6.838863,6.838327 v 15.102597 c 1.611388,0.665438 3.377463,1.03637 5.23468,1.03637 H 47.14906 c 1.856977,0 3.623458,-0.370563 5.23468,-1.035837 v -15.10313 c 0,-3.788502 -3.049825,-6.838327 -6.83833,-6.838327 z"
     class="ColorScheme-Highlight" />
  <rect
     style="opacity:0.867334;fill:#00021e;fill-opacity:0.25377804;stroke:none;stroke-width:0.437175;stroke-linecap:round;stroke-opacity:0.992157"
     id="rect11327"
     width="28.112902"
     height="3.52284"
     x="17.90863"
     y="46.521976"
     rx="1.76142"
     ry="1.76142" />
</svg>
