<?xml version="1.0" encoding="UTF-8" standalone="no"?>
<svg
   version="1.1"
   id="svg2"
   viewBox="0 0 64 64"
   inkscape:version="1.1.2 (0a00cf5339, 2022-02-04)"
   sodipodi:docname="zeroinstall.svg"
   width="64"
   height="64"
   xmlns:inkscape="http://www.inkscape.org/namespaces/inkscape"
   xmlns:sodipodi="http://sodipodi.sourceforge.net/DTD/sodipodi-0.dtd"
   xmlns:xlink="http://www.w3.org/1999/xlink"
   xmlns="http://www.w3.org/2000/svg"
   xmlns:svg="http://www.w3.org/2000/svg"
   xmlns:rdf="http://www.w3.org/1999/02/22-rdf-syntax-ns#"
   xmlns:cc="http://creativecommons.org/ns#"
   xmlns:dc="http://purl.org/dc/elements/1.1/">
  <sodipodi:namedview
     pagecolor="#c8c8c8"
     bordercolor="#666666"
     borderopacity="1"
     objecttolerance="10"
     gridtolerance="10"
     guidetolerance="10"
     inkscape:pageopacity="0"
     inkscape:pageshadow="2"
     inkscape:window-width="1920"
     inkscape:window-height="1028"
     id="namedview12"
     showgrid="true"
     inkscape:zoom="2.6074563"
     inkscape:cx="83.798145"
     inkscape:cy="31.256516"
     inkscape:window-x="0"
     inkscape:window-y="24"
     inkscape:window-maximized="1"
     inkscape:current-layer="svg2"
     inkscape:pagecheckerboard="0"
     inkscape:lockguides="true"
     inkscape:snap-bbox="true"
     inkscape:bbox-nodes="true">
    <inkscape:grid
       type="xygrid"
       id="grid818" />
  </sodipodi:namedview>
  <metadata
     id="metadata18">
    <rdf:RDF>
      <cc:Work
         rdf:about="">
        <dc:format>image/svg+xml</dc:format>
        <dc:type
           rdf:resource="http://purl.org/dc/dcmitype/StillImage" />
      </cc:Work>
    </rdf:RDF>
  </metadata>
  <defs
     id="defs3051">
    <linearGradient
       inkscape:collect="always"
       id="linearGradient3755">
      <stop
         style="stop-color:#a24a5c;stop-opacity:1;"
         offset="0"
         id="stop3751" />
      <stop
         style="stop-color:#a24a5c;stop-opacity:0;"
         offset="1"
         id="stop3753" />
    </linearGradient>
    <linearGradient
       inkscape:collect="always"
       id="linearGradient3631">
      <stop
         style="stop-color:#ffd174;stop-opacity:1;"
         offset="0"
         id="stop3627" />
      <stop
         style="stop-color:#ffd174;stop-opacity:0;"
         offset="1"
         id="stop3629" />
    </linearGradient>
    <linearGradient
       inkscape:collect="always"
       id="linearGradient1798">
      <stop
         style="stop-color:#25272d;stop-opacity:0.31313851"
         offset="0"
         id="stop1794" />
      <stop
         style="stop-color:#d3deff;stop-opacity:0.08997078"
         offset="1"
         id="stop1796" />
    </linearGradient>
    <style
       type="text/css"
       id="current-color-scheme">
      .ColorScheme-Text {
        color:#31363b;
      }
      .ColorScheme-Background {
        color:#eff0f1;
      }
      .ColorScheme-Highlight {
        color:#3daee9;
      }
      .ColorScheme-ViewText {
        color:#31363b;
      }
      .ColorScheme-ViewBackground {
        color:#fcfcfc;
      }
      .ColorScheme-ViewHover {
        color:#93cee9;
      }
      .ColorScheme-ViewFocus{
        color:#3daee9;
      }
      .ColorScheme-ButtonText {
        color:#31363b;
      }
      .ColorScheme-ButtonBackground {
        color:#eff0f1;
      }
      .ColorScheme-ButtonHover {
        color:#93cee9;
      }
      .ColorScheme-ButtonFocus{
        color:#3daee9;
      }
      </style>
    <linearGradient
       id="linear1"
       gradientUnits="userSpaceOnUse"
       x1="-26.251301"
       y1="30.3543"
       x2="-26.251301"
       y2="28.5023"
       gradientTransform="matrix(7.5592,0,0,-7.5592,216.4394,232.4574)">
      <stop
         offset="0"
         style="stop-color:rgb(18.823529%,85.490196%,100%);stop-opacity:1;"
         id="stop7" />
      <stop
         offset="1"
         style="stop-color:rgb(2.352941%,49.411765%,74.509804%);stop-opacity:1;"
         id="stop9" />
    </linearGradient>
    <linearGradient
       id="linear3"
       gradientUnits="userSpaceOnUse"
       x1="-17.2707"
       y1="30.3543"
       x2="-17.2707"
       y2="28.5023"
       gradientTransform="matrix(-7.5592,0,0,-7.5592,-84.5528,232.4574)">
      <stop
         offset="0"
         style="stop-color:rgb(18.823529%,85.490196%,100%);stop-opacity:1;"
         id="stop17" />
      <stop
         offset="1"
         style="stop-color:rgb(2.352941%,49.411765%,74.509804%);stop-opacity:1;"
         id="stop19" />
    </linearGradient>
    <linearGradient
       id="linear2"
       gradientUnits="userSpaceOnUse"
       x1="16"
       y1="2.0002"
       x2="16"
       y2="4"
       gradientTransform="matrix(2,0,0,2,4.0089258e-8,-0.99720139)">
      <stop
         offset="0"
         style="stop-color:rgb(13.333333%,73.72549%,100%);stop-opacity:1;"
         id="stop12" />
      <stop
         offset="1"
         style="stop-color:rgb(2.352941%,49.411765%,74.509804%);stop-opacity:1;"
         id="stop14" />
    </linearGradient>
    <linearGradient
       inkscape:collect="always"
       xlink:href="#linearGradient1798"
       id="linearGradient1800"
       x1="-20"
       y1="-15"
       x2="50"
       y2="55"
       gradientUnits="userSpaceOnUse" />
    <linearGradient
       inkscape:collect="always"
       xlink:href="#linearGradient3631"
       id="linearGradient3633"
       x1="65.601334"
       y1="65.601334"
       x2="25"
       y2="25"
       gradientUnits="userSpaceOnUse" />
    <linearGradient
       inkscape:collect="always"
       xlink:href="#linearGradient3755"
       id="linearGradient3757"
       x1="-25"
       y1="-30"
       x2="45.5"
       y2="36.5"
       gradientUnits="userSpaceOnUse" />
  </defs>
  <path
     id="rect874"
     d="M 10.535156 12.464844 C 6.360517 12.464844 3 15.825361 3 20 L 3 35.480469 L 3 37.464844 L 3 47 C 3 54.756 9.244 61 17 61 L 47 61 C 54.756 61 61 54.756 61 47 L 61 37.464844 L 61 35.480469 L 61 20 C 61 15.825361 57.639483 12.464844 53.464844 12.464844 L 10.535156 12.464844 z "
     fill="currentColor"
     class="ColorScheme-Text" />
  <path
     d="m 20,3.0027986 h 24 v 4 H 20 Z m 0,0"
     id="path28"
     fill="currentColor"
     class="ColorScheme-Text" />
  <path
     id="path1473"
     d="M 10.535156 12.464844 C 6.360517 12.464844 3 15.825361 3 20 L 3 35.480469 L 3 37.464844 L 3 47 C 3 54.756 9.244 61 17 61 L 47 61 C 54.756 61 61 54.756 61 47 L 61 37.464844 L 61 35.480469 L 61 20 C 61 15.825361 57.639483 12.464844 53.464844 12.464844 L 10.535156 12.464844 z "
     style="fill:url(#linearGradient1800);fill-opacity:1" />
  <path
     d="m 44.046875,3.0027986 c 1.019531,-0.039062 2.015625,0.332031 2.761719,1.035156 0.742187,0.703125 1.171875,1.675782 1.191406,2.699219 v 8.8515634 c 0.05469,0.726562 -0.488281,1.355468 -1.210938,1.414062 H 45.210938 C 44.488281,16.944205 43.945312,16.315299 44,15.588737 V 3.0027986 c 0,0 0.01563,0 0.04687,0 z m 0,0"
     id="path30"
     fill="currentColor"
     class="ColorScheme-Text" />
  <path
     d="M 19.953125,3.0027986 C 18.933594,2.9637366 17.9375,3.3348296 17.191406,4.0379546 16.449219,4.7410796 16.019531,5.7137366 16,6.7371736 v 8.8515634 c -0.05078,0.726562 0.488281,1.355468 1.210938,1.414062 h 1.578124 C 19.511719,16.944205 20.054688,16.315299 20,15.588737 V 3.0027986 c 0,0 -0.01563,0 -0.04687,0 z m 0,0"
     id="path26"
     fill="currentColor"
     class="ColorScheme-Text" />
  <path
     id="path26-3"
     style="color:#31363b;fill:#f4f8ff;fill-opacity:0.145227"
     class="ColorScheme-Text"
     d="m 19.720703,3.1211408 c -0.952234,0.01116 -1.87085,0.37793 -2.570313,1.037109 -0.742187,0.703125 -1.171875,1.675782 -1.191406,2.699219 v 8.8515632 c -0.05078,0.726562 0.488281,1.355468 1.210938,1.414062 h 1.578124 c 0.722657,-0.05859 1.265626,-0.6875 1.210938,-1.414062 V 7.1230938 h 24 v 8.5859382 c -0.05469,0.726562 0.488281,1.355468 1.210938,1.414062 h 1.578124 c 0.722657,-0.05859 1.265628,-0.6875 1.210938,-1.414062 V 6.8574688 c -0.01953,-1.023437 -0.449219,-1.996094 -1.191406,-2.699219 -0.746094,-0.703125 -1.742188,-1.074216 -2.761719,-1.035156 h -0.04687 -24 -0.04687 c -0.06372,-0.0024 -0.127924,-0.0027 -0.191406,-0.002 z" />
  <path
     id="rect2924"
     d="M 20.345703,23 C 19.322786,23 18.5,23.822786 18.5,24.845703 v 8.308594 C 18.5,34.177214 19.322786,35 20.345703,35 h 8.308594 C 29.677214,35 30.5,34.177214 30.5,33.154297 V 24.845703 C 30.5,23.822786 29.677214,23 28.654297,23 Z m 15,0 C 34.322786,23 33.5,23.822786 33.5,24.845703 v 8.308594 C 33.5,34.177214 34.322786,35 35.345703,35 h 8.308594 C 44.677214,35 45.5,34.177214 45.5,33.154297 V 24.845703 C 45.5,23.822786 44.677214,23 43.654297,23 Z m -15,15 C 19.322786,38 18.5,38.822786 18.5,39.845703 v 8.308594 C 18.5,49.177214 19.322786,50 20.345703,50 h 8.308594 C 29.677214,50 30.5,49.177214 30.5,48.154297 V 39.845703 C 30.5,38.822786 29.677214,38 28.654297,38 Z m 15,0 C 34.322786,38 33.5,38.822786 33.5,39.845703 v 8.308594 C 33.5,49.177214 34.322786,50 35.345703,50 h 8.308594 C 44.677214,50 45.5,49.177214 45.5,48.154297 V 39.845703 C 45.5,38.822786 44.677214,38 43.654297,38 Z"
     fill="currentColor"
     class="ColorScheme-Highlight" />
  <path
     id="path3292"
     d="M 20.345703,23 C 19.322786,23 18.5,23.822786 18.5,24.845703 v 8.308594 C 18.5,34.177214 19.322786,35 20.345703,35 h 8.308594 C 29.677214,35 30.5,34.177214 30.5,33.154297 V 24.845703 C 30.5,23.822786 29.677214,23 28.654297,23 Z m 15,0 C 34.322786,23 33.5,23.822786 33.5,24.845703 v 8.308594 C 33.5,34.177214 34.322786,35 35.345703,35 h 8.308594 C 44.677214,35 45.5,34.177214 45.5,33.154297 V 24.845703 C 45.5,23.822786 44.677214,23 43.654297,23 Z m -15,15 C 19.322786,38 18.5,38.822786 18.5,39.845703 v 8.308594 C 18.5,49.177214 19.322786,50 20.345703,50 h 8.308594 C 29.677214,50 30.5,49.177214 30.5,48.154297 V 39.845703 C 30.5,38.822786 29.677214,38 28.654297,38 Z m 15,0 C 34.322786,38 33.5,38.822786 33.5,39.845703 v 8.308594 C 33.5,49.177214 34.322786,50 35.345703,50 h 8.308594 C 44.677214,50 45.5,49.177214 45.5,48.154297 V 39.845703 C 45.5,38.822786 44.677214,38 43.654297,38 Z"
     style="fill:url(#linearGradient3633);fill-opacity:1" />
  <path
     id="path3692"
     d="M 20.345703,23 C 19.322786,23 18.5,23.822786 18.5,24.845703 v 8.308594 C 18.5,34.177214 19.322786,35 20.345703,35 h 8.308594 C 29.677214,35 30.5,34.177214 30.5,33.154297 V 24.845703 C 30.5,23.822786 29.677214,23 28.654297,23 Z m 15,0 C 34.322786,23 33.5,23.822786 33.5,24.845703 v 8.308594 C 33.5,34.177214 34.322786,35 35.345703,35 h 8.308594 C 44.677214,35 45.5,34.177214 45.5,33.154297 V 24.845703 C 45.5,23.822786 44.677214,23 43.654297,23 Z m -15,15 C 19.322786,38 18.5,38.822786 18.5,39.845703 v 8.308594 C 18.5,49.177214 19.322786,50 20.345703,50 h 8.308594 C 29.677214,50 30.5,49.177214 30.5,48.154297 V 39.845703 C 30.5,38.822786 29.677214,38 28.654297,38 Z m 15,0 C 34.322786,38 33.5,38.822786 33.5,39.845703 v 8.308594 C 33.5,49.177214 34.322786,50 35.345703,50 h 8.308594 C 44.677214,50 45.5,49.177214 45.5,48.154297 V 39.845703 C 45.5,38.822786 44.677214,38 43.654297,38 Z"
     style="fill:url(#linearGradient3757);fill-opacity:1" />
</svg>
