<?xml version="1.0" encoding="UTF-8" standalone="no"?>
<!-- Created with Inkscape (http://www.inkscape.org/) -->

<svg
   width="48"
   height="48"
   viewBox="0 0 48 48"
   version="1.1"
   id="svg1015"
   inkscape:version="1.1.2 (0a00cf5339, 2022-02-04)"
   sodipodi:docname="higan.svg"
   xmlns:inkscape="http://www.inkscape.org/namespaces/inkscape"
   xmlns:sodipodi="http://sodipodi.sourceforge.net/DTD/sodipodi-0.dtd"
   xmlns:xlink="http://www.w3.org/1999/xlink"
   xmlns="http://www.w3.org/2000/svg"
   xmlns:svg="http://www.w3.org/2000/svg">
  <sodipodi:namedview
     id="namedview1017"
     pagecolor="#ffffff"
     bordercolor="#000000"
     borderopacity="0.25"
     inkscape:showpageshadow="2"
     inkscape:pageopacity="0.0"
     inkscape:pagecheckerboard="0"
     inkscape:deskcolor="#d1d1d1"
     inkscape:document-units="px"
     showgrid="false"
     inkscape:zoom="4.2708333"
     inkscape:cx="-28.214634"
     inkscape:cy="7.1414635"
     inkscape:window-width="1920"
     inkscape:window-height="1032"
     inkscape:window-x="0"
     inkscape:window-y="24"
     inkscape:window-maximized="1"
     inkscape:current-layer="svg1015"
     inkscape:pageshadow="2"
     showguides="true"
     inkscape:guide-bbox="true" />
  <defs
     id="defs1012">
    <linearGradient
       inkscape:collect="always"
       xlink:href="#linearGradient1777"
       id="linearGradient1779"
       x1="0.5291667"
       y1="0.52916712"
       x2="4.7625003"
       y2="4.7625003"
       gradientUnits="userSpaceOnUse"
       gradientTransform="matrix(9.9212586,0,0,9.9212586,-2.2499999,-2.2499999)" />
    <linearGradient
       inkscape:collect="always"
       id="linearGradient1777">
      <stop
         style="stop-color:#ff4343;stop-opacity:1"
         offset="0"
         id="stop1773" />
      <stop
         style="stop-color:#d13438;stop-opacity:1"
         offset="1"
         id="stop1775" />
    </linearGradient>
  </defs>
  <rect
     style="fill:url(#linearGradient1779);fill-opacity:1;stroke-width:2.625"
     id="rect1750"
     width="42"
     height="42"
     x="3"
     y="3"
     ry="3" />
  <g
     id="g1078"
     style="fill:#2b0000;fill-opacity:0.0472354"
     transform="matrix(1.3541725,0,0,1.3541725,1.9517687,0.38984962)">
    <path
       style="fill:#2b0000;fill-opacity:0.0472354;stroke-width:0.363827"
       d="m 7.5261503,25.946651 c -0.1322297,-0.201805 -0.1332465,-0.236752 -0.012376,-0.421299 1.3098562,-0.90989 3.0872287,-1.741343 4.1403527,-2.765374 2.650489,-3.528044 2.528327,-6.485128 2.446595,-10.401854 -0.03846,-1.681877 -0.05244,-1.798377 -0.49194,-2.8620551 -0.09762,-0.2362588 -0.09578,-0.3065697 0.01307,-0.5014003 0.167836,-0.3003638 0.450218,-0.3243831 1.186033,-0.1008887 0.962101,0.2922292 1.766571,0.6456529 1.917667,0.9378417 0.123166,0.2381834 0.120499,0.2984374 -0.03764,0.8498964 -0.509154,2.571767 -0.252825,3.966541 -0.351224,6.395927 l 0.913543,1.172249 c 2.18074,2.898846 4.560424,5.182138 7.849331,6.304591 0.760954,0.277976 1.526093,0.410544 1.358298,1.100223 -0.213185,0.286997 -0.759621,0.396255 -2.351256,0.470116 -1.411696,0.06552 -2.538603,0.05996 -2.964329,-0.298207 -2.779731,-2.338698 -2.934326,-3.628045 -5.146629,-6.788089 l -0.456151,0.941591 c -1.28805,3.326125 -3.912369,5.782895 -7.3108707,6.134897 -0.5366595,0.04988 -0.5639198,0.04336 -0.7025129,-0.168167 z M 17.946323,16.367854 c -0.375244,-0.262832 -0.258461,-0.452112 1.145826,-1.857138 1.433148,-1.4339 1.916918,-2.074839 1.916918,-2.521914 0,-0.189292 0.06588,-0.600935 0.266172,-0.647626 1.158389,-0.270032 2.029495,0.968682 2.650879,1.891876 0.08918,0.349361 -0.137015,0.614656 -0.687017,0.805785 -0.594925,0.206739 -0.95693,0.301982 -2.26119,1.061893 -0.966327,0.372322 -2.034922,1.510015 -3.031588,1.267124 z m -8.8139595,-2.73378 c -0.109634,-0.330081 -0.116168,-0.444762 -0.03417,-0.600394 0.227818,-0.432448 0.4781038,-0.42021 1.4268095,0.06978 0.830241,0.428803 1.913717,1.203947 2.08715,1.61903 0.193671,0.875554 -0.06671,1.734542 -0.813867,1.692002 -1.00358,-0.05714 -2.2685167,-1.702594 -2.6659205,-2.780419 z"
       id="path1009" />
    <path
       style="fill:#2b0000;fill-opacity:0.0472354;stroke-width:0.363827"
       d="M 7.6984575,26.211345 C 7.5662278,26.00954 7.565211,25.974593 7.6860815,25.790046 c 1.3098562,-0.90989 3.0872285,-1.741343 4.1403525,-2.765374 2.650489,-3.528044 2.528327,-6.485128 2.446595,-10.401854 -0.03846,-1.681877 -0.05244,-1.798377 -0.49194,-2.8620555 -0.09762,-0.2362588 -0.09578,-0.3065697 0.01307,-0.5014003 0.167836,-0.3003638 0.450218,-0.3243831 1.186033,-0.1008887 0.962101,0.2922292 1.766571,0.6456529 1.917667,0.9378415 0.123166,0.238184 0.120499,0.298438 -0.03764,0.849897 -0.509154,2.571767 -0.252825,3.966541 -0.351224,6.395927 l 0.913543,1.172249 c 2.18074,2.898846 4.560424,5.182138 7.849331,6.304591 0.760954,0.277976 1.526093,0.410544 1.358298,1.100223 -0.213185,0.286997 -0.759621,0.396255 -2.351256,0.470116 -1.411696,0.06552 -2.538603,0.05996 -2.964329,-0.298207 -2.779731,-2.338698 -2.934326,-3.628045 -5.146629,-6.788089 l -0.456151,0.941591 C 14.423752,23.570738 11.799433,26.027508 8.4009315,26.37951 7.864272,26.42939 7.8370117,26.42287 7.6984186,26.211343 Z M 18.11863,16.632548 c -0.375244,-0.262832 -0.258461,-0.452112 1.145826,-1.857138 1.433148,-1.4339 1.916918,-2.074839 1.916918,-2.521914 0,-0.189292 0.06588,-0.600935 0.266172,-0.647626 1.158389,-0.270032 2.029495,0.968682 2.650879,1.891876 0.08918,0.349361 -0.137015,0.614656 -0.687017,0.805785 -0.594925,0.206739 -0.95693,0.301982 -2.26119,1.061893 -0.966327,0.372322 -2.034922,1.510015 -3.031588,1.267124 z m -8.8139593,-2.73378 c -0.109634,-0.330081 -0.116168,-0.444762 -0.03417,-0.600394 0.227818,-0.432448 0.4781038,-0.42021 1.4268093,0.06978 0.830241,0.428803 1.913717,1.203947 2.08715,1.61903 0.193671,0.875554 -0.06671,1.734542 -0.813867,1.692002 -1.00358,-0.05714 -2.2685165,-1.702594 -2.6659203,-2.780419 z"
       id="path1065" />
    <path
       style="fill:#2b0000;fill-opacity:0.0472354;stroke-width:0.363827"
       d="M 7.8950608,26.714503 C 7.7628311,26.512698 7.7618143,26.477751 7.8826848,26.293204 9.192541,25.383314 10.969913,24.551861 12.023037,23.52783 c 2.650489,-3.528044 2.528327,-6.485128 2.446595,-10.401854 -0.03846,-1.681877 -0.05244,-1.798377 -0.49194,-2.862056 -0.09762,-0.236258 -0.09578,-0.3065694 0.01307,-0.5014 0.167836,-0.3003638 0.450218,-0.3243831 1.186033,-0.1008887 0.962101,0.2922292 1.766571,0.6456527 1.917667,0.9378417 0.123166,0.238184 0.120499,0.298438 -0.03764,0.849897 -0.509154,2.571767 -0.252825,3.966541 -0.351224,6.395927 l 0.913543,1.172249 c 2.18074,2.898846 4.560424,5.182138 7.849331,6.304591 0.760954,0.277976 1.526093,0.410544 1.358298,1.100223 -0.213185,0.286997 -0.759621,0.396255 -2.351256,0.470116 -1.411696,0.06552 -2.538603,0.05996 -2.964329,-0.298207 -2.779731,-2.338698 -2.934326,-3.628045 -5.146629,-6.788089 l -0.456151,0.941591 c -1.28805,3.326125 -3.912369,5.782895 -7.3108702,6.134897 -0.5366595,0.04988 -0.5639198,0.04336 -0.7025129,-0.168167 z M 18.315233,17.135706 c -0.375244,-0.262832 -0.258461,-0.452112 1.145826,-1.857138 1.433148,-1.4339 1.916918,-2.074839 1.916918,-2.521914 0,-0.189292 0.06588,-0.600935 0.266172,-0.647626 1.158389,-0.270032 2.029495,0.968682 2.650879,1.891876 0.08918,0.349361 -0.137015,0.614656 -0.687017,0.805785 -0.594925,0.206739 -0.95693,0.301982 -2.26119,1.061893 -0.966327,0.372322 -2.034922,1.510015 -3.031588,1.267124 z M 9.501274,14.401926 C 9.39164,14.071845 9.385106,13.957164 9.467104,13.801532 c 0.227818,-0.432448 0.4781038,-0.42021 1.426809,0.06978 0.830241,0.428803 1.913717,1.203947 2.08715,1.61903 0.193671,0.875554 -0.06671,1.734542 -0.813867,1.692002 -1.00358,-0.05714 -2.2685162,-1.702594 -2.66592,-2.780419 z"
       id="path1067" />
    <path
       style="fill:#2b0000;fill-opacity:0.0472354;stroke-width:0.363827"
       d="M 8.1245437,27.172238 C 7.992314,26.970433 7.9912972,26.935486 8.1121677,26.750939 c 1.3098562,-0.90989 3.0872283,-1.741343 4.1403523,-2.765374 2.650489,-3.528044 2.528327,-6.485128 2.446595,-10.401854 -0.03846,-1.681877 -0.05244,-1.798377 -0.49194,-2.862056 -0.09762,-0.236258 -0.09578,-0.30657 0.01307,-0.5014 0.167836,-0.3003641 0.450218,-0.3243834 1.186033,-0.100889 0.962101,0.292229 1.766571,0.645653 1.917667,0.937842 0.123166,0.238184 0.120499,0.298438 -0.03764,0.849897 -0.509154,2.571767 -0.252825,3.966541 -0.351224,6.395927 l 0.913543,1.172249 c 2.18074,2.898846 4.560424,5.182138 7.849331,6.304591 0.760954,0.277976 1.526093,0.410544 1.358298,1.100223 -0.213185,0.286997 -0.759621,0.396255 -2.351256,0.470116 -1.411696,0.06552 -2.538603,0.05996 -2.964329,-0.298207 -2.779731,-2.338698 -2.934326,-3.628045 -5.146629,-6.788089 l -0.456151,0.941591 c -1.28805,3.326125 -3.912369,5.782895 -7.3108703,6.134897 -0.5366595,0.04988 -0.5639198,0.04336 -0.7025129,-0.168167 z M 18.544716,17.593441 c -0.375244,-0.262832 -0.258461,-0.452112 1.145826,-1.857138 1.433148,-1.4339 1.916918,-2.074839 1.916918,-2.521914 0,-0.189292 0.06588,-0.600935 0.266172,-0.647626 1.158389,-0.270032 2.029495,0.968682 2.650879,1.891876 0.08918,0.349361 -0.137015,0.614656 -0.687017,0.805785 -0.594925,0.206739 -0.95693,0.301982 -2.26119,1.061893 -0.966327,0.372322 -2.034922,1.510015 -3.031588,1.267124 z m -8.8139591,-2.73378 c -0.109634,-0.330081 -0.116168,-0.444762 -0.03417,-0.600394 0.227818,-0.432448 0.4781041,-0.42021 1.4268091,0.06978 0.830241,0.428803 1.913717,1.203947 2.08715,1.61903 0.193671,0.875554 -0.06671,1.734542 -0.813867,1.692002 -1.00358,-0.05714 -2.268516,-1.702594 -2.6659201,-2.780419 z"
       id="path1069" />
    <path
       style="fill:#2b0000;fill-opacity:0.0472354;stroke-width:0.363827"
       d="M 8.3467365,27.782415 C 8.2145068,27.58061 8.21349,27.545663 8.3343605,27.361116 c 1.3098562,-0.90989 3.0872285,-1.741343 4.1403525,-2.765374 2.650489,-3.528044 2.528327,-6.485128 2.446595,-10.401854 -0.03846,-1.681877 -0.05244,-1.798377 -0.49194,-2.862056 -0.09762,-0.236258 -0.09578,-0.30657 0.01307,-0.5014 0.167836,-0.300364 0.450218,-0.324384 1.186033,-0.100889 0.962101,0.292229 1.766571,0.645653 1.917667,0.937842 0.123166,0.238184 0.120499,0.298438 -0.03764,0.849897 -0.509154,2.571767 -0.252825,3.966541 -0.351224,6.395927 l 0.913543,1.172249 c 2.18074,2.898846 4.560424,5.182138 7.849331,6.304591 0.760954,0.277976 1.526093,0.410544 1.358298,1.100223 -0.213185,0.286997 -0.759621,0.396255 -2.351256,0.470116 -1.411696,0.06552 -2.538603,0.05996 -2.964329,-0.298207 -2.779731,-2.338698 -2.934326,-3.628045 -5.146629,-6.788089 l -0.456151,0.941591 C 15.072031,25.141808 12.447712,27.598578 9.0492105,27.95058 8.512551,28.00046 8.4852907,27.99394 8.3466976,27.782413 Z M 18.766909,18.203618 c -0.375244,-0.262832 -0.258461,-0.452112 1.145826,-1.857138 1.433148,-1.4339 1.916918,-2.074839 1.916918,-2.521914 0,-0.189292 0.06588,-0.600935 0.266172,-0.647626 1.158389,-0.270032 2.029495,0.968682 2.650879,1.891876 0.08918,0.349361 -0.137015,0.614656 -0.687017,0.805785 -0.594925,0.206739 -0.95693,0.301982 -2.26119,1.061893 -0.966327,0.372322 -2.034922,1.510015 -3.031588,1.267124 z m -8.8139593,-2.73378 c -0.109634,-0.330081 -0.116168,-0.444762 -0.03417,-0.600394 0.2278183,-0.432448 0.4781043,-0.42021 1.4268093,0.06978 0.830241,0.428803 1.913717,1.203947 2.08715,1.61903 0.193671,0.875554 -0.06671,1.734542 -0.813867,1.692002 -1.00358,-0.05714 -2.268516,-1.702594 -2.6659203,-2.780419 z"
       id="path1071" />
  </g>
  <path
     style="fill:#ffffff;fill-opacity:1;stroke-width:0.492683"
     d="m 11.987577,34.954337 c -0.179062,-0.273279 -0.180439,-0.320603 -0.01676,-0.570512 1.773771,-1.232148 4.180641,-2.358078 5.606752,-3.744793 3.589221,-4.77758 3.423792,-8.781982 3.313114,-14.085905 -0.05208,-2.277552 -0.07101,-2.435313 -0.666172,-3.875717 -0.132194,-0.319935 -0.129703,-0.415148 0.0177,-0.678982 0.227279,-0.406745 0.609673,-0.439271 1.606093,-0.136621 1.302851,0.395729 2.392242,0.874326 2.596852,1.27 0.166788,0.32254 0.163176,0.404135 -0.05097,1.150906 -0.689483,3.482616 -0.342369,5.371381 -0.475618,8.661189 l 1.237095,1.587427 c 2.953098,3.925538 6.1756,7.017509 10.629348,8.537504 1.030463,0.376428 2.066593,0.555947 1.83937,1.489892 -0.28869,0.388643 -1.028658,0.536597 -3.184006,0.636618 -1.91168,0.08872 -3.437707,0.0812 -4.014213,-0.403824 -3.764236,-3.167 -3.973584,-4.912998 -6.969424,-9.192243 l -0.617707,1.275077 c -1.744242,4.504147 -5.298022,7.831037 -9.90018,8.307708 -0.72673,0.06755 -0.763645,0.05872 -0.951324,-0.227727 z M 26.098288,21.982993 c -0.508145,-0.35592 -0.35,-0.612238 1.551647,-2.514885 1.940729,-1.941748 2.595837,-2.80969 2.595837,-3.415107 0,-0.256334 0.08921,-0.813769 0.360443,-0.876997 1.568659,-0.36567 2.748286,1.311763 3.589747,2.561927 0.120765,0.473095 -0.185542,0.83235 -0.930339,1.091171 -0.805631,0.279961 -1.295848,0.408936 -3.062042,1.437987 -1.308573,0.504188 -2.755635,2.04482 -4.105293,1.715904 z M 14.162667,18.280984 c -0.148464,-0.446987 -0.157312,-0.602285 -0.04627,-0.813038 0.308505,-0.585609 0.647435,-0.569036 1.932146,0.0945 1.12429,0.580673 2.591503,1.630352 2.826361,2.192445 0.262264,1.185652 -0.09034,2.34887 -1.102116,2.291263 -1.35902,-0.07738 -3.071963,-2.305606 -3.610116,-3.765167 z"
     id="path8" />
</svg>
