<?xml version="1.0" encoding="UTF-8" standalone="no"?>
<!-- Created with Inkscape (http://www.inkscape.org/) -->

<svg
   width="48"
   height="48"
   viewBox="0 0 48 48"
   version="1.1"
   id="svg1015"
   inkscape:version="1.1.2 (0a00cf5339, 2022-02-04)"
   sodipodi:docname="hiri.svg"
   xmlns:inkscape="http://www.inkscape.org/namespaces/inkscape"
   xmlns:sodipodi="http://sodipodi.sourceforge.net/DTD/sodipodi-0.dtd"
   xmlns:xlink="http://www.w3.org/1999/xlink"
   xmlns="http://www.w3.org/2000/svg"
   xmlns:svg="http://www.w3.org/2000/svg">
  <sodipodi:namedview
     id="namedview1017"
     pagecolor="#ffffff"
     bordercolor="#000000"
     borderopacity="0.25"
     inkscape:showpageshadow="2"
     inkscape:pageopacity="0.0"
     inkscape:pagecheckerboard="0"
     inkscape:deskcolor="#d1d1d1"
     inkscape:document-units="px"
     showgrid="false"
     inkscape:zoom="4.2708333"
     inkscape:cx="-28.214634"
     inkscape:cy="7.2585366"
     inkscape:window-width="1920"
     inkscape:window-height="1050"
     inkscape:window-x="0"
     inkscape:window-y="0"
     inkscape:window-maximized="1"
     inkscape:current-layer="svg1015"
     inkscape:pageshadow="2"
     showguides="true"
     inkscape:guide-bbox="true" />
  <defs
     id="defs1012">
    <linearGradient
       inkscape:collect="always"
       xlink:href="#linearGradient1777"
       id="linearGradient1779"
       x1="0.5291667"
       y1="0.52916712"
       x2="4.7625003"
       y2="4.7625003"
       gradientUnits="userSpaceOnUse"
       gradientTransform="matrix(9.9212586,0,0,9.9212586,-2.2499999,-2.2499999)" />
    <linearGradient
       inkscape:collect="always"
       id="linearGradient1777">
      <stop
         style="stop-color:#ff4343;stop-opacity:1"
         offset="0"
         id="stop1773" />
      <stop
         style="stop-color:#d13438;stop-opacity:1"
         offset="1"
         id="stop1775" />
    </linearGradient>
    <linearGradient
       inkscape:collect="always"
       xlink:href="#linearGradient1133"
       id="linearGradient1135"
       x1="8.5045834"
       y1="7.2082119"
       x2="11.845448"
       y2="15.458228"
       gradientUnits="userSpaceOnUse"
       gradientTransform="matrix(1.5339478,0,0,1.5339478,-2.5030058,-2.776836)" />
    <linearGradient
       inkscape:collect="always"
       id="linearGradient1133">
      <stop
         style="stop-color:#f48e06;stop-opacity:1;"
         offset="0"
         id="stop1129" />
      <stop
         style="stop-color:#f4bb06;stop-opacity:1"
         offset="1"
         id="stop1131" />
    </linearGradient>
    <linearGradient
       inkscape:collect="always"
       xlink:href="#linearGradient1179"
       id="linearGradient1181"
       x1="16.952085"
       y1="12.286823"
       x2="23.71718"
       y2="24.434706"
       gradientUnits="userSpaceOnUse"
       gradientTransform="matrix(1.5339478,0,0,1.5339478,-2.5030058,-2.776836)" />
    <linearGradient
       inkscape:collect="always"
       id="linearGradient1179">
      <stop
         style="stop-color:#a0a1a1;stop-opacity:1"
         offset="0"
         id="stop1175" />
      <stop
         style="stop-color:#919797;stop-opacity:0.98594308"
         offset="1"
         id="stop1177" />
    </linearGradient>
  </defs>
  <rect
     style="fill:url(#linearGradient1779);fill-opacity:1;stroke-width:2.625"
     id="rect1750"
     width="42"
     height="42"
     x="3"
     y="3"
     ry="3" />
  <path
     style="opacity:0.2;stroke-width:0.556828"
     d="m 19.250665,23.18734 c -1.865032,-0.463374 -3.117627,-1.077304 -3.443581,-3.201081 -0.08283,-0.539718 -0.208245,-0.981308 -0.278697,-0.981308 -0.07044,0 -0.581796,0.228834 -1.136326,0.508522 -0.571489,0.28824 -1.312811,0.412124 -1.857894,0.381358 C 11.530488,19.838181 10.62485,19.09013 10.01346,18.045424 9.7667732,17.623901 9.5645552,17.145576 9.5640802,16.778298 c -6.49e-4,-0.529903 -0.008,-0.833341 -0.588664,-0.853111 -0.920383,0.136905 -1.501304,-0.01873 -1.882569,-0.422033 -0.325821,-0.339469 -0.444318,-1.573441 -0.444318,-1.803991 0,-0.230547 -0.70181,-0.325822 -1.106447,-0.760789 -0.503303,-0.541024 -0.758332,-0.767489 -0.132043,-0.769238 2.594033,0.188293 5.0111088,0.514447 7.6261958,0.528174 3.4353,-0.0281 5.813591,-0.23362 9.196791,-0.585439 0.321307,0.111583 1.134074,1.248003 1.264725,3.699841 0.106011,1.989216 -0.463311,3.371171 -0.9931,5.980263 -0.369077,1.578498 -1.90828,1.654049 -3.25398,1.395368 z"
     id="path2" />
  <path
     style="opacity:0.2;stroke-width:0.556828"
     d="m 22.074781,12.10652 c 0,0 0.3323,0.917071 0.447888,3.076486 0.106747,1.994291 -0.131674,4.570944 -0.665212,7.186691 0,0 -0.209549,0.813078 -1.019037,5.665177 -0.325318,1.945784 -0.646687,4.847232 -0.714109,6.169633 -0.105965,2.078593 -0.06168,2.518392 0.325984,3.245898 0.573718,1.076628 2.012724,1.914368 3.245208,1.919503 l 0.950446,0.0038 -0.110367,-1.780736 c -0.194145,-3.132534 1.195175,-6.720884 3.366825,-8.238821 1.951757,-1.364235 2.373002,-0.427737 1.648936,3.666781 -0.647046,3.658955 -0.5602,4.773127 0.444829,5.70462 0.856759,0.794068 2.10094,0.874728 3.946777,0.256404 1.905769,-0.638401 4.852437,-3.328389 4.490161,-4.307598 -0.190944,-0.51612 -0.417456,-0.336358 -1.55657,0.580792 -1.336756,1.076281 -2.246941,1.04445 -2.769058,0.446049 -0.379353,-0.434769 -0.367572,-0.701815 0.231246,-3.190595 0.433861,-1.803208 0.825768,-3.104414 0.833208,-4.537908 0.01013,-2.271786 -0.288953,-3.207634 -2.447029,-3.534722 -1.649434,-0.232347 -4.095286,0.235675 -6.059539,1.637406 -0.602571,0.430009 -1.146566,0.728861 -1.208856,0.664255 -0.06229,-0.06461 0.257996,-2.23807 0.711733,-4.625694 0.453734,-2.387623 0.825143,-4.634081 0.825143,-4.991765 0,-0.661075 -0.915197,-1.711769 -3.603814,-4.138027 -0.539002,-0.486424 -0.831489,-0.766391 -1.314795,-0.877702 z"
     id="path4" />
  <path
     style="fill:url(#linearGradient1135);fill-opacity:1;stroke-width:0.556828"
     d="m 19.250665,22.630492 c -1.865032,-0.463375 -3.117627,-1.077304 -3.443581,-3.201082 -0.08283,-0.539718 -0.208245,-0.981308 -0.278697,-0.981308 -0.07044,0 -0.581796,0.228836 -1.136326,0.508522 -0.571489,0.28824 -1.312811,0.412124 -1.857894,0.381358 C 11.530488,19.281332 10.62485,18.53328 10.01346,17.488575 9.7667732,17.067052 9.5645552,16.588729 9.5640802,16.221449 c -6.49e-4,-0.529904 -0.008,-0.83334 -0.588664,-0.853111 -0.920383,0.136905 -1.501304,-0.01873 -1.882569,-0.422034 -0.325821,-0.339468 -0.444318,-1.57344 -0.444318,-1.803988 0,-0.230549 -0.70181,-0.325823 -1.106447,-0.76079 -0.503303,-0.541025 -0.758332,-0.76749 -0.132043,-0.769239 2.594033,0.188293 5.0111088,0.514449 7.6261958,0.528177 3.4353,-0.0281 5.813591,-0.233621 9.196791,-0.585442 0.321307,0.111583 1.134074,1.248003 1.264725,3.699842 0.106011,1.989216 -0.463311,3.371171 -0.9931,5.980262 -0.369077,1.578498 -1.90828,1.654051 -3.25398,1.395367 z"
     id="path6" />
  <path
     style="opacity:0.2;fill:#ffffff;stroke-width:0.556828"
     d="m 22.233502,11.555107 c -3.383204,0.35182 -5.762124,0.557008 -9.197425,0.585104 -2.615086,-0.01368 -5.0318758,-0.339161 -7.6259088,-0.527463 -0.53234,0.0015 -0.413293,0.178718 -0.06091,0.56009 0.02183,-7.63e-4 0.03642,-0.0032 0.06091,-0.0034 2.594033,0.188314 5.0108228,0.513735 7.6259088,0.527463 3.435301,-0.0281 5.814221,-0.233284 9.197425,-0.585102 0.321305,0.111582 1.133082,1.248012 1.263733,3.699849 0.0046,0.08925 0.0012,0.171856 0.0034,0.258837 0.01012,-0.263696 0.01181,-0.532669 -0.0034,-0.815664 -0.130646,-2.451838 -0.942428,-3.588263 -1.263733,-3.699852 z"
     id="path8" />
  <path
     style="fill:url(#linearGradient1181);fill-opacity:1;stroke-width:0.556828"
     d="m 22.074781,11.549671 c 0,0 0.3323,0.91707 0.447888,3.076486 0.106747,1.994292 -0.131674,4.570944 -0.665212,7.18669 0,0 -0.209549,0.81308 -1.019037,5.665178 -0.325318,1.945784 -0.646687,4.847232 -0.714109,6.169633 -0.105965,2.078593 -0.06168,2.518391 0.325984,3.245898 0.573718,1.076628 2.012724,1.914367 3.245208,1.919503 l 0.950446,0.0038 -0.110367,-1.780737 c -0.194145,-3.132534 1.195175,-6.720885 3.366825,-8.238821 1.951757,-1.364235 2.373002,-0.427736 1.648936,3.666781 -0.647046,3.658955 -0.5602,4.773127 0.444829,5.70462 0.856759,0.79407 2.10094,0.874728 3.946777,0.256405 1.905769,-0.638403 4.852437,-3.32839 4.490161,-4.307598 -0.190944,-0.51612 -0.417456,-0.33636 -1.55657,0.580791 -1.336756,1.07628 -2.246941,1.044449 -2.769058,0.446049 -0.379353,-0.434784 -0.367572,-0.70183 0.231246,-3.19061 0.433861,-1.803208 0.825768,-3.104413 0.833208,-4.537909 0.01013,-2.271786 -0.288953,-3.207634 -2.447029,-3.53472 -1.649434,-0.232346 -4.095286,0.235674 -6.059539,1.637408 -0.602571,0.430008 -1.146566,0.728861 -1.208856,0.664251 -0.06229,-0.06461 0.257996,-2.23807 0.711733,-4.625693 0.453734,-2.387622 0.825143,-4.634081 0.825143,-4.991764 0,-0.661076 -0.915197,-1.711771 -3.603814,-4.138028 -0.539002,-0.486422 -0.831489,-0.766389 -1.314795,-0.8777 z"
     id="path10" />
  <path
     style="opacity:0.2;fill:#ffffff;stroke-width:0.556828"
     d="m 22.074718,11.549671 c 0,0 0.06978,0.215926 0.153333,0.610114 0.394073,0.133259 0.684431,0.393874 1.161504,0.824365 2.41102,2.175746 3.38949,3.24188 3.56717,3.916274 0.01396,-0.120339 0.03697,-0.284612 0.03697,-0.334965 0,-0.661077 -0.915527,-1.711877 -3.604145,-4.138136 -0.538997,-0.486376 -0.831533,-0.766343 -1.31484,-0.877652 z m 0.467647,4.279514 c -0.01832,1.778534 -0.253075,3.865335 -0.685158,5.98371 0,0 -0.209549,0.812954 -1.019035,5.665053 -0.325318,1.945784 -0.646014,4.84728 -0.713433,6.169681 -0.03611,0.708434 -0.04559,1.186021 -0.03915,1.589998 0.0075,-0.30146 0.01789,-0.614462 0.03915,-1.033173 0.06743,-1.3224 0.388115,-4.223894 0.713433,-6.16968 0.809484,-4.852098 1.019035,-5.665055 1.019035,-5.665055 0.477896,-2.342971 0.716779,-4.65071 0.685158,-6.540534 z m 9.529126,7.997854 c -1.599999,-0.04691 -3.687498,0.464626 -5.406219,1.691144 -0.554435,0.395655 -1.041298,0.666431 -1.166942,0.659054 -0.03893,0.319124 -0.05913,0.543786 -0.04134,0.562264 0.06229,0.06461 0.605695,-0.234485 1.20827,-0.664494 1.964249,-1.401734 4.410402,-1.869111 6.059837,-1.636767 2.028205,0.307406 2.409676,1.167465 2.440465,3.153901 0.0017,-0.05883 0.0063,-0.116948 0.0066,-0.176192 0.01013,-2.271784 -0.288913,-3.207454 -2.446988,-3.534543 -0.206183,-0.02904 -0.425048,-0.04767 -0.653619,-0.05438 z m -2.196854,6.094637 c -0.02827,0.64967 -0.13692,1.490425 -0.323003,2.542695 -0.294451,1.665079 -0.428183,2.786766 -0.401305,3.62046 0.0341,-0.767865 0.168341,-1.746244 0.401305,-3.063633 0.245333,-1.387325 0.355624,-2.403946 0.323003,-3.099522 z m 8.282793,3.910837 c -0.213096,0.0074 -0.56919,0.292472 -1.281138,0.865689 -1.336756,1.076281 -2.246788,1.044298 -2.768904,0.445898 -0.118911,-0.136261 -0.193449,-0.262487 -0.229475,-0.439371 -0.06519,0.550866 0.0181,0.754051 0.229475,0.996197 0.522116,0.5984 1.432148,0.630383 2.768904,-0.445896 1.08123,-0.870548 1.33901,-1.068672 1.525836,-0.646007 0.06341,-0.188715 0.08007,-0.357414 0.03045,-0.491573 -0.0716,-0.193554 -0.147305,-0.289298 -0.275152,-0.284937 z m -13.631371,2.888536 c -0.0081,0.292985 -0.008,0.584946 0.0098,0.872216 l 0.07504,1.223495 h 0.03481 l -0.109833,-1.780323 c -0.0066,-0.10417 -0.0068,-0.210286 -0.0098,-0.315388 z"
     id="path12" />
</svg>
