<?xml version="1.0" encoding="UTF-8" standalone="no"?>
<!-- Created with Inkscape (http://www.inkscape.org/) -->

<svg
   width="48"
   height="48"
   viewBox="0 0 48 48"
   version="1.1"
   id="svg1015"
   inkscape:version="1.1.2 (0a00cf5339, 2022-02-04)"
   sodipodi:docname="hollow-knight.svg"
   xmlns:inkscape="http://www.inkscape.org/namespaces/inkscape"
   xmlns:sodipodi="http://sodipodi.sourceforge.net/DTD/sodipodi-0.dtd"
   xmlns:xlink="http://www.w3.org/1999/xlink"
   xmlns="http://www.w3.org/2000/svg"
   xmlns:svg="http://www.w3.org/2000/svg">
  <sodipodi:namedview
     id="namedview1017"
     pagecolor="#ffffff"
     bordercolor="#000000"
     borderopacity="0.25"
     inkscape:showpageshadow="2"
     inkscape:pageopacity="0.0"
     inkscape:pagecheckerboard="0"
     inkscape:deskcolor="#d1d1d1"
     inkscape:document-units="px"
     showgrid="false"
     inkscape:zoom="4.2708333"
     inkscape:cx="-31.258537"
     inkscape:cy="7.2585366"
     inkscape:window-width="1920"
     inkscape:window-height="1006"
     inkscape:window-x="0"
     inkscape:window-y="0"
     inkscape:window-maximized="1"
     inkscape:current-layer="svg1015"
     inkscape:pageshadow="2"
     showguides="true"
     inkscape:guide-bbox="true" />
  <defs
     id="defs1012">
    <linearGradient
       inkscape:collect="always"
       xlink:href="#linearGradient1777"
       id="linearGradient1779"
       x1="0.5291667"
       y1="0.52916712"
       x2="4.7625003"
       y2="4.7625003"
       gradientUnits="userSpaceOnUse"
       gradientTransform="matrix(9.9212586,0,0,9.9212586,-2.2499999,-2.2499999)" />
    <linearGradient
       inkscape:collect="always"
       id="linearGradient1777">
      <stop
         style="stop-color:#b146c2;stop-opacity:0.98823529"
         offset="0"
         id="stop1773" />
      <stop
         style="stop-color:#881798;stop-opacity:1"
         offset="1"
         id="stop1775" />
    </linearGradient>
  </defs>
  <rect
     style="fill:url(#linearGradient1779);fill-opacity:1;stroke-width:2.625"
     id="rect1750"
     width="42"
     height="42"
     x="3"
     y="3"
     ry="3" />
  <g
     id="g2995"
     style="fill:#0a0010;fill-opacity:0.0217671"
     transform="matrix(1.5451473,0,0,1.5451473,-2.5247999,-1.1679718)">
    <path
       id="path2914"
       style="fill:#0a0010;fill-opacity:0.0217671;stroke-width:0.487468"
       d="m 11.190518,7.3211873 c -0.01209,-3.416e-4 -0.02438,1.286e-4 -0.03721,0.00103 -0.10264,0.00719 -0.230144,0.05338 -0.412378,0.1421103 -1.0225109,0.4978133 -2.1599971,1.9423509 -2.654101,3.3698194 -0.440614,1.272938 -0.4830027,2.668509 -0.1173056,3.802868 0.4197601,1.262975 1.1670633,2.332296 2.1704096,3.222542 0.290798,0.634896 -0.11733,1.078271 0.06976,2.771923 0.437783,4.050386 1.412621,6.487976 6.77478,6.487976 5.362156,0 6.337484,-2.437591 6.77478,-6.487976 0.187094,-1.693652 -0.221027,-2.137027 0.06976,-2.771923 1.003347,-0.890246 1.751169,-1.959567 2.170927,-3.222542 0.365693,-1.134359 0.323306,-2.52993 -0.117305,-3.802868 -0.494093,-1.4274645 -1.631583,-2.8720026 -2.654092,-3.3698159 -0.182232,-0.08873 -0.309745,-0.1348697 -0.412378,-0.1421103 -0.10264,-0.00719 -0.179752,0.025571 -0.262516,0.095601 0,0 0.701116,0.7198625 0.77928,1.4267867 -0.146729,0.515856 -1.135847,0.432531 -1.135847,0.432531 0,0 1.524852,1.4045445 1.793689,2.4975225 0.216519,0.918267 0.09916,2.615214 -0.918808,3.04064 0,0 -2.533764,-0.878498 -6.087483,-0.878498 -3.553719,0 -6.086967,0.878498 -6.086967,0.878498 C 9.8795355,14.389876 9.7621891,12.69293 9.9787065,11.774662 10.247544,10.681684 11.772395,9.2771405 11.772395,9.2771405 c 0,0 -0.989121,0.08333 -1.135848,-0.432532 0.07817,-0.7069239 0.778764,-1.4267864 0.778764,-1.4267864 -0.07241,-0.061276 -0.140188,-0.094244 -0.224793,-0.096635 z m 9.451103,13.4622257 a 1.8640084,2.26679 26.323018 0 1 0.781864,0.171049 1.8640084,2.26679 26.323018 0 1 0.630969,2.873726 1.8640084,2.26679 26.323018 0 1 -2.684073,1.168405 1.8640084,2.26679 26.323018 0 1 -0.631486,-2.87321 1.8640084,2.26679 26.323018 0 1 1.902726,-1.33997 z m -7.314282,5.17e-4 a 2.26679,1.8640084 63.676982 0 1 1.902726,1.33997 2.26679,1.8640084 63.676982 0 1 -0.631486,2.873209 2.26679,1.8640084 63.676982 0 1 -2.684074,-1.168404 2.26679,1.8640084 63.676982 0 1 0.631486,-2.873726 2.26679,1.8640084 63.676982 0 1 0.781348,-0.171049 z" />
    <path
       id="path2970"
       style="fill:#0a0010;fill-opacity:0.0217671;stroke-width:0.487468"
       d="m 11.273747,7.3839934 c -0.01209,-3.416e-4 -0.02438,1.286e-4 -0.03721,0.00103 -0.10264,0.00719 -0.230144,0.05338 -0.412378,0.1421103 -1.0225108,0.4978133 -2.159997,1.9423509 -2.6541009,3.3698193 -0.440614,1.272938 -0.4830027,2.668509 -0.1173056,3.802868 0.4197601,1.262975 1.1670633,2.332296 2.1704095,3.222542 0.290798,0.634896 -0.11733,1.078271 0.06976,2.771923 0.437783,4.050386 1.412621,6.487976 6.77478,6.487976 5.362156,0 6.337484,-2.437591 6.77478,-6.487976 0.187094,-1.693652 -0.221027,-2.137027 0.06976,-2.771923 1.003347,-0.890246 1.751169,-1.959567 2.170927,-3.222542 0.365693,-1.134359 0.323306,-2.52993 -0.117305,-3.802868 C 25.471771,9.4694886 24.334281,8.0249505 23.311772,7.5271372 23.12954,7.4384072 23.002027,7.3922675 22.899394,7.3850269 c -0.10264,-0.00719 -0.179752,0.025571 -0.262516,0.095601 0,0 0.701116,0.7198625 0.77928,1.4267867 -0.146729,0.515856 -1.135847,0.432531 -1.135847,0.432531 0,0 1.524852,1.4045444 1.793689,2.4975224 0.216519,0.918267 0.09916,2.615214 -0.918808,3.04064 0,0 -2.533764,-0.878498 -6.087483,-0.878498 -3.553719,0 -6.086967,0.878498 -6.086967,0.878498 -1.0179774,-0.425426 -1.1353238,-2.122372 -0.918807,-3.04064 0.268838,-1.092978 1.793689,-2.4975214 1.793689,-2.4975214 0,0 -0.989121,0.08333 -1.135848,-0.432532 0.07817,-0.7069239 0.778764,-1.4267864 0.778764,-1.4267864 -0.07241,-0.061276 -0.140188,-0.094244 -0.224793,-0.096635 z M 20.72485,20.846219 a 1.8640084,2.26679 26.323018 0 1 0.781864,0.171049 1.8640084,2.26679 26.323018 0 1 0.630969,2.873726 1.8640084,2.26679 26.323018 0 1 -2.684073,1.168405 1.8640084,2.26679 26.323018 0 1 -0.631486,-2.87321 1.8640084,2.26679 26.323018 0 1 1.902726,-1.33997 z m -7.314282,5.17e-4 a 2.26679,1.8640084 63.676982 0 1 1.902726,1.33997 2.26679,1.8640084 63.676982 0 1 -0.631486,2.873209 2.26679,1.8640084 63.676982 0 1 -2.684074,-1.168404 2.26679,1.8640084 63.676982 0 1 0.631486,-2.873726 2.26679,1.8640084 63.676982 0 1 0.781348,-0.171049 z" />
    <path
       id="path2972"
       style="fill:#0a0010;fill-opacity:0.0217671;stroke-width:0.487468"
       d="m 11.367199,7.4576929 c -0.01209,-3.416e-4 -0.02438,1.286e-4 -0.03721,0.00103 -0.10264,0.00719 -0.230144,0.05338 -0.412378,0.1421103 C 9.8951,8.0986465 8.7576138,9.5431841 8.2635099,10.970653 c -0.440614,1.272938 -0.4830027,2.668509 -0.1173056,3.802868 0.4197601,1.262975 1.1670633,2.332296 2.1704097,3.222542 0.290798,0.634896 -0.11733,1.078271 0.06976,2.771923 0.437783,4.050386 1.412621,6.487976 6.77478,6.487976 5.362156,0 6.337484,-2.437591 6.77478,-6.487976 0.187094,-1.693652 -0.221027,-2.137027 0.06976,-2.771923 1.003347,-0.890246 1.751169,-1.959567 2.170927,-3.222542 0.365693,-1.134359 0.323306,-2.52993 -0.117305,-3.802868 C 25.565223,9.5431881 24.427733,8.09865 23.405224,7.6008367 23.222992,7.5121067 23.095479,7.465967 22.992846,7.4587264 c -0.10264,-0.00719 -0.179752,0.025571 -0.262516,0.095601 0,0 0.701116,0.7198625 0.77928,1.4267867 -0.146729,0.515856 -1.135847,0.432531 -1.135847,0.432531 0,0 1.524852,1.4045449 1.793689,2.4975229 0.216519,0.918267 0.09916,2.615214 -0.918808,3.04064 0,0 -2.533764,-0.878498 -6.087483,-0.878498 -3.553719,0 -6.086967,0.878498 -6.086967,0.878498 -1.017978,-0.425426 -1.135324,-2.122372 -0.918807,-3.04064 0.268838,-1.092978 1.793689,-2.4975219 1.793689,-2.4975219 0,0 -0.989121,0.08333 -1.135848,-0.432532 0.07817,-0.7069239 0.778764,-1.4267864 0.778764,-1.4267864 -0.07241,-0.061276 -0.140188,-0.094244 -0.224793,-0.096635 z m 9.451103,13.4622261 a 1.8640084,2.26679 26.323018 0 1 0.781864,0.171049 1.8640084,2.26679 26.323018 0 1 0.630969,2.873726 1.8640084,2.26679 26.323018 0 1 -2.684073,1.168405 1.8640084,2.26679 26.323018 0 1 -0.631486,-2.87321 1.8640084,2.26679 26.323018 0 1 1.902726,-1.33997 z m -7.314282,5.17e-4 a 2.26679,1.8640084 63.676982 0 1 1.902726,1.33997 2.26679,1.8640084 63.676982 0 1 -0.631486,2.873209 2.26679,1.8640084 63.676982 0 1 -2.684074,-1.168404 2.26679,1.8640084 63.676982 0 1 0.631486,-2.873726 2.26679,1.8640084 63.676982 0 1 0.781348,-0.171049 z" />
    <path
       id="path2974"
       style="fill:#0a0010;fill-opacity:0.0217671;stroke-width:0.487468"
       d="m 11.49854,7.4806282 c -0.01209,-3.416e-4 -0.02438,1.286e-4 -0.03721,0.00103 -0.10264,0.00719 -0.230144,0.05338 -0.412378,0.1421103 -1.022511,0.4978133 -2.1599972,1.9423509 -2.6541011,3.3698195 -0.440614,1.272938 -0.4830027,2.668509 -0.1173056,3.802868 0.4197601,1.262975 1.1670633,2.332296 2.1704097,3.222542 0.290798,0.634896 -0.11733,1.078271 0.06976,2.771923 0.437783,4.050386 1.412621,6.487976 6.77478,6.487976 5.362156,0 6.337484,-2.437591 6.77478,-6.487976 0.187094,-1.693652 -0.221027,-2.137027 0.06976,-2.771923 1.003347,-0.890246 1.751169,-1.959567 2.170927,-3.222542 0.365693,-1.134359 0.323306,-2.52993 -0.117305,-3.802868 C 25.696564,9.5661234 24.559074,8.1215853 23.536565,7.623772 23.354333,7.535042 23.22682,7.4889023 23.124187,7.4816617 c -0.10264,-0.00719 -0.179752,0.025571 -0.262516,0.095601 0,0 0.701116,0.7198625 0.77928,1.4267867 -0.146729,0.515856 -1.135847,0.432531 -1.135847,0.432531 0,0 1.524852,1.4045446 1.793689,2.4975226 0.216519,0.918267 0.09916,2.615214 -0.918808,3.04064 0,0 -2.533764,-0.878498 -6.087483,-0.878498 -3.553719,0 -6.086967,0.878498 -6.086967,0.878498 -1.017978,-0.425426 -1.135324,-2.122372 -0.918807,-3.04064 0.268838,-1.092978 1.793689,-2.4975216 1.793689,-2.4975216 0,0 -0.989121,0.08333 -1.135848,-0.432532 C 11.022739,8.2971255 11.723333,7.577263 11.723333,7.577263 11.650923,7.515987 11.583145,7.483019 11.49854,7.4806282 Z m 9.451103,13.4622258 a 1.8640084,2.26679 26.323018 0 1 0.781864,0.171049 1.8640084,2.26679 26.323018 0 1 0.630969,2.873726 1.8640084,2.26679 26.323018 0 1 -2.684073,1.168405 1.8640084,2.26679 26.323018 0 1 -0.631486,-2.87321 1.8640084,2.26679 26.323018 0 1 1.902726,-1.33997 z m -7.314282,5.17e-4 a 2.26679,1.8640084 63.676982 0 1 1.902726,1.33997 2.26679,1.8640084 63.676982 0 1 -0.631486,2.873209 2.26679,1.8640084 63.676982 0 1 -2.684074,-1.168404 2.26679,1.8640084 63.676982 0 1 0.631486,-2.873726 2.26679,1.8640084 63.676982 0 1 0.781348,-0.171049 z" />
    <path
       id="path2976"
       style="fill:#0a0010;fill-opacity:0.0217671;stroke-width:0.487468"
       d="m 11.591992,7.5543277 c -0.01209,-3.416e-4 -0.02438,1.286e-4 -0.03721,0.00103 -0.10264,0.00719 -0.230144,0.05338 -0.412378,0.1421103 -1.022511,0.4978133 -2.1599972,1.9423509 -2.6541011,3.36982 -0.440614,1.272938 -0.4830027,2.668509 -0.1173056,3.802868 0.4197601,1.262975 1.1670633,2.332296 2.1704097,3.222542 0.290798,0.634896 -0.11733,1.078271 0.06976,2.771923 0.437783,4.050386 1.412621,6.487976 6.77478,6.487976 5.362156,0 6.337484,-2.437591 6.77478,-6.487976 0.187094,-1.693652 -0.221027,-2.137027 0.06976,-2.771923 1.003347,-0.890246 1.751169,-1.959567 2.170927,-3.222542 0.365693,-1.134359 0.323306,-2.52993 -0.117305,-3.802868 -0.494093,-1.4274651 -1.631583,-2.8720032 -2.654092,-3.3698165 -0.182232,-0.08873 -0.309745,-0.1348697 -0.412378,-0.1421103 -0.10264,-0.00719 -0.179752,0.025571 -0.262516,0.095601 0,0 0.701116,0.7198625 0.77928,1.4267867 -0.146729,0.515856 -1.135847,0.432531 -1.135847,0.432531 0,0 1.524852,1.4045451 1.793689,2.4975231 0.216519,0.918267 0.09916,2.615214 -0.918808,3.04064 0,0 -2.533764,-0.878498 -6.087483,-0.878498 -3.553719,0 -6.086967,0.878498 -6.086967,0.878498 -1.017978,-0.425426 -1.135324,-2.122372 -0.918807,-3.04064 0.268838,-1.092978 1.793689,-2.4975221 1.793689,-2.4975221 0,0 -0.989121,0.08333 -1.135848,-0.432532 0.07817,-0.7069239 0.778764,-1.4267864 0.778764,-1.4267864 -0.07241,-0.061276 -0.140188,-0.094244 -0.224793,-0.096635 z m 9.451103,13.4622263 a 1.8640084,2.26679 26.323018 0 1 0.781864,0.171049 1.8640084,2.26679 26.323018 0 1 0.630969,2.873726 1.8640084,2.26679 26.323018 0 1 -2.684073,1.168405 1.8640084,2.26679 26.323018 0 1 -0.631486,-2.87321 1.8640084,2.26679 26.323018 0 1 1.902726,-1.33997 z m -7.314282,5.17e-4 a 2.26679,1.8640084 63.676982 0 1 1.902726,1.33997 2.26679,1.8640084 63.676982 0 1 -0.631486,2.873209 2.26679,1.8640084 63.676982 0 1 -2.684074,-1.168404 2.26679,1.8640084 63.676982 0 1 0.631486,-2.873726 2.26679,1.8640084 63.676982 0 1 0.781348,-0.171049 z" />
    <path
       id="path2978"
       style="fill:#0a0010;fill-opacity:0.0217671;stroke-width:0.487468"
       d="m 11.723333,7.577263 c -0.01209,-3.416e-4 -0.02438,1.286e-4 -0.03721,0.00103 -0.10264,0.00719 -0.230144,0.05338 -0.412378,0.1421103 -1.022511,0.4978133 -2.1599972,1.9423509 -2.6541011,3.3698197 -0.440614,1.272938 -0.4830027,2.668509 -0.1173056,3.802868 0.4197601,1.262975 1.1670633,2.332296 2.1704097,3.222542 0.290798,0.634896 -0.11733,1.078271 0.06976,2.771923 0.437783,4.050386 1.412621,6.487976 6.77478,6.487976 5.362156,0 6.337484,-2.437591 6.77478,-6.487976 0.187094,-1.693652 -0.221027,-2.137027 0.06976,-2.771923 1.003347,-0.890246 1.751169,-1.959567 2.170927,-3.222542 0.365693,-1.134359 0.323306,-2.52993 -0.117305,-3.802868 C 25.921357,9.6627582 24.783867,8.2182201 23.761358,7.7204068 23.579126,7.6316768 23.451613,7.5855371 23.34898,7.5782965 c -0.10264,-0.00719 -0.179752,0.025571 -0.262516,0.095601 0,0 0.701116,0.7198625 0.77928,1.4267867 -0.146729,0.515856 -1.135847,0.432531 -1.135847,0.432531 0,0 1.524852,1.4045448 1.793689,2.4975228 0.216519,0.918267 0.09916,2.615214 -0.918808,3.04064 0,0 -2.533764,-0.878498 -6.087483,-0.878498 -3.553719,0 -6.086967,0.878498 -6.086967,0.878498 -1.017978,-0.425426 -1.135324,-2.122372 -0.918807,-3.04064 0.268838,-1.092978 1.793689,-2.4975218 1.793689,-2.4975218 0,0 -0.989121,0.08333 -1.135848,-0.432532 0.07817,-0.7069239 0.778764,-1.4267864 0.778764,-1.4267864 -0.07241,-0.061276 -0.140188,-0.094244 -0.224793,-0.096635 z m 9.451103,13.462226 a 1.8640084,2.26679 26.323018 0 1 0.781864,0.171049 1.8640084,2.26679 26.323018 0 1 0.630969,2.873726 1.8640084,2.26679 26.323018 0 1 -2.684073,1.168405 1.8640084,2.26679 26.323018 0 1 -0.631486,-2.87321 1.8640084,2.26679 26.323018 0 1 1.902726,-1.33997 z m -7.314282,5.17e-4 a 2.26679,1.8640084 63.676982 0 1 1.902726,1.33997 2.26679,1.8640084 63.676982 0 1 -0.631486,2.873209 2.26679,1.8640084 63.676982 0 1 -2.684074,-1.168404 2.26679,1.8640084 63.676982 0 1 0.631486,-2.873726 2.26679,1.8640084 63.676982 0 1 0.781348,-0.171049 z" />
    <path
       id="path2980"
       style="fill:#0a0010;fill-opacity:0.0217671;stroke-width:0.487468"
       d="m 11.867893,7.6430295 c -0.01209,-3.416e-4 -0.02438,1.286e-4 -0.03721,0.00103 -0.10264,0.00719 -0.230144,0.05338 -0.412378,0.1421103 -1.022511,0.4978133 -2.1599971,1.9423509 -2.654101,3.3698202 -0.440614,1.272938 -0.4830027,2.668509 -0.1173056,3.802868 0.4197601,1.262975 1.1670633,2.332296 2.1704096,3.222542 0.290798,0.634896 -0.11733,1.078271 0.06976,2.771923 0.437783,4.050386 1.412621,6.487976 6.77478,6.487976 5.362156,0 6.337484,-2.437591 6.77478,-6.487976 0.187094,-1.693652 -0.221027,-2.137027 0.06976,-2.771923 1.003347,-0.890246 1.751169,-1.959567 2.170927,-3.222542 0.365693,-1.134359 0.323306,-2.52993 -0.117305,-3.802868 C 26.065917,9.7285247 24.928427,8.2839866 23.905918,7.7861733 23.723686,7.6974433 23.596173,7.6513036 23.49354,7.644063 23.3909,7.636873 23.313788,7.669634 23.231024,7.739664 c 0,0 0.701116,0.7198625 0.77928,1.4267867 -0.146729,0.515856 -1.135847,0.432531 -1.135847,0.432531 0,0 1.524852,1.4045453 1.793689,2.4975233 0.216519,0.918267 0.09916,2.615214 -0.918808,3.04064 0,0 -2.533764,-0.878498 -6.087483,-0.878498 -3.553719,0 -6.086967,0.878498 -6.086967,0.878498 -1.017978,-0.425426 -1.135324,-2.122372 -0.918807,-3.04064 0.268838,-1.092978 1.793689,-2.4975223 1.793689,-2.4975223 0,0 -0.989121,0.08333 -1.135848,-0.432532 0.07817,-0.7069239 0.778764,-1.4267864 0.778764,-1.4267864 -0.07241,-0.061276 -0.140188,-0.094244 -0.224793,-0.096635 z m 9.451103,13.4622265 a 1.8640084,2.26679 26.323018 0 1 0.781864,0.171049 1.8640084,2.26679 26.323018 0 1 0.630969,2.873726 1.8640084,2.26679 26.323018 0 1 -2.684073,1.168405 1.8640084,2.26679 26.323018 0 1 -0.631486,-2.87321 1.8640084,2.26679 26.323018 0 1 1.902726,-1.33997 z m -7.314282,5.17e-4 a 2.26679,1.8640084 63.676982 0 1 1.902726,1.33997 2.26679,1.8640084 63.676982 0 1 -0.631486,2.873209 2.26679,1.8640084 63.676982 0 1 -2.684074,-1.168404 2.26679,1.8640084 63.676982 0 1 0.631486,-2.873726 2.26679,1.8640084 63.676982 0 1 0.781348,-0.171049 z" />
    <path
       id="path2982"
       style="fill:#0a0010;fill-opacity:0.0217671;stroke-width:0.487468"
       d="m 12.043028,7.7045474 c -0.01209,-3.416e-4 -0.02438,1.286e-4 -0.03721,0.00103 -0.10264,0.00719 -0.230144,0.05338 -0.412378,0.1421103 -1.022511,0.4978133 -2.1599967,1.9423509 -2.6541006,3.3698203 -0.440614,1.272938 -0.4830027,2.668509 -0.1173056,3.802868 0.4197601,1.262975 1.1670633,2.332296 2.1704092,3.222542 0.290798,0.634896 -0.11733,1.078271 0.06976,2.771923 0.437783,4.050386 1.412621,6.487976 6.77478,6.487976 5.362156,0 6.337484,-2.437591 6.77478,-6.487976 0.187094,-1.693652 -0.221027,-2.137027 0.06976,-2.771923 1.003347,-0.890246 1.751169,-1.959567 2.170927,-3.222542 0.365693,-1.134359 0.323306,-2.52993 -0.117305,-3.802868 -0.494093,-1.4274654 -1.631583,-2.8720035 -2.654092,-3.3698168 -0.182232,-0.08873 -0.309745,-0.1348697 -0.412378,-0.1421103 -0.10264,-0.00719 -0.179752,0.025571 -0.262516,0.095601 0,0 0.701116,0.7198625 0.77928,1.4267867 -0.146729,0.515856 -1.135847,0.432531 -1.135847,0.432531 0,0 1.524852,1.4045454 1.793689,2.4975234 0.216519,0.918267 0.09916,2.615214 -0.918808,3.04064 0,0 -2.533764,-0.878498 -6.087483,-0.878498 -3.553719,0 -6.086967,0.878498 -6.086967,0.878498 -1.017978,-0.425426 -1.135324,-2.122372 -0.918807,-3.04064 0.268838,-1.092978 1.793689,-2.4975224 1.793689,-2.4975224 0,0 -0.989121,0.08333 -1.135848,-0.432532 0.07817,-0.7069239 0.778764,-1.4267864 0.778764,-1.4267864 -0.07241,-0.061276 -0.140188,-0.094244 -0.224793,-0.096635 z m 9.451103,13.4622266 a 1.8640084,2.26679 26.323018 0 1 0.781864,0.171049 1.8640084,2.26679 26.323018 0 1 0.630969,2.873726 1.8640084,2.26679 26.323018 0 1 -2.684073,1.168405 1.8640084,2.26679 26.323018 0 1 -0.631486,-2.87321 1.8640084,2.26679 26.323018 0 1 1.902726,-1.33997 z m -7.314282,5.17e-4 a 2.26679,1.8640084 63.676982 0 1 1.902726,1.33997 2.26679,1.8640084 63.676982 0 1 -0.631486,2.873209 2.26679,1.8640084 63.676982 0 1 -2.684074,-1.168404 2.26679,1.8640084 63.676982 0 1 0.631486,-2.873726 2.26679,1.8640084 63.676982 0 1 0.781348,-0.171049 z" />
    <path
       id="path2984"
       style="fill:#0a0010;fill-opacity:0.0217671;stroke-width:0.487468"
       d="m 12.257281,7.7574975 c -0.01209,-3.416e-4 -0.02438,1.286e-4 -0.03721,0.00103 -0.10264,0.00719 -0.230144,0.05338 -0.412378,0.1421103 -1.022511,0.4978133 -2.1599965,1.9423509 -2.6541004,3.3698202 -0.440614,1.272938 -0.4830027,2.668509 -0.1173056,3.802868 0.4197601,1.262975 1.167063,2.332296 2.170409,3.222542 0.290798,0.634896 -0.11733,1.078271 0.06976,2.771923 0.437783,4.050386 1.412621,6.487976 6.77478,6.487976 5.362156,0 6.337484,-2.437591 6.77478,-6.487976 0.187094,-1.693652 -0.221027,-2.137027 0.06976,-2.771923 1.003347,-0.890246 1.751169,-1.959567 2.170927,-3.222542 0.365693,-1.134359 0.323306,-2.52993 -0.117305,-3.802868 C 26.455305,9.8429927 25.317815,8.3984546 24.295306,7.9006413 24.113074,7.8119113 23.985561,7.7657716 23.882928,7.758531 c -0.10264,-0.00719 -0.179752,0.025571 -0.262516,0.095601 0,0 0.701116,0.7198625 0.77928,1.4267867 -0.146729,0.515856 -1.135847,0.432531 -1.135847,0.432531 0,0 1.524852,1.4045453 1.793689,2.4975233 0.216519,0.918267 0.09916,2.615214 -0.918808,3.04064 0,0 -2.533764,-0.878498 -6.087483,-0.878498 -3.553719,0 -6.086967,0.878498 -6.086967,0.878498 -1.017978,-0.425426 -1.135324,-2.122372 -0.918807,-3.04064 0.268838,-1.092978 1.793689,-2.4975223 1.793689,-2.4975223 0,0 -0.989121,0.08333 -1.135848,-0.432532 0.07817,-0.7069239 0.778764,-1.4267864 0.778764,-1.4267864 -0.07241,-0.061276 -0.140188,-0.094244 -0.224793,-0.096635 z m 9.451103,13.4622265 a 1.8640084,2.26679 26.323018 0 1 0.781864,0.171049 1.8640084,2.26679 26.323018 0 1 0.630969,2.873726 1.8640084,2.26679 26.323018 0 1 -2.684073,1.168405 1.8640084,2.26679 26.323018 0 1 -0.631486,-2.87321 1.8640084,2.26679 26.323018 0 1 1.902726,-1.33997 z m -7.314282,5.17e-4 a 2.26679,1.8640084 63.676982 0 1 1.902726,1.33997 2.26679,1.8640084 63.676982 0 1 -0.631486,2.873209 2.26679,1.8640084 63.676982 0 1 -2.684074,-1.168404 2.26679,1.8640084 63.676982 0 1 0.631486,-2.873726 2.26679,1.8640084 63.676982 0 1 0.781348,-0.171049 z" />
  </g>
  <path
     id="path8"
     style="fill:#ffffff;fill-opacity:1;stroke-width:0.75321"
     d="m 14.714283,9.9320752 c -0.01868,-5.32e-4 -0.03767,1.98e-4 -0.05749,0.0016 -0.158594,0.01111 -0.355606,0.08248 -0.637185,0.2195808 -1.579929,0.769195 -3.337513,3.001219 -4.1009759,5.206868 -0.680814,1.966876 -0.746311,4.123239 -0.181255,5.875991 0.6485909,1.951484 1.8032849,3.603742 3.3536029,4.979303 0.449325,0.981008 -0.181293,1.666088 0.107789,4.28303 0.676439,6.258441 2.182708,10.024878 10.468033,10.024878 8.285321,0 9.792347,-3.766437 10.468033,-10.024878 0.289088,-2.616942 -0.341519,-3.302022 0.10779,-4.28303 1.550319,-1.375561 2.705814,-3.027819 3.354401,-4.979303 0.56505,-1.752755 0.499556,-3.909118 -0.181253,-5.875994 -0.763446,-2.205643 -2.521036,-4.437667 -4.100963,-5.206862 -0.281575,-0.137101 -0.478602,-0.2083938 -0.637185,-0.2195818 -0.158594,-0.01111 -0.277743,0.03951 -0.405625,0.1477178 0,0 1.083327,1.112294 1.204102,2.204595 -0.226718,0.797074 -1.755051,0.668325 -1.755051,0.668325 0,0 2.356121,2.170228 2.771514,3.85904 0.334553,1.418859 0.153217,4.040891 -1.419694,4.698238 0,0 -3.915039,-1.35741 -9.406058,-1.35741 -5.491019,0 -9.405261,1.35741 -9.405261,1.35741 -1.572926,-0.657347 -1.754243,-3.279379 -1.419692,-4.698238 0.415394,-1.688812 2.771514,-3.859039 2.771514,-3.859039 0,0 -1.528338,0.128752 -1.755053,-0.668325 0.120784,-1.092302 1.203305,-2.204595 1.203305,-2.204595 C 14.949742,9.986716 14.845015,9.9357752 14.714288,9.9320812 Z M 29.317629,30.733198 a 2.8801676,3.5025245 26.323018 0 1 1.208095,0.264296 2.8801676,3.5025245 26.323018 0 1 0.974941,4.44033 2.8801676,3.5025245 26.323018 0 1 -4.147289,1.805358 2.8801676,3.5025245 26.323018 0 1 -0.975739,-4.439533 2.8801676,3.5025245 26.323018 0 1 2.939992,-2.070451 z m -11.301643,8.17e-4 a 3.5025245,2.8801676 63.676982 0 1 2.939992,2.070433 3.5025245,2.8801676 63.676982 0 1 -0.975739,4.439531 3.5025245,2.8801676 63.676982 0 1 -4.147289,-1.805356 3.5025245,2.8801676 63.676982 0 1 0.975739,-4.44033 3.5025245,2.8801676 63.676982 0 1 1.207297,-0.264297 z" />
</svg>
