<?xml version="1.0" encoding="UTF-8" standalone="no"?>
<svg
   width="64px"
   height="64px"
   viewBox="0 0 64 64"
   version="1.1"
   id="svg28"
   sodipodi:docname="ximian-evolution-email.svg"
   inkscape:version="1.1.2 (0a00cf5339, 2022-02-04)"
   xmlns:inkscape="http://www.inkscape.org/namespaces/inkscape"
   xmlns:sodipodi="http://sodipodi.sourceforge.net/DTD/sodipodi-0.dtd"
   xmlns:xlink="http://www.w3.org/1999/xlink"
   xmlns="http://www.w3.org/2000/svg"
   xmlns:svg="http://www.w3.org/2000/svg">
  <sodipodi:namedview
     id="namedview30"
     pagecolor="#ffffff"
     bordercolor="#666666"
     borderopacity="1.0"
     inkscape:pageshadow="2"
     inkscape:pageopacity="0.0"
     inkscape:pagecheckerboard="0"
     showgrid="false"
     inkscape:zoom="2.4804688"
     inkscape:cx="12.699213"
     inkscape:cy="-34.469291"
     inkscape:window-width="1920"
     inkscape:window-height="1030"
     inkscape:window-x="0"
     inkscape:window-y="24"
     inkscape:window-maximized="1"
     inkscape:current-layer="svg28" />
  <defs
     id="defs17">
    <linearGradient
       inkscape:collect="always"
       id="linearGradient1413">
      <stop
         style="stop-color:#327fd7;stop-opacity:1"
         offset="0"
         id="stop1409" />
      <stop
         style="stop-color:#2d65c0;stop-opacity:1"
         offset="1"
         id="stop1411" />
    </linearGradient>
    <linearGradient
       inkscape:collect="always"
       id="linearGradient1008">
      <stop
         style="stop-color:#ffffff;stop-opacity:1;"
         offset="0"
         id="stop1004" />
      <stop
         style="stop-color:#ffffff;stop-opacity:0.95999944"
         offset="0.33150008"
         id="stop1078" />
      <stop
         style="stop-color:#ffffff;stop-opacity:0;"
         offset="1"
         id="stop1006" />
    </linearGradient>
    <linearGradient
       id="linear0"
       gradientUnits="userSpaceOnUse"
       x1="11.6194"
       y1="3.5841"
       x2="21.9026"
       y2="22.3063"
       gradientTransform="matrix(2,0,0,2,0,0)">
      <stop
         offset="0"
         style="stop-color:rgb(1.960784%,39.215686%,80%);stop-opacity:1;"
         id="stop2" />
      <stop
         offset="1"
         style="stop-color:rgb(1.960784%,23.529412%,56.862745%);stop-opacity:1;"
         id="stop4" />
    </linearGradient>
    <linearGradient
       id="linear1"
       gradientUnits="userSpaceOnUse"
       x1="-11.7085"
       y1="19.3075"
       x2="-11.4598"
       y2="23.1208"
       gradientTransform="matrix(7.907,0,0,-7.907,125.6144,207.6052)">
      <stop
         offset="0"
         style="stop-color:rgb(14.117647%,64.705882%,90.196078%);stop-opacity:1;"
         id="stop7" />
      <stop
         offset="1"
         style="stop-color:rgb(21.960784%,80%,96.470588%);stop-opacity:1;"
         id="stop9" />
    </linearGradient>
    <linearGradient
       id="linear2"
       gradientUnits="userSpaceOnUse"
       x1="4.7103"
       y1="-32.7927"
       x2="43.1821"
       y2="-52.4177"
       gradientTransform="matrix(1.1974,0.0012,0.0012,-1.2038,-6.2362,-0.0532)">
      <stop
         offset="0"
         style="stop-color:rgb(18.823529%,78.431373%,94.509804%);stop-opacity:1;"
         id="stop12" />
      <stop
         offset="1"
         style="stop-color:rgb(7.058824%,51.372549%,88.627451%);stop-opacity:1;"
         id="stop14" />
    </linearGradient>
    <linearGradient
       inkscape:collect="always"
       xlink:href="#linearGradient11712"
       id="linearGradient11714"
       x1="1127.799"
       y1="569.37024"
       x2="1134.2808"
       y2="562.88843"
       gradientUnits="userSpaceOnUse"
       gradientTransform="matrix(0.74428836,0,0,0.74428836,-795.28648,-372.44994)" />
    <linearGradient
       inkscape:collect="always"
       id="linearGradient11712">
      <stop
         style="stop-color:#2863c9;stop-opacity:1;"
         offset="0"
         id="stop11708" />
      <stop
         style="stop-color:#2e69c7;stop-opacity:1"
         offset="1"
         id="stop11710" />
    </linearGradient>
    <linearGradient
       inkscape:collect="always"
       xlink:href="#linearGradient8646"
       id="linearGradient8648"
       x1="1112.9329"
       y1="566.78284"
       x2="1112.9329"
       y2="580.65942"
       gradientUnits="userSpaceOnUse"
       gradientTransform="matrix(0.74428836,0,0,0.74428836,-795.28648,-372.44994)" />
    <linearGradient
       inkscape:collect="always"
       id="linearGradient8646">
      <stop
         style="stop-color:#3476e5;stop-opacity:1;"
         offset="0"
         id="stop8642" />
      <stop
         style="stop-color:#366fdd;stop-opacity:1"
         offset="1"
         id="stop8644" />
    </linearGradient>
    <linearGradient
       inkscape:collect="always"
       xlink:href="#linearGradient14648"
       id="linearGradient14650"
       x1="1074.4435"
       y1="552.09802"
       x2="1091.1132"
       y2="570.21088"
       gradientUnits="userSpaceOnUse"
       gradientTransform="matrix(0.74428836,0,0,0.74428836,-795.28648,-372.44994)" />
    <linearGradient
       inkscape:collect="always"
       id="linearGradient14648">
      <stop
         style="stop-color:#246ad4;stop-opacity:1;"
         offset="0"
         id="stop14644" />
      <stop
         style="stop-color:#246ad4;stop-opacity:0;"
         offset="1"
         id="stop14646" />
    </linearGradient>
    <radialGradient
       inkscape:collect="always"
       xlink:href="#linearGradient1008"
       id="radialGradient1012"
       gradientUnits="userSpaceOnUse"
       gradientTransform="matrix(2.1978125,0,0,1.129102,-174.28679,5.0325085)"
       cx="93.891212"
       cy="16.988895"
       fx="93.891212"
       fy="16.988895"
       r="32.407684" />
    <linearGradient
       inkscape:collect="always"
       xlink:href="#linearGradient1413"
       id="linearGradient1415"
       x1="97.132431"
       y1="12.034545"
       x2="97.132431"
       y2="48.014626"
       gradientUnits="userSpaceOnUse"
       gradientTransform="matrix(0.74428836,0,0,0.74428836,-37.813646,2.0811292)" />
  </defs>
  <path
     id="rect1689"
     style="fill:url(#linearGradient1415);fill-opacity:1;stroke-width:18.6072;stroke-linecap:round;stroke-linejoin:round;stroke-opacity:0.811765"
     d="m 27.070935,8.5003536 c 3.73149,-2.6900293 7.208954,-3.5113516 10.538304,-0.811319 2.679141,2.6186744 16.716866,12.4922624 21.829234,17.3876774 1.148436,1.099716 1.25219,2.810143 1.269904,3.268744 V 41.78539 c 0,2.639374 -2.124869,4.764205 -4.764189,4.764205 H 8.2262985 c -2.639321,0 -4.7641898,-2.124831 -4.7641898,-4.764205 V 28.345441 c 0.1958967,-1.251298 0.2998738,-2.510612 1.6980939,-3.657017 z"
     sodipodi:nodetypes="ccscssssccc" />
  <rect
     style="fill:url(#radialGradient1012);fill-opacity:1;stroke-width:18.6072;stroke-linecap:round;stroke-linejoin:round;stroke-opacity:0.811765"
     id="rect7930"
     width="48.241325"
     height="28.673267"
     x="7.9478254"
     y="23.782309"
     rx="4.7642045"
     ry="4.7642045" />
  <path
     id="path9932"
     style="fill:url(#linearGradient11714);fill-opacity:1;stroke-width:18.6072;stroke-linecap:round;stroke-linejoin:round;stroke-opacity:0.811765"
     d="m 3.9604842,26.228692 c -0.3158016,0.637572 -0.4985988,1.354329 -0.4985988,2.11657 v 7.003873 6.436925 8.456106 c 0,6.519043 5.2484983,11.767608 11.7675716,11.767608 h 33.711051 c 6.518999,0 11.767572,-5.248565 11.767572,-11.767608 V 41.78606 35.349135 28.345262 c 0,-0.73107 -0.167614,-1.420221 -0.459375,-2.03807 -0.185254,0.41966 -0.438907,0.838448 -0.809711,1.193481 -5.112368,4.895416 -19.150838,14.768885 -21.829978,17.387559 -3.32935,2.700032 -6.806293,1.878874 -10.537783,-0.811155 L 5.159756,27.888805 C 4.6165,27.472807 4.2313307,26.882192 3.9604842,26.228692 Z" />
  <path
     id="path1721"
     style="fill:#ffffff;fill-opacity:0.10164084;stroke-width:18.6072;stroke-linecap:round;stroke-linejoin:round;stroke-opacity:0.811765"
     d="M 3.9609375 26.228516 C 3.8629492 26.426344 3.781828 26.633634 3.7109375 26.845703 C 4.1470891 27.611885 4.7761193 28.561393 5.1601562 28.855469 L 27.070312 45.042969 C 30.801803 47.732998 34.280025 48.555501 37.609375 45.855469 C 40.288515 43.236795 54.327085 33.362213 59.439453 28.466797 C 59.74326 28.175911 60.232343 27.477637 60.505859 26.998047 C 60.435277 26.760301 60.352344 26.527506 60.248047 26.306641 C 60.062793 26.726301 59.810257 27.144967 59.439453 27.5 C 54.327085 32.395416 40.288515 42.269998 37.609375 44.888672 C 34.280025 47.588704 30.801803 46.766201 27.070312 44.076172 L 5.1601562 27.888672 C 4.6169003 27.472674 4.231784 26.882016 3.9609375 26.228516 z " />
  <path
     id="path8177"
     style="fill:url(#linearGradient8648);fill-opacity:1;stroke:none;stroke-width:0.744288px;stroke-linecap:butt;stroke-linejoin:miter;stroke-opacity:1"
     d="m 32.880999,45.200982 c -1.49922,-0.04243 -3.075027,0.22252 -4.153203,0.920178 L 7.6275185,59.231979 c 2.0482816,1.731921 4.6968315,2.777996 7.6013425,2.777996 h 33.711052 c 2.555812,0 4.909698,-0.815464 6.835247,-2.189249 L 36.573339,46.12116 c -0.77138,-0.528035 -2.19312,-0.877776 -3.69234,-0.920178 z" />
  <path
     id="path13023"
     style="fill:url(#linearGradient14650);fill-opacity:1;stroke-width:18.6072;stroke-linecap:round;stroke-linejoin:round;stroke-opacity:0.811765"
     d="m 3.9604842,26.228692 c -0.3158016,0.637572 -0.4985988,1.354329 -0.4985988,2.11657 v 7.003873 6.436925 8.456106 c 0,6.519043 5.2484983,11.767608 11.7675716,11.767608 h 33.711051 c 6.518999,0 11.767572,-5.248565 11.767572,-11.767608 V 41.78606 35.349135 28.345262 c 0,-0.73107 -0.167614,-1.420221 -0.459375,-2.03807 -0.185254,0.41966 -0.438907,0.838448 -0.809711,1.193481 -5.112368,4.895416 -19.150838,14.768885 -21.829978,17.387559 -3.32935,2.700032 -6.806293,1.878874 -10.537783,-0.811155 L 5.159756,27.888805 C 4.6165,27.472807 4.2313307,26.882192 3.9604842,26.228692 Z" />
</svg>
