<?xml version="1.0" encoding="UTF-8" standalone="no"?>
<svg
   width="64"
   height="64"
   version="1.1"
   viewBox="0 0 16.933 16.933"
   id="svg14"
   sodipodi:docname="kid3.svg"
   xml:space="preserve"
   inkscape:version="1.1.2 (0a00cf5339, 2022-02-04)"
   xmlns:inkscape="http://www.inkscape.org/namespaces/inkscape"
   xmlns:sodipodi="http://sodipodi.sourceforge.net/DTD/sodipodi-0.dtd"
   xmlns:xlink="http://www.w3.org/1999/xlink"
   xmlns="http://www.w3.org/2000/svg"
   xmlns:svg="http://www.w3.org/2000/svg"><defs
     id="defs18"><linearGradient
       id="a-6"
       x1="99.036003"
       x2="99.036003"
       y1="11.64"
       y2="199.84"
       gradientTransform="matrix(0.07937344,0,0,0.07937344,0.52915634,0.5290246)"
       gradientUnits="userSpaceOnUse"><stop
         stop-color="#ff4b00"
         offset="0"
         id="stop405" /><stop
         stop-color="#f50f2d"
         offset="1"
         id="stop407" /></linearGradient><linearGradient
       id="linearGradient951"
       x1="220.50999"
       x2="217.88"
       y1="314.42001"
       y2="-128.39999"
       gradientUnits="userSpaceOnUse"
       xlink:href="#a-3" /><linearGradient
       id="a-3"><stop
         stop-color="#c52828"
         offset="0"
         id="stop399" /><stop
         stop-color="#ff5454"
         offset="1"
         id="stop401" /></linearGradient><clipPath
       clipPathUnits="userSpaceOnUse"
       id="clipPath1049-3"><path
         id="path1051-6"
         style="fill:#ff0000;fill-opacity:1;fill-rule:nonzero;stroke:none"
         d="M 463.63477,-41.029297 V 146.99609 H 719.96289 V -41.029297 Z m 136.94726,62.039063 c 2.02549,0.04564 4.01265,0.546204 5.93555,1.15039 3.31456,1.173737 -0.0563,-0.02521 3.30078,1.183594 1.23632,0.445164 2.59368,0.770714 3.47656,1.828125 0.2093,0.250672 0.33333,0.560972 0.5,0.841797 0.40916,0.992658 0.82824,1.986921 1.33399,2.935547 0.75265,1.411753 0.34017,0.533733 1.22851,2.005859 0.21404,0.354701 0.40352,0.724216 0.60547,1.085938 0.80105,1.979562 0.10441,0.146757 0.64063,1.84375 0.32055,1.014447 0.73167,2.000599 1.05468,3.013672 0.1404,0.440334 0.25149,0.891119 0.37696,1.335937 0.10735,0.482569 0.24946,0.958297 0.32226,1.447266 0.15762,1.058025 -0.0625,2.062292 -0.15039,3.109375 -0.0272,0.324387 -0.0306,0.651443 -0.0469,0.976562 -0.0151,0.301483 -0.0328,0.602857 -0.0488,0.904297 -0.005,0.339472 0.011,0.678836 -0.0117,1.017578 -0.0953,1.425451 -0.58044,2.792341 -0.8418,4.189453 -0.6011,2.143144 -1.08101,4.316407 -1.66015,6.464844 -0.17947,0.701148 -0.39549,1.393753 -0.53711,2.103516 -0.0201,0.10064 -0.3398,2.305206 -0.3418,2.316406 -0.0561,0.315023 -0.13313,0.626166 -0.20703,0.9375 -0.0856,0.360514 -0.18099,0.718826 -0.27149,1.078125 -0.11197,0.362193 -0.21026,0.728267 -0.33593,1.085937 -0.0669,0.190451 -0.18094,0.3637 -0.24024,0.556641 -0.32624,1.060487 -0.17213,2.230872 -0.67187,3.246094 -0.33272,0.572373 -0.47374,0.835204 -0.87305,1.416015 -0.90143,1.311201 -1.8998,2.563798 -2.59961,4.003907 -0.52952,1.066222 -1.01417,2.161844 -1.56445,3.216797 -1.05973,2.031622 -2.32837,3.941872 -3.52539,5.892578 -0.47933,0.734672 -0.93989,1.482062 -1.43946,2.203125 -0.61854,0.892787 -1.53449,1.966338 -2.21289,2.792968 -1.66498,2.02877 -3.40783,4.003626 -4.89062,6.173829 -0.27575,0.391913 -0.5161,0.81042 -0.82617,1.175781 -0.65339,0.769895 -1.2598,1.138017 -2.05664,1.75 -1.37556,1.05646 -2.74055,2.134727 -3.99805,3.332031 -0.70435,0.74784 -1.00296,1.17506 -1.98633,1.67383 -1.42573,0.72313 -2.87334,0.9815 -4.44726,1.22461 -2.20318,0.3403 -3.69273,0.39632 -5.91016,0.55078 -2.06836,-0.0147 -2.78292,0.0453 -4.77149,-0.19727 -0.6878,-0.0839 -1.37492,-0.18509 -2.05078,-0.33789 -1.01651,-0.2298 -1.99505,-0.58509 -2.96093,-0.97461 0.006,0.51744 -0.13944,0.90854 -0.74024,1.13672 -0.0561,0.0547 -0.11414,0.11191 -0.16015,0.14063 -0.57561,0.35934 -1.49656,0.10463 -2.06836,-0.0684 -0.39497,-0.11949 -0.77868,-0.27331 -1.16797,-0.41016 -0.32394,-0.19619 -0.66532,-0.3666 -0.97266,-0.58789 -0.64375,-0.46352 -1.28901,-1.1118 -1.83398,-1.68164 -1.2164,-1.271919 -2.32539,-2.645058 -3.4043,-4.033203 -0.74352,-0.98321 -3.78921,-4.988169 -4.38672,-5.878906 -0.48321,-0.720343 -0.87121,-1.50146 -1.30273,-2.253907 -0.36713,-0.640161 -0.73916,-1.276637 -1.09375,-1.923828 -1.52996,-2.792454 -0.0189,-0.263598 -1.71289,-3.007812 -0.27449,-0.443642 -0.5387,-0.894136 -0.82227,-1.332032 -0.99527,-1.536951 -2.17886,-2.960136 -2.87695,-4.673828 -0.39557,-1.173198 -0.31228,-0.946748 -0.74024,-2.134765 -0.16507,-0.458244 -0.35681,-0.909453 -0.5,-1.375 -0.44314,-1.440771 -0.65149,-2.923052 -0.65234,-4.429688 0.0353,-0.644785 0.10237,-1.289835 0.10937,-1.935547 0.003,-0.256001 -0.0313,-0.509618 -0.0293,-0.765625 0.0109,-1.256752 0.27053,-2.495228 0.61328,-3.699218 0.25038,-0.673539 0.45855,-1.362721 0.75,-2.019532 0.23343,-0.526072 0.54239,-1.015541 0.82031,-1.519531 0.97759,-1.772811 1.97783,-3.53347 2.96875,-5.298828 0.62763,-0.9894 1.24592,-1.985236 1.88281,-2.96875 0.27263,-0.42101 0.5649,-0.8289 0.81836,-1.261719 0.21106,-0.360403 1.81307,-3.378002 1.97071,-3.673828 0.67869,-1.204716 1.35821,-2.377339 2.19922,-3.478515 0.52125,-0.682506 1.03883,-1.322386 1.7246,-1.853516 0.30982,-0.239963 0.66762,-0.408846 1.00196,-0.613281 0.58388,-0.317594 1.6579,-0.892013 2.22461,-1.240235 1.65589,-1.017491 3.20127,-2.209644 4.88281,-3.1875 1.05919,-0.631008 2.1324,-1.236909 3.17773,-1.890625 1.66837,-1.04335 3.16999,-2.348201 4.95508,-3.201172 1.6159,-0.7509 1.02418,-0.489749 2.66406,-1.191406 1.01854,-0.435803 1.40112,-0.565135 2.36133,-1.074219 0.27394,-0.145237 0.53419,-0.31573 0.80274,-0.470703 0.2589,-0.149402 0.51932,-0.295842 0.77929,-0.443359 1.63159,-0.765352 3.26323,-1.538793 4.94532,-2.189453 0.6652,-0.257311 1.35022,-0.462534 2.01953,-0.708985 4.97377,-1.831443 -0.12381,-0.06534 5.14844,-1.849609 1.8846,-0.509147 2.82644,-0.81055 4.79101,-1.144531 0.89007,-0.151314 1.78362,-0.311023 2.68555,-0.351563 0.29078,-0.01307 0.58174,-0.01629 0.87109,-0.0098 z m -0.1582,1.910156 c -0.26586,-0.0043 -0.53361,-7.49e-4 -0.80078,0.01367 -0.78588,0.04242 -1.56123,0.199203 -2.33594,0.33789 -1.99442,0.357038 -2.64479,0.575593 -4.55273,1.09375 -5.20115,1.768028 -0.009,-0.03348 -4.9629,1.791016 -0.68636,0.252799 -1.38809,0.462806 -2.07031,0.726562 -1.62111,0.626738 -3.19327,1.379473 -4.76562,2.117188 -2.07539,1.316005 -4.39444,2.149093 -6.61328,3.181641 -0.36169,0.197825 -0.7311,0.380621 -1.08399,0.59375 -0.93015,0.561769 -1.26415,0.883296 -2.17969,1.513671 -0.47436,0.326609 -0.9534,0.64727 -1.4414,0.953126 -0.0196,0.01226 -3.19266,1.901833 -3.25586,1.939453 -1.65513,0.96526 -3.1775,2.140218 -4.8086,3.142578 -0.68784,0.422696 -1.65002,0.933967 -2.36328,1.322265 -0.30582,0.187951 -0.63547,0.342987 -0.91797,0.564454 -0.36007,0.282287 -0.97307,1.077571 -1.22851,1.417968 -0.76928,1.025135 -1.39703,2.102697 -2.02344,3.21875 -0.17612,0.330698 -1.74046,3.27672 -1.95703,3.646485 -0.124,0.211708 -1.35443,2.09474 -1.57812,2.447265 -0.39983,0.630113 -0.78977,1.266288 -1.18946,1.896485 -0.97043,1.738655 -1.95644,3.469291 -2.91797,5.21289 -0.27224,0.493666 -0.57472,0.974643 -0.80273,1.490235 -0.2537,0.573705 -0.42586,1.179435 -0.63867,1.769531 -0.28195,1.021728 -0.49766,2.070297 -0.49805,3.134765 0,0.195555 0.0332,0.390396 0.0312,0.585938 -0.002,0.188203 -0.10533,2.019165 -0.11133,2.123047 0.0124,1.307425 0.19808,2.594624 0.59375,3.841797 0.12879,0.405953 0.29776,0.797035 0.44336,1.197265 0.38129,1.048041 0.40514,1.138477 0.75781,2.183594 0.67169,1.52888 1.74198,2.812977 2.64258,4.203125 0.29946,0.462227 0.58075,0.936301 0.8711,1.404297 1.66758,2.701334 0.19948,0.249464 1.77929,3.128906 0.34439,0.627714 0.70613,1.246196 1.0625,1.867188 0.42949,0.748381 0.81387,1.523908 1.29492,2.240234 0.42338,0.630453 3.73133,4.987424 4.25782,5.683594 1.04232,1.34124 2.1148,2.666515 3.29101,3.894531 0.48801,0.509496 1.06229,1.090573 1.64453,1.501954 0.22583,0.15955 0.48059,0.275 0.72071,0.41211 0.15216,0.0217 0.47724,0.14393 0.80078,0.24805 -0.0647,-0.11815 -0.11978,-0.24176 -0.14844,-0.3711 -0.0114,-0.0522 -0.002,-0.1067 -0.002,-0.16015 -0.76866,-0.560808 -0.62904,-1.336793 0.0391,-1.57227 0.0132,-1.843182 1.88807,-1.854186 1.91016,0.02539 10e-4,0.04491 0.003,0.08986 0.004,0.134766 0.002,0.07802 0.002,0.156278 0.004,0.234375 1.31868,0.570923 2.64826,1.135719 4.05469,1.447269 2.07177,0.45892 4.18781,0.44653 6.29492,0.45703 2.10562,-0.15081 3.57956,-0.21336 5.67578,-0.53906 1.42685,-0.2217 2.69883,-0.43187 3.97266,-1.105473 0.56107,-0.296694 0.87057,-0.722285 1.26757,-1.179688 1.32605,-1.28347 2.77504,-2.429561 4.23633,-3.552734 0.71596,-0.550297 1.3262,-0.916307 1.89453,-1.609375 0.22446,-0.273732 0.38919,-0.591141 0.58399,-0.886719 1.51256,-2.216681 3.28838,-4.233362 4.98828,-6.304687 0.65553,-0.798766 1.56919,-1.868595 2.16992,-2.738282 0.47232,-0.683782 0.90663,-1.392944 1.35938,-2.089843 1.17102,-1.912394 2.41677,-3.781754 3.45312,-5.773438 0.53629,-1.030644 1.0104,-2.101412 1.52734,-3.142578 0.96208,-1.978976 2.43449,-3.633478 3.5293,-5.529297 0.23396,-0.873644 0.19305,-1.798504 0.45117,-2.669922 0.0901,-0.304002 0.23919,-0.586722 0.3418,-0.886718 0.10475,-0.306276 0.18775,-0.619784 0.28125,-0.929688 0.0818,-0.327909 0.16674,-0.655403 0.24414,-0.984375 0.069,-0.293359 0.14301,-0.586016 0.19531,-0.882813 0.0905,-0.513314 0.21464,-1.676712 0.31641,-2.1875 0.0547,-0.274625 0.50127,-2.004075 0.57617,-2.296874 0.58247,-2.162631 1.06904,-4.348594 1.67383,-6.50586 0.22696,-1.302031 0.7091,-2.571666 0.7832,-3.898437 0.0149,-0.267811 -0.002,-0.53646 -0.002,-0.804688 0.0168,-0.330357 0.0345,-0.659849 0.0508,-0.990234 0.0159,-0.322357 0.0199,-0.647138 0.0469,-0.96875 0.0499,-0.593205 0.20584,-1.483441 0.21484,-2.082031 0.0122,-0.778825 -0.1469,-1.158826 -0.33984,-1.951172 -0.11782,-0.41508 -0.22163,-0.835269 -0.35352,-1.246094 -0.31269,-0.973947 -0.7096,-1.922258 -1.01758,-2.898438 -0.51018,-1.617133 0.0139,-0.279682 -0.60547,-1.751953 -0.16713,-0.290159 -0.32614,-0.584159 -0.50195,-0.86914 -0.79993,-1.296633 -0.48003,-0.616648 -1.22266,-2 -0.5472,-1.0193 -1.00133,-2.086806 -1.44336,-3.154297 -0.12168,-0.192186 -0.21138,-0.408619 -0.36523,-0.576172 -0.32263,-0.351373 -2.18826,-0.915529 -2.47852,-1.019531 -4.74201,-1.699116 1.30797,0.448263 -3.30078,-1.183594 -1.76671,-0.552401 -3.59208,-1.01655 -5.45312,-1.046875 z M 566.45898,100.9668 c -0.0321,0.009 -0.11094,0.022 -0.11914,0.0273 -0.0236,0.0153 -0.0302,0.036 -0.0508,0.0527 0.0955,-0.0243 0.15259,-0.0401 0.22266,-0.0586 -0.0174,-0.008 -0.0353,-0.0139 -0.0527,-0.0215 z m -0.0918,0.0957 c -0.0391,8.2e-4 -0.0759,0.0111 -0.11328,0.0195 -0.0119,0.0112 -0.0224,0.0218 -0.0332,0.0332 0.0833,0.002 0.15932,-0.003 0.21289,-0.0293 0.0358,-0.0172 -0.006,-0.0247 -0.0664,-0.0234 z m 1.04101,1.34961 c -0.0437,0.052 -0.10808,0.12439 -0.17187,0.19336 0.0155,-0.007 0.0426,-0.0178 0.0547,-0.0234 0.23617,-0.31999 0.22239,-0.29503 0.11718,-0.16992 z" /></clipPath></defs><sodipodi:namedview
     id="namedview16"
     pagecolor="#ffffff"
     bordercolor="#999999"
     borderopacity="1"
     inkscape:showpageshadow="0"
     inkscape:pageopacity="0"
     inkscape:pagecheckerboard="0"
     inkscape:deskcolor="#d1d1d1"
     showgrid="false"
     inkscape:zoom="1.1214272"
     inkscape:cx="-113.69441"
     inkscape:cy="25.859905"
     inkscape:window-width="1920"
     inkscape:window-height="1000"
     inkscape:window-x="0"
     inkscape:window-y="0"
     inkscape:window-maximized="1"
     inkscape:current-layer="svg14"
     inkscape:pageshadow="2" /><circle
     cx="8.4665003"
     cy="8.4665003"
     r="7.9373436"
     color="#000000"
     fill="url(#a-6)"
     id="circle428"
     style="fill:url(#a-6);stroke-width:0.264578" /><path
     transform="matrix(0.16437437,0,0,0.16451471,-87.625346,-0.97019005)"
     d="m 588.27539,29.136719 c -3.38652,0 -8.11536,1.957542 -10.50977,4.351562 L 549.1543,62.099609 c -2.3944,2.39456 -2.3944,6.313012 0,8.707032 l 22.07812,22.078125 c 2.3944,2.39457 6.31251,2.39457 8.70703,0 l 28.60938,-28.611328 c 2.3944,-2.39402 4.35351,-7.123846 4.35351,-10.509766 V 35.292969 c -1.2e-4,-3.38647 -2.76998,-6.15625 -6.15625,-6.15625 z m 10.28906,8.191406 c 3.39366,0 6.14649,2.752904 6.14649,6.146484 0,3.39357 -2.75283,6.144532 -6.14649,6.144532 -3.39366,0 -6.14453,-2.750962 -6.14453,-6.144532 0,-3.39357 2.75087,-6.146484 6.14453,-6.146484 z"
     style="display:inline;fill:#f6f5f3;fill-opacity:1;stroke:none;stroke-width:4.28636"
     clip-path="url(#clipPath1049-3)"
     id="rect985" /><path
     d="M 6.8014138,11.969004 6.4388315,12.331896 5.010257,10.902101 4.4857212,11.427085 4.1787349,11.119837 5.5903889,9.7069777 5.8973752,10.014226 5.3728393,10.53921 Z"
     style="font-style:normal;font-variant:normal;font-weight:bold;font-stretch:normal;font-size:18.6667px;line-height:1.25;font-family:'Helvetica LT';-inkscape-font-specification:'Helvetica LT Bold';letter-spacing:0px;word-spacing:0px;fill:#f6132a;fill-opacity:1;stroke:none;stroke-width:0.193045"
     id="path944" /><path
     d="m 7.1313263,10.322722 0.4423505,-0.4427283 -0.9016211,-0.471759 -0.00483,0.0048 z M 7.5712592,11.198501 7.1893391,11.580747 6.0725857,9.2243687 6.490764,8.8058336 8.8378802,9.9307987 8.4438741,10.325141 7.9749345,10.078375 7.3343723,10.719484 Z"
     style="font-style:normal;font-variant:normal;font-weight:bold;font-stretch:normal;font-size:18.6667px;line-height:1.25;font-family:'Helvetica LT';-inkscape-font-specification:'Helvetica LT Bold';letter-spacing:0px;word-spacing:0px;fill:#f6132a;fill-opacity:1;stroke:none;stroke-width:0.193045"
     id="path946" /><path
     d="M 8.8279097,8.0682561 9.5530744,7.3424722 10.488536,8.278733 10.246815,8.5206609 9.9930073,8.3392154 q 0.00722,0.074997 0.00722,0.16693 0.0024,0.089514 -0.021758,0.1911226 -0.024141,0.1016101 -0.084571,0.2153167 -0.060431,0.113706 -0.1788744,0.232251 -0.1571192,0.157253 -0.3577489,0.246765 -0.2006288,0.08468 -0.4230116,0.08468 Q 8.7094658,9.4738567 8.4749958,9.3698277 8.2381094,9.2633807 8.0084735,9.0335487 7.8320166,8.8569409 7.7159897,8.6440438 7.5999637,8.4263089 7.5757921,8.1940588 7.5516194,7.9618073 7.6338053,7.7247185 7.7159899,7.4876284 7.9335393,7.2698932 l 0.00484,-0.00484 q 0.1982085,-0.1983819 0.3964201,-0.2806375 0.2006301,-0.084674 0.3795039,-0.089512 0.1788738,-0.00484 0.3263242,0.055643 0.14745,0.055643 0.2441376,0.1378977 L 8.9221803,7.451339 Q 8.8980093,7.427147 8.8254923,7.402954 8.7553933,7.376342 8.6611218,7.378761 8.5668508,7.376341 8.4604926,7.41505 8.3541352,7.44892 8.2574466,7.5456911 q -0.096689,0.096771 -0.1522847,0.224993 -0.055595,0.123384 -0.05076,0.2685411 0.00725,0.1427365 0.084602,0.3024092 0.077351,0.1596726 0.2441387,0.3266026 0.1788745,0.1790272 0.3384105,0.2516057 0.1595369,0.06774 0.2973172,0.06532 0.1401988,-0.0048 0.2562247,-0.06774 0.1184432,-0.06532 0.2102974,-0.1572527 0.029007,-0.029031 0.077347,-0.096775 0.048349,-0.072574 0.072517,-0.1741881 0.026589,-0.1040293 0.00967,-0.2370887 -0.01934,-0.1354808 -0.1208626,-0.295153 l -0.403675,0.4040197 z"
     style="font-style:normal;font-variant:normal;font-weight:bold;font-stretch:normal;font-size:18.6667px;line-height:1.25;font-family:'Helvetica LT';-inkscape-font-specification:'Helvetica LT Bold';letter-spacing:0px;word-spacing:0px;fill:#f6132a;fill-opacity:1;stroke:none;stroke-width:0.193045"
     id="path948" /></svg>
