<?xml version="1.0" encoding="UTF-8" standalone="no"?>
<svg
   width="64"
   height="64"
   version="1.1"
   viewBox="0 0 64 64"
   id="svg14"
   sodipodi:docname="chessx.svg"
   inkscape:version="1.1.2 (0a00cf5339, 2022-02-04)"
   xmlns:inkscape="http://www.inkscape.org/namespaces/inkscape"
   xmlns:sodipodi="http://sodipodi.sourceforge.net/DTD/sodipodi-0.dtd"
   xmlns:xlink="http://www.w3.org/1999/xlink"
   xmlns="http://www.w3.org/2000/svg"
   xmlns:svg="http://www.w3.org/2000/svg"
   xmlns:rdf="http://www.w3.org/1999/02/22-rdf-syntax-ns#"
   xmlns:cc="http://creativecommons.org/ns#"
   xmlns:dc="http://purl.org/dc/elements/1.1/">
  <defs
     id="defs18">
    <linearGradient
       id="linearGradient1005-3-3"
       x1="5.2535"
       x2="9.3823996"
       y1="15.383"
       y2="2.9421"
       gradientTransform="matrix(3.7795642,0,0,3.7795642,-0.13502629,0.02437811)"
       gradientUnits="userSpaceOnUse">
      <stop
         stop-color="#fa8200"
         offset="0"
         id="stop392" />
      <stop
         stop-color="#ff9600"
         offset=".36953"
         id="stop394" />
      <stop
         stop-color="#ffb400"
         offset="1"
         id="stop396" />
    </linearGradient>
    <filter
       id="filter4736"
       x="-0.0600002"
       y="-0.059999845"
       width="1.1200004"
       height="1.1199997"
       color-interpolation-filters="sRGB">
      <feGaussianBlur
         stdDeviation="0.8750013"
         id="feGaussianBlur399" />
    </filter>
    <linearGradient
       inkscape:collect="always"
       xlink:href="#linearGradient27877"
       id="linearGradient27879"
       x1="545.8111"
       y1="764.34442"
       x2="855.02234"
       y2="764.34442"
       gradientUnits="userSpaceOnUse" />
    <linearGradient
       inkscape:collect="always"
       id="linearGradient27877">
      <stop
         style="stop-color:#f3414f;stop-opacity:1"
         offset="0"
         id="stop27873" />
      <stop
         style="stop-color:#e42131;stop-opacity:1"
         offset="1"
         id="stop27875" />
    </linearGradient>
    <radialGradient
       inkscape:collect="always"
       xlink:href="#linearGradient23946"
       id="radialGradient23948"
       cx="701.70398"
       cy="1118.699"
       fx="701.70398"
       fy="1118.699"
       r="87.109566"
       gradientTransform="matrix(0.1472461,0,0,0.12316756,-71.499291,-109.05584)"
       gradientUnits="userSpaceOnUse" />
    <linearGradient
       inkscape:collect="always"
       id="linearGradient23946">
      <stop
         style="stop-color:#fdcd51;stop-opacity:1"
         offset="0"
         id="stop23942" />
      <stop
         style="stop-color:#fac849;stop-opacity:1;"
         offset="0.34188956"
         id="stop27548" />
      <stop
         style="stop-color:#f7c23f;stop-opacity:1;"
         offset="0.66075408"
         id="stop27614" />
      <stop
         style="stop-color:#eeb220;stop-opacity:1"
         offset="1"
         id="stop23944" />
    </linearGradient>
  </defs>
  <sodipodi:namedview
     id="namedview16"
     pagecolor="#ffffff"
     bordercolor="#999999"
     borderopacity="1"
     inkscape:showpageshadow="0"
     inkscape:pageopacity="0"
     inkscape:pagecheckerboard="0"
     inkscape:deskcolor="#d1d1d1"
     showgrid="false"
     inkscape:zoom="4.4857087"
     inkscape:cx="49.379043"
     inkscape:cy="47.818531"
     inkscape:window-width="1920"
     inkscape:window-height="1026"
     inkscape:window-x="0"
     inkscape:window-y="28"
     inkscape:window-maximized="1"
     inkscape:current-layer="svg14"
     inkscape:pageshadow="2" />
  <metadata
     id="metadata2">
    <rdf:RDF>
      <cc:Work
         rdf:about="">
        <dc:format>image/svg+xml</dc:format>
        <dc:type
           rdf:resource="http://purl.org/dc/dcmitype/StillImage" />
      </cc:Work>
    </rdf:RDF>
  </metadata>
  <path
     style="color:#000000;fill:#edbd01;fill-opacity:1;stroke-width:0.147246;stroke-linecap:round;stroke-linejoin:round;-inkscape-stroke:none"
     d="m 31.581324,2.0841489 c -0.352268,-0.00292 -0.681549,0.1745764 -0.873125,0.470202 L 25.533883,10.543029 18.572766,6.9122066 C 17.863179,6.5423878 17.021145,7.0868608 17.067223,7.8857052 l 0.580359,9.9905838 c 0.03151,0.539153 0.473752,0.962587 1.013761,0.97062 l 25.690128,0.379048 c 0.55965,0.0088 1.02369,-0.431457 1.045389,-0.990761 L 45.794886,7.9483936 C 45.825423,7.1560262 44.987266,6.6273371 44.285325,6.9961834 L 37.46599,10.581862 32.44697,2.5675868 C 32.259955,2.269141 31.933513,2.0868331 31.581324,2.0841489 Z"
     id="path955"
     sodipodi:nodetypes="cccccccccccccc" />
  <path
     id="path3153"
     style="fill:#d6a211;fill-opacity:1;stroke:none;stroke-width:0.147246px;stroke-linecap:butt;stroke-linejoin:miter;stroke-opacity:1"
     d="m 17.857821,25.106073 c -0.01371,-0.0019 -0.02694,0 -0.03997,0.0019 -1.797453,1.139498 -1.014091,2.603563 -0.818187,3.378902 0.262569,1.039231 0.270213,2.264699 1.947259,2.249236 1.777877,-0.226626 -0.228356,-5.580708 -1.089091,-5.629859 z m 27.392083,0 c -0.86074,0.04921 -2.866971,5.403233 -1.089105,5.629859 1.677049,0.01546 1.684702,-1.210005 1.947272,-2.249236 0.195894,-0.775339 0.97926,-2.239414 -0.818193,-3.378901 -0.01306,-0.0019 -0.02632,-0.0029 -0.03997,-0.0019 z" />
  <path
     style="fill:#b8451b;fill-opacity:1;stroke:none;stroke-width:0.147246px;stroke-linecap:butt;stroke-linejoin:miter;stroke-opacity:1"
     d="m 43.849101,28.541847 c 1.287998,-1.103884 2.092383,-3.078335 1.819971,-6.991109 H 17.452894 c -0.272411,3.912774 0.531967,5.887225 1.819967,6.991109 z"
     id="path3061"
     sodipodi:nodetypes="ccccc" />
  <g
     id="g10903"
     transform="matrix(0.1472461,0,0,0.1472461,-71.499291,-59.941254)">
    <path
       id="rect3713"
       style="opacity:1;fill:url(#linearGradient27879);fill-opacity:1;stroke-width:14;stroke-linecap:round;stroke-linejoin:round;stroke-miterlimit:4;stroke-dasharray:none"
       d="m 669.33842,701.08175 c -51.67488,2.26877 -117.3873,41.37498 -123.11718,88.89453 -0.25249,1.14964 -0.39844,2.33425 -0.39844,3.54883 v 2.57617 c -0.002,0.18196 -0.0117,0.36276 -0.0117,0.54492 h 0.0117 v 12.06836 c 0,10.46617 9.80472,18.89258 21.98437,18.89258 h 124.25196 16.71484 124.25198 c 12.1796,0 21.9844,-8.42641 21.9844,-18.89258 V 796.6462 h 0.012 c 0,-0.18216 -0.01,-0.36296 -0.012,-0.54492 v -2.57617 c 0,-1.21458 -0.146,-2.39919 -0.3985,-3.54883 -5.7299,-47.51955 -71.4423,-86.62576 -123.11718,-88.89453 h -30.80468 -0.54688 z" />
    <path
       id="path6289"
       style="opacity:1;fill:#d0d1d3;fill-opacity:1;stroke-width:17.9975;stroke-linecap:round;stroke-linejoin:round;stroke-miterlimit:4;stroke-dasharray:none"
       d="m 669.33792,701.08193 c -26.75106,1.17449 -57.24611,12.23746 -81.25195,29.21289 a 120.76861,120.76861 0 0 0 112.33008,77.23437 120.76861,120.76861 0 0 0 112.3301,-77.23633 c -24.0056,-16.97483 -54.50147,-28.03646 -81.25198,-29.21093 h -30.80469 -0.54687 z" />
    <path
       id="path7725"
       style="opacity:1;fill:#343434;fill-opacity:1;stroke-width:14.794;stroke-linecap:round;stroke-linejoin:round"
       d="m 641.49226,740.94843 c 0,7.41467 -8.2104,18.9277 -9.12123,18.9277 -0.91083,0 -9.12124,-11.52967 -9.12124,-18.9277 0,-5.03752 4.08372,-9.12124 9.12124,-9.12124 5.03752,0 9.12123,4.08372 9.12123,9.12124 z"
       sodipodi:nodetypes="szsss" />
    <path
       id="path10894"
       style="opacity:1;fill:#343434;fill-opacity:1;stroke-width:14.794;stroke-linecap:round;stroke-linejoin:round"
       d="m 708.81357,769.56241 c 0,7.41467 -8.2104,18.9277 -9.12123,18.9277 -0.91083,0 -9.12124,-11.52967 -9.12124,-18.9277 0,-5.03752 4.08372,-9.12124 9.12124,-9.12124 5.03752,0 9.12123,4.08372 9.12123,9.12124 z"
       sodipodi:nodetypes="szsss" />
    <path
       id="path10896"
       style="opacity:1;fill:#343434;fill-opacity:1;stroke-width:14.794;stroke-linecap:round;stroke-linejoin:round"
       d="m 777.28936,740.51136 c 0,7.41467 -8.2104,18.9277 -9.12123,18.9277 -0.91083,0 -9.12124,-11.52967 -9.12124,-18.9277 0,-5.03752 4.08372,-9.12124 9.12124,-9.12124 5.03752,0 9.12123,4.08372 9.12123,9.12124 z"
       sodipodi:nodetypes="szsss" />
  </g>
  <rect
     style="fill:#e2a501;fill-opacity:1;stroke-width:2.06144;stroke-linecap:round;stroke-linejoin:round;stroke-miterlimit:4;stroke-dasharray:none"
     id="rect6145"
     width="14.338538"
     height="16.365009"
     x="24.396587"
     y="33.02438"
     rx="7.1692691"
     ry="6.3675551" />
  <path
     style="fill:url(#radialGradient23948);fill-opacity:1;stroke:none;stroke-width:0.14972px;stroke-linecap:butt;stroke-linejoin:miter;stroke-opacity:1"
     d="m 31.610789,43.415931 c 3.150109,0 12.826544,-3.611857 12.826544,-12.05576 -0.303484,-3.917384 0.08695,-6.470774 -0.921735,-9.402386 H 19.705981 c -1.008694,2.931612 -0.618248,5.485002 -0.921741,9.402386 0,8.443903 9.676441,12.05576 12.826549,12.05576 z"
     id="path2298"
     sodipodi:nodetypes="zccccz" />
  <path
     id="rect856"
     style="fill:#e2a501;fill-opacity:1;stroke-width:2.20869;stroke-linecap:round;stroke-linejoin:round"
     d="m 18.057692,17.484025 c -0.528708,0 -0.954515,0.425806 -0.954515,0.954505 v 0.616303 1.41753 1.247574 c 0,0.20806 0.167536,0.375585 0.375596,0.375585 h 28.047791 c 0.208061,0 0.375592,-0.167525 0.375592,-0.375585 v -1.247574 -1.41753 -0.616303 c 0,-0.528699 -0.425807,-0.954505 -0.954511,-0.954505 z" />
</svg>
