<?xml version="1.0" encoding="UTF-8" standalone="no"?>
<!-- Created with Inkscape (http://www.inkscape.org/) -->

<svg
   width="64"
   height="64"
   version="1.1"
   viewBox="0 0 16.933 16.933"
   id="svg84"
   sodipodi:docname="kripta.svg"
   inkscape:version="1.1.2 (0a00cf5339, 2022-02-04)"
   xmlns:inkscape="http://www.inkscape.org/namespaces/inkscape"
   xmlns:sodipodi="http://sodipodi.sourceforge.net/DTD/sodipodi-0.dtd"
   xmlns="http://www.w3.org/2000/svg"
   xmlns:svg="http://www.w3.org/2000/svg"
   xmlns:rdf="http://www.w3.org/1999/02/22-rdf-syntax-ns#"
   xmlns:cc="http://creativecommons.org/ns#"
   xmlns:dc="http://purl.org/dc/elements/1.1/">
  <sodipodi:namedview
     id="namedview86"
     pagecolor="#ffffff"
     bordercolor="#666666"
     borderopacity="1.0"
     inkscape:pageshadow="2"
     inkscape:pageopacity="0.0"
     inkscape:pagecheckerboard="0"
     showgrid="false"
     inkscape:zoom="10.265625"
     inkscape:cx="32"
     inkscape:cy="32"
     inkscape:window-width="1920"
     inkscape:window-height="1030"
     inkscape:window-x="0"
     inkscape:window-y="24"
     inkscape:window-maximized="1"
     inkscape:current-layer="svg84" />
  <defs
     id="defs44">
    <linearGradient
       id="linearGradient901"
       x1="-13.442"
       x2="-1.1497"
       y1="-23.313"
       y2="-11.213"
       gradientTransform="translate(-2.2886 -.26636)"
       gradientUnits="userSpaceOnUse">
      <stop
         stop-color="#3cdcff"
         offset="0"
         id="stop2" />
      <stop
         stop-color="#1287e1"
         offset="1"
         id="stop4" />
    </linearGradient>
    <linearGradient
       id="linearGradient917"
       x1="-14.789"
       x2="-14.789"
       y1="-19.165"
       y2="-16.374"
       gradientUnits="userSpaceOnUse">
      <stop
         stop-color="#ffdf00"
         offset="0"
         id="stop7" />
      <stop
         stop-color="#f6a70f"
         offset="1"
         id="stop9" />
    </linearGradient>
    <linearGradient
       id="linearGradient925"
       x1="-13.216"
       x2="-13.216"
       y1="-22.361"
       y2="-19.647"
       gradientUnits="userSpaceOnUse">
      <stop
         stop-color="#e95182"
         offset="0"
         id="stop12" />
      <stop
         stop-color="#cd3768"
         offset="1"
         id="stop14" />
    </linearGradient>
    <linearGradient
       id="linearGradient933"
       x1="-9.6904"
       x2="-9.6904"
       y1="-23.756"
       y2="-20.941"
       gradientUnits="userSpaceOnUse">
      <stop
         stop-color="#835ec0"
         offset="0"
         id="stop17" />
      <stop
         stop-color="#634593"
         offset="1"
         id="stop19" />
    </linearGradient>
    <filter
       id="filter957"
       x="-0.24000223"
       y="-0.24000223"
       width="1.4800045"
       height="1.4800045"
       color-interpolation-filters="sRGB">
      <feGaussianBlur
         stdDeviation="0.2690625"
         id="feGaussianBlur22" />
    </filter>
    <filter
       id="filter967"
       x="-0.24000223"
       y="-0.24000223"
       width="1.4800045"
       height="1.4800045"
       color-interpolation-filters="sRGB">
      <feGaussianBlur
         stdDeviation="0.2690625"
         id="feGaussianBlur25" />
    </filter>
    <filter
       id="filter981"
       x="-0.24000223"
       y="-0.24000223"
       width="1.4800045"
       height="1.4800045"
       color-interpolation-filters="sRGB">
      <feGaussianBlur
         stdDeviation="0.2690625"
         id="feGaussianBlur28" />
    </filter>
    <linearGradient
       id="linearGradient1001"
       x1="16.821"
       x2="18.42"
       y1="-18.285"
       y2="-18.285"
       gradientTransform="translate(-4.9974)"
       gradientUnits="userSpaceOnUse">
      <stop
         stop-color="#b2b5b0"
         offset="0"
         id="stop31" />
      <stop
         stop-color="#9d9a9c"
         offset="1"
         id="stop33" />
    </linearGradient>
    <linearGradient
       id="linearGradient1009"
       x1="17.668"
       x2="17.668"
       y1="-17.83"
       y2="-10.26"
       gradientTransform="translate(-4.9974)"
       gradientUnits="userSpaceOnUse">
      <stop
         stop-color="#232220"
         offset="0"
         id="stop36" />
      <stop
         stop-color="#4c4b4b"
         offset="1"
         id="stop38" />
    </linearGradient>
    <filter
       id="filter1050"
       x="-0.19369416"
       y="-0.063812401"
       width="1.3873883"
       height="1.1276248"
       color-interpolation-filters="sRGB">
      <feGaussianBlur
         stdDeviation="0.28661287"
         id="feGaussianBlur41" />
    </filter>
  </defs>
  <metadata
     id="metadata46">
    <rdf:RDF>
      <cc:Work
         rdf:about="">
        <dc:format>image/svg+xml</dc:format>
        <dc:type
           rdf:resource="http://purl.org/dc/dcmitype/StillImage" />
      </cc:Work>
    </rdf:RDF>
  </metadata>
  <g
     transform="matrix(1.0172 0 0 1.0172 -.14597 -.22244)"
     id="g82">
    <g
       transform="matrix(.97492 0 0 .97492 18.206 25.831)"
       id="g64">
      <path
         d="m-12.403-15.358s-1.661 1.8312-2.1435 1.9731c-0.30494 0.11659-1.139 0.38566-1.8117-0.43947s-1.9731-5.3633 2.3857-9.4531 12.718-2.0628 10.78 5.7579c0 0-1.0224 5.4171-6.9598 6.5831 0 0-1.4375 0.33325-1.7166-1.3917s1.8885-1.9572 0.796-3.1362c0 0-0.55655-0.66053-1.3306 0.10637z"
         fill="url(#linearGradient901)"
         id="path48" />
      <circle
         transform="matrix(.92358 0 0 .92562 -1.137 -1.1695)"
         cx="-14.877"
         cy="-17.769"
         r="1.3453"
         filter="url(#filter957)"
         opacity=".3"
         id="circle50" />
      <circle
         cx="-14.877"
         cy="-17.769"
         r="1.3453"
         fill="url(#linearGradient917)"
         id="circle52" />
      <circle
         transform="matrix(.90032 0 0 .96771 -1.3199 -.58977)"
         cx="-13.241"
         cy="-21.016"
         r="1.3453"
         filter="url(#filter967)"
         opacity=".3"
         id="circle54" />
      <circle
         cx="-13.241"
         cy="-21.016"
         r="1.3453"
         fill="url(#linearGradient925)"
         id="circle56" />
      <circle
         transform="matrix(.87047 0 0 .9668 -1.2584 -.64132)"
         cx="-9.7149"
         cy="-22.373"
         r="1.3453"
         filter="url(#filter981)"
         opacity=".3"
         id="circle58" />
      <circle
         cx="-9.7149"
         cy="-22.373"
         r="1.3453"
         fill="url(#linearGradient933)"
         id="circle60" />
      <circle
         cx="-9.4232"
         cy="-17.084"
         r=".97748"
         fill="#f0f0f0"
         id="circle62" />
    </g>
    <g
       transform="matrix(.97492 0 0 .97492 .12442 25.831)"
       filter="url(#filter1050)"
       opacity=".3"
       id="g72">
      <path
         d="m11.824-18.763s-0.90954-1.5501-0.94759-1.6706-0.01902-0.43125 0.1522-0.53272c0.17123-0.10147 0.23465-0.10147 0.30441-0.10147h2.5558s0.22831 0 0.31075 0.0761 0.28538 0.29173 0.18391 0.51369-0.95762 1.7123-0.95762 1.7123z"
         id="path66" />
      <rect
         x="11.824"
         y="-18.763"
         width="1.5987"
         height=".95489"
         opacity="1"
         id="rect68" />
      <path
         d="m11.824-17.808 0.29868 6.9633v0.0015a0.50561 0.50561 0 0 0-0.0026 0.04909 0.50561 0.50561 0 0 0 0.50539 0.5059 0.50561 0.50561 0 0 0 0.49815-0.42064h0.0047l0.29455-7.0992z"
         opacity="1"
         id="path70" />
    </g>
    <g
       transform="matrix(.97492 0 0 .97492 .12442 25.831)"
       id="g80">
      <path
         d="m11.824-18.763s-0.90954-1.5501-0.94759-1.6706-0.01902-0.43125 0.1522-0.53272c0.17123-0.10147 0.23465-0.10147 0.30441-0.10147h2.5558s0.22831 0 0.31075 0.0761 0.28538 0.29173 0.18391 0.51369-0.95762 1.7123-0.95762 1.7123z"
         fill="#f0f0f0"
         id="path74" />
      <rect
         x="11.824"
         y="-18.763"
         width="1.5987"
         height=".95489"
         fill="url(#linearGradient1001)"
         id="rect76" />
      <path
         d="m11.824-17.808 0.29868 6.9633v0.0015a0.50561 0.50561 0 0 0-0.0026 0.04909 0.50561 0.50561 0 0 0 0.50539 0.5059 0.50561 0.50561 0 0 0 0.49815-0.42064h0.0047l0.29455-7.0992z"
         fill="url(#linearGradient1009)"
         id="path78" />
    </g>
  </g>
</svg>
