<?xml version="1.0" encoding="UTF-8" standalone="no"?>
<svg
   width="64"
   height="64"
   version="1.1"
   id="svg17"
   sodipodi:docname="librewolf.svg"
   inkscape:version="1.1.2 (0a00cf5339, 2022-02-04)"
   xmlns:inkscape="http://www.inkscape.org/namespaces/inkscape"
   xmlns:sodipodi="http://sodipodi.sourceforge.net/DTD/sodipodi-0.dtd"
   xmlns:xlink="http://www.w3.org/1999/xlink"
   xmlns="http://www.w3.org/2000/svg"
   xmlns:svg="http://www.w3.org/2000/svg"
   xmlns:rdf="http://www.w3.org/1999/02/22-rdf-syntax-ns#"
   xmlns:cc="http://creativecommons.org/ns#"
   xmlns:dc="http://purl.org/dc/elements/1.1/">
  <sodipodi:namedview
     id="namedview19"
     pagecolor="#ffffff"
     bordercolor="#666666"
     borderopacity="1.0"
     inkscape:pageshadow="2"
     inkscape:pageopacity="0.0"
     inkscape:pagecheckerboard="0"
     showgrid="false"
     inkscape:zoom="2.5507813"
     inkscape:cx="-82.523737"
     inkscape:cy="59.393568"
     inkscape:window-width="1920"
     inkscape:window-height="1030"
     inkscape:window-x="0"
     inkscape:window-y="24"
     inkscape:window-maximized="1"
     inkscape:current-layer="svg17"
     inkscape:lockguides="true" />
  <metadata
     id="metadata2">
    <rdf:RDF>
      <cc:Work
         rdf:about="">
        <dc:format>image/svg+xml</dc:format>
        <dc:type
           rdf:resource="http://purl.org/dc/dcmitype/StillImage" />
      </cc:Work>
    </rdf:RDF>
  </metadata>
  <defs
     id="defs9">
    <linearGradient
       inkscape:collect="always"
       id="linearGradient1712">
      <stop
         style="stop-color:#0078d7;stop-opacity:1;"
         offset="0"
         id="stop1708" />
      <stop
         style="stop-color:#0099bc;stop-opacity:1"
         offset="1"
         id="stop1710" />
    </linearGradient>
    <linearGradient
       id="linearGradient844"
       x1="15"
       x2="35"
       y1="8"
       y2="38"
       gradientTransform="matrix(1.3636,0,0,1.3636,-0.72727,-0.7274)"
       gradientUnits="userSpaceOnUse">
      <stop
         stop-color="#18d862"
         offset="0"
         id="stop4"
         style="stop-color:#0099bc;stop-opacity:1" />
      <stop
         stop-color="#1cd664"
         offset="1"
         id="stop6"
         style="stop-color:#0078d7;stop-opacity:1" />
    </linearGradient>
    <linearGradient
       inkscape:collect="always"
       xlink:href="#linearGradient1712"
       id="linearGradient1714"
       x1="54.60569"
       y1="51.159843"
       x2="17.024515"
       y2="8.9677591"
       gradientUnits="userSpaceOnUse" />
  </defs>
  <circle
     style="fill:url(#linearGradient1714);stroke-width:10.2409;stroke-linecap:round;stroke-linejoin:round;fill-opacity:1"
     id="path860"
     cx="31.911369"
     cy="31.987297"
     r="29.968281" />
  <g
     id="g1035"
     style="fill:#000000;fill-opacity:0.04256072">
    <path
       d="m 39.553041,56.454131 c 0.420523,-1.426428 0.486505,-2.013157 0.413297,-3.675086 -0.07293,-1.655379 -0.187546,-2.191847 -0.703363,-3.29197 -0.718093,-1.531515 -2.325957,-3.371131 -3.738914,-4.277825 -1.308378,-0.839582 -1.470771,-0.822093 -1.248634,0.134481 0.09855,0.424356 0.175941,1.141902 0.171987,1.594548 -0.0064,0.717658 -0.03858,0.773395 -0.25228,0.435479 -1.633537,-2.582854 -3.294792,-3.945532 -6.711439,-5.505199 -2.945085,-1.344402 -3.788975,-1.846833 -4.90123,-2.918071 -0.838776,-0.80784 -0.874429,-0.821502 -0.874429,-0.335052 0,0.278923 0.08612,0.807426 0.191384,1.174454 0.256003,0.89264 -0.01878,0.871283 -1.548287,-0.120354 -2.448377,-1.587334 -4.265545,-4.061089 -5.164644,-7.030752 l -0.467197,-1.543111 0.04809,2.109367 c 0.02643,1.160153 0.02649,2.109165 1.22e-4,2.108919 -0.171015,-0.0016 -1.11421,-2.207724 -1.413901,-3.30711 -0.482416,-1.76964 -0.488569,-5.181902 -0.0126,-6.980746 1.288755,-4.870561 4.859334,-8.887361 9.347009,-10.515125 1.290555,-0.468108 1.504251,-0.603108 1.12894,-0.713209 -0.373966,-0.109706 -0.676969,-0.49931 -0.388324,-0.49931 0.04102,0 0.851168,-0.204832 1.800296,-0.455182 1.49858,-0.395278 2.267229,-0.456202 5.84065,-0.462933 3.641048,-0.0068 4.357309,0.0492 6.219239,0.486678 l 2.104276,0.494429 1.187694,-1.150115 c 1.570913,-1.521212 2.265609,-2.046694 2.405826,-1.819817 0.06339,0.10259 0.262104,0.868059 0.441568,1.701043 0.391255,1.816076 0.262091,3.710961 -0.349933,5.133649 l -0.420466,0.977409 0.521952,0.890826 c 0.908403,1.550388 1.202629,3.11193 0.933858,4.956253 -0.331023,2.271463 0.0342,3.576912 1.447265,5.172637 l 0.528335,0.596641 -0.707073,-0.390893 c -0.388883,-0.21499 -1.879374,-1.518213 -3.312204,-2.896049 -4.236528,-4.073942 -5.596773,-4.691519 -10.024924,-4.551482 -2.362008,0.0747 -2.738089,0.14002 -3.800644,0.660142 -3.590163,1.75739 -4.183901,5.459351 -1.479373,9.223856 l 0.734591,1.022497 -0.85768,-0.482041 c -2.020126,-1.135376 -3.783271,-3.619454 -4.028459,-5.67566 -0.253746,-2.127966 -0.641773,-1.682976 -0.679135,0.778828 -0.02533,1.667771 0.396051,3.144847 1.222626,4.285898 0.551668,0.761553 0.573677,0.839497 0.177123,0.627267 -0.778667,-0.416727 -2.169016,-1.986834 -2.67027,-3.015508 -0.6512,-1.336385 -0.784576,-4.063054 -0.296895,-6.069555 0.19125,-0.786869 0.307741,-1.47066 0.25887,-1.519532 -0.04887,-0.04887 -0.390742,0.566083 -0.759712,1.366568 -1.862111,4.039907 -1.65579,7.041757 0.657995,9.573405 1.315746,1.439639 2.646455,2.345601 6.258138,4.260607 1.570669,0.832806 3.39631,1.859984 4.056993,2.282613 0.660677,0.422631 1.24387,0.725778 1.295982,0.673662 0.120067,-0.120067 -0.689416,-1.724613 -1.199601,-2.377833 -0.212352,-0.271891 -0.34974,-0.530703 -0.305299,-0.57514 0.144127,-0.144129 3.795417,1.514056 5.327135,2.419251 2.01963,1.193529 4.221753,3.422231 5.171749,5.234172 l 0.755115,1.440237 -0.129634,-1.22715 c -0.440344,-4.168499 -3.20765,-8.211855 -7.024387,-10.263448 l -1.397409,-0.751142 0.925866,0.130964 c 2.382782,0.337048 6.657734,1.852832 8.665777,3.072657 1.21754,0.739616 3.267615,2.471211 3.267615,2.759991 0,0.09065 -0.373671,0.06996 -0.83038,-0.04597 -0.45671,-0.115927 -0.867171,-0.173992 -0.91212,-0.129037 -0.04494,0.04495 0.237529,0.728314 0.627744,1.518576 0.815058,1.650653 1.311779,3.757268 1.316929,5.58514 0.0038,1.266758 -0.410545,3.835344 -0.773259,4.796207 -0.189681,0.502492 -0.195531,0.499287 -0.469073,-0.257185 -0.152351,-0.421314 -0.332695,-0.766022 -0.400766,-0.766022 -0.06808,0 -0.290272,0.463006 -0.493764,1.028904 -0.540564,1.503261 -1.832752,3.39501 -3.478236,5.092103 -0.795467,0.82042 -1.509355,1.491674 -1.586414,1.491674 -0.07705,0 0.08508,-0.76384 0.360316,-1.697422 z m 3.231101,-33.228324 c 0.137375,-0.841479 -0.08879,-1.847051 -0.569948,-2.53399 -0.306732,-0.437927 -0.306951,-0.437935 -0.530599,-0.02004 -0.329235,0.615182 -0.266186,1.46331 0.182216,2.45116 0.489398,1.078168 0.754253,1.107839 0.918331,0.102874 z M 42.133077,33.255146 C 41.315152,33.040799 39.417125,32.29801 37.915234,31.604504 36.41335,30.910997 34.468793,30.05578 33.593996,29.704023 32.7192,29.352265 32.039929,29.027997 32.0845,28.983425 c 0.190953,-0.190952 2.680518,0.617776 4.959211,1.610988 4.618756,2.013176 6.860729,2.561691 8.397501,2.054512 0.412969,-0.136292 0.750852,-0.314759 0.750852,-0.396596 0,-0.08183 -0.41318,-0.349531 -0.918184,-0.594879 -1.580569,-0.7679 -3.479606,-2.784034 -4.197165,-4.455966 -0.212859,-0.495954 -0.01003,-0.367867 1.149418,0.725906 1.561751,1.473279 2.794324,2.268024 4.140888,2.669981 0.504571,0.150618 1.034405,0.479829 1.214434,0.754582 0.293969,0.448654 0.287077,0.531429 -0.08672,1.041423 -0.948525,1.294161 -2.661256,1.569445 -5.361662,0.86177 z M 37.791696,12.154894 c -0.48981,-0.153938 -1.438823,-0.341917 -2.108919,-0.41773 -0.670096,-0.07582 -1.218357,-0.175864 -1.218357,-0.222336 0,-0.202588 0.937202,-1.9080853 1.601152,-2.9137322 l 0.724117,-1.0967712 0.593757,0.9539583 c 0.882229,1.4174248 1.84052,4.0461411 1.457038,3.9968411 -0.08703,-0.01118 -0.558979,-0.146292 -1.048788,-0.30023 z"
       style="fill:#000000;fill-opacity:0.04256072;stroke-width:0.205748"
       id="path936" />
    <path
       d="m 39.843671,56.846933 c 0.420523,-1.426428 0.486505,-2.013157 0.413297,-3.675086 -0.07293,-1.655379 -0.187546,-2.191847 -0.703363,-3.29197 -0.718093,-1.531515 -2.325957,-3.371131 -3.738914,-4.277825 -1.308378,-0.839582 -1.470771,-0.822093 -1.248634,0.134481 0.09855,0.424356 0.175941,1.141902 0.171987,1.594548 -0.0064,0.717658 -0.03858,0.773395 -0.25228,0.435479 -1.633537,-2.582854 -3.294792,-3.945532 -6.711439,-5.505199 -2.945085,-1.344402 -3.788975,-1.846833 -4.90123,-2.918071 -0.838776,-0.80784 -0.874429,-0.821502 -0.874429,-0.335052 0,0.278923 0.08612,0.807426 0.191384,1.174454 0.256003,0.89264 -0.01878,0.871283 -1.548287,-0.120354 -2.448377,-1.587334 -4.265545,-4.061089 -5.164644,-7.030752 l -0.467197,-1.543111 0.04809,2.109367 c 0.02643,1.160153 0.02649,2.109165 1.22e-4,2.108919 -0.171015,-0.0016 -1.11421,-2.207724 -1.413901,-3.30711 -0.482416,-1.76964 -0.488569,-5.181902 -0.0126,-6.980746 1.288755,-4.870561 4.859334,-8.887361 9.347009,-10.515125 1.290555,-0.468108 1.504251,-0.603108 1.12894,-0.713209 -0.373966,-0.109706 -0.676969,-0.49931 -0.388324,-0.49931 0.04102,0 0.851168,-0.204832 1.800296,-0.455182 1.49858,-0.395278 2.267229,-0.456202 5.84065,-0.462933 3.641048,-0.0068 4.357309,0.0492 6.219239,0.486678 l 2.104276,0.494429 1.187694,-1.150115 c 1.570913,-1.521212 2.265609,-2.046694 2.405826,-1.819817 0.06339,0.10259 0.262104,0.868059 0.441568,1.701043 0.391255,1.816076 0.262091,3.710961 -0.349933,5.133649 l -0.420466,0.977409 0.521952,0.890826 c 0.908403,1.550388 1.202629,3.11193 0.933858,4.956253 -0.331023,2.271463 0.0342,3.576912 1.447265,5.172637 l 0.528335,0.596641 -0.707073,-0.390893 c -0.388883,-0.21499 -1.879374,-1.518213 -3.312204,-2.896049 -4.236528,-4.073942 -5.596773,-4.691519 -10.024924,-4.551482 -2.362008,0.0747 -2.738089,0.14002 -3.800644,0.660142 -3.590163,1.75739 -4.183901,5.459351 -1.479373,9.223856 l 0.734591,1.022497 -0.85768,-0.482041 c -2.020126,-1.135376 -3.783271,-3.619454 -4.028459,-5.67566 -0.253746,-2.127966 -0.641773,-1.682976 -0.679135,0.778828 -0.02533,1.667771 0.396051,3.144847 1.222626,4.285898 0.551668,0.761553 0.573677,0.839497 0.177123,0.627267 -0.778667,-0.416727 -2.169016,-1.986834 -2.67027,-3.015508 -0.6512,-1.336385 -0.784576,-4.063054 -0.296895,-6.069555 0.19125,-0.786869 0.307741,-1.47066 0.25887,-1.519532 -0.04887,-0.04887 -0.390742,0.566083 -0.759712,1.366568 -1.862111,4.039907 -1.65579,7.041757 0.657995,9.573405 1.315746,1.439639 2.646455,2.345601 6.258138,4.260607 1.570669,0.832806 3.39631,1.859984 4.056993,2.282613 0.660677,0.422631 1.24387,0.725778 1.295982,0.673662 0.120067,-0.120067 -0.689416,-1.724613 -1.199601,-2.377833 -0.212352,-0.271891 -0.34974,-0.530703 -0.305299,-0.57514 0.144127,-0.144129 3.795417,1.514056 5.327135,2.419251 2.01963,1.193529 4.221753,3.422231 5.171749,5.234172 l 0.755115,1.440237 -0.129634,-1.22715 C 41.604888,41.11244 38.837582,37.069084 35.020845,35.017491 l -1.397409,-0.751142 0.925866,0.130964 c 2.382782,0.337048 6.657734,1.852832 8.665777,3.072657 1.21754,0.739616 3.267615,2.471211 3.267615,2.759991 0,0.09065 -0.373671,0.06996 -0.83038,-0.04597 -0.45671,-0.115927 -0.867171,-0.173992 -0.91212,-0.129037 -0.04494,0.04495 0.237529,0.728314 0.627744,1.518576 0.815058,1.650653 1.311779,3.757268 1.316929,5.58514 0.0038,1.266758 -0.410545,3.835344 -0.773259,4.796207 -0.189681,0.502492 -0.195531,0.499287 -0.469073,-0.257185 -0.152351,-0.421314 -0.332695,-0.766022 -0.400766,-0.766022 -0.06808,0 -0.290272,0.463006 -0.493764,1.028904 -0.540564,1.503261 -1.832752,3.39501 -3.478236,5.092103 -0.795467,0.82042 -1.509355,1.491674 -1.586414,1.491674 -0.07705,0 0.08508,-0.76384 0.360316,-1.697422 z m 3.231101,-33.228324 c 0.137375,-0.841479 -0.08879,-1.847051 -0.569948,-2.53399 -0.306732,-0.437927 -0.306951,-0.437935 -0.530599,-0.02004 -0.329235,0.615182 -0.266186,1.46331 0.182216,2.45116 0.489398,1.078168 0.754253,1.107839 0.918331,0.102874 z M 42.423707,33.647948 C 41.605782,33.433601 39.707755,32.690812 38.205864,31.997306 36.70398,31.303799 34.759423,30.448582 33.884626,30.096825 33.00983,29.745067 32.330559,29.420799 32.37513,29.376227 c 0.190953,-0.190952 2.680518,0.617776 4.959211,1.610988 4.618756,2.013176 6.860729,2.561691 8.397501,2.054512 0.412969,-0.136292 0.750852,-0.314759 0.750852,-0.396596 0,-0.08183 -0.41318,-0.349531 -0.918184,-0.594879 -1.580569,-0.7679 -3.479606,-2.784034 -4.197165,-4.455966 -0.212859,-0.495954 -0.01003,-0.367867 1.149418,0.725906 1.561751,1.473279 2.794324,2.268024 4.140888,2.669981 0.504571,0.150618 1.034405,0.479829 1.214434,0.754582 0.293969,0.448654 0.287077,0.531429 -0.08672,1.041423 -0.948525,1.294161 -2.661256,1.569445 -5.361662,0.86177 z M 38.082326,12.547696 c -0.48981,-0.153938 -1.438823,-0.341917 -2.108919,-0.41773 -0.670096,-0.07582 -1.218357,-0.175864 -1.218357,-0.222336 0,-0.202588 0.937202,-1.9080848 1.601152,-2.9137317 l 0.724117,-1.0967712 0.593757,0.9539583 c 0.882229,1.4174246 1.84052,4.0461406 1.457038,3.9968406 -0.08703,-0.01118 -0.558979,-0.146292 -1.048788,-0.30023 z"
       style="fill:#000000;fill-opacity:0.04256072;stroke-width:0.205748"
       id="path1028" />
    <path
       d="m 40.101288,57.565864 c 0.420523,-1.426428 0.486505,-2.013157 0.413297,-3.675086 -0.07293,-1.655379 -0.187546,-2.191847 -0.703363,-3.29197 -0.718093,-1.531515 -2.325957,-3.371131 -3.738914,-4.277825 -1.308378,-0.839582 -1.470771,-0.822093 -1.248634,0.134481 0.09855,0.424356 0.175941,1.141902 0.171987,1.594548 -0.0064,0.717658 -0.03858,0.773395 -0.25228,0.435479 -1.633537,-2.582854 -3.294792,-3.945532 -6.711439,-5.505199 -2.945085,-1.344402 -3.788975,-1.846833 -4.90123,-2.918071 -0.838776,-0.80784 -0.874429,-0.821502 -0.874429,-0.335052 0,0.278923 0.08612,0.807426 0.191384,1.174454 0.256003,0.89264 -0.01878,0.871283 -1.548287,-0.120354 -2.448377,-1.587334 -4.265545,-4.061089 -5.164644,-7.030752 l -0.467197,-1.543111 0.04809,2.109367 c 0.02643,1.160153 0.02649,2.109165 1.22e-4,2.108919 -0.171015,-0.0016 -1.11421,-2.207724 -1.413901,-3.30711 -0.482416,-1.76964 -0.488569,-5.181902 -0.0126,-6.980746 1.288755,-4.870561 4.859334,-8.887361 9.347009,-10.515125 1.290555,-0.468108 1.504251,-0.603108 1.12894,-0.713209 -0.373966,-0.109706 -0.676969,-0.49931 -0.388324,-0.49931 0.04102,0 0.851168,-0.204832 1.800296,-0.455182 1.49858,-0.395278 2.267229,-0.456202 5.84065,-0.462933 3.641048,-0.0068 4.357309,0.0492 6.219239,0.486678 l 2.104276,0.494429 1.187694,-1.150115 c 1.570913,-1.521212 2.265609,-2.046694 2.405826,-1.819817 0.06339,0.10259 0.262104,0.868059 0.441568,1.701043 0.391255,1.816076 0.262091,3.710961 -0.349933,5.133649 l -0.420466,0.977409 0.521952,0.890826 c 0.908403,1.550388 1.202629,3.11193 0.933858,4.956253 -0.331023,2.271463 0.0342,3.576912 1.447265,5.172637 l 0.528335,0.596641 -0.707073,-0.390893 c -0.388883,-0.21499 -1.879374,-1.518213 -3.312204,-2.896049 -4.236528,-4.073942 -5.596773,-4.691519 -10.024924,-4.551482 -2.362008,0.0747 -2.738089,0.14002 -3.800644,0.660142 -3.590163,1.75739 -4.183901,5.459351 -1.479373,9.223856 l 0.734591,1.022497 -0.85768,-0.482041 c -2.020126,-1.135376 -3.783271,-3.619454 -4.028459,-5.67566 -0.253746,-2.127966 -0.641773,-1.682976 -0.679135,0.778828 -0.02533,1.667771 0.396051,3.144847 1.222626,4.285898 0.551668,0.761553 0.573677,0.839497 0.177123,0.627267 -0.778667,-0.416727 -2.169016,-1.986834 -2.67027,-3.015508 -0.6512,-1.336385 -0.784576,-4.063054 -0.296895,-6.069555 0.19125,-0.786869 0.307741,-1.47066 0.25887,-1.519532 -0.04887,-0.04887 -0.390742,0.566083 -0.759712,1.366568 -1.862111,4.039907 -1.65579,7.041757 0.657995,9.573405 1.315746,1.439639 2.646455,2.345601 6.258138,4.260607 1.570669,0.832806 3.39631,1.859984 4.056993,2.282613 0.660677,0.422631 1.24387,0.725778 1.295982,0.673662 0.120067,-0.120067 -0.689416,-1.724613 -1.199601,-2.377833 -0.212352,-0.271891 -0.34974,-0.530703 -0.305299,-0.57514 0.144127,-0.144129 3.795417,1.514056 5.327135,2.419251 2.01963,1.193529 4.221753,3.422231 5.171749,5.234172 l 0.755115,1.440237 -0.129634,-1.22715 c -0.440344,-4.168499 -3.20765,-8.211855 -7.024387,-10.263448 l -1.397409,-0.751142 0.925866,0.130964 c 2.382782,0.337048 6.657734,1.852832 8.665777,3.072657 1.21754,0.739616 3.267615,2.471211 3.267615,2.759991 0,0.09065 -0.373671,0.06996 -0.83038,-0.04597 -0.45671,-0.115927 -0.867171,-0.173992 -0.91212,-0.129037 -0.04494,0.04495 0.237529,0.728314 0.627744,1.518576 0.815058,1.650653 1.311779,3.757268 1.316929,5.58514 0.0038,1.266758 -0.410545,3.835344 -0.773259,4.796207 -0.189681,0.502492 -0.195531,0.499287 -0.469073,-0.257185 -0.152351,-0.421314 -0.332695,-0.766022 -0.400766,-0.766022 -0.06808,0 -0.290272,0.463006 -0.493764,1.028904 -0.540564,1.503261 -1.832752,3.39501 -3.478236,5.092103 -0.795467,0.82042 -1.509355,1.491674 -1.586414,1.491674 -0.07705,0 0.08508,-0.76384 0.360316,-1.697422 z M 43.332389,24.33754 c 0.137375,-0.841479 -0.08879,-1.847051 -0.569948,-2.53399 -0.306732,-0.437927 -0.306951,-0.437935 -0.530599,-0.02004 -0.329235,0.615182 -0.266186,1.46331 0.182216,2.45116 0.489398,1.078168 0.754253,1.107839 0.918331,0.102874 z M 42.681324,34.366879 C 41.863399,34.152532 39.965372,33.409743 38.463481,32.716237 36.961597,32.02273 35.01704,31.167513 34.142243,30.815756 33.267447,30.463998 32.588176,30.13973 32.632747,30.095158 c 0.190953,-0.190952 2.680518,0.617776 4.959211,1.610988 4.618756,2.013176 6.860729,2.561691 8.397501,2.054512 0.412969,-0.136292 0.750852,-0.314759 0.750852,-0.396596 0,-0.08183 -0.41318,-0.349531 -0.918184,-0.594879 -1.580569,-0.7679 -3.479606,-2.784034 -4.197165,-4.455966 -0.212859,-0.495954 -0.01003,-0.367867 1.149418,0.725906 1.561751,1.473279 2.794324,2.268024 4.140888,2.669981 0.504571,0.150618 1.034405,0.479829 1.214434,0.754582 0.293969,0.448654 0.287077,0.531429 -0.08672,1.041423 -0.948525,1.294161 -2.661256,1.569445 -5.361662,0.86177 z M 38.339943,13.266627 c -0.48981,-0.153938 -1.438823,-0.341917 -2.108919,-0.41773 -0.670096,-0.07582 -1.218357,-0.175864 -1.218357,-0.222336 0,-0.202588 0.937202,-1.908085 1.601152,-2.9137317 l 0.724117,-1.0967712 0.593757,0.9539583 c 0.882229,1.4174246 1.84052,4.0461406 1.457038,3.9968406 -0.08703,-0.01118 -0.558979,-0.146292 -1.048788,-0.30023 z"
       style="fill:#000000;fill-opacity:0.04256072;stroke-width:0.205748"
       id="path1030" />
  </g>
  <path
     d="m 39.471483,55.957109 c 0.420523,-1.426428 0.486505,-2.013157 0.413297,-3.675086 -0.07293,-1.655379 -0.187546,-2.191847 -0.703363,-3.29197 -0.718093,-1.531515 -2.325957,-3.371131 -3.738914,-4.277825 -1.308378,-0.839582 -1.470771,-0.822093 -1.248634,0.134481 0.09855,0.424356 0.175941,1.141902 0.171987,1.594548 -0.0064,0.717658 -0.03858,0.773395 -0.25228,0.435479 -1.633537,-2.582854 -3.294792,-3.945532 -6.711439,-5.505199 -2.945085,-1.344402 -3.788975,-1.846833 -4.90123,-2.918071 -0.838776,-0.80784 -0.874429,-0.821502 -0.874429,-0.335052 0,0.278923 0.08612,0.807426 0.191384,1.174454 0.256003,0.89264 -0.01878,0.871283 -1.548287,-0.120354 -2.448377,-1.587334 -4.265545,-4.061089 -5.164644,-7.030752 l -0.467197,-1.543111 0.04809,2.109367 c 0.02643,1.160153 0.02649,2.109165 1.22e-4,2.108919 -0.171015,-0.0016 -1.11421,-2.207724 -1.413901,-3.30711 -0.482416,-1.76964 -0.488569,-5.181902 -0.0126,-6.980746 1.288755,-4.870561 4.859334,-8.887361 9.347009,-10.515125 1.290555,-0.468108 1.504251,-0.603108 1.12894,-0.713209 -0.373966,-0.109706 -0.676969,-0.49931 -0.388324,-0.49931 0.04102,0 0.851168,-0.204832 1.800296,-0.455182 1.49858,-0.395278 2.267229,-0.456202 5.84065,-0.462933 3.641048,-0.0068 4.357309,0.0492 6.219239,0.486678 l 2.104276,0.494429 1.187694,-1.150115 c 1.570913,-1.521212 2.265609,-2.0466939 2.405826,-1.8198169 0.06339,0.10259 0.262104,0.8680589 0.441568,1.7010429 0.391255,1.816076 0.262091,3.710961 -0.349933,5.133649 l -0.420466,0.977409 0.521952,0.890826 c 0.908403,1.550388 1.202629,3.11193 0.933858,4.956253 -0.331023,2.271463 0.0342,3.576912 1.447265,5.172637 l 0.528335,0.596641 -0.707073,-0.390893 c -0.388883,-0.21499 -1.879374,-1.518213 -3.312204,-2.896049 -4.236528,-4.073942 -5.596773,-4.691519 -10.024924,-4.551482 -2.362008,0.0747 -2.738089,0.14002 -3.800644,0.660142 -3.590163,1.75739 -4.183901,5.459351 -1.479373,9.223856 l 0.734591,1.022497 -0.85768,-0.482041 c -2.020126,-1.135376 -3.783271,-3.619454 -4.028459,-5.67566 -0.253746,-2.127966 -0.641773,-1.682976 -0.679135,0.778828 -0.02533,1.667771 0.396051,3.144847 1.222626,4.285898 0.551668,0.761553 0.573677,0.839497 0.177123,0.627267 -0.778667,-0.416727 -2.169016,-1.986834 -2.67027,-3.015508 -0.6512,-1.336385 -0.784576,-4.063054 -0.296895,-6.069555 0.19125,-0.786869 0.307741,-1.47066 0.25887,-1.519532 -0.04887,-0.04887 -0.390742,0.566083 -0.759712,1.366568 -1.862111,4.039907 -1.65579,7.041757 0.657995,9.573405 1.315746,1.439639 2.646455,2.345601 6.258138,4.260607 1.570669,0.832806 3.39631,1.859984 4.056993,2.282613 0.660677,0.422631 1.24387,0.725778 1.295982,0.673662 0.120067,-0.120067 -0.689416,-1.724613 -1.199601,-2.377833 -0.212352,-0.271891 -0.34974,-0.530703 -0.305299,-0.57514 0.144127,-0.144129 3.795417,1.514056 5.327135,2.419251 2.01963,1.193529 4.221753,3.422231 5.171749,5.234172 l 0.755115,1.440237 -0.129634,-1.22715 C 41.2327,40.222616 38.465394,36.17926 34.648657,34.127667 l -1.397409,-0.751142 0.925866,0.130964 c 2.382782,0.337048 6.657734,1.852832 8.665777,3.072657 1.21754,0.739616 3.267615,2.471211 3.267615,2.759991 0,0.09065 -0.373671,0.06996 -0.83038,-0.04597 -0.45671,-0.115927 -0.867171,-0.173992 -0.91212,-0.129037 -0.04494,0.04495 0.237529,0.728314 0.627744,1.518576 0.815058,1.650653 1.311779,3.757268 1.316929,5.58514 0.0038,1.266758 -0.410545,3.835344 -0.773259,4.796207 -0.189681,0.502492 -0.195531,0.499287 -0.469073,-0.257185 -0.152351,-0.421314 -0.332695,-0.766022 -0.400766,-0.766022 -0.06808,0 -0.290272,0.463006 -0.493764,1.028904 -0.540564,1.503261 -1.832752,3.39501 -3.478236,5.092103 -0.795467,0.82042 -1.509355,1.491674 -1.586414,1.491674 -0.07705,0 0.08508,-0.76384 0.360316,-1.697422 z m 3.231101,-33.228324 c 0.137375,-0.841479 -0.08879,-1.847051 -0.569948,-2.53399 -0.306732,-0.437927 -0.306951,-0.437935 -0.530599,-0.02004 -0.329235,0.615182 -0.266186,1.46331 0.182216,2.45116 0.489398,1.078168 0.754253,1.107839 0.918331,0.102874 z m -0.651065,10.029339 c -0.817925,-0.214347 -2.715952,-0.957136 -4.217843,-1.650642 -1.501884,-0.693507 -3.446441,-1.548724 -4.321238,-1.900481 -0.874796,-0.351758 -1.554067,-0.676026 -1.509496,-0.720598 0.190953,-0.190952 2.680518,0.617776 4.959211,1.610988 4.618756,2.013176 6.860729,2.561691 8.397501,2.054512 0.412969,-0.136292 0.750852,-0.314759 0.750852,-0.396596 0,-0.08183 -0.41318,-0.349531 -0.918184,-0.594879 -1.580569,-0.7679 -3.479606,-2.784034 -4.197165,-4.455966 -0.212859,-0.495954 -0.01003,-0.367867 1.149418,0.725906 1.561751,1.473279 2.794324,2.268024 4.140888,2.669981 0.504571,0.150618 1.034405,0.479829 1.214434,0.754582 0.293969,0.448654 0.287077,0.531429 -0.08672,1.041423 -0.948525,1.294161 -2.661256,1.569445 -5.361662,0.86177 z M 37.710138,11.657872 c -0.48981,-0.153938 -1.438823,-0.341917 -2.108919,-0.41773 -0.670096,-0.07582 -1.218357,-0.175864 -1.218357,-0.222336 0,-0.202588 0.937202,-1.9080847 1.601152,-2.9137321 l 0.724117,-1.0967712 0.593757,0.9539583 c 0.882229,1.4174246 1.84052,4.046141 1.457038,3.996841 -0.08703,-0.01118 -0.558979,-0.146292 -1.048788,-0.30023 z"
     style="fill:#ffffff;stroke-width:0.205748"
     id="path879" />
</svg>
