<?xml version="1.0" encoding="UTF-8" standalone="no"?>
<svg
   viewBox="0 0 64 64"
   version="1.1"
   id="svg19"
   sodipodi:docname="libreofficedev6.1-chart.svg"
   width="64"
   height="64"
   inkscape:version="1.1.2 (0a00cf5339, 2022-02-04)"
   xmlns:inkscape="http://www.inkscape.org/namespaces/inkscape"
   xmlns:sodipodi="http://sodipodi.sourceforge.net/DTD/sodipodi-0.dtd"
   xmlns:xlink="http://www.w3.org/1999/xlink"
   xmlns="http://www.w3.org/2000/svg"
   xmlns:svg="http://www.w3.org/2000/svg"
   xmlns:rdf="http://www.w3.org/1999/02/22-rdf-syntax-ns#"
   xmlns:cc="http://creativecommons.org/ns#"
   xmlns:dc="http://purl.org/dc/elements/1.1/">
  <metadata
     id="metadata25">
    <rdf:RDF>
      <cc:Work
         rdf:about="">
        <dc:format>image/svg+xml</dc:format>
        <dc:type
           rdf:resource="http://purl.org/dc/dcmitype/StillImage" />
      </cc:Work>
    </rdf:RDF>
  </metadata>
  <defs
     id="defs23">
    <linearGradient
       inkscape:collect="always"
       id="linearGradient7780">
      <stop
         style="stop-color:#4a5459;stop-opacity:1"
         offset="0"
         id="stop7776" />
      <stop
         style="stop-color:#69797e;stop-opacity:1"
         offset="1"
         id="stop7778" />
    </linearGradient>
    <linearGradient
       inkscape:collect="always"
       id="linearGradient7774">
      <stop
         style="stop-color:#68768a;stop-opacity:1"
         offset="0"
         id="stop7770" />
      <stop
         style="stop-color:#515c6b;stop-opacity:1"
         offset="1"
         id="stop7772" />
    </linearGradient>
    <linearGradient
       inkscape:collect="always"
       id="linearGradient898">
      <stop
         style="stop-color:#4a5459;stop-opacity:1"
         offset="0"
         id="stop894" />
      <stop
         style="stop-color:#69797e;stop-opacity:1"
         offset="1"
         id="stop896" />
    </linearGradient>
    <linearGradient
       inkscape:collect="always"
       xlink:href="#linearGradient7774"
       id="linearGradient900"
       x1="7.4785533"
       y1="34"
       x2="30"
       y2="34"
       gradientUnits="userSpaceOnUse"
       gradientTransform="translate(-0.99999993)" />
    <filter
       inkscape:collect="always"
       style="color-interpolation-filters:sRGB"
       id="filter924"
       x="-0.06"
       width="1.12"
       y="-0.06"
       height="1.12">
      <feGaussianBlur
         inkscape:collect="always"
         stdDeviation="0.75"
         id="feGaussianBlur926" />
    </filter>
    <linearGradient
       inkscape:collect="always"
       xlink:href="#linearGradient898"
       id="linearGradient864"
       gradientUnits="userSpaceOnUse"
       gradientTransform="matrix(1.119998,0,0,1.1547087,5.3335072,-16.103088)"
       x1="15"
       y1="59"
       x2="25"
       y2="44" />
    <linearGradient
       inkscape:collect="always"
       xlink:href="#linearGradient7780"
       id="linearGradient880"
       x1="17.999924"
       y1="21.875729"
       x2="59.999825"
       y2="21.875729"
       gradientUnits="userSpaceOnUse"
       gradientTransform="matrix(-0.99999818,0,0,1.0309899,65.333224,-2.2553892)" />
    <filter
       inkscape:collect="always"
       style="color-interpolation-filters:sRGB"
       id="filter907"
       x="-0.056785712"
       width="1.1135714"
       y="-0.063599997"
       height="1.1272">
      <feGaussianBlur
         inkscape:collect="always"
         stdDeviation="1.3249999"
         id="feGaussianBlur909" />
    </filter>
  </defs>
  <sodipodi:namedview
     pagecolor="#ffffff"
     bordercolor="#666666"
     borderopacity="1"
     objecttolerance="10"
     gridtolerance="10"
     guidetolerance="10"
     inkscape:pageopacity="0"
     inkscape:pageshadow="2"
     inkscape:window-width="1920"
     inkscape:window-height="1030"
     id="namedview21"
     showgrid="true"
     inkscape:zoom="1.7383042"
     inkscape:cx="-99.809917"
     inkscape:cy="81.976445"
     inkscape:window-x="0"
     inkscape:window-y="24"
     inkscape:window-maximized="1"
     inkscape:current-layer="svg19"
     inkscape:pagecheckerboard="0">
    <inkscape:grid
       type="xygrid"
       id="grid845" />
  </sodipodi:namedview>
  <linearGradient
     id="a"
     gradientUnits="userSpaceOnUse"
     x1="5.8920002"
     x2="42.153"
     y1="25.525999"
     y2="25.525999">
    <stop
       offset="0"
       stop-color="#ff6200"
       id="stop2" />
    <stop
       offset="1"
       stop-color="#ff00ca"
       id="stop4" />
  </linearGradient>
  <path
     sodipodi:nodetypes="cccccccc"
     inkscape:connector-curvature="0"
     id="path889"
     d="M 19.333984,7.7988281 5.3339844,32.798828 l 13.9999996,25 h 13.761719 14.238281 l 14,-25 -14,-24.9999999 z"
     style="fill:#000000;fill-opacity:1;stroke:none;stroke-width:1.13722086px;stroke-linecap:butt;stroke-linejoin:miter;stroke-opacity:1;filter:url(#filter907);opacity:0.25" />
  <path
     style="fill:#1caf89;fill-opacity:1;stroke:none;stroke-width:1.13722086px;stroke-linecap:butt;stroke-linejoin:miter;stroke-opacity:1"
     d="M 19.333984,7.7988281 5.3339844,32.798828 l 13.9999996,25 h 13.761719 14.238281 l 14,-25 -14,-24.9999999 z"
     id="path882"
     inkscape:connector-curvature="0"
     sodipodi:nodetypes="cccccccc" />
  <path
     style="fill:#4a5459;fill-opacity:1;stroke:none;stroke-width:1.13722086px;stroke-linecap:butt;stroke-linejoin:miter;stroke-opacity:1"
     d="M 61.333333,32.79827 H 33.333382 l -13.999874,24.999997 27.999849,-1e-6 z"
     id="path907"
     inkscape:connector-curvature="0" />
  <path
     inkscape:connector-curvature="0"
     id="path909"
     d="M 61.333231,32.798267 H 33.333282 L 19.333408,7.7982707 l 27.999849,1e-6 z"
     style="fill:#69797e;fill-opacity:1;stroke:none;stroke-width:1.13722086px;stroke-linecap:butt;stroke-linejoin:miter;stroke-opacity:1" />
  <path
     sodipodi:nodetypes="ccccccc"
     inkscape:connector-curvature="0"
     id="path844"
     d="m 33.096045,7.7982672 14,24.9999998 -14,25 h 14.237288 l 14,-25 -14,-24.9999998 z"
     style="fill:#847545;fill-opacity:0.25490198;stroke:none;stroke-width:1.13722086px;stroke-linecap:butt;stroke-linejoin:miter;stroke-opacity:1" />
  <path
     style="fill:url(#linearGradient880);fill-opacity:1;stroke:none;stroke-width:1.13722086px;stroke-linecap:butt;stroke-linejoin:miter;stroke-opacity:1"
     d="M 5.3335092,32.798263 H 33.333458 l 13.999875,-24.9999958 -27.999849,1e-6 z"
     id="path856"
     inkscape:connector-curvature="0" />
  <path
     inkscape:connector-curvature="0"
     id="path860"
     d="M 5.3335072,32.79827 H 33.333458 l 13.999875,24.999997 -27.999849,-1e-6 z"
     style="fill:url(#linearGradient864);fill-opacity:1;stroke:none;stroke-width:1.13722086px;stroke-linecap:butt;stroke-linejoin:miter;stroke-opacity:1" />
  <rect
     rx="6"
     ry="6"
     y="18"
     x="5"
     height="30"
     width="30"
     id="rect902"
     style="opacity:0.25;fill:#000000;fill-opacity:1;stroke:none;stroke-width:5.70000029;stroke-linecap:round;stroke-linejoin:round;stroke-miterlimit:4;stroke-dasharray:none;stroke-opacity:1;filter:url(#filter924)"
     transform="matrix(1.0333333,0,0,1.0333333,-1.1666666,-0.6)" />
  <rect
     style="opacity:1;fill:url(#linearGradient900);fill-opacity:1;stroke:none;stroke-width:5.70000029;stroke-linecap:round;stroke-linejoin:round;stroke-miterlimit:4;stroke-dasharray:none;stroke-opacity:1"
     id="rect847"
     width="30"
     height="30"
     x="4"
     y="18"
     ry="6"
     rx="6" />
  <path
     inkscape:connector-curvature="0"
     id="path931"
     d="m 128.3599,21.288541 c -3.47645,0 -6.53795,1.251578 -8.83636,3.664338 -2.31848,2.423185 -3.46371,5.696539 -3.46371,9.515723 0,3.508775 1.06586,6.556853 3.2099,8.851554 a 1.4786492,1.4786492 0 0 0 0.006,0.006 c 2.15156,2.278801 5.06064,3.457638 8.36976,3.457638 2.10275,0 4.14463,-0.404915 6.0824,-1.206754 a 1.4786492,1.4786492 0 0 0 0.91343,-1.366336 v -1.459047 a 1.4786492,1.4786492 0 0 0 -2.1293,-1.326822 c -1.37015,0.671985 -2.93041,1.019813 -4.74494,1.019813 -2.17482,0 -3.78016,-0.673705 -5.15986,-2.111058 -1.33819,-1.414331 -2.03963,-3.320651 -2.03963,-6.017051 0,-2.806234 0.7409,-4.844102 2.17641,-6.398531 1.44611,-1.5659 3.18374,-2.305598 5.58542,-2.305598 1.49141,0 2.88278,0.297585 4.22668,0.902785 a 1.4786492,1.4786492 0 0 0 2.08522,-1.348099 v -1.595812 a 1.4786492,1.4786492 0 0 0 -0.9894,-1.395215 c -1.68876,-0.592744 -3.46195,-0.887586 -5.29208,-0.887586 z"
     style="color:#000000;font-style:normal;font-variant:normal;font-weight:normal;font-stretch:normal;font-size:medium;line-height:1.25;font-family:'WeblySleek UI';-inkscape-font-specification:'WeblySleek UI, Light';font-variant-ligatures:normal;font-variant-position:normal;font-variant-caps:normal;font-variant-numeric:normal;font-variant-alternates:normal;font-feature-settings:normal;text-indent:0;text-align:start;text-decoration:none;text-decoration-line:none;text-decoration-style:solid;text-decoration-color:#000000;letter-spacing:0px;word-spacing:0px;text-transform:none;writing-mode:lr-tb;direction:ltr;text-orientation:mixed;dominant-baseline:auto;baseline-shift:baseline;text-anchor:start;white-space:normal;shape-padding:0;clip-rule:nonzero;display:inline;overflow:visible;visibility:visible;opacity:1;isolation:auto;mix-blend-mode:normal;color-interpolation:sRGB;color-interpolation-filters:linearRGB;solid-color:#000000;solid-opacity:1;vector-effect:none;fill:#ffffff;fill-opacity:0.96470588;fill-rule:nonzero;stroke:none;stroke-width:2.95700264;stroke-linecap:butt;stroke-linejoin:miter;stroke-miterlimit:4;stroke-dasharray:none;stroke-dashoffset:0;stroke-opacity:1;color-rendering:auto;image-rendering:auto;shape-rendering:auto;text-rendering:auto;enable-background:accumulate" />
  <g
     aria-label="C"
     id="text1750"
     style="font-weight:bold;font-size:27.4785px;font-family:Lato;-inkscape-font-specification:'Lato Bold';fill:#ffffff;stroke-width:0.137392">
    <path
       d="m 24.916302,39.031503 q 0.302263,0 0.53583,0.233567 l 1.456361,1.580014 q -1.209054,1.497578 -2.981417,2.294455 -1.758625,0.796876 -4.23169,0.796876 -2.212019,0 -3.984382,-0.755659 -1.758624,-0.755658 -3.008896,-2.102105 -1.250272,-1.346446 -1.923495,-3.214985 -0.659484,-1.868538 -0.659484,-4.080557 0,-2.239498 0.714441,-4.094296 0.714441,-1.868538 2.005931,-3.214985 1.305228,-1.346446 3.10507,-2.088366 1.799842,-0.755659 3.984383,-0.755659 2.170801,0 3.84699,0.714441 1.689928,0.714441 2.871503,1.868538 l -1.236532,1.717407 q -0.109914,0.164871 -0.288525,0.288524 -0.164871,0.123653 -0.467134,0.123653 -0.206089,0 -0.425917,-0.109914 -0.219828,-0.123653 -0.480874,-0.288524 -0.261045,-0.17861 -0.604527,-0.384699 -0.343481,-0.206089 -0.796876,-0.37096 -0.453396,-0.17861 -1.057923,-0.288524 -0.590787,-0.123653 -1.373925,-0.123653 -1.332707,0 -2.445586,0.480873 -1.09914,0.467135 -1.896017,1.373925 -0.796876,0.893052 -1.236532,2.19828 -0.439656,1.29149 -0.439656,2.953939 0,1.676189 0.467134,2.981417 0.480874,1.305229 1.29149,2.198281 0.810616,0.893051 1.909756,1.373925 1.09914,0.467134 2.363151,0.467134 0.755658,0 1.360185,-0.08243 0.618267,-0.08244 1.126619,-0.261046 0.522092,-0.17861 0.975487,-0.453395 0.467134,-0.288525 0.92053,-0.700702 0.137392,-0.123653 0.288524,-0.19235 0.151132,-0.08243 0.316003,-0.08243 z"
       id="path7765" />
  </g>
</svg>
