<?xml version="1.0" encoding="UTF-8" standalone="no"?>
<svg
   viewBox="0 0 64 64"
   version="1.1"
   id="svg19"
   sodipodi:docname="libreoffice6.2-base.svg"
   width="64"
   height="64"
   inkscape:version="1.1.2 (0a00cf5339, 2022-02-04)"
   xmlns:inkscape="http://www.inkscape.org/namespaces/inkscape"
   xmlns:sodipodi="http://sodipodi.sourceforge.net/DTD/sodipodi-0.dtd"
   xmlns:xlink="http://www.w3.org/1999/xlink"
   xmlns="http://www.w3.org/2000/svg"
   xmlns:svg="http://www.w3.org/2000/svg"
   xmlns:rdf="http://www.w3.org/1999/02/22-rdf-syntax-ns#"
   xmlns:cc="http://creativecommons.org/ns#"
   xmlns:dc="http://purl.org/dc/elements/1.1/">
  <metadata
     id="metadata25">
    <rdf:RDF>
      <cc:Work
         rdf:about="">
        <dc:format>image/svg+xml</dc:format>
        <dc:type
           rdf:resource="http://purl.org/dc/dcmitype/StillImage" />
      </cc:Work>
    </rdf:RDF>
  </metadata>
  <defs
     id="defs23">
    <linearGradient
       inkscape:collect="always"
       id="linearGradient924">
      <stop
         style="stop-color:#7151a7;stop-opacity:1"
         offset="0"
         id="stop920" />
      <stop
         style="stop-color:#634793;stop-opacity:1"
         offset="1"
         id="stop922" />
    </linearGradient>
    <linearGradient
       inkscape:collect="always"
       xlink:href="#linearGradient924"
       id="linearGradient900"
       x1="7.4785533"
       y1="34"
       x2="30"
       y2="34"
       gradientUnits="userSpaceOnUse"
       gradientTransform="translate(-0.99999993)" />
    <filter
       inkscape:collect="always"
       style="color-interpolation-filters:sRGB"
       id="filter924"
       x="-0.06"
       width="1.12"
       y="-0.06"
       height="1.12">
      <feGaussianBlur
         inkscape:collect="always"
         stdDeviation="0.75"
         id="feGaussianBlur926" />
    </filter>
    <linearGradient
       inkscape:collect="always"
       xlink:href="#linearGradient924"
       id="linearGradient926"
       x1="15.061198"
       y1="8.9037123"
       x2="15.061198"
       y2="19.671709"
       gradientUnits="userSpaceOnUse"
       gradientTransform="matrix(1.1012724,0,0,1.2999999,1.6234672,-1.7019927)" />
  </defs>
  <sodipodi:namedview
     pagecolor="#ffffff"
     bordercolor="#666666"
     borderopacity="1"
     objecttolerance="10"
     gridtolerance="10"
     guidetolerance="10"
     inkscape:pageopacity="0"
     inkscape:pageshadow="2"
     inkscape:window-width="1920"
     inkscape:window-height="1030"
     id="namedview21"
     showgrid="true"
     inkscape:zoom="4.9166668"
     inkscape:cx="3.1525423"
     inkscape:cy="23.898304"
     inkscape:window-x="0"
     inkscape:window-y="24"
     inkscape:window-maximized="1"
     inkscape:current-layer="svg19"
     inkscape:pagecheckerboard="0">
    <inkscape:grid
       type="xygrid"
       id="grid845" />
  </sodipodi:namedview>
  <linearGradient
     id="a"
     gradientUnits="userSpaceOnUse"
     x1="5.8920002"
     x2="42.153"
     y1="25.525999"
     y2="25.525999">
    <stop
       offset="0"
       stop-color="#ff6200"
       id="stop2" />
    <stop
       offset="1"
       stop-color="#ff00ca"
       id="stop4" />
  </linearGradient>
  <g
     style="fill:#000000;fill-opacity:1"
     id="g932"
     transform="matrix(0.92867785,0,0,0.92867785,19.012999,0.73131961)">
    <path
       id="path892"
       d="m -4.0491782,33.477889 a 2.7160876,3.2062128 0 0 0 -0.2720178,1.294073 v 7.805487 c 0,5.045922 10.8050377,9.094732 24.225947,9.094732 13.424999,0 24.230038,-4.056052 24.230038,-9.101974 v -7.793416 c 0,-0.436991 -0.112489,-0.876397 -0.272019,-1.294074 -1.670966,4.418201 -11.713127,7.798245 -23.951882,7.798245 -12.2510279,0 -22.2891001,-3.380044 -23.9621115,-7.803073 z"
       inkscape:connector-curvature="0"
       style="fill:#b588e1;fill-opacity:1;stroke-width:2.22213268" />
    <path
       id="path894-2"
       d="m -4.0491782,23.471102 a 2.7160876,3.2062128 0 0 0 -0.2720178,1.301316 v 7.800658 c 0,5.045922 10.8050377,9.101974 24.225947,9.101974 13.424999,0 24.230038,-4.060881 24.230038,-9.101974 v -7.798243 c 0,-0.441821 -0.112489,-0.878812 -0.272019,-1.303731 -1.670966,4.423028 -11.713127,7.805486 -23.951882,7.805486 -12.2510279,0 -22.2891001,-3.382458 -23.9621115,-7.798244 z"
       inkscape:connector-curvature="0"
       style="fill:#a769e5;fill-opacity:1;stroke-width:2.22213268" />
    <rect
       id="rect898"
       y="5.6733136"
       x="-4.3211961"
       width="48.455982"
       ry="9.1019745"
       rx="24.227991"
       height="26.002193"
       style="fill:url(#linearGradient926);fill-opacity:1;stroke-width:2.22213268" />
    <path
       style="fill:#e8c0ff;fill-opacity:1;stroke-width:2.22213268"
       inkscape:connector-curvature="0"
       d="m -4.0491782,43.472604 a 2.7160876,3.2062128 0 0 0 -0.2720178,1.294073 v 7.805487 c 0,5.045923 10.8050377,9.094732 24.225947,9.094732 13.424999,0 24.230038,-4.056052 24.230038,-9.101974 v -7.793415 c 0,-0.436991 -0.112489,-0.876398 -0.272019,-1.294075 -1.670966,4.418201 -11.713127,7.798245 -23.951882,7.798245 -12.2510279,0 -22.2891001,-3.380044 -23.9621115,-7.803073 z"
       id="path918" />
  </g>
  <rect
     rx="6"
     ry="6"
     y="18"
     x="5"
     height="30"
     width="30"
     id="rect902"
     style="opacity:0.25;fill:#000000;fill-opacity:1;stroke:none;stroke-width:5.70000029;stroke-linecap:round;stroke-linejoin:round;stroke-miterlimit:4;stroke-dasharray:none;stroke-opacity:1;filter:url(#filter924)"
     transform="matrix(1.0333333,0,0,1.0333333,-1.1666666,-0.6)" />
  <rect
     style="opacity:1;fill:url(#linearGradient900);fill-opacity:1.0;stroke:none;stroke-width:5.70000029;stroke-linecap:round;stroke-linejoin:round;stroke-miterlimit:4;stroke-dasharray:none;stroke-opacity:1"
     id="rect847"
     width="30"
     height="30"
     x="4"
     y="18"
     ry="6"
     rx="6" />
  <text
     xml:space="preserve"
     style="font-style:normal;font-weight:normal;font-size:21.3715px;line-height:1.25;font-family:sans-serif;letter-spacing:0px;word-spacing:0px;opacity:1;fill:#ffffff;fill-opacity:1;stroke:none;stroke-width:0.534287"
     x="11.526188"
     y="41.112431"
     id="text950"><tspan
       sodipodi:role="line"
       id="tspan948"
       x="11.526188"
       y="41.112431"
       style="fill:#ffffff;fill-opacity:1;stroke-width:0.534287">B</tspan></text>
</svg>
