<?xml version="1.0" encoding="UTF-8" standalone="no"?>
<!-- Created with Inkscape (http://www.inkscape.org/) -->

<svg
   width="48"
   height="48"
   viewBox="0 0 48 48"
   version="1.1"
   id="svg2112"
   inkscape:version="1.1.2 (0a00cf5339, 2022-02-04)"
   sodipodi:docname="micro.svg"
   xmlns:inkscape="http://www.inkscape.org/namespaces/inkscape"
   xmlns:sodipodi="http://sodipodi.sourceforge.net/DTD/sodipodi-0.dtd"
   xmlns:xlink="http://www.w3.org/1999/xlink"
   xmlns="http://www.w3.org/2000/svg"
   xmlns:svg="http://www.w3.org/2000/svg">
  <sodipodi:namedview
     id="namedview2114"
     pagecolor="#ffffff"
     bordercolor="#000000"
     borderopacity="0.25"
     inkscape:showpageshadow="2"
     inkscape:pageopacity="0.0"
     inkscape:pagecheckerboard="0"
     inkscape:deskcolor="#d1d1d1"
     inkscape:document-units="px"
     showgrid="false"
     inkscape:zoom="17.229167"
     inkscape:cx="23.825876"
     inkscape:cy="24"
     inkscape:window-width="1920"
     inkscape:window-height="1032"
     inkscape:window-x="0"
     inkscape:window-y="24"
     inkscape:window-maximized="1"
     inkscape:current-layer="svg2112"
     inkscape:pageshadow="2" />
  <defs
     id="defs2109">
    <linearGradient
       inkscape:collect="always"
       xlink:href="#linearGradient59376"
       id="linearGradient59378"
       x1="45.787689"
       y1="-43.129013"
       x2="45.870358"
       y2="-13.964334"
       gradientUnits="userSpaceOnUse"
       gradientTransform="matrix(1.4400679,0,0,1.4443366,-41.937381,65.292812)" />
    <linearGradient
       inkscape:collect="always"
       id="linearGradient59376">
      <stop
         style="stop-color:#b146c2;stop-opacity:1"
         offset="0"
         id="stop59372" />
      <stop
         style="stop-color:#881798;stop-opacity:1"
         offset="1"
         id="stop59374" />
    </linearGradient>
    <filter
       id="b"
       width="1.2401666"
       height="1.1961333"
       x="-0.12008331"
       y="-0.098066664"
       color-interpolation-filters="sRGB">
      <feGaussianBlur
         stdDeviation="1.471"
         id="feGaussianBlur12" />
    </filter>
    <linearGradient
       id="c"
       x1="33.131001"
       x2="33.131001"
       y1="17.225"
       y2="48.835999"
       gradientUnits="userSpaceOnUse"
       gradientTransform="matrix(0.82713482,0,0,0.82713482,-1.1825219,-1.7718143)">
      <stop
         offset="0"
         stop-color="#fff"
         id="stop7" />
      <stop
         offset="1"
         stop-color="#fff"
         stop-opacity=".66"
         id="stop9" />
    </linearGradient>
  </defs>
  <circle
     style="fill:url(#linearGradient59378);fill-opacity:1;stroke-width:1.14474;stroke-linecap:round;stroke-linejoin:round"
     id="path55509"
     cx="24"
     cy="24"
     r="21" />
  <path
     id="path69248"
     style="opacity:0.2;fill:#4d4d4d;fill-opacity:0.996078;stroke-width:2.39922;stroke-linecap:round;stroke-linejoin:round"
     d="M 24 3 C 12.402043 2.9999998 2.9999997 12.402044 3 24 C 3 35.597956 12.402043 45 24 45 C 35.597955 45 45 35.597956 45 24 C 45 12.402044 35.597955 3 24 3 z M 24 4 A 20 20 0 0 1 44 24 A 20 20 0 0 1 24 44 A 20 20 0 0 1 4 24 A 20 20 0 0 1 24 4 z " />
  <path
     d="m 37.809857,27.082337 c -0.299,1.196 -0.777,2.153 -1.435,2.93 -0.598,0.778 -1.196,1.256 -1.854,1.495 a 5.823,5.823 0 0 1 -2.033,0.359 c -0.718,0 -1.316,-0.12 -1.794,-0.419 -0.479,-0.239 -0.837,-0.657 -1.136,-1.136 -0.3,-0.478 -0.479,-1.076 -0.598,-1.734 -0.12,-0.658 -0.18,-1.375 -0.18,-2.153 0,-0.299 0,-0.598 0.06,-1.016 0.06,-0.419 0.12,-0.957 0.18,-0.957 h -0.12 c -0.957,2.392 -2.273,4.126 -3.947,5.501 -1.674,1.376 -3.528,2.034 -5.562,2.034 -1.375,0 -2.511,-0.539 -3.289,-1.555 -0.837,-1.017 -1.255,-2.572 -1.255,-4.605 0,-0.299 0,-0.598 0.06,-0.957 0.06,-0.299 0.06,-0.418 0.12,-1.016 h -0.42 c -0.538,1.196 -1.016,2.87 -1.375,4.365 -0.359,1.495 -0.658,2.87 -0.837,4.126 -0.24,1.256 -0.359,2.392 -0.479,3.35 -0.12,0.956 -0.179,1.614 -0.239,1.973 0.06,0.299 0.12,0.598 0.18,0.956 0.12,0.36 0.18,0.718 0.299,1.017 0.12,0.299 0.18,0.658 0.239,0.957 0.06,0.299 0.12,0.538 0.12,0.717 0,0.838 -0.18,1.495 -0.539,1.914 -0.359,0.419 -0.777,0.658 -1.196,0.658 -0.538,0 -1.0159997,-0.18 -1.3749997,-0.479 -0.419,-0.358 -0.598,-0.897 -0.598,-1.614 0,-1.017 0.18,-2.332 0.538,-3.887 0.359,-1.555 0.8969997,-3.528 1.5549997,-5.86 0.359,-1.077 0.658,-2.153 1.016,-3.23 0.36,-1.076 0.658,-2.093 0.957,-2.99 0.299,-0.897 0.538,-1.734 0.778,-2.452 a 9.595,9.595 0 0 0 0.418,-1.674 c 0.06,-0.18 0.12,-0.598 0.18,-1.196 0.06,-0.598 0.12,-1.256 0.239,-2.033 0.12,-0.778 0.18,-1.615 0.299,-2.452 0.12,-0.897 0.24,-1.674 0.299,-2.392 0.12,-0.538 0.18,-1.136 0.299,-1.794 0.119,-0.658 0.299,-1.316 0.538,-1.854 0.24,-0.598 0.598,-1.076 1.017,-1.495 0.419,-0.419 0.957,-0.598 1.614,-0.598 0.718,0 1.196,0.24 1.435,0.658 0.24,0.419 0.36,0.957 0.3,1.555 -0.06,0.598 -0.12,1.256 -0.3,1.913 a 20.57,20.57 0 0 1 -0.538,1.735 c -0.478,1.495 -0.957,2.87 -1.495,4.006 a 29.9,29.9 0 0 0 -1.435,3.708 6.57,6.57 0 0 0 -0.478,2.452 c 0,1.315 0.418,2.272 1.196,2.99 0.837,0.717 1.794,1.016 2.93,1.016 0.897,0 1.794,-0.299 2.631,-0.957 a 14.335,14.335 0 0 0 2.332,-2.332 13.274,13.274 0 0 0 1.794,-2.93 21.34,21.34 0 0 0 1.077,-2.75 c 0.06,-0.12 0.12,-0.36 0.18,-0.838 0.119,-0.479 0.178,-1.017 0.298,-1.615 0.12,-0.598 0.24,-1.196 0.359,-1.854 0.12,-0.657 0.24,-1.196 0.299,-1.614 0.12,-0.479 0.18,-0.957 0.299,-1.555 0.12,-0.598 0.299,-1.136 0.538,-1.674 0.24,-0.539 0.598,-0.957 0.957,-1.316 0.418,-0.359 0.897,-0.538 1.555,-0.538 0.777,0 1.255,0.24 1.554,0.658 0.24,0.418 0.36,0.957 0.36,1.554 -0.06,0.599 -0.12,1.196 -0.3,1.794 -0.18,0.599 -0.299,1.077 -0.418,1.436 a 59.76,59.76 0 0 1 -1.435,4.006 c -0.479,1.196 -0.898,2.273 -1.316,3.11 -0.359,0.897 -0.658,1.555 -0.897,2.093 -0.24,0.538 -0.359,0.897 -0.359,1.076 0,1.555 0.359,2.691 1.017,3.35 0.657,0.657 1.375,1.016 2.152,1.016 1.316,0 2.333,-0.419 3.11,-1.196 0.777,-0.838 1.375,-2.333 1.734,-4.127 h 0.479 c 0.12,1.735 -0.06,3.17 -0.36,4.366 z"
     filter="url(#b)"
     opacity="0.25"
     id="path21"
     transform="matrix(0.82713482,0,0,0.82713482,5.8432792,5.019511)" />
  <path
     fill="url(#c)"
     d="m 37.117128,25.685753 c -0.247313,0.989254 -0.642684,1.780822 -1.186938,2.423505 -0.494627,0.643511 -0.989254,1.038882 -1.533508,1.236567 a 4.8164061,4.8164061 0 0 1 -1.681565,0.296941 c -0.593883,0 -1.08851,-0.09926 -1.48388,-0.346569 -0.396198,-0.197685 -0.692312,-0.543428 -0.939625,-0.939625 -0.248141,-0.395371 -0.396198,-0.889997 -0.494627,-1.434252 -0.09926,-0.544255 -0.148884,-1.13731 -0.148884,-1.780821 0,-0.247314 0,-0.494627 0.04963,-0.840369 0.04963,-0.34657 0.09926,-0.791568 0.148884,-0.791568 h -0.09926 c -0.791568,1.978506 -1.880078,3.412758 -3.264701,4.550068 -1.384624,1.138138 -2.918132,1.682393 -4.600524,1.682393 -1.137311,0 -2.076936,-0.445826 -2.720447,-1.286195 -0.692311,-0.841196 -1.038054,-2.127391 -1.038054,-3.808956 0,-0.247313 0,-0.494627 0.04963,-0.791568 0.04963,-0.247313 0.04963,-0.345742 0.09926,-0.840369 h -0.347396 c -0.444999,0.989253 -0.840369,2.373877 -1.137311,3.610444 -0.296941,1.236566 -0.544254,2.373877 -0.692311,3.412758 -0.198513,1.038881 -0.296942,1.978506 -0.396198,2.770902 -0.09926,0.79074 -0.148057,1.334995 -0.197685,1.631937 0.04963,0.247313 0.09926,0.494626 0.148884,0.79074 0.09926,0.297769 0.148884,0.593883 0.247313,0.841197 0.09926,0.247313 0.148885,0.544254 0.197686,0.791568 0.04963,0.247313 0.09926,0.444998 0.09926,0.593055 0,0.693139 -0.148884,1.236567 -0.445826,1.583136 -0.296941,0.34657 -0.642684,0.544255 -0.989253,0.544255 -0.444998,0 -0.840368,-0.148884 -1.13731,-0.396198 -0.346569,-0.296114 -0.494626,-0.741939 -0.494626,-1.334995 0,-0.841196 0.148884,-1.928879 0.444998,-3.215073 0.296942,-1.286195 0.74194,-2.918132 1.286195,-4.84701 0.29694,-0.890824 0.544254,-1.780822 0.840368,-2.671646 0.297769,-0.889997 0.544255,-1.731193 0.791568,-2.473133 0.247313,-0.74194 0.444999,-1.434252 0.643511,-2.028134 a 7.9363586,7.9363586 0 0 0 0.345742,-1.384624 c 0.04963,-0.148884 0.09926,-0.494627 0.148885,-0.989253 0.04963,-0.494627 0.09926,-1.038882 0.197685,-1.681566 0.09926,-0.64351 0.148884,-1.335822 0.247313,-2.028134 0.09926,-0.74194 0.198512,-1.384624 0.247313,-1.978507 0.09926,-0.444998 0.148885,-0.939625 0.247314,-1.483879 0.09843,-0.544255 0.247313,-1.08851 0.444998,-1.533508 0.198513,-0.494627 0.494627,-0.889998 0.841196,-1.236567 0.34657,-0.3465691 0.790741,-0.4946271 1.334996,-0.4946271 0.593883,0 0.989253,0.1985131 1.186938,0.5442551 0.198513,0.34657 0.297769,0.791568 0.248141,1.286195 -0.04963,0.494626 -0.09926,1.038881 -0.248141,1.582309 a 17.014163,17.014163 0 0 1 -0.444998,1.435079 c -0.395371,1.236566 -0.791568,2.373877 -1.236567,3.313502 a 24.731331,24.731331 0 0 0 -1.186938,3.067016 5.4342758,5.4342758 0 0 0 -0.395371,2.028134 c 0,1.087682 0.345743,1.879251 0.989254,2.473133 0.692312,0.593056 1.48388,0.840369 2.423505,0.840369 0.74194,0 1.48388,-0.247313 2.176191,-0.791568 a 11.856978,11.856978 0 0 0 1.928879,-1.928878 10.979388,10.979388 0 0 0 1.48388,-2.423505 17.651057,17.651057 0 0 0 0.890824,-2.274621 c 0.04963,-0.09926 0.09926,-0.297768 0.148884,-0.693139 0.09843,-0.396198 0.14723,-0.841196 0.246486,-1.335823 0.09926,-0.494626 0.198513,-0.989253 0.296942,-1.533508 0.09926,-0.543427 0.198512,-0.989253 0.247313,-1.334995 0.09926,-0.396198 0.148884,-0.791568 0.247313,-1.286195 0.09926,-0.494627 0.247314,-0.939625 0.444999,-1.384624 0.198512,-0.445825 0.494627,-0.791568 0.791568,-1.088509 0.345742,-0.296941 0.74194,-0.4449991 1.286195,-0.4449991 0.642683,0 1.038054,0.1985131 1.285367,0.5442551 0.198513,0.345743 0.297769,0.790741 0.297769,1.285368 -0.04963,0.494626 -0.09926,0.989253 -0.248141,1.48388 -0.148884,0.494626 -0.247313,0.890824 -0.345742,1.187765 a 49.429577,49.429577 0 0 1 -1.186939,3.313502 c -0.396197,0.989254 -0.742767,1.880078 -1.088509,2.57239 -0.296941,0.74194 -0.544255,1.286194 -0.74194,1.731193 -0.198512,0.444998 -0.296941,0.74194 -0.296941,0.889997 0,1.286194 0.296941,2.22582 0.841196,2.770901 0.543427,0.543428 1.13731,0.840369 1.779994,0.840369 1.088509,0 1.929705,-0.346569 2.572389,-0.989253 0.642684,-0.693139 1.137311,-1.929705 1.434252,-3.413585 h 0.396198 c 0.09926,1.435079 -0.04963,2.622017 -0.297769,3.61127 z"
     id="path23"
     style="fill:#fffeff;stroke-width:0.827135;fill-opacity:1" />
</svg>
