<?xml version="1.0" encoding="UTF-8" standalone="no"?>
<svg
   width="64"
   height="64"
   version="1.1"
   id="svg17"
   sodipodi:docname="olive-editor.svg"
   inkscape:version="1.1.2 (0a00cf5339, 2022-02-04)"
   xmlns:inkscape="http://www.inkscape.org/namespaces/inkscape"
   xmlns:sodipodi="http://sodipodi.sourceforge.net/DTD/sodipodi-0.dtd"
   xmlns:xlink="http://www.w3.org/1999/xlink"
   xmlns="http://www.w3.org/2000/svg"
   xmlns:svg="http://www.w3.org/2000/svg"
   xmlns:rdf="http://www.w3.org/1999/02/22-rdf-syntax-ns#"
   xmlns:cc="http://creativecommons.org/ns#"
   xmlns:dc="http://purl.org/dc/elements/1.1/">
  <sodipodi:namedview
     id="namedview19"
     pagecolor="#ffffff"
     bordercolor="#666666"
     borderopacity="1.0"
     inkscape:pageshadow="2"
     inkscape:pageopacity="0.0"
     inkscape:pagecheckerboard="0"
     showgrid="false"
     inkscape:zoom="10.203125"
     inkscape:cx="32.784074"
     inkscape:cy="42.87902"
     inkscape:window-width="1920"
     inkscape:window-height="1030"
     inkscape:window-x="0"
     inkscape:window-y="24"
     inkscape:window-maximized="1"
     inkscape:current-layer="svg17" />
  <metadata
     id="metadata2">
    <rdf:RDF>
      <cc:Work
         rdf:about="">
        <dc:format>image/svg+xml</dc:format>
        <dc:type
           rdf:resource="http://purl.org/dc/dcmitype/StillImage" />
      </cc:Work>
    </rdf:RDF>
  </metadata>
  <defs
     id="defs9">
    <linearGradient
       inkscape:collect="always"
       id="linearGradient7215">
      <stop
         style="stop-color:#00c38d;stop-opacity:1"
         offset="0"
         id="stop7211" />
      <stop
         style="stop-color:#00b294;stop-opacity:1"
         offset="1"
         id="stop7213" />
    </linearGradient>
    <linearGradient
       id="linearGradient844"
       x1="15"
       x2="35"
       y1="8"
       y2="38"
       gradientTransform="matrix(1.3636,0,0,1.3636,-0.72727,-0.7274)"
       gradientUnits="userSpaceOnUse">
      <stop
         stop-color="#18d862"
         offset="0"
         id="stop4"
         style="stop-color:#00c38d;stop-opacity:1" />
      <stop
         stop-color="#1cd664"
         offset="1"
         id="stop6"
         style="stop-color:#00b294;stop-opacity:1" />
    </linearGradient>
    <linearGradient
       inkscape:collect="always"
       xlink:href="#linearGradient7215"
       id="linearGradient7217"
       x1="12.707357"
       y1="17.016596"
       x2="49.188713"
       y2="53.497952"
       gradientUnits="userSpaceOnUse" />
  </defs>
  <circle
     style="opacity:1;fill:url(#linearGradient7217);fill-opacity:1;stroke:none;stroke-width:0.616919;stroke-linecap:round;stroke-linejoin:round;paint-order:stroke markers fill;stroke-opacity:1"
     id="path860"
     cx="31.946342"
     cy="32.02087"
     r="30.008783" />
  <path
     d="m 16.046336,15.201298 1.213279,0.910384 c -3.84914,1.774825 6.035765,9.877247 6.035765,9.877247 0,0 1.92372,-1.732281 4.742509,-1.914359 2.795815,-2.864734 14.430872,-0.684064 13.996097,1.66762 -3.9121,0.06043 -5.150902,-0.439026 -5.150902,-0.439026 0,0 0.193132,0.222077 0.272274,0.986959 -0.285041,0.234811 -4.329857,-0.671301 -5.174728,-0.60664 -2.406139,0.183776 -4.030366,0.245038 -5.755842,0.435625 1.186902,0.391379 10.649797,2.076015 13.675334,5.001155 -0.807433,0.311413 -1.160526,0.183777 -1.429389,0.28247 -0.23822,0.08763 -0.47646,0.570054 -0.997167,0.572609 -0.372663,0.0017 -0.245037,-0.329273 -1.015037,-0.693427 -4.787603,0.190595 -6.34036,-2.731153 -6.812569,-3.088499 -2.113454,-0.505392 -5.675015,-1.645498 -5.675015,-1.645498 0,0 3.015332,2.405287 4.668487,3.741082 0.137,0.110618 2.403586,0.531767 5.284485,1.937335 1.548506,-1.267735 5.72351,0.883156 4.947556,2.852823 -0.690868,1.755252 -5.326172,-0.05274 -5.15601,-2.440171 -1.058426,-0.329271 -3.013625,-1.274539 -4.26434,-1.725477 1.199664,0.935907 5.91069,4.86077 6.857661,5.971098 4.146929,-0.509644 10.407311,0.525812 14.291335,3.01448 -0.884857,0.233977 -5.099854,1.034604 -5.943874,0.809137 -1.568923,-0.593028 -3.906994,-2.515042 -4.155438,-2.730302 a 102.916,102.916 0 0 0 -3.701095,-0.530916 c 0.788717,0.799775 3.390543,3.805746 4.207336,5.070928 0.338632,-0.07233 2.064959,0.342883 2.543124,0.667898 1.77227,-1.808007 4.645513,1.364725 6.411829,2.897064 -0.464554,0.941867 -7.751883,-0.507941 -6.777687,-2.618846 -0.521554,-0.06979 -1.563819,-0.642373 -1.948393,-0.672154 0.393083,0.513902 1.250716,1.212431 2.379763,2.396782 1.085655,-0.308837 5.179832,4.122254 5.29044,5.092197 -3.063828,-0.747026 -4.577447,-1.395357 -5.051357,-1.950096 -0.935911,-1.093312 -0.581966,-2.663936 -0.493482,-2.948965 -1.203918,-1.077144 -1.429388,-1.397058 -1.822469,-1.610613 -0.0109,0.0109 8.39e-4,0.331819 0.01962,0.487522 1.979024,1.458318 1.022696,5.49634 -0.11486,5.640983 -0.495184,0.06127 -1.636993,-5.697987 -0.211851,-5.913249 0.03318,-0.113989 0.05191,-0.453486 0.05361,-0.467951 -0.752153,-0.818498 -4.923755,-5.253855 -5.195169,-5.440187 a 18.633104,18.633104 0 0 1 0.559844,1.636141 c 2.463993,1.609761 2.871542,4.186066 2.68521,7.211607 -0.590475,-1.034606 -6.377798,-5.745633 -3.845738,-7.834413 0.01704,-0.321614 -0.07914,-1.052473 0.134443,-1.463424 -0.803182,-0.80233 -3.302058,-3.269726 -3.526677,-3.267173 0.279061,0.571754 0.45264,0.898471 0.591323,1.517022 1.905002,0.951224 1.351964,3.406711 0.484121,3.459462 -0.914637,0.05445 -2.940457,-2.764334 -1.034604,-3.361617 -0.154006,-0.709587 -0.433923,-1.674426 -0.547081,-2.093032 -0.825302,-0.631312 -3.555606,-2.813686 -4.186067,-3.322479 0.775953,1.289856 1.532337,3.296103 1.910956,4.447275 2.282768,2.58651 1.650602,6.585396 1.420879,10.711906 -2.678403,-1.987533 -4.341769,-8.772875 -2.637563,-10.462619 -0.569199,-1.962854 -1.429383,-5.28278 -1.429383,-5.28278 -3.681526,-2.857928 -5.718409,-4.999458 -5.718409,-4.999458 0,0 2.452936,3.181241 2.732857,4.886298 2.148339,0.416906 3.943581,4.159691 2.235122,4.798661 -2.497177,0.933358 -5.178131,-3.028943 -3.047661,-4.504275 0,0 -1.886286,-3.474775 -3.346304,-6.522439 -5.760096,-6.321639 -5.206207,-8.218984 -3.479029,-8.431691 z"
     id="path19"
     style="fill:#fcfff9;fill-opacity:1;stroke-width:0.850826" />
</svg>
