<?xml version="1.0" encoding="UTF-8" standalone="no"?>
<!-- Created with Inkscape (http://www.inkscape.org/) -->

<svg
   width="48"
   height="48"
   viewBox="0 0 48 48"
   version="1.1"
   id="svg5"
   inkscape:version="1.2.1 (9c6d41e410, 2022-07-14, custom)"
   sodipodi:docname="org.kde.kalendar.svg"
   xmlns:inkscape="http://www.inkscape.org/namespaces/inkscape"
   xmlns:sodipodi="http://sodipodi.sourceforge.net/DTD/sodipodi-0.dtd"
   xmlns:xlink="http://www.w3.org/1999/xlink"
   xmlns="http://www.w3.org/2000/svg"
   xmlns:svg="http://www.w3.org/2000/svg">
  <sodipodi:namedview
     id="namedview7"
     pagecolor="#ffffff"
     bordercolor="#666666"
     borderopacity="1.0"
     inkscape:pageshadow="2"
     inkscape:pageopacity="0.0"
     inkscape:pagecheckerboard="0"
     inkscape:document-units="px"
     showgrid="false"
     units="px"
     width="64px"
     inkscape:zoom="16.875"
     inkscape:cx="24"
     inkscape:cy="24"
     inkscape:window-width="1920"
     inkscape:window-height="1012"
     inkscape:window-x="0"
     inkscape:window-y="0"
     inkscape:window-maximized="1"
     inkscape:current-layer="svg5"
     showguides="true"
     inkscape:showpageshadow="2"
     inkscape:deskcolor="#d1d1d1" />
  <defs
     id="defs2">
    <linearGradient
       inkscape:collect="always"
       id="linearGradient2715">
      <stop
         style="stop-color:#0f4168;stop-opacity:1;"
         offset="0"
         id="stop2711" />
      <stop
         style="stop-color:#1a72b5;stop-opacity:1;"
         offset="1"
         id="stop2713" />
    </linearGradient>
    <linearGradient
       inkscape:collect="always"
       id="linearGradient984">
      <stop
         style="stop-color:#26b4eb;stop-opacity:1;"
         offset="0"
         id="stop980" />
      <stop
         style="stop-color:#017adc;stop-opacity:1"
         offset="1"
         id="stop982" />
    </linearGradient>
    <linearGradient
       inkscape:collect="always"
       xlink:href="#linearGradient984"
       id="linearGradient989"
       x1="0"
       y1="0"
       x2="16"
       y2="16"
       gradientUnits="userSpaceOnUse"
       gradientTransform="matrix(2.625,0,0,2.625,3,3)" />
    <linearGradient
       inkscape:collect="always"
       xlink:href="#linearGradient2715"
       id="linearGradient2717"
       x1="0"
       y1="0"
       x2="8"
       y2="14"
       gradientUnits="userSpaceOnUse"
       gradientTransform="matrix(3,0,0,3,3,3)" />
  </defs>
  <rect
     style="fill:url(#linearGradient989);fill-opacity:1;stroke-width:5.25;stroke-linecap:round"
     id="rect426"
     width="42"
     height="42"
     x="3"
     y="3"
     ry="3" />
  <rect
     style="opacity:0.3;fill:#000000;stroke-width:4;stroke-linecap:round"
     id="rect2707"
     width="6"
     height="3"
     x="27"
     y="14"
     ry="0.5" />
  <rect
     style="opacity:0.3;fill:#000000;stroke-width:4;stroke-linecap:round"
     id="rect2709"
     width="6"
     height="3"
     x="35"
     y="14"
     ry="0.5" />
  <path
     id="rect3555"
     style="opacity:1;fill:#ffffff;fill-opacity:1;stroke-width:2;stroke-linecap:round"
     d="m 28,19 c -0.553999,0 -1,0.446001 -1,1 v 4 c 0,0.553999 0.446001,1 1,1 h 4 c 0.553999,0 1,-0.446001 1,-1 v -4 c 0,-0.553999 -0.446001,-1 -1,-1 z m 8,0 c -0.553999,0 -1,0.446001 -1,1 v 4 c 0,0.553999 0.446001,1 1,1 h 4 c 0.553999,0 1,-0.446001 1,-1 v -4 c 0,-0.553999 -0.446001,-1 -1,-1 z m -8,8 c -0.553999,0 -1,0.446001 -1,1 v 4 c 0,0.553999 0.446001,1 1,1 h 4 c 0.553999,0 1,-0.446001 1,-1 v -4 c 0,-0.553999 -0.446001,-1 -1,-1 z m 8,0 c -0.553999,0 -1,0.446001 -1,1 v 4 c 0,0.553999 0.446001,1 1,1 h 4 c 0.553999,0 1,-0.446001 1,-1 v -4 c 0,-0.553999 -0.446001,-1 -1,-1 z"
     sodipodi:nodetypes="ssssssssssssssssssssssssssssssssssss" />
  <path
     id="rect1115"
     style="fill:url(#linearGradient2717);fill-opacity:1;stroke-width:6;stroke-linecap:round"
     d="M 6,3 C 4.3380016,3 3,4.3380016 3,6 v 36 c 0,0.699753 0.245844,1.333569 0.6445312,1.842774 L 12.246094,28.40625 21,45 h 6 L 15.304687,23.507812 27,3 Z" />
</svg>
