<?xml version="1.0" encoding="UTF-8" standalone="no"?>
<!-- Created with Inkscape (http://www.inkscape.org/) -->

<svg
   width="48"
   height="48"
   viewBox="0 0 48 48"
   version="1.1"
   id="svg2535"
   inkscape:version="1.2.1 (9c6d41e410, 2022-07-14, custom)"
   sodipodi:docname="preferences-security.svg"
   xmlns:inkscape="http://www.inkscape.org/namespaces/inkscape"
   xmlns:sodipodi="http://sodipodi.sourceforge.net/DTD/sodipodi-0.dtd"
   xmlns:xlink="http://www.w3.org/1999/xlink"
   xmlns="http://www.w3.org/2000/svg"
   xmlns:svg="http://www.w3.org/2000/svg">
  <sodipodi:namedview
     id="namedview2537"
     pagecolor="#ffffff"
     bordercolor="#000000"
     borderopacity="0.25"
     inkscape:showpageshadow="2"
     inkscape:pageopacity="0.0"
     inkscape:pagecheckerboard="0"
     inkscape:deskcolor="#d1d1d1"
     inkscape:document-units="px"
     showgrid="false"
     inkscape:zoom="17.229167"
     inkscape:cx="23.970979"
     inkscape:cy="24"
     inkscape:window-width="1920"
     inkscape:window-height="1029"
     inkscape:window-x="0"
     inkscape:window-y="0"
     inkscape:window-maximized="1"
     inkscape:current-layer="svg2535" />
  <defs
     id="defs2532">
    <linearGradient
       inkscape:collect="always"
       xlink:href="#linearGradient115183"
       id="linearGradient8763"
       x1="10"
       y1="1.0351562"
       x2="9.8847656"
       y2="14.952974"
       gradientUnits="userSpaceOnUse"
       gradientTransform="matrix(1.3124532,0,0,1.3169347,3.0006577,1.6367753)" />
    <linearGradient
       inkscape:collect="always"
       id="linearGradient115183">
      <stop
         style="stop-color:#37c6f0;stop-opacity:1"
         offset="0"
         id="stop115179" />
      <stop
         style="stop-color:#29b5e8;stop-opacity:1"
         offset="1"
         id="stop115181" />
    </linearGradient>
    <linearGradient
       inkscape:collect="always"
       xlink:href="#linearGradient129670"
       id="linearGradient9363"
       gradientUnits="userSpaceOnUse"
       gradientTransform="matrix(1.3124999,0,0,1.3169347,3.0006584,1.6367737)"
       x1="21"
       y1="1.0351573"
       x2="21"
       y2="29.9375" />
    <linearGradient
       inkscape:collect="always"
       id="linearGradient129670">
      <stop
         style="stop-color:#1096eb;stop-opacity:1"
         offset="0"
         id="stop129666" />
      <stop
         style="stop-color:#056ac2;stop-opacity:1"
         offset="1"
         id="stop129668" />
    </linearGradient>
    <linearGradient
       inkscape:collect="always"
       xlink:href="#linearGradient1709"
       id="linearGradient1711"
       x1="37.769531"
       y1="30.929688"
       x2="38"
       y2="61.000011"
       gradientUnits="userSpaceOnUse"
       gradientTransform="matrix(0.65624996,0,0,0.65624996,3.0756008,1.0632181)" />
    <linearGradient
       inkscape:collect="always"
       id="linearGradient1709">
      <stop
         style="stop-color:#0d559f;stop-opacity:1"
         offset="0"
         id="stop1705" />
      <stop
         style="stop-color:#144b8c;stop-opacity:1"
         offset="1"
         id="stop1707" />
    </linearGradient>
  </defs>
  <path
     id="path5150"
     style="color:#000000;fill:url(#linearGradient8763);fill-opacity:1;stroke-width:1.31469;stroke-linecap:round;stroke-linejoin:round"
     d="M 24 3 C 20.36197 3.0005007 17.640994 4.1213368 16 5.5 C 13.393122 7.4799009 7.999991 9 5 9 A 2 2 0 0 0 3 11 L 3 24 C 3 28.431376 6.1742292 33.342635 9.7109375 36.8125 C 13.133148 40.318457 19.939301 44.485715 24 45 C 28.0607 44.485715 34.866853 40.318457 38.289062 36.8125 C 41.82577 33.342635 45 28.431376 45 24 L 45 11 A 2 2 0 0 0 43 9 C 40.000008 9 34.606878 7.479901 32 5.5 C 30.359005 4.1213364 27.63803 3.000501 24 3 z " />
  <path
     id="path5150-06"
     style="color:#000000;fill:url(#linearGradient9363);fill-opacity:1;stroke-width:1.31472;stroke-linecap:round;stroke-linejoin:round"
     d="M 24 3 L 24 24 L 45 24 L 45 11 A 2 2 0 0 0 43 9 C 40.000012 9 34.606875 7.4798989 32 5.5 C 30.359008 4.1213382 27.638026 3.0005007 24 3 z M 24 24 L 3 24 C 3 28.431385 6.1742204 33.34263 9.7109375 36.8125 C 13.133149 40.318463 19.939293 44.485714 24 45 L 24 24 z " />
  <path
     id="path5150-7"
     style="color:#000000;fill:url(#linearGradient1711);fill-opacity:1;stroke-width:1.31472;stroke-linecap:round;stroke-linejoin:round;-inkscape-stroke:none"
     d="M 24,24 V 45 C 28.06072,44.485712 34.866597,40.318229 38.288818,36.812255 41.825545,33.342375 45,28.431397 45,24 Z" />
</svg>
