<?xml version="1.0" encoding="UTF-8" standalone="no"?>
<svg
   width="64"
   height="64"
   version="1.1"
   viewBox="0 0 64 64"
   id="svg41"
   sodipodi:docname="transmission-remote-gtk.svg"
   inkscape:version="1.1.2 (0a00cf5339, 2022-02-04)"
   xmlns:inkscape="http://www.inkscape.org/namespaces/inkscape"
   xmlns:sodipodi="http://sodipodi.sourceforge.net/DTD/sodipodi-0.dtd"
   xmlns="http://www.w3.org/2000/svg"
   xmlns:svg="http://www.w3.org/2000/svg"
   xmlns:rdf="http://www.w3.org/1999/02/22-rdf-syntax-ns#"
   xmlns:cc="http://creativecommons.org/ns#"
   xmlns:dc="http://purl.org/dc/elements/1.1/">
  <sodipodi:namedview
     id="namedview43"
     pagecolor="#ffffff"
     bordercolor="#666666"
     borderopacity="1.0"
     inkscape:pageshadow="2"
     inkscape:pageopacity="0.0"
     inkscape:pagecheckerboard="0"
     showgrid="false"
     inkscape:zoom="9.921875"
     inkscape:cx="32"
     inkscape:cy="32"
     inkscape:window-width="1920"
     inkscape:window-height="1028"
     inkscape:window-x="0"
     inkscape:window-y="26"
     inkscape:window-maximized="1"
     inkscape:current-layer="svg41" />
  <metadata
     id="metadata2">
    <rdf:RDF>
      <cc:Work
         rdf:about="">
        <dc:format>image/svg+xml</dc:format>
        <dc:type
           rdf:resource="http://purl.org/dc/dcmitype/StillImage" />
        <dc:title>deepin-manual</dc:title>
      </cc:Work>
    </rdf:RDF>
  </metadata>
  <title
     id="title4">deepin-manual</title>
  <defs
     id="defs17">
    <filter
       id="filter862"
       color-interpolation-filters="sRGB"
       x="-0.070588235"
       y="-0.063157894"
       width="1.1411765"
       height="1.1526316">
      <feFlood
         flood-color="rgb(0,0,0)"
         flood-opacity=".19608"
         result="flood"
         id="feFlood6" />
      <feComposite
         in="flood"
         in2="SourceGraphic"
         operator="in"
         result="composite1"
         id="feComposite8" />
      <feGaussianBlur
         in="composite1"
         result="blur"
         stdDeviation="1"
         id="feGaussianBlur10" />
      <feOffset
         dx="0"
         dy="1"
         result="offset"
         id="feOffset12" />
      <feComposite
         in="SourceGraphic"
         in2="offset"
         result="composite2"
         id="feComposite14" />
    </filter>
  </defs>
  <g
     transform="matrix(1.4035 0 0 1.4035 -1.6842 -1.6842)"
     filter="url(#filter862)"
     id="g39">
    <path
       d="m38.167 43h-28.334a2.834 2.834 0 0 1-2.833-2.833v-1.417l2.368-18.985c0.266-2.127 2.074-3.765 4.217-3.765h20.83c2.143 0 3.951 1.638 4.217 3.765l2.368 18.985v1.417a2.834 2.834 0 0 1-2.833 2.833z"
       fill="#acaeaa"
       id="path19"
       style="fill:#a8aaa6;fill-opacity:1" />
    <path
       d="m33.69 36h-19.38c-1.65 0-2.952-1.447-2.825-3.092l0.981-12.521c0.113-1.476 1.344-2.387 2.824-2.387h17.42c1.481 0 2.711 0.89 2.825 2.366l0.981 12.667c0.126 1.645-1.175 2.967-2.826 2.967z"
       fill="#f0f2ef"
       id="path21" />
    <path
       d="m38.875 43h-29.75a2.125 2.125 0 1 1 0-4.25h29.75a2.125 2.125 0 1 1 0 4.25z"
       fill="#787b76"
       id="path23" />
    <path
       d="m29.079 29-2.079-8h-6l-1.968 8h-3.532l8.5 5.667 8.5-5.667z"
       fill="#555958"
       id="path25" />
    <path
       d="m19.015 30h1.018l2.245-10h3.399l2.297 10h1.071l-5.045 3.172z"
       fill="#3b4040"
       id="path27" />
    <path
       d="m35.247 11.016h-22.494a2.92 2.92 0 0 1-2.919-2.919v-0.178a2.918 2.918 0 0 1 2.919-2.919h22.495a2.92 2.92 0 0 1 2.919 2.919v0.177a2.92 2.92 0 0 1-2.92 2.92z"
       fill="#e80000"
       id="path29" />
    <path
       d="m12.667 8.008c-0.781 0-1.417-0.675-1.417-1.504s0.636-1.504 1.417-1.504h22.667c0.781 0 1.417 0.675 1.417 1.504s-0.636 1.504-1.417 1.504z"
       fill="#e58484"
       id="path31" />
    <path
       d="m21 5h6v21h-6z"
       fill="#939692"
       id="path33" />
    <path
       d="m22 5h4v21h-4z"
       fill="#aaaea8"
       id="path35" />
    <path
       d="m26 30h-4a1 1 0 0 1-1-1v-1a1 1 0 0 1 1-1h4a1 1 0 0 1 1 1v1a1 1 0 0 1-1 1z"
       fill="#555958"
       id="path37" />
  </g>
</svg>
