<?xml version="1.0" encoding="UTF-8" standalone="no"?>
<svg
   version="1.1"
   id="svg2"
   viewBox="0 0 64 64"
   inkscape:version="1.1.2 (0a00cf5339, 2022-02-04)"
   sodipodi:docname="upscayl.svg"
   width="64"
   height="64"
   xmlns:inkscape="http://www.inkscape.org/namespaces/inkscape"
   xmlns:sodipodi="http://sodipodi.sourceforge.net/DTD/sodipodi-0.dtd"
   xmlns:xlink="http://www.w3.org/1999/xlink"
   xmlns="http://www.w3.org/2000/svg"
   xmlns:svg="http://www.w3.org/2000/svg"
   xmlns:rdf="http://www.w3.org/1999/02/22-rdf-syntax-ns#"
   xmlns:cc="http://creativecommons.org/ns#"
   xmlns:dc="http://purl.org/dc/elements/1.1/">
  <sodipodi:namedview
     pagecolor="#c8c8c8"
     bordercolor="#666666"
     borderopacity="1"
     objecttolerance="10"
     gridtolerance="10"
     guidetolerance="10"
     inkscape:pageopacity="0"
     inkscape:pageshadow="2"
     inkscape:window-width="1920"
     inkscape:window-height="1030"
     id="namedview12"
     showgrid="true"
     inkscape:zoom="3.6875001"
     inkscape:cx="-48.949152"
     inkscape:cy="-2.8474576"
     inkscape:window-x="0"
     inkscape:window-y="24"
     inkscape:window-maximized="1"
     inkscape:current-layer="svg2"
     inkscape:pagecheckerboard="0"
     inkscape:lockguides="true"
     inkscape:snap-bbox="true"
     inkscape:bbox-nodes="true">
    <inkscape:grid
       type="xygrid"
       id="grid818" />
  </sodipodi:namedview>
  <metadata
     id="metadata18">
    <rdf:RDF>
      <cc:Work
         rdf:about="">
        <dc:format>image/svg+xml</dc:format>
        <dc:type
           rdf:resource="http://purl.org/dc/dcmitype/StillImage" />
      </cc:Work>
    </rdf:RDF>
  </metadata>
  <defs
     id="defs3051">
    <linearGradient
       inkscape:collect="always"
       id="linearGradient3439">
      <stop
         style="stop-color:#1b01b3;stop-opacity:1;"
         offset="0"
         id="stop3435" />
      <stop
         style="stop-color:#1b01b3;stop-opacity:0;"
         offset="1"
         id="stop3437" />
    </linearGradient>
    <linearGradient
       inkscape:collect="always"
       id="linearGradient2988">
      <stop
         style="stop-color:#e9973d;stop-opacity:1;"
         offset="0"
         id="stop2984" />
      <stop
         style="stop-color:#e9973d;stop-opacity:0;"
         offset="1"
         id="stop2986" />
    </linearGradient>
    <linearGradient
       inkscape:collect="always"
       id="linearGradient1088">
      <stop
         style="stop-color:#000000;stop-opacity:0.15253879"
         offset="0"
         id="stop1084" />
      <stop
         style="stop-color:#bee2ff;stop-opacity:0.09312365"
         offset="1"
         id="stop1086" />
    </linearGradient>
    <style
       type="text/css"
       id="current-color-scheme">
      .ColorScheme-Text {
        color:#31363b;
      }
      .ColorScheme-Background {
        color:#eff0f1;
      }
      .ColorScheme-Highlight {
        color:#3daee9;
      }
      .ColorScheme-ViewText {
        color:#31363b;
      }
      .ColorScheme-ViewBackground {
        color:#fcfcfc;
      }
      .ColorScheme-ViewHover {
        color:#93cee9;
      }
      .ColorScheme-ViewFocus{
        color:#3daee9;
      }
      .ColorScheme-ButtonText {
        color:#31363b;
      }
      .ColorScheme-ButtonBackground {
        color:#eff0f1;
      }
      .ColorScheme-ButtonHover {
        color:#93cee9;
      }
      .ColorScheme-ButtonFocus{
        color:#3daee9;
      }
      </style>
    <linearGradient
       id="linear1"
       gradientUnits="userSpaceOnUse"
       x1="-26.251301"
       y1="30.3543"
       x2="-26.251301"
       y2="28.5023"
       gradientTransform="matrix(7.5592,0,0,-7.5592,216.4394,232.4574)">
      <stop
         offset="0"
         style="stop-color:rgb(18.823529%,85.490196%,100%);stop-opacity:1;"
         id="stop7" />
      <stop
         offset="1"
         style="stop-color:rgb(2.352941%,49.411765%,74.509804%);stop-opacity:1;"
         id="stop9" />
    </linearGradient>
    <linearGradient
       id="linear3"
       gradientUnits="userSpaceOnUse"
       x1="-17.2707"
       y1="30.3543"
       x2="-17.2707"
       y2="28.5023"
       gradientTransform="matrix(-7.5592,0,0,-7.5592,-84.5528,232.4574)">
      <stop
         offset="0"
         style="stop-color:rgb(18.823529%,85.490196%,100%);stop-opacity:1;"
         id="stop17" />
      <stop
         offset="1"
         style="stop-color:rgb(2.352941%,49.411765%,74.509804%);stop-opacity:1;"
         id="stop19" />
    </linearGradient>
    <linearGradient
       id="linear2"
       gradientUnits="userSpaceOnUse"
       x1="16"
       y1="2.0002"
       x2="16"
       y2="4"
       gradientTransform="matrix(2,0,0,2,4.0089258e-8,-0.99720139)">
      <stop
         offset="0"
         style="stop-color:rgb(13.333333%,73.72549%,100%);stop-opacity:1;"
         id="stop12" />
      <stop
         offset="1"
         style="stop-color:rgb(2.352941%,49.411765%,74.509804%);stop-opacity:1;"
         id="stop14" />
    </linearGradient>
    <linearGradient
       inkscape:collect="always"
       xlink:href="#linearGradient1088"
       id="linearGradient1090"
       x1="6"
       y1="15"
       x2="54"
       y2="58"
       gradientUnits="userSpaceOnUse" />
    <linearGradient
       inkscape:collect="always"
       xlink:href="#linearGradient2988"
       id="linearGradient2990"
       x1="33"
       y1="15"
       x2="43"
       y2="36"
       gradientUnits="userSpaceOnUse" />
    <linearGradient
       inkscape:collect="always"
       xlink:href="#linearGradient3439"
       id="linearGradient3441"
       x1="50"
       y1="68"
       x2="50"
       y2="34"
       gradientUnits="userSpaceOnUse" />
  </defs>
  <rect
     style="fill:currentColor;stroke-width:15;stroke-linejoin:round;stroke-opacity:0.543049;paint-order:fill markers stroke"
     id="rect882"
     width="58"
     height="47"
     x="3"
     y="12"
     rx="12"
     ry="12"
     class="ColorScheme-Text" />
  <rect
     style="fill:url(#linearGradient1090);stroke-width:15;stroke-linejoin:round;stroke-opacity:0.543049;paint-order:fill markers stroke;fill-opacity:1"
     id="rect1082"
     width="58"
     height="47"
     x="3"
     y="12"
     rx="12"
     ry="12" />
  <rect
     id="rect1114"
     width="16"
     height="14"
     x="13"
     y="38"
     rx="3"
     ry="3"
     class="ColorScheme-Background"
     fill="currentColor"
     style="opacity:0.211723" />
  <rect
     id="rect1196"
     width="19"
     height="16.625"
     x="18"
     y="31"
     rx="3"
     ry="3"
     class="ColorScheme-Background"
     fill="currentColor"
     style="opacity:0.419402" />
  <rect
     id="rect1217"
     width="26.285715"
     height="23"
     x="25"
     y="20"
     rx="3"
     ry="3"
     class="ColorScheme-Background"
     fill="currentColor"
     style="opacity:0.87050258" />
  <path
     id="rect1975"
     style="opacity:0.53999051"
     class="ColorScheme-Highlight"
     d="M 34.570312 32.107422 C 33.962103 32.107422 33.354713 32.386938 32.888672 32.945312 L 27 40 L 33 40 L 36.748047 33.537109 L 36.253906 32.945312 C 35.787864 32.386938 35.178522 32.107422 34.570312 32.107422 z "
     fill="currentColor" />
  <path
     id="path2220"
     d="m 33,40 6.222222,-10.7266 c 0.984889,-1.697867 2.570666,-1.697867 3.555556,0 L 49,40 Z"
     sodipodi:nodetypes="csscc"
     fill="currentColor"
     class="ColorScheme-Highlight"
     style="fill:#3daee9;fill-opacity:0.99871874;opacity:0.8771653" />
  <circle
     id="path2244"
     cx="47"
     cy="24"
     r="3"
     fill="currentColor"
     class="ColorScheme-Highlight" />
  <path
     id="rect1975-3"
     style="color:#3daee9;opacity:0.53999;fill:url(#linearGradient2990);fill-opacity:1"
     class="ColorScheme-Highlight"
     d="m 47,21 a 3,3 0 0 0 -3,3 3,3 0 0 0 3,3 3,3 0 0 0 3,-3 3,3 0 0 0 -3,-3 z m -6,7 c -0.642667,0 -1.284899,0.424504 -1.777344,1.273438 l -2.474609,4.263671 -0.494141,-0.591797 c -0.466042,-0.558374 -1.075384,-0.83789 -1.683594,-0.83789 -0.608209,0 -1.215599,0.279516 -1.68164,0.83789 L 27,40 h 6 16 L 42.777344,29.273438 C 42.284899,28.424504 41.642667,28 41,28 Z" />
  <path
     id="path3091"
     style="color:#3daee9;opacity:1;fill:url(#linearGradient3441);fill-opacity:1"
     class="ColorScheme-Highlight"
     d="m 47,21 a 3,3 0 0 0 -3,3 3,3 0 0 0 3,3 3,3 0 0 0 3,-3 3,3 0 0 0 -3,-3 z m -6,7 c -0.642667,0 -1.284899,0.424504 -1.777344,1.273438 l -2.474609,4.263671 -0.494141,-0.591797 c -0.466042,-0.558374 -1.075384,-0.83789 -1.683594,-0.83789 -0.608209,0 -1.215599,0.279516 -1.68164,0.83789 L 27,40 h 6 16 L 42.777344,29.273438 C 42.284899,28.424504 41.642667,28 41,28 Z" />
</svg>
