<?xml version="1.0" encoding="UTF-8" standalone="no"?>
<svg
   xmlns:dc="http://purl.org/dc/elements/1.1/"
   xmlns:cc="http://creativecommons.org/ns#"
   xmlns:rdf="http://www.w3.org/1999/02/22-rdf-syntax-ns#"
   xmlns:svg="http://www.w3.org/2000/svg"
   xmlns="http://www.w3.org/2000/svg"
   xmlns:xlink="http://www.w3.org/1999/xlink"
   xmlns:sodipodi="http://sodipodi.sourceforge.net/DTD/sodipodi-0.dtd"
   xmlns:inkscape="http://www.inkscape.org/namespaces/inkscape"
   width="64"
   height="64"
   viewBox="0 0 64 64"
   version="1.1"
   id="svg96"
   sodipodi:docname="firefox-icon.svg"
   inkscape:version="1.0.2 (e86c870879, 2021-01-15)">
  <metadata
     id="metadata100">
    <rdf:RDF>
      <cc:Work
         rdf:about="">
        <dc:format>image/svg+xml</dc:format>
        <dc:type
           rdf:resource="http://purl.org/dc/dcmitype/StillImage" />
        <dc:title></dc:title>
      </cc:Work>
    </rdf:RDF>
  </metadata>
  <sodipodi:namedview
     pagecolor="#ffffff"
     bordercolor="#666666"
     borderopacity="1"
     objecttolerance="10"
     gridtolerance="10"
     guidetolerance="10"
     inkscape:pageopacity="0"
     inkscape:pageshadow="2"
     inkscape:window-width="1920"
     inkscape:window-height="1031"
     id="namedview98"
     showgrid="false"
     inkscape:zoom="2.1268446"
     inkscape:cx="-124.37496"
     inkscape:cy="0.031595096"
     inkscape:window-x="0"
     inkscape:window-y="24"
     inkscape:window-maximized="1"
     inkscape:current-layer="svg96"
     inkscape:document-rotation="0" />
  <defs
     id="defs72">
    <linearGradient
       inkscape:collect="always"
       id="linearGradient1458">
      <stop
         style="stop-color:#000000;stop-opacity:1;"
         offset="0"
         id="stop1454" />
      <stop
         style="stop-color:#000000;stop-opacity:0.86666667;"
         offset="0.77728111"
         id="stop1554" />
      <stop
         style="stop-color:#000000;stop-opacity:0.29411765;"
         offset="0.88918996"
         id="stop1530" />
      <stop
         style="stop-color:#000000;stop-opacity:0.16078431;"
         offset="0.91178453"
         id="stop1538" />
      <stop
         style="stop-color:#000000;stop-opacity:0.10588235;"
         offset="0.92669272"
         id="stop1540" />
      <stop
         style="stop-color:#000000;stop-opacity:0.07843137;"
         offset="0.9387731"
         id="stop1552" />
      <stop
         style="stop-color:#000000;stop-opacity:0.04705882;"
         offset="0.95428294"
         id="stop1548" />
      <stop
         style="stop-color:#000000;stop-opacity:0.00784314;"
         offset="0.97580552"
         id="stop1550" />
      <stop
         style="stop-color:#000000;stop-opacity:0.00784314;"
         offset="0.9862873"
         id="stop1502" />
      <stop
         style="stop-color:#000000;stop-opacity:0;"
         offset="1"
         id="stop1456" />
    </linearGradient>
    <linearGradient
       inkscape:collect="always"
       id="linearGradient1440">
      <stop
         style="stop-color:#fbfbfb;stop-opacity:1;"
         offset="0"
         id="stop1448" />
      <stop
         style="stop-color:#fcfcfc;stop-opacity:1"
         offset="1"
         id="stop1438" />
    </linearGradient>
    <filter
       id="uos-downloadmanager512-a"
       width="1.229"
       height="1.229"
       x="-0.11399999"
       y="-0.11399999"
       filterUnits="objectBoundingBox">
      <feOffset
         dy="8"
         in="SourceAlpha"
         result="shadowOffsetOuter1"
         id="feOffset2" />
      <feGaussianBlur
         in="shadowOffsetOuter1"
         result="shadowBlurOuter1"
         stdDeviation="10"
         id="feGaussianBlur4" />
      <feComposite
         in="shadowBlurOuter1"
         in2="SourceAlpha"
         operator="out"
         result="shadowBlurOuter1"
         id="feComposite6" />
      <feColorMatrix
         in="shadowBlurOuter1"
         result="shadowMatrixOuter1"
         values="0 0 0 0 0   0 0 0 0 0   0 0 0 0 0  0 0 0 0.2 0"
         id="feColorMatrix8" />
      <feMerge
         id="feMerge14">
        <feMergeNode
           in="shadowMatrixOuter1"
           id="feMergeNode10" />
        <feMergeNode
           in="SourceGraphic"
           id="feMergeNode12" />
      </feMerge>
    </filter>
    <linearGradient
       id="uos-downloadmanager512-b"
       x1="236"
       x2="236"
       y1="0"
       y2="463.21609"
       gradientUnits="userSpaceOnUse"
       gradientTransform="translate(20,20)">
      <stop
         offset="0%"
         stop-color="#FFF"
         id="stop17" />
      <stop
         offset="100%"
         stop-color="#EDEDED"
         id="stop19" />
    </linearGradient>
    <filter
       id="uos-downloadmanager512-c"
       width="1.598"
       height="1.9089999"
       x="-0.30200002"
       y="-0.45500001"
       filterUnits="objectBoundingBox">
      <feOffset
         dy="8"
         in="SourceAlpha"
         result="shadowOffsetOuter1"
         id="feOffset22" />
      <feGaussianBlur
         in="shadowOffsetOuter1"
         result="shadowBlurOuter1"
         stdDeviation="9"
         id="feGaussianBlur24" />
      <feColorMatrix
         in="shadowBlurOuter1"
         result="shadowMatrixOuter1"
         values="0 0 0 0 0.421978973   0 0 0 0 0.652704643   0 0 0 0 0.875452899  0 0 0 0.5 0"
         id="feColorMatrix26" />
      <feMerge
         id="feMerge32">
        <feMergeNode
           in="shadowMatrixOuter1"
           id="feMergeNode28" />
        <feMergeNode
           in="SourceGraphic"
           id="feMergeNode30" />
      </feMerge>
    </filter>
    <linearGradient
       id="uos-downloadmanager512-e"
       x1="119.06294"
       x2="52.320732"
       y1="42.509773"
       y2="88.060478"
       gradientTransform="scale(1.2452957,0.8030221)"
       gradientUnits="userSpaceOnUse">
      <stop
         offset="0%"
         stop-color="#7871EB"
         id="stop35" />
      <stop
         offset="100%"
         stop-color="#57E5FF"
         id="stop37" />
    </linearGradient>
    <path
       id="uos-downloadmanager512-d"
       d="m 67.461612,102.1858 -0.05313,-0.0531 v 0 c -0.311167,-0.31213 -0.612071,-0.63064 -0.902712,-0.95508 L 7.0691885,41.554843 c -9.4341794,-9.463638 -9.4341794,-24.776006 0,-34.2396442 C 16.465433,-2.1103859 31.72354,-2.1341709 41.149125,7.2620736 l 0.05313,0.053125 v 0 L 84.5,50.747936 127.79775,7.3151988 c 9.39624,-9.4255847 24.65435,-9.4493697 34.07994,-0.053125 0.0177,0.017681 0.0354,0.035389 0.0531,0.053125 9.43418,9.4636382 9.43418,24.7760062 0,34.2396442 l -59.43658,59.622747 c -0.29065,0.32444 -0.59155,0.64295 -0.90272,0.95508 -4.746553,4.76138 -10.988947,7.1236 -17.219702,7.0843 h -0.04997 c -6.103596,-0.0385 -12.196024,-2.38148 -16.860231,-7.03117 z" />
    <radialGradient
       id="uos-downloadmanager512-f"
       cx="72.384537"
       cy="59.556374"
       r="75.320892"
       fx="72.384537"
       fy="59.556374"
       gradientTransform="scale(1.1767976,0.84976376)"
       gradientUnits="userSpaceOnUse">
      <stop
         offset="0%"
         stop-color="#7871EB"
         id="stop41" />
      <stop
         offset="68.65%"
         stop-color="#65B3F9"
         stop-opacity=".389"
         id="stop43" />
      <stop
         offset="100%"
         stop-color="#5CD1FF"
         id="stop45" />
    </radialGradient>
    <filter
       id="uos-downloadmanager512-h"
       width="1.483"
       height="1.75"
       x="-0.241"
       y="-0.375"
       filterUnits="objectBoundingBox">
      <feOffset
         dy="14"
         in="SourceAlpha"
         result="shadowOffsetOuter1"
         id="feOffset48" />
      <feGaussianBlur
         in="shadowOffsetOuter1"
         result="shadowBlurOuter1"
         stdDeviation="11"
         id="feGaussianBlur50" />
      <feColorMatrix
         in="shadowBlurOuter1"
         result="shadowMatrixOuter1"
         values="0 0 0 0 0.419449026   0 0 0 0 0.779397285   0 0 0 0 0.884114583  0 0 0 0.5 0"
         id="feColorMatrix52" />
      <feMerge
         id="feMerge58">
        <feMergeNode
           in="shadowMatrixOuter1"
           id="feMergeNode54" />
        <feMergeNode
           in="SourceGraphic"
           id="feMergeNode56" />
      </feMerge>
    </filter>
    <linearGradient
       id="uos-downloadmanager512-j"
       x1="206.00447"
       x2="114.21123"
       y1="72.162521"
       y2="161.35219"
       gradientTransform="scale(1.2520661,0.7986799)"
       gradientUnits="userSpaceOnUse">
      <stop
         offset="0%"
         stop-color="#2B86FF"
         id="stop61" />
      <stop
         offset="100%"
         stop-color="#26F9B9"
         id="stop63" />
    </linearGradient>
    <path
       id="uos-downloadmanager512-i"
       d="m 115.24751,170.97034 -0.008,-0.008 v 0 L 12.257858,67.952307 c -15.3138419,-15.318062 -15.3138419,-40.149072 0,-55.467134 15.308386,-15.312606 40.131604,-15.3160266 55.44421,-0.0076 0.0025,0.0025 0.0051,0.0051 0.0076,0.0076 L 143,87.795936 218.29029,12.485173 c 15.30839,-15.312606 40.13161,-15.3160266 55.44421,-0.0076 l 0.008,0.0076 v 0 c 15.31384,15.318062 15.31384,40.149072 0,55.467134 L 170.76013,170.9627 c -7.65419,7.6563 -17.68709,11.48531 -27.72052,11.48669 h -0.0684 c -10.03343,0.001 -20.06738,-3.82486 -27.72368,-11.47905 z" />
    <linearGradient
       id="uos-downloadmanager512-k"
       x1="39.015171"
       x2="148.91267"
       y1="93.78817"
       y2="70.974953"
       gradientTransform="scale(1.1297115,0.88518174)"
       gradientUnits="userSpaceOnUse">
      <stop
         offset="0%"
         stop-color="#26F5BB"
         id="stop67" />
      <stop
         offset="100%"
         stop-color="#2B86FE"
         id="stop69" />
    </linearGradient>
    <radialGradient
       inkscape:collect="always"
       xlink:href="#linearGradient1030"
       id="radialGradient1032"
       cx="1859.3521"
       cy="767.30164"
       fx="1859.3521"
       fy="767.30164"
       r="173.22565"
       gradientTransform="matrix(1.1252312,0,0,1.0228062,-232.84894,-17.499205)"
       gradientUnits="userSpaceOnUse" />
    <linearGradient
       inkscape:collect="always"
       id="linearGradient1030">
      <stop
         style="stop-color:#ea8547;stop-opacity:1"
         offset="0"
         id="stop1026" />
      <stop
         style="stop-color:#e0612c;stop-opacity:1"
         offset="1"
         id="stop1028" />
    </linearGradient>
    <linearGradient
       inkscape:collect="always"
       xlink:href="#linearGradient876"
       id="linearGradient878"
       x1="1721.9956"
       y1="462.62006"
       x2="2145.1755"
       y2="646.52264"
       gradientUnits="userSpaceOnUse" />
    <linearGradient
       inkscape:collect="always"
       id="linearGradient876">
      <stop
         style="stop-color:#fcb985;stop-opacity:1;"
         offset="0"
         id="stop872" />
      <stop
         style="stop-color:#ffdfc3;stop-opacity:1"
         offset="1"
         id="stop874" />
    </linearGradient>
    <linearGradient
       inkscape:collect="always"
       xlink:href="#linearGradient894"
       id="linearGradient896"
       x1="1536.0441"
       y1="632.50464"
       x2="2086.584"
       y2="664.92822"
       gradientUnits="userSpaceOnUse" />
    <linearGradient
       inkscape:collect="always"
       id="linearGradient894">
      <stop
         style="stop-color:#feccad;stop-opacity:1"
         offset="0"
         id="stop890" />
      <stop
         style="stop-color:#ffdfc5;stop-opacity:1"
         offset="1"
         id="stop892" />
    </linearGradient>
    <radialGradient
       inkscape:collect="always"
       xlink:href="#linearGradient866"
       id="radialGradient868"
       cx="1871.7957"
       cy="709.18817"
       fx="1871.7957"
       fy="709.18817"
       r="394.7334"
       gradientTransform="matrix(1.6290474,0.37035371,-0.12858971,0.56561802,-1062.251,-334.28486)"
       gradientUnits="userSpaceOnUse" />
    <linearGradient
       inkscape:collect="always"
       id="linearGradient866">
      <stop
         style="stop-color:#fec394;stop-opacity:1"
         offset="0"
         id="stop862" />
      <stop
         style="stop-color:#f76325;stop-opacity:1"
         offset="1"
         id="stop864" />
    </linearGradient>
    <linearGradient
       inkscape:collect="always"
       xlink:href="#linearGradient947"
       id="linearGradient949"
       x1="1774.9214"
       y1="939.53314"
       x2="1794.7463"
       y2="750.01788"
       gradientUnits="userSpaceOnUse" />
    <linearGradient
       inkscape:collect="always"
       id="linearGradient947">
      <stop
         style="stop-color:#fdac7c;stop-opacity:1"
         offset="0"
         id="stop943" />
      <stop
         style="stop-color:#fed2ab;stop-opacity:1"
         offset="1"
         id="stop945" />
    </linearGradient>
    <linearGradient
       inkscape:collect="always"
       xlink:href="#linearGradient957"
       id="linearGradient959"
       x1="1992.5522"
       y1="738.2326"
       x2="1722.9954"
       y2="607.69019"
       gradientUnits="userSpaceOnUse" />
    <linearGradient
       inkscape:collect="always"
       id="linearGradient957">
      <stop
         style="stop-color:#ffb37b;stop-opacity:1;"
         offset="0"
         id="stop953" />
      <stop
         style="stop-color:#ffb37b;stop-opacity:0;"
         offset="1"
         id="stop955" />
    </linearGradient>
    <radialGradient
       inkscape:collect="always"
       xlink:href="#linearGradient970"
       id="radialGradient972"
       cx="1964.6975"
       cy="1015.6149"
       fx="1964.6975"
       fy="1015.6149"
       r="286.69699"
       gradientTransform="matrix(0.9673137,-0.48899114,0.25382229,0.5021068,-174.82178,1438.5373)"
       gradientUnits="userSpaceOnUse" />
    <linearGradient
       inkscape:collect="always"
       id="linearGradient970">
      <stop
         style="stop-color:#f2733d;stop-opacity:1"
         offset="0"
         id="stop966" />
      <stop
         style="stop-color:#fecca1;stop-opacity:1"
         offset="1"
         id="stop968" />
    </linearGradient>
    <linearGradient
       inkscape:collect="always"
       xlink:href="#linearGradient917"
       id="linearGradient921"
       gradientUnits="userSpaceOnUse"
       x1="1874.4978"
       y1="608.01428"
       x2="2235.9885"
       y2="771.10425" />
    <linearGradient
       inkscape:collect="always"
       id="linearGradient917">
      <stop
         style="stop-color:#f1743c;stop-opacity:1"
         offset="0"
         id="stop913" />
      <stop
         style="stop-color:#f48449;stop-opacity:1;"
         offset="0.35912484"
         id="stop923" />
      <stop
         style="stop-color:#fd783e;stop-opacity:1"
         offset="1"
         id="stop915" />
    </linearGradient>
    <radialGradient
       inkscape:collect="always"
       xlink:href="#linearGradient931"
       id="radialGradient933"
       cx="1992.623"
       cy="707.42706"
       fx="1992.623"
       fy="707.42706"
       r="377.02185"
       gradientTransform="matrix(0.99995416,-0.00957496,0.00306149,0.31972408,-2.0744338,491.11461)"
       gradientUnits="userSpaceOnUse" />
    <linearGradient
       inkscape:collect="always"
       id="linearGradient931">
      <stop
         style="stop-color:#fdad72;stop-opacity:1;"
         offset="0"
         id="stop927" />
      <stop
         style="stop-color:#fdad72;stop-opacity:0;"
         offset="1"
         id="stop929" />
    </linearGradient>
    <linearGradient
       inkscape:collect="always"
       xlink:href="#linearGradient1001"
       id="linearGradient1003"
       x1="1690.1266"
       y1="1024.1414"
       x2="2030.0592"
       y2="844.40131"
       gradientUnits="userSpaceOnUse" />
    <linearGradient
       inkscape:collect="always"
       id="linearGradient1001">
      <stop
         style="stop-color:#ff8e56;stop-opacity:1;"
         offset="0"
         id="stop997" />
      <stop
         style="stop-color:#ff8e56;stop-opacity:0;"
         offset="1"
         id="stop999" />
    </linearGradient>
    <linearGradient
       inkscape:collect="always"
       xlink:href="#linearGradient978"
       id="linearGradient980"
       x1="2080.2439"
       y1="909.3775"
       x2="1892.4458"
       y2="1019.9293"
       gradientUnits="userSpaceOnUse" />
    <linearGradient
       inkscape:collect="always"
       id="linearGradient978">
      <stop
         style="stop-color:#fedcb9;stop-opacity:1;"
         offset="0"
         id="stop974" />
      <stop
         style="stop-color:#ffcda1;stop-opacity:1"
         offset="1"
         id="stop976" />
    </linearGradient>
    <linearGradient
       inkscape:collect="always"
       xlink:href="#linearGradient1048"
       id="linearGradient1050"
       x1="1894.363"
       y1="663.01221"
       x2="1858.3771"
       y2="794.88281"
       gradientUnits="userSpaceOnUse" />
    <linearGradient
       inkscape:collect="always"
       id="linearGradient1048">
      <stop
         style="stop-color:#e67840;stop-opacity:1"
         offset="0"
         id="stop1044" />
      <stop
         style="stop-color:#eea064;stop-opacity:1"
         offset="1"
         id="stop1046" />
    </linearGradient>
    <linearGradient
       inkscape:collect="always"
       xlink:href="#linearGradient991"
       id="linearGradient993"
       x1="1681.0109"
       y1="945.74298"
       x2="2055.5659"
       y2="776.10413"
       gradientUnits="userSpaceOnUse" />
    <linearGradient
       inkscape:collect="always"
       id="linearGradient991">
      <stop
         style="stop-color:#ffb986;stop-opacity:1"
         offset="0"
         id="stop987" />
      <stop
         style="stop-color:#fee0bd;stop-opacity:1"
         offset="1"
         id="stop989" />
    </linearGradient>
    <linearGradient
       inkscape:collect="always"
       xlink:href="#linearGradient1022"
       id="linearGradient1024"
       x1="1951.9232"
       y1="1049.9733"
       x2="2101.4963"
       y2="940.43182"
       gradientUnits="userSpaceOnUse" />
    <linearGradient
       inkscape:collect="always"
       id="linearGradient1022">
      <stop
         style="stop-color:#fddcb8;stop-opacity:1;"
         offset="0"
         id="stop1018" />
      <stop
         style="stop-color:#fddab6;stop-opacity:1"
         offset="1"
         id="stop1020" />
    </linearGradient>
    <linearGradient
       inkscape:collect="always"
       xlink:href="#linearGradient1058"
       id="linearGradient1060"
       x1="1324.0299"
       y1="608.18945"
       x2="1314.8395"
       y2="620.15039"
       gradientUnits="userSpaceOnUse"
       gradientTransform="translate(890.24776,-1.7890142)" />
    <linearGradient
       inkscape:collect="always"
       id="linearGradient1058">
      <stop
         style="stop-color:#f56e3c;stop-opacity:1;"
         offset="0"
         id="stop1054" />
      <stop
         style="stop-color:#f57b47;stop-opacity:1"
         offset="1"
         id="stop1056" />
    </linearGradient>
    <radialGradient
       inkscape:collect="always"
       xlink:href="#linearGradient1440"
       id="radialGradient1442"
       cx="167.09761"
       cy="29.779665"
       fx="167.09761"
       fy="29.779665"
       r="29.808826"
       gradientUnits="userSpaceOnUse"
       gradientTransform="translate(-135.05064,2.4226591)" />
    <radialGradient
       inkscape:collect="always"
       xlink:href="#linearGradient1458"
       id="radialGradient1460"
       cx="167.30876"
       cy="30.559744"
       fx="167.30876"
       fy="30.559744"
       r="33.383575"
       gradientUnits="userSpaceOnUse"
       gradientTransform="matrix(1.0054993,0,0,1.0054993,-136.18188,1.4745244)" />
  </defs>
  <circle
     style="opacity:0.295644;fill:url(#radialGradient1460);fill-opacity:1;stroke-width:0.468101;stroke-linecap:round;stroke-linejoin:round"
     id="circle1452"
     cx="32.04697"
     cy="32.202328"
     r="33.567162" />
  <circle
     style="fill:url(#radialGradient1442);fill-opacity:1;stroke-width:0.41569;stroke-linecap:round;stroke-linejoin:round"
     id="path611"
     cx="32.04697"
     cy="32.202328"
     r="29.808826" />
  <g
     id="g1078"
     transform="matrix(0.07494458,0,0,0.07494458,-111.32247,-20.982433)">
    <path
       style="fill:url(#radialGradient1032);fill-opacity:1;stroke:none;stroke-width:1px;stroke-linecap:butt;stroke-linejoin:miter;stroke-opacity:1"
       d="m 1925.3337,781.02876 c -14.1992,-30.19082 -6.6303,-55.64153 19.1692,-77.15316 25.7995,-21.51164 82.2192,-13.6059 106.0294,-1.39831 l -108.982,-90.27313 -185.6174,11.32362 -17.7244,88.00436 -34.1275,124.99522 89.3287,85.87177 z"
       id="path860"
       sodipodi:nodetypes="czc" />
    <path
       style="fill:url(#linearGradient878);fill-opacity:1;stroke:none;stroke-width:1px;stroke-linecap:butt;stroke-linejoin:miter;stroke-opacity:1"
       d="m 1587.2119,904.43511 c -64.0044,-92.30695 -56.3201,-240.15702 51.1232,-329.00827 73.3731,-60.67665 191.1985,-79.74246 353.1331,2.24696 -17.8518,-30.38607 -43.8454,-56.74034 -81.4857,-77.32722 96.1536,12.47191 260.3819,181.47913 325.8702,228.3859 65.4883,46.90678 100.3737,-6.71121 100.3737,-6.71121 -33.8627,-19.05319 -59.788,-57.5133 -89.4279,-86.89135 22.7939,-34.91391 -82.9319,-96.32851 -100.1967,-205.09542 -7.4992,11.13449 -13.1713,23.30883 -13.7323,38.39214 -61.6464,-71.44975 -130.7617,-136.96335 -296.7677,-125.47054 16.9407,3.56296 34.1984,7.95593 55.5716,23.12015 -140.5798,1.3224 -225.7666,52.72811 -289.3867,136.5232 -101.6073,133.82859 -84.6028,304.61501 -15.0748,401.83566 z"
       id="path20"
       sodipodi:nodetypes="cscczccccccsc" />
    <path
       style="fill:url(#linearGradient896);fill-opacity:1;stroke:none;stroke-width:1px;stroke-linecap:butt;stroke-linejoin:miter;stroke-opacity:1"
       d="m 2336.2264,722.02127 c -108.3086,28.04985 -181.7218,-154.60823 -288.7341,-223.05002 -142.0764,-90.86772 -222.5836,-76.73963 -306.2256,-73.06682 34.769,14.90016 62.2571,29.80033 74.6154,44.70049 -119.0921,5.28852 -189.6855,53.22403 -227.7056,102.98058 -54.4682,71.282 -83.5194,207.99553 -0.9661,330.85005 20.3717,-127.10222 -4.5508,-324.21502 173.4962,-380.45955 76.5551,32.0795 165.8112,30.17194 240.6418,65.68028 102.2815,48.53417 190.6844,133.39697 302.9395,162.10077 z"
       id="path880"
       sodipodi:nodetypes="csccsccscc" />
    <path
       id="path22"
       style="fill:url(#radialGradient868);fill-opacity:1;stroke:none;stroke-width:1px;stroke-linecap:butt;stroke-linejoin:miter;stroke-opacity:1"
       d="m 1909.9819,500.34568 c 37.6403,20.58688 63.6347,46.94205 81.4863,77.32812 -161.9345,-81.98942 -279.7615,-62.92469 -353.1347,-2.24804 -98.7875,81.69319 -113.2342,213.25849 -65.1738,305.67379 l 14.0507,23.336 13.1055,15.3613 62.4434,37.4687 126.1582,-13.6992 -22.6914,-39.1914 -25.9512,25.709 c -63.9241,-52.3581 -87.1889,-145.4115 -16.6191,-241.8809 l 11.5274,-12.7374 18.0741,-0.9911 133.8887,-27.28512 45.5762,13.63282 c 37.7184,6.3711 69.5382,18.1274 82.455,24.666 108.144,55.0595 164.7596,95.4119 218.2559,97.7598 71.9333,3.157 92.6734,-46.4814 101.6953,-59.7188 -6.1236,8.1366 -40.199,47.5187 -99.2773,5.2031 -65.4883,-46.9067 -229.7156,-215.91476 -325.8692,-228.38667 z"
       sodipodi:nodetypes="ccscccccccccccccscsc" />
    <path
       style="fill:url(#linearGradient949);fill-opacity:1;stroke:none;stroke-width:1px;stroke-linecap:butt;stroke-linejoin:miter;stroke-opacity:1"
       d="m 1723.6571,688.20406 c 0,0 -47.6961,17.91559 -83.7728,58.38775 18.8643,-65.86304 114.6058,-176.37707 375.2943,-61.1033 v 0 c -31.3508,-15.86996 -174.0251,-62.51021 -242.2448,11.84106 -68.2197,74.35126 -14.1906,164.40947 19.8146,180.77003 l -52.4719,51.98569 c -63.9241,-52.35815 -87.1892,-145.41183 -16.6194,-241.88123"
       id="path18"
       sodipodi:nodetypes="cccczccc" />
    <path
       id="path951"
       style="fill:url(#linearGradient959);fill-opacity:1;stroke:none;stroke-width:1px;stroke-linecap:butt;stroke-linejoin:miter;stroke-opacity:1"
       d="m 1909.9819,500.34568 c 37.6403,20.58688 63.6347,46.94205 81.4863,77.32812 -161.9345,-81.98942 -279.7615,-62.92469 -353.1347,-2.24804 -98.7875,81.69319 -113.2342,213.25849 -65.1738,305.67379 l 14.0507,23.336 13.1055,15.3613 62.4434,37.4687 126.1582,-13.6992 -22.6914,-39.1914 -25.9512,25.709 c -63.9241,-52.3581 -87.1889,-145.4115 -16.6191,-241.8809 l 11.5274,-12.7374 18.0741,-0.9911 133.8887,-27.28512 45.5762,13.63282 c 37.7184,6.3711 69.5382,18.1274 82.455,24.666 108.144,55.0595 164.7596,95.4119 218.2559,97.7598 71.9333,3.157 92.6734,-46.4814 101.6953,-59.7188 -6.1236,8.1366 -40.199,47.5187 -99.2773,5.2031 -65.4883,-46.9067 -229.7156,-215.91476 -325.8692,-228.38667 z"
       sodipodi:nodetypes="ccscccccccccccccscsc" />
    <path
       style="fill:url(#radialGradient972);fill-opacity:1;stroke:none;stroke-width:1px;stroke-linecap:butt;stroke-linejoin:miter;stroke-opacity:1"
       d="m 1587.2119,904.43511 c 146.141,144.78089 243.8662,-154.18371 443.0141,-162.00425 68.0362,-2.67178 193.0451,85.7612 93.0183,218.5865 -100.0268,132.82534 -392.7542,162.74214 -536.0324,-56.58225 z"
       id="path14"
       sodipodi:nodetypes="cszc" />
    <path
       id="path898"
       style="fill:url(#linearGradient921);fill-opacity:1;stroke:none;stroke-width:1px;stroke-linecap:butt;stroke-linejoin:miter;stroke-opacity:1"
       d="m 1909.9824,500.3457 c 37.6403,20.58688 63.6346,46.94206 81.4864,77.32813 -161.9347,-81.98942 -279.7598,-62.92275 -353.1329,-2.2461 -96.6582,79.93242 -112.5672,207.60426 -68.1894,299.63868 0.4921,0.86245 0.9792,1.73614 1.4824,2.57421 -47.2847,-93.87314 -25.9569,-245.45836 129.5039,-296.78906 185.5175,-61.25494 312.4507,67.94374 353.4199,84.46094 l -32.9218,-67.12891 c 97.5452,73.80588 200.5046,176.68037 278.9941,148.17969 -16.2613,3.92562 -37.9463,1.58301 -64.7715,-17.63086 C 2170.3652,681.82565 2006.136,512.81761 1909.9824,500.3457 Z"
       sodipodi:nodetypes="ccsccscccsc" />
    <path
       id="path925"
       style="fill:url(#radialGradient933);fill-opacity:1;stroke:none;stroke-width:1px;stroke-linecap:butt;stroke-linejoin:miter;stroke-opacity:1"
       d="m 1909.9824,500.3457 c 37.6403,20.58688 63.6346,46.94206 81.4864,77.32813 -161.9347,-81.98942 -279.7598,-62.92275 -353.1329,-2.2461 -96.6582,79.93242 -112.5672,207.60426 -68.1894,299.63868 0.4921,0.86245 0.9792,1.73614 1.4824,2.57421 -47.2847,-93.87314 -25.9569,-245.45836 129.5039,-296.78906 185.5175,-61.25494 312.4507,67.94374 353.4199,84.46094 l -32.9218,-67.12891 c 97.5452,73.80588 200.5046,176.68037 278.9941,148.17969 -16.2613,3.92562 -37.9463,1.58301 -64.7715,-17.63086 C 2170.3652,681.82565 2006.136,512.81761 1909.9824,500.3457 Z"
       sodipodi:nodetypes="ccsccscccsc" />
    <path
       style="fill:url(#linearGradient1003);fill-opacity:1;stroke:none;stroke-width:1px;stroke-linecap:butt;stroke-linejoin:miter;stroke-opacity:1"
       d="m 1587.2119,904.43511 c 146.141,144.78089 243.8662,-154.18371 443.0141,-162.00425 68.0362,-2.67178 193.0451,85.7612 93.0183,218.5865 -100.0268,132.82534 -392.7542,162.74214 -536.0324,-56.58225 z"
       id="path995"
       sodipodi:nodetypes="cszc" />
    <path
       id="path961"
       style="fill:url(#linearGradient980);fill-opacity:1;stroke:none;stroke-width:1px;stroke-linecap:butt;stroke-linejoin:miter;stroke-opacity:1"
       d="m 2087.2812,868.06055 c -25.7539,0.0385 -51.3451,11.68293 -78.8808,26.44336 -44.6927,24.02896 -91.4351,58.13239 -130.1777,84.13086 -41.0671,27.42793 -100.2039,56.62433 -189.4747,28.89253 150.9408,99.7324 353.1442,59.9343 433.6641,-45.42769 7.1607,-11.24197 13.6151,-23.47978 15.4609,-35.91992 5.0044,-33.72858 -21.5018,-57.34365 -48.0996,-58.08594 -0.8311,-0.0232 -1.6614,-0.0344 -2.4922,-0.0332 z" />
    <path
       id="path1039"
       style="fill:url(#linearGradient1050);fill-opacity:1;stroke:none;stroke-width:1px;stroke-linecap:butt;stroke-linejoin:miter;stroke-opacity:1"
       d="m 1915.6406,663.49609 c -58.5217,0.34342 -112.0628,25.49182 -121.7246,104.88086 11.493,-18.95693 21.0049,-38.96092 47.0059,-50.24414 -23.6565,39.37216 -2.0581,92.14682 15.3789,115.28711 l 68.3144,-53.98828 c -13.1905,-29.49084 -5.4554,-54.42632 19.8868,-75.55664 20.1792,-16.82546 59.0896,-15.65395 86.4785,-8.50391 l 5.6152,-4.4375 c -32.8924,-14.73027 -78.2501,-27.6881 -120.9551,-27.4375 z" />
    <path
       id="path1034"
       style="fill:#f0a56a;fill-opacity:1;stroke:none;stroke-width:1px;stroke-linecap:butt;stroke-linejoin:miter;stroke-opacity:1"
       d="m 1962.1133,677.2168 c -26.8091,0.27343 -49.2072,7.98258 -63.7246,25.20898 -18.2018,21.59837 -38.3785,84.30625 -12.2364,119.46094 l 2.8125,-1.88477 36.3692,-38.97265 c -14.1992,-30.19082 -6.6315,-55.64267 19.168,-77.1543 25.7995,-21.51164 82.221,-13.60603 106.0312,-1.39844 l -13.9375,-11.54297 c -26.5579,-8.95416 -52.0647,-13.94544 -74.4824,-13.71679 z" />
    <path
       id="path982"
       style="fill:url(#linearGradient993);fill-opacity:1;stroke:none;stroke-width:1px;stroke-linecap:butt;stroke-linejoin:miter;stroke-opacity:1"
       d="m 2033.4551,742.37305 c -1.0898,-0.003 -2.1655,0.0168 -3.2285,0.0586 -199.1479,7.82054 -296.8747,306.78475 -443.0157,162.00391 29.714,34.90534 103.2423,155.75574 270.9961,25.11133 -32.0641,12.53866 -61.9624,20.52127 -85.9824,16.13281 104.2497,-60.46825 185.7532,-179.20301 318.7793,-187.08008 -19.5386,-10.53431 -40.1748,-16.18575 -57.5488,-16.22656 z" />
    <path
       id="path1005"
       style="fill:url(#linearGradient1024);fill-opacity:1;stroke:none;stroke-width:1px;stroke-linecap:butt;stroke-linejoin:miter;stroke-opacity:1"
       d="m 2094.5527,908.50586 c -36.4305,-0.98923 -110.1637,66.51688 -198.5957,121.98244 36.9565,-3.2985 70.8596,-9.511 100.4903,-19.8008 -61.4829,43.4916 -117.0516,52.4296 -170.6289,49.7363 118.9254,18.9243 238.9457,-22.8905 296.5937,-98.32419 8.6565,-14.10186 10.6458,-47.61197 -24.4512,-53.28125 -1.0967,-0.17717 -2.233,-0.28059 -3.4082,-0.3125 z" />
    <path
       style="fill:url(#linearGradient1060);fill-opacity:1;stroke:#e15927;stroke-width:0.7;stroke-linecap:butt;stroke-linejoin:miter;stroke-miterlimit:4;stroke-dasharray:none;stroke-opacity:1"
       d="m 2191.4698,587.55403 c -4.8612,20.24495 21.7059,48.8294 30.7665,38.2451 9.0606,-10.5843 -18.19,-33.45529 -30.7665,-38.2451 z"
       id="path1052"
       sodipodi:nodetypes="czc" />
  </g>
</svg>
