<?xml version="1.0" encoding="UTF-8" standalone="no"?>
<svg
   xmlns:dc="http://purl.org/dc/elements/1.1/"
   xmlns:cc="http://creativecommons.org/ns#"
   xmlns:rdf="http://www.w3.org/1999/02/22-rdf-syntax-ns#"
   xmlns:svg="http://www.w3.org/2000/svg"
   xmlns="http://www.w3.org/2000/svg"
   xmlns:xlink="http://www.w3.org/1999/xlink"
   xmlns:sodipodi="http://sodipodi.sourceforge.net/DTD/sodipodi-0.dtd"
   xmlns:inkscape="http://www.inkscape.org/namespaces/inkscape"
   width="64"
   height="64"
   viewBox="0 0 16.933333 16.933334"
   version="1.1"
   id="svg1271"
   inkscape:version="1.0.2 (e86c870879, 2021-01-15)"
   sodipodi:docname="glade.svg">
  <defs
     id="defs1265">
    <radialGradient
       inkscape:collect="always"
       xlink:href="#linearGradient1117"
       id="radialGradient1121"
       cx="95.538834"
       cy="15.753717"
       fx="95.538834"
       fy="15.753717"
       r="13.575455"
       gradientTransform="matrix(0.62813784,-0.51374195,0.39518431,0.48318073,-60.011809,46.374907)"
       gradientUnits="userSpaceOnUse" />
    <linearGradient
       inkscape:collect="always"
       id="linearGradient1117">
      <stop
         style="stop-color:#158158;stop-opacity:1;"
         offset="0"
         id="stop1113" />
      <stop
         style="stop-color:#1b9ea3;stop-opacity:1"
         offset="1"
         id="stop1115" />
    </linearGradient>
    <radialGradient
       inkscape:collect="always"
       xlink:href="#linearGradient1204"
       id="radialGradient1208"
       gradientUnits="userSpaceOnUse"
       gradientTransform="matrix(0.1310236,0.17628685,-0.20661198,0.15356247,5.0488412,-7.9481038)"
       cx="40.453606"
       cy="26.296436"
       fx="40.453606"
       fy="26.296436"
       r="22.6416" />
    <linearGradient
       inkscape:collect="always"
       id="linearGradient1204">
      <stop
         style="stop-color:#000000;stop-opacity:1;"
         offset="0"
         id="stop1200" />
      <stop
         style="stop-color:#000000;stop-opacity:0.14901961;"
         offset="0.73832387"
         id="stop1214" />
      <stop
         style="stop-color:#000000;stop-opacity:0.04313725;"
         offset="0.92382234"
         id="stop1212" />
      <stop
         style="stop-color:#000000;stop-opacity:0;"
         offset="1"
         id="stop1202" />
    </linearGradient>
    <radialGradient
       inkscape:collect="always"
       xlink:href="#linearGradient1459"
       id="radialGradient1463"
       cx="13.09079"
       cy="12.879486"
       fx="13.09079"
       fy="12.879486"
       r="7.2718596"
       gradientUnits="userSpaceOnUse"
       gradientTransform="matrix(1.8905075,1.7879177,-2.6105469,2.7603386,16.10364,-53.585461)" />
    <linearGradient
       inkscape:collect="always"
       id="linearGradient1459">
      <stop
         style="stop-color:#ffffff;stop-opacity:1"
         offset="0"
         id="stop1455" />
      <stop
         id="stop1504"
         offset="0.07639215"
         style="stop-color:#f3f3f1;stop-opacity:0.99607843;" />
      <stop
         style="stop-color:#272727;stop-opacity:0.98823529"
         offset="1"
         id="stop1457" />
    </linearGradient>
  </defs>
  <sodipodi:namedview
     id="base"
     pagecolor="#ffffff"
     bordercolor="#666666"
     borderopacity="1.0"
     inkscape:pageopacity="0.0"
     inkscape:pageshadow="2"
     inkscape:zoom="5.6"
     inkscape:cx="5.4727892"
     inkscape:cy="51.346642"
     inkscape:document-units="mm"
     inkscape:current-layer="layer1"
     inkscape:document-rotation="0"
     showgrid="false"
     units="px"
     inkscape:window-width="1507"
     inkscape:window-height="1056"
     inkscape:window-x="0"
     inkscape:window-y="24"
     inkscape:window-maximized="0" />
  <metadata
     id="metadata1268">
    <rdf:RDF>
      <cc:Work
         rdf:about="">
        <dc:format>image/svg+xml</dc:format>
        <dc:type
           rdf:resource="http://purl.org/dc/dcmitype/StillImage" />
        <dc:title></dc:title>
      </cc:Work>
    </rdf:RDF>
  </metadata>
  <g
     inkscape:label="Capa 1"
     inkscape:groupmode="layer"
     id="layer1">
    <g
       id="g1025"
       transform="matrix(0.26458333,0,0,0.26458333,-34.168041,0.52637859)"
       style="opacity:0.133443">
      <rect
         style="fill:none;fill-opacity:1;stroke:#000000;stroke-width:4;stroke-linecap:round;stroke-linejoin:round;stroke-miterlimit:4;stroke-dasharray:none;stroke-opacity:0.05"
         id="rect93-6"
         width="45.283493"
         height="57.033089"
         x="139.09254"
         y="1.4642413"
         rx="8.0140505"
         ry="8.0140505" />
      <rect
         style="fill:none;fill-opacity:1;stroke:#000000;stroke-width:3.6;stroke-linecap:round;stroke-linejoin:round;stroke-miterlimit:4;stroke-dasharray:none;stroke-opacity:0.05"
         id="rect988"
         width="45.283493"
         height="57.033089"
         x="139.09254"
         y="1.4642413"
         rx="8.0140505"
         ry="8.0140505" />
      <rect
         style="fill:none;fill-opacity:1;stroke:#000000;stroke-width:3.2;stroke-linecap:round;stroke-linejoin:round;stroke-miterlimit:4;stroke-dasharray:none;stroke-opacity:0.05"
         id="rect990"
         width="45.283493"
         height="57.033089"
         x="139.09254"
         y="1.4642413"
         rx="8.0140505"
         ry="8.0140505" />
      <rect
         style="fill:none;fill-opacity:1;stroke:#000000;stroke-width:2.8;stroke-linecap:round;stroke-linejoin:round;stroke-miterlimit:4;stroke-dasharray:none;stroke-opacity:0.05"
         id="rect992"
         width="45.283493"
         height="57.033089"
         x="139.09254"
         y="1.4642413"
         rx="8.0140505"
         ry="8.0140505" />
      <rect
         style="fill:none;fill-opacity:1;stroke:#000000;stroke-width:2.4;stroke-linecap:round;stroke-linejoin:round;stroke-miterlimit:4;stroke-dasharray:none;stroke-opacity:0.05"
         id="rect994"
         width="45.283493"
         height="57.033089"
         x="139.09254"
         y="1.4642413"
         rx="8.0140505"
         ry="8.0140505" />
      <rect
         style="fill:none;fill-opacity:1;stroke:#000000;stroke-width:2;stroke-linecap:round;stroke-linejoin:round;stroke-miterlimit:4;stroke-dasharray:none;stroke-opacity:0.05"
         id="rect996"
         width="45.283493"
         height="57.033089"
         x="139.09254"
         y="1.4642413"
         rx="8.0140505"
         ry="8.0140505" />
      <rect
         style="fill:none;fill-opacity:1;stroke:#000000;stroke-width:1.7;stroke-linecap:round;stroke-linejoin:round;stroke-miterlimit:4;stroke-dasharray:none;stroke-opacity:0.05"
         id="rect998"
         width="45.283493"
         height="57.033089"
         x="139.09254"
         y="1.4642413"
         rx="8.0140505"
         ry="8.0140505" />
      <rect
         style="fill:none;fill-opacity:1;stroke:#000000;stroke-width:1.4;stroke-linecap:round;stroke-linejoin:round;stroke-miterlimit:4;stroke-dasharray:none;stroke-opacity:0.05"
         id="rect1000"
         width="45.283493"
         height="57.033089"
         x="139.09254"
         y="1.4642413"
         rx="8.0140505"
         ry="8.0140505" />
      <rect
         style="fill:none;fill-opacity:1;stroke:#000000;stroke-width:1.1;stroke-linecap:round;stroke-linejoin:round;stroke-miterlimit:4;stroke-dasharray:none;stroke-opacity:0.05"
         id="rect1002"
         width="45.283493"
         height="57.033089"
         x="139.09254"
         y="1.4642413"
         rx="8.0140505"
         ry="8.0140505" />
      <rect
         style="fill:none;fill-opacity:1;stroke:#000000;stroke-width:0.8;stroke-linecap:round;stroke-linejoin:round;stroke-miterlimit:4;stroke-dasharray:none;stroke-opacity:0.05"
         id="rect1004"
         width="45.283493"
         height="57.033089"
         x="139.09254"
         y="1.4642413"
         rx="8.0140505"
         ry="8.0140505" />
      <rect
         style="fill:none;fill-opacity:1;stroke:#000000;stroke-width:0.6;stroke-linecap:round;stroke-linejoin:round;stroke-miterlimit:4;stroke-dasharray:none;stroke-opacity:0.05"
         id="rect1006"
         width="45.283493"
         height="57.033089"
         x="139.09254"
         y="1.4642413"
         rx="8.0140505"
         ry="8.0140505" />
      <rect
         style="fill:none;fill-opacity:1;stroke:#000000;stroke-width:0.4;stroke-linecap:round;stroke-linejoin:round;stroke-miterlimit:4;stroke-dasharray:none;stroke-opacity:0.05"
         id="rect1008"
         width="45.283493"
         height="57.033089"
         x="139.09254"
         y="1.4642413"
         rx="8.0140505"
         ry="8.0140505" />
      <rect
         style="fill:none;fill-opacity:1;stroke:#000000;stroke-width:0.2;stroke-linecap:round;stroke-linejoin:round;stroke-miterlimit:4;stroke-dasharray:none;stroke-opacity:0.05"
         id="rect1010"
         width="45.283493"
         height="57.033089"
         x="139.09254"
         y="1.4642413"
         rx="8.0140505"
         ry="8.0140505" />
    </g>
    <rect
       style="fill:#f2f2f2;fill-opacity:1;stroke:#ffffff;stroke-width:0.0529167;stroke-linecap:round;stroke-linejoin:round;stroke-miterlimit:4;stroke-dasharray:none;stroke-opacity:1"
       id="rect93"
       width="11.981257"
       height="15.090005"
       x="2.633528"
       y="0.91379243"
       rx="2.1203842"
       ry="2.1203842" />
    <path
       id="rect1110"
       style="fill:url(#radialGradient1121);fill-opacity:1;stroke:none;stroke-width:0.0529167;stroke-linecap:round;stroke-linejoin:round;stroke-miterlimit:4;stroke-dasharray:none;stroke-opacity:1"
       d="M 4.753912,0.91379242 H 9.8172064 C 5.4544392,2.0496484 2.7080735,5.8965685 2.6335279,8.8951932 V 3.0341766 c 0,-1.1746929 0.9456913,-2.12038418 2.1203841,-2.12038418 z"
       sodipodi:nodetypes="sccss" />
    <g
       id="g1193"
       transform="matrix(0.09882291,0,0,0.09882291,-2.297102,6.6340863)">
      <path
         style="color:#000000;font-style:normal;font-variant:normal;font-weight:normal;font-stretch:normal;font-size:medium;line-height:normal;font-family:sans-serif;font-variant-ligatures:normal;font-variant-position:normal;font-variant-caps:normal;font-variant-numeric:normal;font-variant-alternates:normal;font-feature-settings:normal;text-indent:0;text-align:start;text-decoration:none;text-decoration-line:none;text-decoration-style:solid;text-decoration-color:#000000;letter-spacing:normal;word-spacing:normal;text-transform:none;writing-mode:lr-tb;direction:ltr;text-orientation:mixed;dominant-baseline:auto;baseline-shift:baseline;text-anchor:start;white-space:normal;shape-padding:0;clip-rule:nonzero;display:inline;overflow:visible;visibility:visible;isolation:auto;mix-blend-mode:normal;color-interpolation:sRGB;color-interpolation-filters:linearRGB;solid-color:#000000;solid-opacity:1;vector-effect:none;fill:#7a7d77;fill-opacity:1;fill-rule:nonzero;stroke:none;stroke-width:0.883578;stroke-linecap:butt;stroke-linejoin:miter;stroke-miterlimit:4;stroke-dasharray:none;stroke-dashoffset:0;stroke-opacity:1;color-rendering:auto;image-rendering:auto;shape-rendering:auto;text-rendering:auto;enable-background:accumulate"
         d="m 155.31945,-21.853862 v 8.26953 c -11.92178,-0.629348 -23.89758,-0.997188 -35.93946,-1.031249 -14.34557,-0.04058 -28.784221,0.391562 -43.343745,1.412109 -0.278359,0.305212 -0.55964,0.607965 -0.832031,0.917968 l 0.002,0.0254 c 27.059906,-1.941205 53.713986,-1.83257 80.113286,-0.435556 v 12.17577934 c -0.15825,-0.0390803 -0.33071,-0.0758551 -0.54688,-0.10937953 -0.67074,-0.1040126 -1.64587,-0.1960441 -2.90039,-0.27537638 -2.50902,-0.15866453 -6.12626,-0.27628343 -10.49219,-0.35939523 -8.73187,-0.1661859 -20.45673,-0.1916221 -32.24609,-0.1289197 -11.789373,0.062702 -23.63969,0.21857 -32.619142,0.41601635 -3.860377,0.0848882 -7.021345,0.17782677 -9.583985,0.27537638 -0.326926,0.56449134 -0.645038,1.13228977 -0.957031,1.70312317 0.06339,1.3132762 0.127393,2.6761928 0.185548,4.3457046 0.216507,6.215573 0.385798,14.459494 0.460937,22.636717 0.07514,8.17722 0.05378,16.292036 -0.125,22.25 -0.08939,2.978982 -0.216824,5.418595 -0.388672,7.044922 -0.08592,0.813154 -0.186935,1.430483 -0.283204,1.771483 -0.04814,0.170495 -0.112218,0.270463 -0.0957,0.250016 0.0083,-0.0102 0.05455,-0.0624 0.160157,-0.08398 0.1056,-0.02154 0.222637,0.02381 0.257813,0.0508 l -0.533203,0.703128 c 0.103445,0.07861 0.282538,0.14623 0.453125,0.111345 0.170589,-0.03515 0.277636,-0.136063 0.347656,-0.222652 0.140039,-0.173216 0.196951,-0.347792 0.259767,-0.570319 0.125639,-0.445032 0.222198,-1.079985 0.310548,-1.916013 0.176682,-1.672059 0.306769,-4.125419 0.396484,-7.115237 0.17943,-5.979628 0.200206,-14.0989 0.125001,-22.283202 C 67.429839,19.789959 67.257085,11.542331 67.040205,5.316073 66.971655,3.3480692 66.89845,1.6826733 66.823407,0.18326288 c 2.574131,-0.09891024 5.798271,-0.19513701 9.712891,-0.28123465 8.972435,-0.19732914 20.816723,-0.34752757 32.601562,-0.41015812 11.78485,-0.0626646 23.51175,-0.0366614 32.23047,0.12891969 4.35936,0.0829606 7.96622,0.20235591 10.44922,0.35935748 1.2415,0.07850079 2.20366,0.16611024 2.82031,0.26173229 0.30833,0.047811 0.53578,0.10291654 0.63477,0.13867087 0.0246,0.009071 0.042,0.0173858 0.0469,0.0196535 0.005,0.001999 -0.003,-0.003197 -0.0253,-0.0234331 -0.0227,-0.0204094 -0.0683,-0.0601323 -0.0957,-0.14256378 -0.0276,-0.0823937 -0.0219,-0.19729134 0.008,-0.26759056 l 0.11331,0.04686615 V 0.4001952 69.064253 h 0.88476 v -81.714991 c 2.25675,0.121901 4.5125,0.250394 6.76563,0.390625 l 0.0547,-0.884766 c -2.27172,-0.141358 -4.5448,-0.269934 -6.82031,-0.392577 v -8.316406 z"
         id="path1381" />
      <path
         style="color:#000000;font-style:normal;font-variant:normal;font-weight:normal;font-stretch:normal;font-size:medium;line-height:normal;font-family:sans-serif;font-variant-ligatures:normal;font-variant-position:normal;font-variant-caps:normal;font-variant-numeric:normal;font-variant-alternates:normal;font-feature-settings:normal;text-indent:0;text-align:start;text-decoration:none;text-decoration-line:none;text-decoration-style:solid;text-decoration-color:#000000;letter-spacing:normal;word-spacing:normal;text-transform:none;writing-mode:lr-tb;direction:ltr;text-orientation:mixed;dominant-baseline:auto;baseline-shift:baseline;text-anchor:start;white-space:normal;shape-padding:0;clip-rule:nonzero;display:inline;overflow:visible;visibility:visible;isolation:auto;mix-blend-mode:normal;color-interpolation:sRGB;color-interpolation-filters:linearRGB;solid-color:#000000;solid-opacity:1;vector-effect:none;fill:#353533;fill-opacity:1;fill-rule:nonzero;stroke:none;stroke-width:0.574779px;stroke-linecap:butt;stroke-linejoin:miter;stroke-miterlimit:4;stroke-dasharray:none;stroke-dashoffset:0;stroke-opacity:1;color-rendering:auto;image-rendering:auto;shape-rendering:auto;text-rendering:auto;enable-background:accumulate"
         d="M 98.751903,54.93391 C 86.88876,54.99797 74.948158,55.844361 63.053085,56.336467 l 0.02215,0.575788 c 23.812748,-0.985153 47.750535,-3.374665 70.755405,1.882382 l 0.13289,-0.561025 C 122.40048,55.591238 110.61506,54.869836 98.751914,54.93391 Z"
         id="path1389"
         inkscape:connector-curvature="0" />
      <path
         style="color:#000000;font-style:normal;font-variant:normal;font-weight:normal;font-stretch:normal;font-size:medium;line-height:normal;font-family:sans-serif;font-variant-ligatures:normal;font-variant-position:normal;font-variant-caps:normal;font-variant-numeric:normal;font-variant-alternates:normal;font-feature-settings:normal;text-indent:0;text-align:start;text-decoration:none;text-decoration-line:none;text-decoration-style:solid;text-decoration-color:#000000;letter-spacing:normal;word-spacing:normal;text-transform:none;writing-mode:lr-tb;direction:ltr;text-orientation:mixed;dominant-baseline:auto;baseline-shift:baseline;text-anchor:start;white-space:normal;shape-padding:0;clip-rule:nonzero;display:inline;overflow:visible;visibility:visible;isolation:auto;mix-blend-mode:normal;color-interpolation:sRGB;color-interpolation-filters:linearRGB;solid-color:#000000;solid-opacity:1;vector-effect:none;fill:#666666;fill-opacity:1;fill-rule:nonzero;stroke:none;stroke-width:0.929752;stroke-linecap:butt;stroke-linejoin:miter;stroke-miterlimit:4;stroke-dasharray:none;stroke-dashoffset:0;stroke-opacity:1;color-rendering:auto;image-rendering:auto;shape-rendering:auto;text-rendering:auto;enable-background:accumulate"
         d="m 93.039374,12.695369 c -0.163692,-10e-4 -0.322621,0.006 -0.476859,0.02041 -1.301462,0.120227 -2.413951,1.040081 -3.2239,2.178898 -0.809949,1.138813 -1.335027,2.517211 -1.370517,3.758415 -0.03938,1.377143 0.961735,2.748136 1.902629,3.846097 0.08799,0.102689 0.08927,0.07937 0.176542,0.176579 -0.0102,5.14e-4 -0.02608,0.0042 -0.0359,0.0049 -0.855221,0.0418 -1.415165,0.02759 -1.575916,0.02759 v 0.92609 c 0.05889,0 0.732212,0.02041 1.621561,-0.02305 0.226696,-0.01134 0.560273,-0.08047 0.816786,-0.100913 0.31646,0.300245 0.880449,0.890056 0.880449,0.890056 l 0.60418,-0.703877 c 0,0 -0.271937,-0.281764 -0.326703,-0.330331 0.429223,-0.05798 0.781943,-0.05881 1.22998,-0.154922 1.167099,-0.250394 2.354453,-0.641507 3.318795,-1.293642 0.964343,-0.652135 1.710928,-1.59885 1.870197,-2.85995 0.298659,-2.364559 -0.573977,-4.068926 -1.824555,-5.08089 -1.094253,-0.885468 -2.4408,-1.274476 -3.586647,-1.281631 z m -0.0087,0.932099 c 0.930448,0.01134 2.112242,0.341972 3.013697,1.071428 1.030235,0.833666 1.749517,2.142728 1.484625,4.240082 -0.122495,0.969846 -0.660125,1.657886 -1.471416,2.206523 -0.811287,0.548632 -1.895935,0.922745 -2.992074,1.157911 -0.666059,0.142904 -1.241068,0.16611 -1.855782,0.227036 -0.277115,-0.277909 -0.321487,-0.272466 -0.636616,-0.640214 -0.887074,-1.03516 -1.698788,-2.356781 -1.67441,-3.209488 0.02835,-0.988649 0.488715,-2.251986 1.198752,-3.250326 0.710038,-0.998339 1.650086,-1.705255 2.551257,-1.788521 0.121096,-0.01134 0.249033,-0.01625 0.381967,-0.01436 z m 9.999606,1.163921 v 6.223181 h 3.86653 v -0.700271 h -3.07256 v -5.52291 z m 9.27052,0 v 6.223181 h 0.64022 v -0.571748 c 0.33573,0.512138 0.80729,0.767539 1.41616,0.767539 0.5918,0 1.06456,-0.221594 1.41737,-0.665439 0.35281,-0.449544 0.5285,-1.043962 0.5285,-1.783717 0,-0.72268 -0.17027,-1.295362 -0.51169,-1.71645 -0.3414,-0.421093 -0.80875,-0.631809 -1.40055,-0.631809 -0.59749,0 -1.05817,0.245745 -1.38253,0.735111 v -2.356668 z m 9.32097,0 v 6.223181 h 0.71588 v -6.223181 z m 5.91448,0.17178 c -0.13088,0.466616 -0.28482,0.765184 -0.46124,0.896061 -0.17639,0.130885 -0.55467,0.232328 -1.13509,0.306293 v 0.538118 h 1.34049 v 4.310944 h 0.75072 v -6.05142 z m -18.13864,1.449796 c -1.16084,0 -1.75798,0.484823 -1.79212,1.452197 h 0.71709 c 0.0283,-0.273147 0.12839,-0.472989 0.29907,-0.598175 0.17072,-0.130885 0.42068,-0.195779 0.75072,-0.195779 0.31865,0 0.56319,0.05673 0.7339,0.17057 0.17639,0.113801 0.26427,0.278627 0.26427,0.494876 v 0.187389 c 0,0.147968 -0.054,0.259956 -0.16214,0.333921 -0.1081,0.07397 -0.30131,0.128013 -0.58016,0.162142 -0.20485,0.02835 -0.34673,0.04747 -0.42641,0.05885 -0.0797,0.01134 -0.20523,0.03137 -0.37595,0.06006 -0.17072,0.02835 -0.28966,0.05412 -0.35796,0.07687 -0.0683,0.01701 -0.16823,0.04819 -0.29907,0.0937 -0.12522,0.03984 -0.21574,0.08296 -0.2727,0.128504 -0.0512,0.04554 -0.11731,0.104995 -0.19699,0.178998 -0.0797,0.0683 -0.1364,0.145285 -0.17057,0.230627 -0.0283,0.07967 -0.0568,0.172951 -0.0853,0.281046 -0.0231,0.108094 -0.0348,0.228245 -0.0348,0.35913 0,0.404021 0.1322,0.72553 0.39397,0.964528 0.26744,0.239018 0.6255,0.357959 1.07504,0.357959 0.5349,0 1.04147,-0.218834 1.51946,-0.657033 0.0283,0.227604 0.0988,0.392451 0.2126,0.494877 0.11947,0.108094 0.29367,0.162141 0.5213,0.162141 0.12522,0 0.28732,-0.0257 0.48646,-0.07687 v -0.538118 c -0.0512,0.01134 -0.10254,0.01814 -0.15375,0.01814 -0.25606,0 -0.38437,-0.11743 -0.38437,-0.350741 v -2.628128 c 0,-0.398324 -0.14188,-0.700815 -0.42641,-0.905669 -0.28452,-0.21052 -0.70323,-0.315893 -1.2552,-0.315893 z m 9.46631,0 c -0.62026,0 -1.11747,0.222803 -1.49304,0.666641 -0.36987,0.43816 -0.55613,1.024429 -0.55613,1.758489 0,0.734068 0.18232,1.314898 0.54652,1.741678 0.3642,0.421089 0.85988,0.630607 1.48583,0.630607 0.51213,0 0.93629,-0.136441 1.27202,-0.409595 0.33574,-0.273146 0.54917,-0.654123 0.64022,-1.1435 h -0.71711 c -0.19914,0.597491 -0.58949,0.896062 -1.16992,0.896062 -0.40402,0 -0.72281,-0.1392 -0.95612,-0.418001 -0.22761,-0.278815 -0.34655,-0.651662 -0.35796,-1.118279 h 3.29477 c 0,-1.73557 -0.66324,-2.604102 -1.98911,-2.604102 z m -0.009,0.658231 c 0.35849,0 0.65435,0.130999 0.88766,0.39278 0.23331,0.26177 0.34953,0.585986 0.34953,0.972938 h -2.51763 c 0.0284,-0.415405 0.15946,-0.746268 0.39279,-0.990955 0.23331,-0.250356 0.52915,-0.374778 0.88765,-0.374778 z m -4.60042,0.0087 c 0.39832,0 0.7144,0.159421 0.94771,0.478058 0.23901,0.318652 0.35796,0.745534 0.35796,1.280432 0,0.506449 -0.12288,0.918531 -0.36756,1.23719 -0.23902,0.312983 -0.55116,0.469656 -0.93811,0.469656 -0.37557,0 -0.67685,-0.1567 -0.90447,-0.469656 -0.22764,-0.318652 -0.34231,-0.740095 -0.34231,-1.263617 0,-0.523513 0.11474,-0.94103 0.34231,-1.254005 0.2276,-0.318652 0.5289,-0.478058 0.90447,-0.478058 z m -3.88439,1.723658 v 0.802371 c 0,0.239017 -0.12438,0.464504 -0.37474,0.67505 -0.25036,0.20485 -0.5719,0.307502 -0.96454,0.307502 -0.27881,0 -0.49497,-0.06342 -0.64862,-0.188561 -0.15363,-0.125215 -0.23062,-0.300888 -0.23062,-0.528506 0,-0.227603 0.0851,-0.404523 0.25583,-0.529712 0.17073,-0.130885 0.36121,-0.213317 0.57176,-0.247408 0.21052,-0.03439 0.45779,-0.07461 0.74231,-0.120113 0.29023,-0.04551 0.50637,-0.102274 0.64862,-0.170571 z M 92.050404,30.047562 c -0.163692,-10e-4 -0.322621,0.006 -0.47686,0.02041 -1.301465,0.120227 -2.413954,1.040085 -3.223899,2.178898 -0.809945,1.138817 -1.335035,2.517211 -1.370521,3.758415 -0.03938,1.377143 0.960537,2.746934 1.901428,3.844898 0.08799,0.10269 0.09048,0.08058 0.177751,0.177752 -0.0102,5.17e-4 -0.02608,0.0045 -0.03591,0.0049 -0.85522,0.0418 -1.415161,0.02646 -1.575915,0.02646 v 0.92609 c 0.05889,0 0.731006,0.02041 1.620359,-0.02305 0.226696,-0.01134 0.561471,-0.0793 0.817988,-0.0997 0.31646,0.300245 0.880448,0.890056 0.880448,0.890056 l 0.604181,-0.703877 c 0,0 -0.273147,-0.282973 -0.327912,-0.33154 0.429222,-0.05798 0.783144,-0.05764 1.231181,-0.153751 1.167095,-0.250394 2.354449,-0.641507 3.318795,-1.293642 0.964339,-0.652135 1.710921,-1.598846 1.870194,-2.859949 0.298658,-2.36456 -0.57518,-4.068923 -1.825754,-5.080891 -1.094252,-0.885468 -2.439602,-1.274476 -3.585445,-1.28163 z m -0.0094,0.932096 c 0.930452,0.01134 2.11344,0.341971 3.014903,1.071431 1.030231,0.833666 1.748311,2.142728 1.483423,4.240079 -0.122495,0.969845 -0.658923,1.657886 -1.470214,2.206522 -0.811287,0.548636 -1.895947,0.922745 -2.992074,1.157915 -0.66607,0.142904 -1.242274,0.166072 -1.856988,0.227036 -0.277115,-0.277909 -0.320277,-0.272466 -0.635411,-0.640214 -0.887077,-1.03516 -1.698795,-2.356781 -1.67441,-3.209488 0.02835,-0.988649 0.487522,-2.251982 1.197551,-3.250326 0.710041,-0.998336 1.650089,-1.705258 2.551253,-1.788521 0.121096,-0.01134 0.249033,-0.01625 0.381967,-0.01436 z m 0.565742,2.844336 a 2.7454977,2.1414882 0 0 0 -2.745838,2.141658 2.7454977,2.1414882 0 0 0 2.745838,2.14046 2.7454977,2.1414882 0 0 0 2.744644,-2.14046 2.7454977,2.1414882 0 0 0 -2.744644,-2.141658 z"
         id="path1402"
         inkscape:connector-curvature="0" />
    </g>
    <path
       style="fill:#6dc318;fill-opacity:0.835;stroke:none;stroke-width:0.0418989px;stroke-linecap:butt;stroke-linejoin:miter;stroke-opacity:1"
       d="M 13.575978,8.1519734 3.6191956,14.289037 13.575978,14.246713 Z M 12.20043,10.691441 v 2.031607 H 8.835671 Z"
       id="path1336"
       inkscape:connector-curvature="0"
       sodipodi:nodetypes="cccccccc" />
    <path
       style="fill:none;stroke:#62a224;stroke-width:0.0633431;stroke-linecap:butt;stroke-linejoin:miter;stroke-miterlimit:4;stroke-dasharray:none;stroke-opacity:0.909804"
       d="m 4.3455938,14.011539 v 0.277498 z m 0.4956677,0 v 0.277498 z m 0.4956673,0 v 0.277498 z m 0.4957492,0 v 0.277498 z m 0.4956675,0 v 0.277498 z m 0.4956675,0 v 0.277498 z m 0.4956683,0 v 0.277498 z m 0.4956665,0 v 0.277498 z m 0.4956677,0 v 0.277498 z m 0.4956678,0 v 0.277498 z m 0.4957498,0 v 0.277498 z m 0.4956677,0 v 0.277498 z m 0.4956682,0 v 0.277498 z m 0.495667,0 v 0.277498 z m 0.495668,0 v 0.277498 z m 0.495668,0 v 0.277498 z m 0.495668,0 v 0.277498 z m 0.495749,0 v 0.277498 z m 0.495665,0 v 0.277498 z"
       id="path1341"
       inkscape:connector-curvature="0" />
    <path
       id="rect1195"
       style="opacity:0.298;fill:url(#radialGradient1208);fill-opacity:1;stroke:none;stroke-width:0.0529167;stroke-linecap:round;stroke-linejoin:round;stroke-miterlimit:4;stroke-dasharray:none;stroke-opacity:1"
       d="M 9.8174551,0.9135722 C 5.454689,2.0494282 2.7079444,5.8963724 2.6333988,8.8949972 v 4.9883258 c 0,1.174693 0.9455912,2.120284 2.1202838,2.120284 h 7.7406124 c 1.174694,0 2.120283,-0.945591 2.120283,-2.120284 V 3.034373 c 0,-1.1746929 -0.945589,-2.1208008 -2.120283,-2.1208008 z" />
    <path
       style="fill:url(#radialGradient1463);fill-opacity:1;stroke-width:1.45127;stroke-linecap:round;stroke-linejoin:round;stroke-miterlimit:4;stroke-dasharray:none"
       d="M 6.0155842,5.9158119 C 4.3790569,5.961747 2.9673943,6.602258 2.5584262,8.6782442 3.3720081,4.7313147 6.138262,1.3412625 10.410685,0.82598593 8.1547209,1.058271 7.6381351,2.6680423 7.7705035,4.1630236 7.7832564,5.3778579 7.15389,5.8647936 6.0155842,5.9158119 Z"
       id="rect849"
       inkscape:connector-curvature="0"
       sodipodi:nodetypes="ccccc" />
  </g>
</svg>
