<?xml version="1.0" encoding="UTF-8" standalone="no"?>
<svg
   width="128"
   height="128"
   viewBox="0 0 128 128"
   version="1.1"
   id="svg40"
   sodipodi:docname="multitasking-view.svg"
   inkscape:version="1.1.2 (0a00cf5339, 2022-02-04)"
   xmlns:inkscape="http://www.inkscape.org/namespaces/inkscape"
   xmlns:sodipodi="http://sodipodi.sourceforge.net/DTD/sodipodi-0.dtd"
   xmlns:xlink="http://www.w3.org/1999/xlink"
   xmlns="http://www.w3.org/2000/svg"
   xmlns:svg="http://www.w3.org/2000/svg">
  <sodipodi:namedview
     id="namedview42"
     pagecolor="#ffffff"
     bordercolor="#666666"
     borderopacity="1.0"
     inkscape:pageshadow="2"
     inkscape:pageopacity="0.0"
     inkscape:pagecheckerboard="0"
     showgrid="false"
     inkscape:zoom="1.4142136"
     inkscape:cx="82.377938"
     inkscape:cy="78.488851"
     inkscape:window-width="1920"
     inkscape:window-height="1000"
     inkscape:window-x="0"
     inkscape:window-y="0"
     inkscape:window-maximized="1"
     inkscape:current-layer="svg40"
     showguides="true"
     inkscape:guide-bbox="true">
    <sodipodi:guide
       position="121.98996,29.422831"
       orientation="1,0"
       id="guide7937" />
    <sodipodi:guide
       position="97.392232,10.98057"
       orientation="0,-1"
       id="guide7958" />
    <sodipodi:guide
       position="108.42187,117.01563"
       orientation="0,-1"
       id="guide7960" />
    <sodipodi:guide
       position="5.875,104.1875"
       orientation="1,0"
       id="guide7962" />
  </sodipodi:namedview>
  <defs
     id="defs22">
    <linearGradient
       inkscape:collect="always"
       id="linearGradient8067">
      <stop
         style="stop-color:#fea566;stop-opacity:1"
         offset="0"
         id="stop8063" />
      <stop
         style="stop-color:#ff545b;stop-opacity:1"
         offset="1"
         id="stop8065" />
    </linearGradient>
    <linearGradient
       inkscape:collect="always"
       id="linearGradient1577">
      <stop
         style="stop-color:#ffffff;stop-opacity:1;"
         offset="0"
         id="stop1573" />
      <stop
         style="stop-color:#ffdfd8;stop-opacity:1"
         offset="0.13666479"
         id="stop4643" />
      <stop
         style="stop-color:#fee1e2;stop-opacity:1;"
         offset="0.17552173"
         id="stop4513" />
      <stop
         style="stop-color:#fe565b;stop-opacity:1"
         offset="1"
         id="stop1575" />
    </linearGradient>
    <filter
       id="deepin-show-desktop-a"
       width="1.1241379"
       height="1.154717"
       x="-0.062068966"
       y="-0.067924528"
       filterUnits="objectBoundingBox">
      <feOffset
         dy="2"
         in="SourceAlpha"
         result="shadowOffsetOuter1"
         id="feOffset2" />
      <feGaussianBlur
         in="shadowOffsetOuter1"
         result="shadowBlurOuter1"
         stdDeviation="3"
         id="feGaussianBlur4" />
      <feComposite
         in="shadowBlurOuter1"
         in2="SourceAlpha"
         operator="out"
         result="shadowBlurOuter1"
         id="feComposite6" />
      <feColorMatrix
         in="shadowBlurOuter1"
         result="shadowMatrixOuter1"
         values="0 0 0 0 0   0 0 0 0 0   0 0 0 0 0  0 0 0 0.2 0"
         id="feColorMatrix8" />
      <feMerge
         id="feMerge14">
        <feMergeNode
           in="shadowMatrixOuter1"
           id="feMergeNode10" />
        <feMergeNode
           in="SourceGraphic"
           id="feMergeNode12" />
      </feMerge>
    </filter>
    <linearGradient
       id="deepin-show-desktop-b"
       x1="55.443665"
       x2="55.443665"
       y1="0"
       y2="110.88733"
       gradientTransform="matrix(1.0461069,0,0,0.95592526,6,11)"
       gradientUnits="userSpaceOnUse">
      <stop
         offset="0%"
         stop-color="#00D479"
         id="stop17"
         style="stop-color:#ffa667;stop-opacity:1" />
      <stop
         offset="100%"
         stop-color="#02A5CB"
         id="stop19"
         style="stop-color:#ff545b;stop-opacity:1" />
    </linearGradient>
    <linearGradient
       inkscape:collect="always"
       xlink:href="#linearGradient1577"
       id="linearGradient4447"
       gradientUnits="userSpaceOnUse"
       x1="13.796875"
       y1="40.129547"
       x2="13.796875"
       y2="209.7459" />
    <linearGradient
       inkscape:collect="always"
       xlink:href="#deepin-show-desktop-b"
       id="linearGradient6932"
       gradientUnits="userSpaceOnUse"
       gradientTransform="matrix(1.0461069,0,0,0.95592526,12.00042,21.999083)"
       x1="55.443665"
       y1="0"
       x2="55.443665"
       y2="110.88733" />
    <linearGradient
       inkscape:collect="always"
       xlink:href="#linearGradient8067"
       id="linearGradient8069"
       x1="-151.75763"
       y1="25.359835"
       x2="-151.75763"
       y2="117.01943"
       gradientUnits="userSpaceOnUse"
       gradientTransform="translate(214.71161)" />
  </defs>
  <path
     id="path6913"
     style="fill:url(#linearGradient6932);fill-rule:evenodd;filter:url(#deepin-show-desktop-a)"
     d="M 18,11 C 11.352,11 6,16.352 6,23 v 82 c 0,6.648 5.352,12 12,12 h 92 c 6.648,0 12,-5.352 12,-12 V 23 c 0,-6.648 -5.352,-12 -12,-12 z" />
  <rect
     style="opacity:1;fill:url(#linearGradient8069);fill-opacity:1;stroke-width:2;stroke-linecap:round;stroke-linejoin:round"
     id="rect7619"
     width="116.11495"
     height="106.03506"
     x="5.875"
     y="10.98437"
     rx="11.996716"
     ry="11.996716" />
  <g
     id="g6579"
     style="opacity:0.8804403">
    <path
       id="path6459"
       style="fill:#741401;fill-opacity:0.04072966;stroke-width:2;stroke-linecap:round;stroke-linejoin:round"
       d="m 21.106759,32.020645 c -3.696083,0 -6.671875,2.973839 -6.671875,6.669922 v 17.316406 c 0,3.696083 2.975792,6.671875 6.671875,6.671875 h 37.529297 c 3.696083,0 6.671875,-2.975792 6.671875,-6.671875 V 38.690567 c 0,-3.696083 -2.975792,-6.669922 -6.671875,-6.669922 z m 60.550781,0 c -3.696083,0 -6.671875,2.973839 -6.671875,6.669922 v 17.316406 c 0,3.696083 2.975792,6.671875 6.671875,6.671875 h 24.73242 c 3.69609,0 6.67188,-2.975792 6.67188,-6.671875 V 38.690567 c 0,-3.696083 -2.97579,-6.669922 -6.67188,-6.669922 z M 21.106759,72.337051 c -3.696083,0 -6.671875,2.975792 -6.671875,6.671875 v 17.314453 c 0,3.696091 2.975792,6.671871 6.671875,6.671871 h 13.882812 c 3.696083,0 6.669922,-2.97578 6.669922,-6.671871 V 79.008926 c 0,-3.696083 -2.973839,-6.671875 -6.669922,-6.671875 z m 36.800781,0 c -3.696083,0 -6.671875,2.975792 -6.671875,6.671875 v 17.314453 c 0,3.696091 2.975792,6.671871 6.671875,6.671871 h 48.48242 c 3.69609,0 6.67188,-2.97578 6.67188,-6.671871 V 79.008926 c 0,-3.696083 -2.97579,-6.671875 -6.67188,-6.671875 z" />
    <path
       id="path6569"
       style="fill:#741401;fill-opacity:0.0407297;stroke-width:2;stroke-linecap:round;stroke-linejoin:round"
       d="m 22.331565,33.207035 c -3.696083,0 -6.671875,2.973839 -6.671875,6.669922 v 17.316406 c 0,3.696083 2.975792,6.671875 6.671875,6.671875 h 37.529297 c 3.696083,0 6.671875,-2.975792 6.671875,-6.671875 V 39.876957 c 0,-3.696083 -2.975792,-6.669922 -6.671875,-6.669922 z m 60.550781,0 c -3.696083,0 -6.671875,2.973839 -6.671875,6.669922 v 17.316406 c 0,3.696083 2.975792,6.671875 6.671875,6.671875 h 24.732424 c 3.69609,0 6.67188,-2.975792 6.67188,-6.671875 V 39.876957 c 0,-3.696083 -2.97579,-6.669922 -6.67188,-6.669922 z M 22.331565,73.523441 c -3.696083,0 -6.671875,2.975792 -6.671875,6.671875 v 17.314453 c 0,3.696091 2.975792,6.671871 6.671875,6.671871 h 13.882812 c 3.696083,0 6.669922,-2.97578 6.669922,-6.671871 V 80.195316 c 0,-3.696083 -2.973839,-6.671875 -6.669922,-6.671875 z m 36.800781,0 c -3.696083,0 -6.671875,2.975792 -6.671875,6.671875 v 17.314453 c 0,3.696091 2.975792,6.671871 6.671875,6.671871 h 48.482424 c 3.69609,0 6.67188,-2.97578 6.67188,-6.671871 V 80.195316 c 0,-3.696083 -2.97579,-6.671875 -6.67188,-6.671875 z" />
    <path
       id="path6571"
       style="fill:#741401;fill-opacity:0.0407297;stroke-width:2;stroke-linecap:round;stroke-linejoin:round"
       d="m 22.836563,34.630822 c -3.696083,0 -6.671875,2.973839 -6.671875,6.669922 V 58.61715 c 0,3.696083 2.975792,6.671875 6.671875,6.671875 H 60.36586 c 3.696083,0 6.671875,-2.975792 6.671875,-6.671875 V 41.300744 c 0,-3.696083 -2.975792,-6.669922 -6.671875,-6.669922 z m 60.550781,0 c -3.696083,0 -6.671875,2.973839 -6.671875,6.669922 V 58.61715 c 0,3.696083 2.975792,6.671875 6.671875,6.671875 h 24.732426 c 3.69609,0 6.67188,-2.975792 6.67188,-6.671875 V 41.300744 c 0,-3.696083 -2.97579,-6.669922 -6.67188,-6.669922 z M 22.836563,74.947228 c -3.696083,0 -6.671875,2.975792 -6.671875,6.671875 v 17.314453 c 0,3.696094 2.975792,6.671874 6.671875,6.671874 h 13.882812 c 3.696083,0 6.669922,-2.97578 6.669922,-6.671874 V 81.619103 c 0,-3.696083 -2.973839,-6.671875 -6.669922,-6.671875 z m 36.800781,0 c -3.696083,0 -6.671875,2.975792 -6.671875,6.671875 v 17.314453 c 0,3.696094 2.975792,6.671874 6.671875,6.671874 h 48.482426 c 3.69609,0 6.67188,-2.97578 6.67188,-6.671874 V 81.619103 c 0,-3.696083 -2.97579,-6.671875 -6.67188,-6.671875 z" />
    <path
       id="path6573"
       style="fill:#741401;fill-opacity:0.0407297;stroke-width:2;stroke-linecap:round;stroke-linejoin:round"
       d="m 23.46512,36.540414 c -3.696083,0 -6.671875,2.973839 -6.671875,6.669922 v 17.316406 c 0,3.696083 2.975792,6.671875 6.671875,6.671875 h 37.529297 c 3.696083,0 6.671875,-2.975792 6.671875,-6.671875 V 43.210336 c 0,-3.696083 -2.975792,-6.669922 -6.671875,-6.669922 z m 60.550781,0 c -3.696083,0 -6.671875,2.973839 -6.671875,6.669922 v 17.316406 c 0,3.696083 2.975792,6.671875 6.671875,6.671875 h 24.732429 c 3.69609,0 6.67188,-2.975792 6.67188,-6.671875 V 43.210336 c 0,-3.696083 -2.97579,-6.669922 -6.67188,-6.669922 z M 23.46512,76.85682 c -3.696083,0 -6.671875,2.975792 -6.671875,6.671875 v 17.314455 c 0,3.69609 2.975792,6.67187 6.671875,6.67187 h 13.882812 c 3.696083,0 6.669922,-2.97578 6.669922,-6.67187 V 83.528695 c 0,-3.696083 -2.973839,-6.671875 -6.669922,-6.671875 z m 36.800781,0 c -3.696083,0 -6.671875,2.975792 -6.671875,6.671875 v 17.314455 c 0,3.69609 2.975792,6.67187 6.671875,6.67187 h 48.482429 c 3.69609,0 6.67188,-2.97578 6.67188,-6.67187 V 83.528695 c 0,-3.696083 -2.97579,-6.671875 -6.67188,-6.671875 z" />
  </g>
  <path
     id="rect1067"
     style="fill:url(#linearGradient4447);fill-opacity:1;stroke-width:2;stroke-linecap:round;stroke-linejoin:round"
     d="M 20.46875 31.041016 C 16.772667 31.041016 13.796875 34.014855 13.796875 37.710938 L 13.796875 55.027344 C 13.796875 58.723427 16.772667 61.699219 20.46875 61.699219 L 57.998047 61.699219 C 61.69413 61.699219 64.669922 58.723427 64.669922 55.027344 L 64.669922 37.710938 C 64.669922 34.014855 61.69413 31.041016 57.998047 31.041016 L 20.46875 31.041016 z M 81.019531 31.041016 C 77.323448 31.041016 74.347656 34.014855 74.347656 37.710938 L 74.347656 55.027344 C 74.347656 58.723427 77.323448 61.699219 81.019531 61.699219 L 105.75195 61.699219 C 109.44804 61.699219 112.42383 58.723427 112.42383 55.027344 L 112.42383 37.710938 C 112.42383 34.014855 109.44804 31.041016 105.75195 31.041016 L 81.019531 31.041016 z M 20.46875 71.357422 C 16.772667 71.357422 13.796875 74.333214 13.796875 78.029297 L 13.796875 95.34375 C 13.796875 99.039833 16.772667 102.01562 20.46875 102.01562 L 34.351562 102.01562 C 38.047645 102.01562 41.021484 99.039833 41.021484 95.34375 L 41.021484 78.029297 C 41.021484 74.333214 38.047645 71.357422 34.351562 71.357422 L 20.46875 71.357422 z M 57.269531 71.357422 C 53.573448 71.357422 50.597656 74.333214 50.597656 78.029297 L 50.597656 95.34375 C 50.597656 99.039833 53.573448 102.01562 57.269531 102.01562 L 105.75195 102.01562 C 109.44804 102.01562 112.42383 99.039833 112.42383 95.34375 L 112.42383 78.029297 C 112.42383 74.333214 109.44804 71.357422 105.75195 71.357422 L 57.269531 71.357422 z " />
</svg>
