<?xml version="1.0" encoding="UTF-8" standalone="no"?>
<svg
   xmlns:dc="http://purl.org/dc/elements/1.1/"
   xmlns:cc="http://creativecommons.org/ns#"
   xmlns:rdf="http://www.w3.org/1999/02/22-rdf-syntax-ns#"
   xmlns:svg="http://www.w3.org/2000/svg"
   xmlns="http://www.w3.org/2000/svg"
   xmlns:xlink="http://www.w3.org/1999/xlink"
   xmlns:sodipodi="http://sodipodi.sourceforge.net/DTD/sodipodi-0.dtd"
   xmlns:inkscape="http://www.inkscape.org/namespaces/inkscape"
   width="64"
   height="64"
   viewBox="0 0 64 64"
   version="1.1"
   id="svg154"
   sodipodi:docname="geary.svg"
   inkscape:version="1.0.1 (3bc2e813f5, 2020-09-07)">
  <metadata
     id="metadata158">
    <rdf:RDF>
      <cc:Work
         rdf:about="">
        <dc:format>image/svg+xml</dc:format>
        <dc:type
           rdf:resource="http://purl.org/dc/dcmitype/StillImage" />
        <dc:title></dc:title>
      </cc:Work>
    </rdf:RDF>
  </metadata>
  <sodipodi:namedview
     pagecolor="#ffffff"
     bordercolor="#666666"
     borderopacity="1"
     objecttolerance="10"
     gridtolerance="10"
     guidetolerance="10"
     inkscape:pageopacity="0"
     inkscape:pageshadow="2"
     inkscape:window-width="1920"
     inkscape:window-height="1031"
     id="namedview156"
     showgrid="false"
     inkscape:zoom="6.015625"
     inkscape:cx="34.568182"
     inkscape:cy="40.81045"
     inkscape:window-x="0"
     inkscape:window-y="24"
     inkscape:window-maximized="1"
     inkscape:current-layer="svg154" />
  <defs
     id="defs103">
    <filter
       id="deepin-mail-512px-a"
       width="1.378"
       height="1.261"
       x="-0.22299999"
       y="-0.12100001"
       filterUnits="objectBoundingBox">
      <feOffset
         dy="8"
         in="SourceAlpha"
         result="shadowOffsetOuter1"
         id="feOffset2" />
      <feGaussianBlur
         in="shadowOffsetOuter1"
         result="shadowBlurOuter1"
         stdDeviation="10"
         id="feGaussianBlur4" />
      <feColorMatrix
         in="shadowBlurOuter1"
         result="shadowMatrixOuter1"
         values="0 0 0 0 0   0 0 0 0 0   0 0 0 0 0  0 0 0 0.2 0"
         id="feColorMatrix6" />
      <feMerge
         id="feMerge12">
        <feMergeNode
           in="shadowMatrixOuter1"
           id="feMergeNode8" />
        <feMergeNode
           in="SourceGraphic"
           id="feMergeNode10" />
      </feMerge>
    </filter>
    <linearGradient
       id="deepin-mail-512px-c"
       x1="168.01879"
       x2="168.01879"
       y1="0.14519182"
       y2="335.87127"
       gradientTransform="scale(0.86975669,1.1497468)"
       gradientUnits="userSpaceOnUse">
      <stop
         offset="0%"
         stop-color="#080030"
         id="stop15" />
      <stop
         offset="100%"
         stop-color="#002F48"
         id="stop17" />
    </linearGradient>
    <path
       id="deepin-mail-512px-b"
       d="m 36.383742,0.16693383 c -20.01937,0 -36.24827545,16.11774917 -36.24827545,36.00000017 V 350.16693 c 0,19.88226 16.22890545,36 36.24827545,36 H 255.88719 c 20.01937,0 36.24828,-16.11774 36.24828,-36 V 36.166934 c 0,-19.882251 -16.22891,-36.00000017 -36.24828,-36.00000017 z" />
    <linearGradient
       id="deepin-mail-512px-d"
       x1="72.2235"
       x2="194.93768"
       y1="100.84551"
       y2="116.84477"
       gradientTransform="scale(1.2123569,0.82483961)"
       gradientUnits="userSpaceOnUse">
      <stop
         offset="0%"
         stop-color="#00807D"
         id="stop21" />
      <stop
         offset="100%"
         stop-color="#0013AE"
         id="stop23" />
    </linearGradient>
    <linearGradient
       id="deepin-mail-512px-f"
       x1="175.27931"
       x2="285.47643"
       y1="48.583033"
       y2="-3.9952021"
       gradientUnits="userSpaceOnUse">
      <stop
         offset="0%"
         stop-color="#00499C"
         id="stop26" />
      <stop
         offset="100%"
         stop-color="#000A72"
         id="stop28" />
    </linearGradient>
    <circle
       id="deepin-mail-512px-g"
       cx="247.99899"
       cy="11"
       r="88" />
    <filter
       id="deepin-mail-512px-h"
       width="1.136"
       height="1.136"
       x="-0.068000004"
       y="-0.068000004"
       filterUnits="objectBoundingBox">
      <feOffset
         dx="24"
         dy="1"
         in="SourceAlpha"
         result="shadowOffsetInner1"
         id="feOffset32" />
      <feComposite
         in="shadowOffsetInner1"
         in2="SourceAlpha"
         k2="-1"
         k3="1"
         operator="arithmetic"
         result="shadowInnerInner1"
         id="feComposite34"
         k1="0"
         k4="0" />
      <feColorMatrix
         in="shadowInnerInner1"
         values="0 0 0 0 1   0 0 0 0 1   0 0 0 0 1  0 0 0 0.1 0"
         id="feColorMatrix36" />
    </filter>
    <linearGradient
       id="deepin-mail-512px-i"
       x1="0.5"
       x2="0.5"
       y1="0"
       y2="1">
      <stop
         offset="0%"
         stop-color="#FAD961"
         id="stop39" />
      <stop
         offset="100%"
         stop-color="#F76B1C"
         id="stop41" />
    </linearGradient>
    <linearGradient
       id="deepin-mail-512px-j"
       x1="23.27492"
       x2="75.75436"
       y1="337.01632"
       y2="396.85584"
       gradientUnits="userSpaceOnUse">
      <stop
         offset="0%"
         stop-color="#004940"
         id="stop44" />
      <stop
         offset="100%"
         stop-color="#001D3C"
         id="stop46" />
    </linearGradient>
    <circle
       id="deepin-mail-512px-k"
       cx="43.999001"
       cy="381"
       r="52" />
    <filter
       id="deepin-mail-512px-l"
       width="1.2309999"
       height="1.2309999"
       x="-0.115"
       y="-0.115"
       filterUnits="objectBoundingBox">
      <feOffset
         dx="24"
         dy="1"
         in="SourceAlpha"
         result="shadowOffsetInner1"
         id="feOffset50" />
      <feComposite
         in="shadowOffsetInner1"
         in2="SourceAlpha"
         k2="-1"
         k3="1"
         operator="arithmetic"
         result="shadowInnerInner1"
         id="feComposite52"
         k1="0"
         k4="0" />
      <feColorMatrix
         in="shadowInnerInner1"
         values="0 0 0 0 1   0 0 0 0 1   0 0 0 0 1  0 0 0 0.1 0"
         id="feColorMatrix54" />
    </filter>
    <linearGradient
       id="deepin-mail-512px-m"
       x1="132.26338"
       x2="179.96841"
       y1="108.31905"
       y2="177.28772"
       gradientTransform="scale(0.95530665,1.0467843)"
       gradientUnits="userSpaceOnUse">
      <stop
         offset="0%"
         stop-color="#33B8EC"
         id="stop57" />
      <stop
         offset="100%"
         stop-color="#B5DEFF"
         id="stop59" />
    </linearGradient>
    <linearGradient
       id="deepin-mail-512px-n"
       x1="238.17747"
       x2="164.66315"
       y1="2.6704063"
       y2="177.28788"
       gradientTransform="scale(0.95530603,1.046785)"
       gradientUnits="userSpaceOnUse">
      <stop
         offset="49.623%"
         stop-color="#0D98CF"
         id="stop62" />
      <stop
         offset="100%"
         stop-color="#7ADAFF"
         id="stop64" />
    </linearGradient>
    <linearGradient
       id="deepin-mail-512px-o"
       x1="141.25077"
       x2="93.298584"
       y1="104.38939"
       y2="177.28772"
       gradientTransform="scale(0.95530665,1.0467843)"
       gradientUnits="userSpaceOnUse">
      <stop
         offset="0%"
         stop-color="#00B7FF"
         id="stop67" />
      <stop
         offset="100%"
         stop-color="#87CAFF"
         id="stop69" />
    </linearGradient>
    <polygon
       id="deepin-mail-512px-p"
       points="241.626,0.788 98.483,143.264 72.981,185.582 " />
    <filter
       id="deepin-mail-512px-q"
       width="1.006"
       height="1.005"
       x="-0.003"
       y="-0.003"
       filterUnits="objectBoundingBox">
      <feOffset
         dx="1"
         dy="1"
         in="SourceAlpha"
         result="shadowOffsetInner1"
         id="feOffset73" />
      <feComposite
         in="shadowOffsetInner1"
         in2="SourceAlpha"
         k2="-1"
         k3="1"
         operator="arithmetic"
         result="shadowInnerInner1"
         id="feComposite75"
         k1="0"
         k4="0" />
      <feColorMatrix
         in="shadowInnerInner1"
         values="0 0 0 0 1   0 0 0 0 1   0 0 0 0 1  0 0 0 0.5 0"
         id="feColorMatrix77" />
    </filter>
    <filter
       id="deepin-mail-512px-r"
       width="1.211"
       height="1.233"
       x="-0.105"
       y="-0.116"
       filterUnits="objectBoundingBox">
      <feOffset
         dy="5"
         in="SourceAlpha"
         result="shadowOffsetOuter1"
         id="feOffset80" />
      <feGaussianBlur
         in="shadowOffsetOuter1"
         result="shadowBlurOuter1"
         stdDeviation="4"
         id="feGaussianBlur82" />
      <feColorMatrix
         in="shadowBlurOuter1"
         result="shadowMatrixOuter1"
         values="0 0 0 0 0   0 0 0 0 0   0 0 0 0 0  0 0 0 0.2 0"
         id="feColorMatrix84" />
      <feMerge
         id="feMerge90">
        <feMergeNode
           in="shadowMatrixOuter1"
           id="feMergeNode86" />
        <feMergeNode
           in="SourceGraphic"
           id="feMergeNode88" />
      </feMerge>
    </filter>
    <linearGradient
       id="deepin-mail-512px-s"
       x1="175.42731"
       x2="18.612637"
       y1="62.598021"
       y2="112.07221"
       gradientTransform="scale(1.3525198,0.7393607)"
       gradientUnits="userSpaceOnUse">
      <stop
         offset="0%"
         stop-color="#6DB4FF"
         id="stop93" />
      <stop
         offset="100%"
         stop-color="#D5FFFD"
         id="stop95" />
    </linearGradient>
    <linearGradient
       id="deepin-mail-512px-t"
       x1="245.89867"
       x2="210.11599"
       y1="5.497686"
       y2="167.53271"
       gradientTransform="scale(0.80903649,1.2360382)"
       gradientUnits="userSpaceOnUse">
      <stop
         offset="0%"
         stop-color="#57A2FF"
         id="stop98" />
      <stop
         offset="100%"
         stop-color="#D3F9FF"
         id="stop100" />
    </linearGradient>
    <linearGradient
       inkscape:collect="always"
       xlink:href="#deepin-mail-512px-i"
       id="linearGradient983"
       x1="111.999"
       y1="56"
       x2="111.999"
       y2="86"
       gradientUnits="userSpaceOnUse" />
    <linearGradient
       inkscape:collect="always"
       xlink:href="#deepin-mail-512px-i"
       id="linearGradient985"
       x1="258.99899"
       y1="359"
       x2="258.99899"
       y2="373"
       gradientUnits="userSpaceOnUse" />
  </defs>
  <g
     fill="none"
     fill-rule="evenodd"
     filter="url(#deepin-mail-512px-a)"
     transform="matrix(0.12852436,0,0,0.12852436,10.36071,2.2823816)"
     id="g152">
    <path
       fill="#f3f3f3"
       fill-rule="nonzero"
       stroke="#ffffff"
       stroke-width="2"
       d="m 102.84073,1.1663785 c 1.5039,3.1545768 3.85199,5.8293311 6.7523,7.7316294 2.98951,1.9608021 6.56531,3.1016041 10.40763,3.1016041 3.84232,0 7.41812,-1.140802 10.40763,-3.1016041 2.77421,-1.8195897 5.04318,-4.3459255 6.55138,-7.322908 l 0.20092,-0.4087214 h 19.68014 c 1.5039,3.1545768 3.85199,5.8293311 6.7523,7.7316294 2.98951,1.9608021 6.56531,3.1016041 10.40763,3.1016041 3.84232,0 7.41812,-1.140802 10.40763,-3.1016041 2.77421,-1.8195897 5.04318,-4.3459255 6.55138,-7.322908 l 0.20092,-0.4087214 h 19.68014 c 1.5039,3.1545768 3.85199,5.8293311 6.7523,7.7316294 2.98951,1.9608021 6.56531,3.1016041 10.40763,3.1016041 3.84232,0 7.41812,-1.140802 10.40763,-3.1016041 2.77421,-1.8195897 5.04318,-4.3459255 6.55138,-7.322908 l 0.20092,-0.4087214 h 19.68014 c 1.5039,3.1545768 3.85199,5.8293311 6.7523,7.7316294 2.98951,1.9608021 6.56531,3.1016041 10.40763,3.1016041 3.49678,0 6.7728,-0.944925 9.58709,-2.5927347 2.69573,-1.578391 4.96761,-3.8022574 6.6038,-6.45943 7.05095,1.6996336 13.64708,4.5673442 19.57118,8.3867257 1.00733,3.453525 2.96867,6.500104 5.58014,8.834938 2.59067,2.31625 5.82078,3.931981 9.39332,4.551728 4.673,5.720877 8.3743,12.266274 10.85245,19.384413 -5.17339,3.394943 -8.58798,9.245982 -8.58798,15.89436 0,4.107233 1.30346,7.909958 3.51877,11.017511 2.0534,2.880413 4.89083,5.163081 8.20048,6.537244 l 0.41615,0.167016 v 18.556458 c -3.48799,1.351994 -6.47767,3.70383 -8.61663,6.704259 -2.21531,3.10755 -3.51877,6.91028 -3.51877,11.01751 0,4.10724 1.30346,7.90996 3.51877,11.01751 2.0534,2.88042 4.89083,5.16308 8.20048,6.53725 l 0.41615,0.16701 v 18.55646 c -3.48799,1.352 -6.47767,3.70383 -8.61663,6.70426 -2.21531,3.10755 -3.51877,6.91028 -3.51877,11.01751 0,4.10723 1.30346,7.90996 3.51877,11.01751 2.0534,2.88042 4.89083,5.16308 8.20048,6.53725 l 0.41615,0.16701 v 18.55646 c -3.48799,1.352 -6.47767,3.70383 -8.61663,6.70426 -2.21531,3.10755 -3.51877,6.91028 -3.51877,11.01751 0,4.10723 1.30346,7.90996 3.51877,11.01751 2.0534,2.88042 4.89083,5.16308 8.20048,6.53725 l 0.41615,0.16701 v 18.55646 c -3.48799,1.352 -6.47767,3.70383 -8.61663,6.70426 -2.21531,3.10755 -3.51877,6.91028 -3.51877,11.01751 0,4.10724 1.30346,7.90996 3.51877,11.01751 2.0534,2.88042 4.89083,5.16308 8.20048,6.53725 l 0.41615,0.16701 v 18.55646 c -3.48799,1.352 -6.47767,3.70383 -8.61663,6.70426 -2.21531,3.10755 -3.51877,6.91028 -3.51877,11.01751 0,4.10724 1.30346,7.90996 3.51877,11.01751 2.0534,2.88042 4.89083,5.16308 8.20048,6.53725 l 0.41615,0.16701 v 18.55646 c -3.48799,1.352 -6.47767,3.70383 -8.61663,6.70426 -2.21531,3.10755 -3.51877,6.91028 -3.51877,11.01751 0,6.68926 3.45675,12.57132 8.68116,15.95681 -2.26618,6.60754 -5.5855,12.72616 -9.75687,18.15664 -4.11893,0.44723 -7.84275,2.21064 -10.74189,4.86132 -2.92123,2.67087 -5.00466,6.24253 -5.81253,10.27497 -5.6356,3.57602 -11.86893,6.29461 -18.51541,7.97261 -1.54824,-2.96671 -3.85607,-5.47337 -6.6655,-7.26177 -2.94462,-1.87447 -6.43992,-2.96058 -10.18896,-2.96058 -4.11366,0 -7.92185,1.30753 -11.03208,3.52917 -2.88253,2.05899 -5.16507,4.90374 -6.53552,8.2211 l -0.16653,0.41711 h -18.53174 c -1.34781,-3.49604 -3.69942,-6.49343 -6.70205,-8.63821 -3.11023,-2.22164 -6.91843,-3.52917 -11.03208,-3.52917 -4.11366,0 -7.92185,1.30753 -11.03208,3.52917 -2.88253,2.05899 -5.16507,4.90374 -6.53552,8.2211 l -0.16653,0.41711 h -18.53174 c -1.34781,-3.49604 -3.69942,-6.49343 -6.70205,-8.63821 -3.11023,-2.22164 -6.91843,-3.52917 -11.03208,-3.52917 -4.11366,0 -7.92185,1.30753 -11.03208,3.52917 -2.88253,2.05899 -5.16507,4.90374 -6.53552,8.2211 l -0.16653,0.41711 h -18.53174 c -1.34781,-3.49604 -3.69942,-6.49343 -6.70205,-8.63821 -3.11023,-2.22164 -6.91843,-3.52917 -11.03208,-3.52917 -4.11365,0 -7.92185,1.30753 -11.03208,3.52917 -2.88253,2.05899 -5.16507,4.90374 -6.53552,8.2211 l -0.16653,0.41711 H 83.734791 c -1.347814,-3.49604 -3.699417,-6.49343 -6.702051,-8.63821 -3.110233,-2.22164 -6.918427,-3.52917 -11.032081,-3.52917 -3.736747,0 -7.221415,1.079 -10.159885,2.94185 -2.803554,1.77731 -5.109601,4.26875 -6.663138,7.21806 -6.680793,-1.71301 -12.939873,-4.47918 -18.589801,-8.11 -0.831652,-3.93421 -2.880115,-7.41927 -5.733784,-10.04225 -2.834482,-2.60535 -6.462914,-4.3601 -10.481166,-4.86133 -4.214033,-5.47814 -7.5605325,-11.65856 -9.8331807,-18.33496 5.102066,-3.40782 8.4609547,-9.21744 8.4609547,-15.81137 0,-4.05252 -1.268974,-7.80858 -3.4307264,-10.89295 -2.002397,-2.857 -4.7714056,-5.13722 -8.0081279,-6.54272 l -0.424809,-0.17834 v -18.77197 c 3.4192988,-1.38665 6.3434792,-3.73985 8.4329369,-6.72107 2.1617524,-3.08437 3.4307264,-6.84043 3.4307264,-10.89295 0,-4.05252 -1.268974,-7.80858 -3.4307264,-10.89295 -2.002397,-2.857 -4.7714056,-5.13722 -8.0081279,-6.54272 l -0.424809,-0.17834 v -18.77197 c 3.4192988,-1.38665 6.3434792,-3.73985 8.4329369,-6.72107 2.1617524,-3.08437 3.4307264,-6.84043 3.4307264,-10.89295 0,-4.05252 -1.268974,-7.80858 -3.4307264,-10.89295 -2.002397,-2.857 -4.7714056,-5.13722 -8.0081279,-6.54272 l -0.424809,-0.17834 v -18.77197 c 3.4192988,-1.38665 6.3434792,-3.73985 8.4329369,-6.72107 2.1617524,-3.08437 3.4307264,-6.84043 3.4307264,-10.89295 0,-4.05252 -1.268974,-7.80858 -3.4307264,-10.89295 -2.002397,-2.857 -4.7714056,-5.13722 -8.0081279,-6.54272 l -0.424809,-0.17834 v -18.77197 c 3.4192988,-1.38665 6.3434792,-3.73985 8.4329369,-6.72107 2.1617524,-3.08437 3.4307264,-6.84043 3.4307264,-10.89295 0,-4.05252 -1.268974,-7.80858 -3.4307264,-10.89295 -2.002397,-2.857 -4.7714056,-5.13722 -8.0081279,-6.54272 l -0.424809,-0.17834 v -18.77197 c 3.4192988,-1.38665 6.3434792,-3.73985 8.4329369,-6.72107 2.1617524,-3.08437 3.4307264,-6.84043 3.4307264,-10.89295 0,-4.05252 -1.268974,-7.80858 -3.4307264,-10.89295 -2.002397,-2.857 -4.7714056,-5.137224 -8.0081279,-6.542723 L 1.1369957,96.385596 V 77.613628 c 3.4192988,-1.38665 6.3434792,-3.739849 8.4329369,-6.721066 2.1617524,-3.084367 3.4307264,-6.840431 3.4307264,-10.89295 0,-6.554787 -3.3191498,-12.33452 -8.3682851,-15.749618 2.4876328,-7.198512 6.2244071,-13.814591 10.9509931,-19.588773 3.461938,-0.660561 6.590595,-2.260003 9.110567,-4.523696 2.539929,-2.28162 4.461139,-5.237984 5.483561,-8.586898 5.943714,-3.885176 12.573947,-6.8074032 19.668014,-8.5459645 1.639381,2.6415056 3.908314,4.8510836 6.597118,6.4191001 2.807826,1.6374264 6.073311,2.5758494 9.558032,2.5758494 3.842319,0 7.418122,-1.140802 10.407629,-3.1016041 2.774209,-1.8195897 5.043178,-4.3459255 6.55138,-7.322908 L 83.160593,1.1663785 Z M 284.13613,28.166546 H 64.000659 l -0.546419,0.004 C 53.453849,28.315266 44.413826,32.427478 37.837708,39.003595 31.142025,45.699278 27.000659,54.949278 27.000659,65.166546 v 0 314.000004 l 0.004,0.54641 c 0.144768,10.0004 4.256979,19.04042 10.833096,25.61654 6.695683,6.69568 15.945683,10.83705 26.162951,10.83705 v 0 H 284.13613 l 0.54641,-0.004 c 10.0004,-0.14476 19.04042,-4.25698 25.61654,-10.83309 6.69568,-6.69569 10.83705,-15.94569 10.83705,-26.16295 v 0 -314.000004 l -0.004,-0.54642 C 320.98741,54.619735 316.87519,45.579712 310.29908,39.003595 303.60339,32.307912 294.35339,28.166546 284.13613,28.166546 Z"
       id="path105" />
    <g
       transform="translate(28,29)"
       id="g134">
      <mask
         id="deepin-mail-512px-e"
         fill="#ffffff">
        <use
           xlink:href="#deepin-mail-512px-b"
           id="use107"
           x="0"
           y="0"
           width="100%"
           height="100%" />
      </mask>
      <use
         fill="url(#deepin-mail-512px-c)"
         fill-rule="nonzero"
         xlink:href="#deepin-mail-512px-b"
         id="use110"
         x="0"
         y="0"
         width="100%"
         height="100%"
         style="fill:url(#deepin-mail-512px-c)" />
      <path
         fill="url(#deepin-mail-512px-d)"
         fill-rule="nonzero"
         d="M 101.39731,-0.00225602 C 93.630594,6.3424936 88.64279,13.763225 87.018133,22.121362 79.143214,62.634306 152.78088,112.32681 252.15442,131.64307 c 13.22221,2.57014 26.22342,4.47098 38.84691,5.7397 l 4.3e-4,6.04094 C 277.99501,142.1299 264.61015,140.17652 251.00957,137.53284 148.70788,117.6474 72.353106,66.121325 81.12837,20.976509 82.642246,13.188289 86.57641,6.1730944 92.575986,-0.00190096 Z"
         mask="url(#deepin-mail-512px-e)"
         opacity="0.503"
         id="path112"
         style="fill:url(#deepin-mail-512px-d)" />
      <g
         mask="url(#deepin-mail-512px-e)"
         opacity="0.5"
         id="g118">
        <use
           fill="url(#deepin-mail-512px-f)"
           xlink:href="#deepin-mail-512px-g"
           id="use114"
           x="0"
           y="0"
           width="100%"
           height="100%"
           style="fill:url(#deepin-mail-512px-f)" />
        <use
           fill="#000000"
           filter="url(#deepin-mail-512px-h)"
           xlink:href="#deepin-mail-512px-g"
           id="use116"
           x="0"
           y="0"
           width="100%"
           height="100%" />
      </g>
      <circle
         cx="111.999"
         cy="71"
         r="15"
         fill="url(#deepin-mail-512px-i)"
         mask="url(#deepin-mail-512px-e)"
         id="circle120"
         style="fill:url(#linearGradient983)" />
      <path
         fill="#070935"
         fill-rule="nonzero"
         d="m 111.99934,49.000388 c -12.150264,0 -21.999999,9.849736 -21.999999,22 0,12.150265 9.849735,22 21.999999,22 12.15026,0 22,-9.849735 22,-22 0,-12.150264 -9.84974,-22 -22,-22 z m 0,7 c 8.28427,0 15,6.715729 15,15 0,8.284271 -6.71573,15 -15,15 -8.28427,0 -14.999999,-6.715729 -14.999999,-15 0,-8.284271 6.715729,-15 14.999999,-15 z"
         mask="url(#deepin-mail-512px-e)"
         id="path122" />
      <path
         fill="#000000"
         fill-rule="nonzero"
         d="m 111.99934,54.000388 c -9.38884,0 -16.999999,7.611159 -16.999999,17 0,9.388841 7.611159,17 16.999999,17 9.38884,0 17,-7.611159 17,-17 0,-9.388841 -7.61116,-17 -17,-17 z m 0,4 c 7.1797,0 13,5.820298 13,13 0,7.179702 -5.8203,13 -13,13 -7.1797,0 -12.999999,-5.820298 -12.999999,-13 0,-7.179702 5.820299,-13 12.999999,-13 z"
         mask="url(#deepin-mail-512px-e)"
         id="path124" />
      <circle
         cx="258.99899"
         cy="366"
         r="7"
         fill="url(#deepin-mail-512px-i)"
         mask="url(#deepin-mail-512px-e)"
         id="circle126"
         style="fill:url(#linearGradient985)" />
      <g
         mask="url(#deepin-mail-512px-e)"
         id="g132">
        <use
           fill="url(#deepin-mail-512px-j)"
           xlink:href="#deepin-mail-512px-k"
           id="use128"
           x="0"
           y="0"
           width="100%"
           height="100%"
           style="fill:url(#deepin-mail-512px-j)" />
        <use
           fill="#000000"
           filter="url(#deepin-mail-512px-l)"
           xlink:href="#deepin-mail-512px-k"
           id="use130"
           x="0"
           y="0"
           width="100%"
           height="100%" />
      </g>
    </g>
    <g
       transform="rotate(-28,467.379,113.79)"
       id="g150">
      <polygon
         fill="url(#deepin-mail-512px-m)"
         points="80.452,133.017 72.981,185.582 241.626,0.788 "
         id="polygon136"
         style="fill:url(#deepin-mail-512px-m)" />
      <path
         fill="url(#deepin-mail-512px-n)"
         fill-rule="nonzero"
         d="M 241.626,0.78848045 72.981392,185.58229 80.452248,133.01699 Z M 221.459,19.919 82.322,134.069 75.873,179.447 Z"
         id="path138"
         style="fill:url(#deepin-mail-512px-n)" />
      <use
         fill="url(#deepin-mail-512px-o)"
         xlink:href="#deepin-mail-512px-p"
         id="use140"
         x="0"
         y="0"
         width="100%"
         height="100%"
         style="fill:url(#deepin-mail-512px-o)" />
      <use
         fill="#000000"
         filter="url(#deepin-mail-512px-q)"
         xlink:href="#deepin-mail-512px-p"
         id="use142"
         x="0"
         y="0"
         width="100%"
         height="100%" />
      <g
         filter="url(#deepin-mail-512px-r)"
         transform="translate(0,1)"
         id="g148">
        <polygon
           fill="url(#deepin-mail-512px-s)"
           points="80.452,132.017 241.5,0 0,119 "
           id="polygon144"
           style="fill:url(#deepin-mail-512px-s)" />
        <polygon
           fill="url(#deepin-mail-512px-t)"
           points="98.483,142.264 241.5,0 181.5,218.5 "
           id="polygon146"
           style="fill:url(#deepin-mail-512px-t)" />
      </g>
    </g>
  </g>
</svg>
