<?xml version="1.0" encoding="UTF-8" standalone="no"?>
<svg
   xmlns:dc="http://purl.org/dc/elements/1.1/"
   xmlns:cc="http://creativecommons.org/ns#"
   xmlns:rdf="http://www.w3.org/1999/02/22-rdf-syntax-ns#"
   xmlns:svg="http://www.w3.org/2000/svg"
   xmlns="http://www.w3.org/2000/svg"
   xmlns:xlink="http://www.w3.org/1999/xlink"
   xmlns:sodipodi="http://sodipodi.sourceforge.net/DTD/sodipodi-0.dtd"
   xmlns:inkscape="http://www.inkscape.org/namespaces/inkscape"
   width="64"
   height="64"
   viewBox="0 0 64 64"
   version="1.1"
   id="svg136"
   sodipodi:docname="scanner.svg"
   inkscape:version="1.0.1 (3bc2e813f5, 2020-09-07)">
  <metadata
     id="metadata140">
    <rdf:RDF>
      <cc:Work
         rdf:about="">
        <dc:format>image/svg+xml</dc:format>
        <dc:type
           rdf:resource="http://purl.org/dc/dcmitype/StillImage" />
        <dc:title></dc:title>
      </cc:Work>
    </rdf:RDF>
  </metadata>
  <sodipodi:namedview
     pagecolor="#ffffff"
     bordercolor="#666666"
     borderopacity="1"
     objecttolerance="10"
     gridtolerance="10"
     guidetolerance="10"
     inkscape:pageopacity="0"
     inkscape:pageshadow="2"
     inkscape:window-width="1920"
     inkscape:window-height="1031"
     id="namedview138"
     showgrid="false"
     inkscape:zoom="3.0078125"
     inkscape:cx="106.18467"
     inkscape:cy="64.363812"
     inkscape:window-x="0"
     inkscape:window-y="24"
     inkscape:window-maximized="1"
     inkscape:current-layer="svg136" />
  <defs
     id="defs102">
    <filter
       id="512px-b"
       width="1.29"
       height="1.206"
       x="-0.145"
       y="-0.103"
       filterUnits="objectBoundingBox">
      <feOffset
         dy="7"
         in="SourceAlpha"
         result="shadowOffsetOuter1"
         id="feOffset2" />
      <feGaussianBlur
         in="shadowOffsetOuter1"
         result="shadowBlurOuter1"
         stdDeviation="9"
         id="feGaussianBlur4" />
      <feColorMatrix
         in="shadowBlurOuter1"
         result="shadowMatrixOuter1"
         values="0 0 0 0 0   0 0 0 0 0   0 0 0 0 0  0 0 0 0.2 0"
         id="feColorMatrix6" />
      <feMerge
         id="feMerge12">
        <feMergeNode
           in="shadowMatrixOuter1"
           id="feMergeNode8" />
        <feMergeNode
           in="SourceGraphic"
           id="feMergeNode10" />
      </feMerge>
    </filter>
    <linearGradient
       id="512px-c"
       x1="236"
       x2="236"
       y1="0"
       y2="472"
       gradientUnits="userSpaceOnUse"
       gradientTransform="translate(20,19)">
      <stop
         offset="0%"
         stop-color="#0ECB04"
         id="stop15" />
      <stop
         offset="100%"
         stop-color="#008972"
         id="stop17" />
    </linearGradient>
    <filter
       id="512px-d"
       width="1.405"
       height="1.4400001"
       x="-0.20200001"
       y="-0.22700001"
       filterUnits="objectBoundingBox">
      <feOffset
         dy="8"
         in="SourceAlpha"
         result="shadowOffsetOuter1"
         id="feOffset20" />
      <feGaussianBlur
         in="shadowOffsetOuter1"
         result="shadowBlurOuter1"
         stdDeviation="12.5"
         id="feGaussianBlur22" />
      <feColorMatrix
         in="shadowBlurOuter1"
         result="shadowMatrixOuter1"
         values="0 0 0 0 0   0 0 0 0 0   0 0 0 0 0  0 0 0 0.21 0"
         id="feColorMatrix24" />
      <feMerge
         id="feMerge30">
        <feMergeNode
           in="shadowMatrixOuter1"
           id="feMergeNode26" />
        <feMergeNode
           in="SourceGraphic"
           id="feMergeNode28" />
      </feMerge>
    </filter>
    <path
       id="512px-a"
       d="m 120,93 h 148 c 22.09139,0 40,17.90861 40,40 v 125 c 0,22.09139 -17.90861,40 -40,40 H 120 C 97.90861,298 80,280.09139 80,258 V 133 c 0,-22.09139 17.90861,-40 40,-40 z" />
    <mask
       id="512px-e"
       width="228"
       height="205"
       x="0"
       y="0"
       fill="#ffffff"
       maskContentUnits="userSpaceOnUse"
       maskUnits="objectBoundingBox">
      <use
         xlink:href="#512px-a"
         id="use34"
         x="0"
         y="0"
         width="100%"
         height="100%" />
    </mask>
    <linearGradient
       id="512px-f"
       x1="137.23421"
       x2="137.23421"
       y1="256.61969"
       y2="375.05954"
       gradientTransform="scale(1.4099983,0.70922071)"
       gradientUnits="userSpaceOnUse">
      <stop
         offset="0%"
         stop-color="#C3FFBF"
         stop-opacity=".305"
         id="stop37" />
      <stop
         offset="100%"
         stop-color="#83E991"
         stop-opacity=".779"
         id="stop39" />
    </linearGradient>
    <linearGradient
       id="512px-g"
       x1="238.15298"
       x2="158.55733"
       y1="62.434433"
       y2="152.94305"
       gradientTransform="scale(1.1447029,0.87358909)"
       gradientUnits="userSpaceOnUse">
      <stop
         offset="0%"
         stop-color="#FFF"
         id="stop42" />
      <stop
         offset="100%"
         stop-color="#D6DDF6"
         id="stop44" />
    </linearGradient>
    <linearGradient
       id="512px-h"
       x1="214.45673"
       x2="169.47627"
       y1="55.688267"
       y2="157.58989"
       gradientTransform="scale(1.1447029,0.87358909)"
       gradientUnits="userSpaceOnUse">
      <stop
         offset="0%"
         stop-color="#FFF"
         id="stop47" />
      <stop
         offset="100%"
         stop-color="#D7FFC6"
         id="stop49" />
    </linearGradient>
    <radialGradient
       id="512px-i"
       cx="246.6918"
       cy="46.828716"
       r="55.777489"
       fx="246.6918"
       fy="46.828716"
       gradientTransform="scale(1.067822,0.93648564)"
       gradientUnits="userSpaceOnUse">
      <stop
         offset="0%"
         id="stop52" />
      <stop
         offset="100%"
         stop-opacity=".148"
         id="stop54" />
    </radialGradient>
    <linearGradient
       id="512px-l"
       x1="295.31268"
       x2="284.08682"
       y1="58.23246"
       y2="46.202881"
       gradientTransform="scale(0.93541435,1.069045)"
       gradientUnits="userSpaceOnUse">
      <stop
         offset="0%"
         stop-color="#C6C6C6"
         id="stop57" />
      <stop
         offset="53.052%"
         stop-color="#E7E7E7"
         id="stop59" />
      <stop
         offset="100%"
         stop-color="#F4F4F4"
         id="stop61" />
    </linearGradient>
    <path
       id="512px-k"
       d="m 302,-6 c 0,0 -5.75507,23.58964 -10.7561,31.659575 -7.91803,12.776978 -16.90244,9.702127 -24.07317,20.425531 -7.17073,10.723405 -4.47541,18.522578 -21,32.680851 C 237.31515,86.353421 218,90 218,90 c 51.4382,0 84,-59.05036 84,-96 z" />
    <filter
       id="512px-j"
       width="1.1900001"
       height="1.1669999"
       x="-0.094999999"
       y="-0.041999999"
       filterUnits="objectBoundingBox">
      <feOffset
         dy="4"
         in="SourceAlpha"
         result="shadowOffsetOuter1"
         id="feOffset65" />
      <feGaussianBlur
         in="shadowOffsetOuter1"
         result="shadowBlurOuter1"
         stdDeviation="2"
         id="feGaussianBlur67" />
      <feColorMatrix
         in="shadowBlurOuter1"
         values="0 0 0 0 0   0 0 0 0 0   0 0 0 0 0  0 0 0 0.05 0"
         id="feColorMatrix69" />
    </filter>
    <linearGradient
       id="512px-m"
       x1="217.34033"
       x2="171.96262"
       y1="79.137032"
       y2="165.55005"
       gradientTransform="scale(1.1281521,0.88640526)"
       gradientUnits="userSpaceOnUse">
      <stop
         offset="0%"
         stop-opacity=".035"
         id="stop72" />
      <stop
         offset="100%"
         stop-opacity=".08"
         id="stop74" />
    </linearGradient>
    <radialGradient
       id="512px-n"
       cx="136.76053"
       cy="245.2878"
       r="278.88882"
       fx="136.76053"
       fy="245.2878"
       gradientTransform="matrix(0.66810664,0,0,0.2820305,102.43539,103.91036)"
       gradientUnits="userSpaceOnUse">
      <stop
         offset="0%"
         stop-color="#EBFF26"
         id="stop77" />
      <stop
         offset="100%"
         stop-color="#F2FF3D"
         stop-opacity="0"
         id="stop79" />
    </radialGradient>
    <filter
       id="512px-o"
       width="1.077"
       height="1.169"
       x="-0.039000001"
       y="-0.083999999"
       filterUnits="objectBoundingBox">
      <feGaussianBlur
         in="SourceGraphic"
         stdDeviation="5"
         id="feGaussianBlur82" />
    </filter>
    <radialGradient
       id="512px-p"
       cx="59.641102"
       cy="564.35913"
       r="525.0658"
       fx="59.641102"
       fy="564.35913"
       gradientTransform="matrix(0.27308229,0,0,0.02948244,177.71308,156.86132)"
       gradientUnits="userSpaceOnUse">
      <stop
         offset="0%"
         stop-color="#F7FF81"
         stop-opacity=".995"
         id="stop85" />
      <stop
         offset="100%"
         stop-color="#F8FF98"
         stop-opacity="0"
         id="stop87" />
    </radialGradient>
    <radialGradient
       id="512px-q"
       cx="33.724644"
       cy="998.05353"
       r="1030.48"
       fx="33.724644"
       fy="998.05353"
       gradientTransform="matrix(0.15946901,0,0,0.00738476,188.62196,166.12962)"
       gradientUnits="userSpaceOnUse">
      <stop
         offset="0%"
         stop-color="#FFF"
         stop-opacity=".995"
         id="stop90" />
      <stop
         offset="100%"
         stop-color="#FFF"
         stop-opacity="0"
         id="stop92" />
    </radialGradient>
    <linearGradient
       id="512px-r"
       x1="11.326558"
       x2="40.757889"
       y1="1290.4185"
       y2="1290.4185"
       gradientTransform="scale(7.4161985,0.13483997)"
       gradientUnits="userSpaceOnUse">
      <stop
         offset="0%"
         stop-color="#FFF"
         stop-opacity="0"
         id="stop95" />
      <stop
         offset="49.798%"
         stop-color="#FFF"
         stop-opacity=".892"
         id="stop97" />
      <stop
         offset="100%"
         stop-color="#FFF"
         stop-opacity="0"
         id="stop99" />
    </linearGradient>
  </defs>
  <g
     id="g995"
     transform="matrix(0.12165769,0,0,0.12165769,1.0528164,-0.22941836)">
    <circle
       cx="256"
       cy="255"
       r="236"
       fill="url(#512px-c)"
       id="circle104"
       style="fill:url(#512px-c);fill-rule:evenodd;filter:url(#512px-b)" />
    <g
       filter="url(#512px-d)"
       transform="translate(62,106)"
       id="g132"
       style="fill:none;fill-rule:evenodd">
      <use
         fill="#0ea141"
         stroke="#96ff8f"
         stroke-dasharray="6, 6"
         stroke-opacity="0.703"
         stroke-width="8"
         mask="url(#512px-e)"
         xlink:href="#512px-a"
         id="use106"
         x="0"
         y="0"
         width="100%"
         height="100%" />
      <path
         fill="url(#512px-f)"
         d="m 249,254 c 2.20914,0 4,1.79086 4,4 v 4 c 0,2.20914 -1.79086,4 -4,4 h -73 c -2.20914,0 -4,-1.79086 -4,-4 v -4 c 0,-2.20914 1.79086,-4 4,-4 z m -93,0 c 2.20914,0 4,1.79086 4,4 v 4 c 0,2.20914 -1.79086,4 -4,4 h -42 c -2.20914,0 -4,-1.79086 -4,-4 v -4 c 0,-2.20914 1.79086,-4 4,-4 z m 70,-24 c 2.20914,0 4,1.79086 4,4 v 4 c 0,2.20914 -1.79086,4 -4,4 H 114 c -2.20914,0 -4,-1.79086 -4,-4 v -4 c 0,-2.20914 1.79086,-4 4,-4 z m -95,-24 c 2.20914,0 4,1.79086 4,4 v 4 c 0,2.20914 -1.79086,4 -4,4 h -17 c -2.20914,0 -4,-1.79086 -4,-4 v -4 c 0,-2.20914 1.79086,-4 4,-4 z m 71,0 c 2.20914,0 4,1.79086 4,4 v 4 c 0,2.20914 -1.79086,4 -4,4 h -53 c -2.20914,0 -4,-1.79086 -4,-4 v -4 c 0,-2.20914 1.79086,-4 4,-4 z m 71,0 c 2.20914,0 4,1.79086 4,4 v 4 c 0,2.20914 -1.79086,4 -4,4 h -53 c -2.20914,0 -4,-1.79086 -4,-4 v -4 c 0,-2.20914 1.79086,-4 4,-4 z m -34,-24 c 2.20914,0 4,1.79086 4,4 v 4 c 0,2.20914 -1.79086,4 -4,4 H 114 c -2.20914,0 -4,-1.79086 -4,-4 v -4 c 0,-2.20914 1.79086,-4 4,-4 z"
         opacity="0.359"
         id="path108"
         style="fill:url(#512px-f)" />
      <path
         fill="url(#512px-g)"
         d="m 120,0 h 111.5 v 0 c 13.53544,4.9685088 28.70211,14.801842 45.5,29.5 16,14 26.33333,31.5 31,52.5 v 92 H 80 V 40 C 80,17.90861 97.90861,0 120,0 Z"
         id="path110"
         style="fill:url(#512px-g)" />
      <path
         fill="url(#512px-h)"
         d="m 120,0 h 148 c 22.09139,0 40,17.90861 40,40 v 134 0 H 80 V 40 C 80,17.90861 97.90861,0 120,0 Z"
         id="path112"
         style="fill:url(#512px-h)" />
      <path
         fill="url(#512px-i)"
         fill-opacity="0.28"
         d="M 214.5,0 H 268 c 22.09139,0 40,17.90861 40,40 v 42 0 C 304.33333,60.333333 292,41.666667 271,26 252.67952,12.332339 233.84618,3.665672 214.5,0 Z"
         id="path114"
         style="fill:url(#512px-i)" />
      <g
         transform="rotate(-90,260,42)"
         id="g120">
        <use
           fill="#000000"
           filter="url(#512px-j)"
           xlink:href="#512px-k"
           id="use116"
           x="0"
           y="0"
           width="100%"
           height="100%" />
        <use
           fill="url(#512px-l)"
           xlink:href="#512px-k"
           id="use118"
           style="fill:url(#512px-l)"
           x="0"
           y="0"
           width="100%"
           height="100%" />
      </g>
      <path
         fill="url(#512px-m)"
         d="m 156,136 c 2.20914,0 4,1.79086 4,4 v 28 c 0,2.20914 -1.79086,4 -4,4 h -42 c -2.20914,0 -4,-1.79086 -4,-4 v -28 c 0,-2.20914 1.79086,-4 4,-4 z m 118,24 c 2.20914,0 4,1.79086 4,4 v 4 c 0,2.20914 -1.79086,4 -4,4 h -98 c -2.20914,0 -4,-1.79086 -4,-4 v -4 c 0,-2.20914 1.79086,-4 4,-4 z m -21,-24 c 2.20914,0 4,1.79086 4,4 v 4 c 0,2.20914 -1.79086,4 -4,4 h -77 c -2.20914,0 -4,-1.79086 -4,-4 v -4 c 0,-2.20914 1.79086,-4 4,-4 z M 130,112 c 2.20914,0 4,1.79086 4,4 v 4 c 0,2.20914 -1.79086,4 -4,4 h -16 c -2.20914,0 -4,-1.79086 -4,-4 v -4 c 0,-2.20914 1.79086,-4 4,-4 z m 144,0 c 2.20914,0 4,1.79086 4,4 v 4 c 0,2.20914 -1.79086,4 -4,4 H 151 c -2.20914,0 -4,-1.79086 -4,-4 v -4 c 0,-2.20914 1.79086,-4 4,-4 z m -1,-48 c 2.20914,0 4,1.790861 4,4 v 28 c 0,2.209139 -1.79086,4 -4,4 h -77 c -2.20914,0 -4,-1.790861 -4,-4 V 68 c 0,-2.209139 1.79086,-4 4,-4 z m -97,24 c 2.20914,0 4,1.790861 4,4 v 4 c 0,2.209139 -1.79086,4 -4,4 h -62 c -2.20914,0 -4,-1.790861 -4,-4 v -4 c 0,-2.209139 1.79086,-4 4,-4 z m 0,-24 c 2.20914,0 4,1.790861 4,4 v 4 c 0,2.209139 -1.79086,4 -4,4 h -62 c -2.20914,0 -4,-1.790861 -4,-4 v -4 c 0,-2.209139 1.79086,-4 4,-4 z m 77,-24 c 2.20914,0 4,1.790861 4,4 v 4 c 0,2.209139 -1.79086,4 -4,4 h -57 c -2.20914,0 -4,-1.790861 -4,-4 v -4 c 0,-2.209139 1.79086,-4 4,-4 z m -77,0 c 2.20914,0 4,1.790861 4,4 v 4 c 0,2.209139 -1.79086,4 -4,4 h -62 c -2.20914,0 -4,-1.790861 -4,-4 v -4 c 0,-2.209139 1.79086,-4 4,-4 z"
         id="path122"
         style="fill:url(#512px-m)" />
      <polygon
         fill="url(#512px-n)"
         points="0,163.266 194,84 388,154.922 388,193.859 196.5,262 0,202.203 "
         filter="url(#512px-o)"
         opacity="0.799"
         id="polygon124"
         style="fill:url(#512px-n)" />
      <rect
         width="328"
         height="31"
         x="30"
         y="158"
         fill="url(#512px-p)"
         id="rect126"
         style="fill:url(#512px-p)" />
      <rect
         width="364"
         height="11"
         x="12"
         y="168"
         fill="url(#512px-q)"
         opacity="0.953"
         id="rect128"
         style="fill:url(#512px-q)"
         rx="0"
         ry="0" />
      <rect
         width="220"
         height="4"
         x="84"
         y="172"
         fill="url(#512px-r)"
         opacity="0.953"
         id="rect130"
         style="fill:url(#512px-r)" />
    </g>
  </g>
</svg>
