<?xml version="1.0" encoding="UTF-8" standalone="no"?>
<svg
   width="64"
   height="64"
   version="1.1"
   viewBox="0 0 16.933 16.933"
   id="svg102"
   sodipodi:docname="bookmark-missing-drag-accept.svg"
   inkscape:version="1.1.2 (0a00cf5339, 2022-02-04)"
   xmlns:inkscape="http://www.inkscape.org/namespaces/inkscape"
   xmlns:sodipodi="http://sodipodi.sourceforge.net/DTD/sodipodi-0.dtd"
   xmlns="http://www.w3.org/2000/svg"
   xmlns:svg="http://www.w3.org/2000/svg"
   xmlns:rdf="http://www.w3.org/1999/02/22-rdf-syntax-ns#"
   xmlns:cc="http://creativecommons.org/ns#"
   xmlns:dc="http://purl.org/dc/elements/1.1/">
  <sodipodi:namedview
     id="namedview104"
     pagecolor="#ffffff"
     bordercolor="#666666"
     borderopacity="1.0"
     inkscape:pageshadow="2"
     inkscape:pageopacity="0.0"
     inkscape:pagecheckerboard="0"
     showgrid="false"
     inkscape:zoom="10.125"
     inkscape:cx="41.679012"
     inkscape:cy="32.691358"
     inkscape:window-width="1920"
     inkscape:window-height="1006"
     inkscape:window-x="0"
     inkscape:window-y="0"
     inkscape:window-maximized="1"
     inkscape:current-layer="svg102" />
  <defs
     id="defs34">
    <style
       type="text/css"
       id="style2" />
    <linearGradient
       id="linearGradient1033"
       x1="2.2417"
       x2="-2.9966"
       y1="10.848"
       y2="16.086"
       gradientUnits="userSpaceOnUse">
      <stop
         stop-color="#bf910d"
         offset="0"
         id="stop4" />
      <stop
         stop-color="#a87704"
         offset="1"
         id="stop6" />
    </linearGradient>
    <linearGradient
       id="linearGradient1035"
       x1="34.982"
       x2="34.982"
       y1="23"
       y2="51"
       gradientUnits="userSpaceOnUse">
      <stop
         stop-color="#bf910d"
         offset="0"
         id="stop9" />
      <stop
         stop-color="#a57001"
         offset="1"
         id="stop11" />
    </linearGradient>
    <linearGradient
       id="linearGradient1911"
       x1="25.085"
       x2="25.085"
       y1="24.031"
       y2="26.412"
       gradientTransform="translate(-29.829 -21.105)"
       gradientUnits="userSpaceOnUse">
      <stop
         stop-color="#fcbc19"
         stop-opacity=".99608"
         offset="0"
         id="stop14" />
      <stop
         stop-color="#f4b61f"
         offset="1"
         id="stop16" />
    </linearGradient>
    <linearGradient
       id="linearGradient4625"
       x1=".52918"
       x2="16.404"
       y1="5.0665"
       y2="5.0665"
       gradientTransform="translate(-11.932 .28008)"
       gradientUnits="userSpaceOnUse">
      <stop
         stop-color="#b78815"
         offset="0"
         id="stop19" />
      <stop
         stop-color="#e2b24b"
         stop-opacity="0"
         offset="1"
         id="stop21" />
    </linearGradient>
    <linearGradient
       id="linearGradient1951"
       x1="100"
       x2="133.19"
       y1="17.453"
       y2="51.606"
       gradientTransform="matrix(.26458 0 0 .26458 -32.04 .14469)"
       gradientUnits="userSpaceOnUse">
      <stop
         stop-color="#fce798"
         offset="0"
         id="stop24" />
      <stop
         stop-color="#ffc937"
         offset="1"
         id="stop26" />
    </linearGradient>
    <linearGradient
       id="linearGradient11110"
       x1=".52917"
       x2="16.404"
       y1="5.3815"
       y2="5.3815"
       gradientTransform="translate(-11.932 .28008)"
       gradientUnits="userSpaceOnUse">
      <stop
         stop-color="#fff"
         offset="0"
         id="stop29" />
      <stop
         stop-color="#fff"
         stop-opacity="0"
         offset="1"
         id="stop31" />
    </linearGradient>
  </defs>
  <metadata
     id="metadata36">
    <rdf:RDF>
      <cc:Work
         rdf:about="">
        <dc:format>image/svg+xml</dc:format>
        <dc:type
           rdf:resource="http://purl.org/dc/dcmitype/StillImage" />
      </cc:Work>
    </rdf:RDF>
  </metadata>
  <g
     transform="translate(11.932 -.26458)"
     id="g48">
    <path
       d="m-10.735 2.529c-0.3653 0-0.66145 0.32575-0.66145 0.72759v2.9636c-0.0026 0.02629-0.0072 0.052-0.0072 0.07906v7.9373c0 0.40184 0.29614 0.72759 0.66144 0.72759h14.552c0.36531 0 0.66144-0.32575 0.66144-0.72759v-9.393c0-0.40184-0.29614-0.72759-0.66144-0.72759v5.16e-4h-8.1993l-0.89864-1.1095s-0.36607-0.478-1.0583-0.478h-1.3229z"
       color="#000000"
       color-rendering="auto"
       dominant-baseline="auto"
       fill="url(#linearGradient1911)"
       image-rendering="auto"
       shape-rendering="auto"
       solid-color="#000000"
       stop-color="#000000"
       style="font-feature-settings:normal;font-variant-alternates:normal;font-variant-caps:normal;font-variant-east-asian:normal;font-variant-ligatures:normal;font-variant-numeric:normal;font-variant-position:normal;font-variation-settings:normal;inline-size:0;isolation:auto;mix-blend-mode:normal;shape-margin:0;shape-padding:0;text-decoration-color:#000000;text-decoration-line:none;text-decoration-style:solid;text-indent:0;text-orientation:mixed;text-transform:none;white-space:normal"
       id="path38" />
    <path
       d="m-3.5718 4.1165c-0.11312 0.0018-0.30848-0.01542-0.51986 0.09508-0.73647 0.37946-0.77226 0.59366-1.557 0.71415h-4.9608c-0.21986 0-0.41824 0.08855-0.56171 0.23202-0.13937 0.13936-0.22041 0.33333-0.2253 0.54569v0.2775c0.0049-0.21236 0.08593-0.40633 0.2253-0.54569 0.14347-0.14347 0.34185-0.23202 0.56171-0.23202h4.9608c0.78472-0.1205 0.82051-0.33469 1.557-0.71415 0.21138-0.1105 0.40673-0.09328 0.51986-0.09508h7.3828c0.18216 3.65e-4 0.3472 0.08101 0.46663 0.21239 0.1197 0.13167 0.19378 0.31377 0.19378 0.51469v-0.2775c0-0.20092-0.07408-0.38302-0.19378-0.51469-0.11943-0.13137-0.28447-0.21202-0.46663-0.21239h-1.1652zm-7.8247 2.1037c-0.0026 0.02629-0.0067 0.05201-0.0067 0.07906v0.2775c0-0.02705 0.0041-0.05277 0.0067-0.07906z"
       fill="url(#linearGradient4625)"
       opacity=".001"
       stroke-width=".26458"
       id="path40" />
    <path
       d="m-11.403 13.954v0.28215c0 0.20092 0.07357 0.3825 0.19327 0.51417s0.28553 0.21342 0.46818 0.21342h14.552c0.18265 0 0.34796-0.08175 0.46766-0.21342s0.19378-0.31325 0.19378-0.51417v-0.28215c0 0.20092-0.07409 0.3825-0.19378 0.51417-0.1197 0.13167-0.28501 0.21342-0.46766 0.21342h-14.552c-0.18265 0-0.34848-0.08176-0.46818-0.21342s-0.19327-0.31325-0.19327-0.51417z"
       fill="#e4a729"
       fill-opacity=".99608"
       stroke-width=".26458"
       id="path42" />
    <path
       d="m-4.3904 4.3779s-0.35919 0.47868-1.1575 0.79218c-0.03271 0.00587-0.06509 0.011575-0.10077 0.017052h-4.9608c-0.21986 0-0.41824 0.088552-0.56171 0.23202-0.13937 0.13936-0.22042 0.33333-0.2253 0.54569v0.51675c-0.0026 0.026291-0.0067 0.052014-0.0067 0.079064v7.3953c0 0.20092 0.07357 0.3825 0.19327 0.51417s0.28553 0.21342 0.46818 0.21342h14.552c0.18265 0 0.34796-0.08175 0.46766-0.21342s0.19378-0.31325 0.19378-0.51417v-8.851c0-0.20092-0.07408-0.38302-0.19378-0.51469-0.11945-0.13137-0.28449-0.21202-0.46665-0.21239h-7.4821z"
       fill="url(#linearGradient1951)"
       id="path44" />
    <path
       d="m-4.3903 4.3779s-0.35919 0.47868-1.1575 0.79218c-0.03271 0.00587-0.06509 0.011575-0.10077 0.017052h-4.9608c-0.21986 0-0.41824 0.088552-0.56171 0.23202-0.13937 0.13936-0.22041 0.33333-0.2253 0.54569v0.38446c0.0049-0.21236 0.08593-0.40633 0.2253-0.54569 0.14347-0.14347 0.34185-0.23202 0.56171-0.23202h4.9608c0.03568-0.00548 0.06806-0.011184 0.10077-0.017052 0.75911-0.26303 1.2883-0.79218 1.2883-0.79218h8.0707c0.18216 3.704e-4 0.34718 0.081016 0.46663 0.21239 0.1197 0.13167 0.19378 0.31377 0.19378 0.51469v-0.38446c0-0.20092-0.07408-0.38302-0.19378-0.51469-0.11945-0.13137-0.28447-0.21202-0.46663-0.21239h-7.4821zm-7.0062 2.1037c-0.0026 0.026291-0.0067 0.052013-0.0067 0.079063v0.38447c0-0.02705 0.0041-0.052773 0.0067-0.079063z"
       fill="url(#linearGradient11110)"
       opacity=".3"
       id="path46" />
  </g>
  <g
     fill="#5e4aa6"
     stroke-width=".26458"
     id="g94">
    <circle
       cx="-330.35"
       cy="-328.38"
       r="0"
       id="circle50" />
    <circle
       cx="-312.11"
       cy="-326.25"
       r="0"
       id="circle52" />
    <circle
       cx="-306.02"
       cy="-333.07"
       r="0"
       id="circle54" />
    <circle
       cx="-308.84"
       cy="-326.01"
       r="0"
       id="circle56" />
    <circle
       cx="-328.8"
       cy="-330.45"
       r="0"
       id="circle58" />
    <g
       transform="translate(.000295 -.00032978)"
       id="g70">
      <circle
         cx="-330.35"
         cy="-328.38"
         r="0"
         id="circle60" />
      <circle
         cx="-312.11"
         cy="-326.25"
         r="0"
         id="circle62" />
      <circle
         cx="-306.02"
         cy="-333.07"
         r="0"
         id="circle64" />
      <circle
         cx="-308.84"
         cy="-326.01"
         r="0"
         id="circle66" />
      <circle
         cx="-328.8"
         cy="-330.45"
         r="0"
         id="circle68" />
    </g>
    <g
       transform="translate(-27.749 -1.392)"
       id="g80">
      <circle
         cx="-330.35"
         cy="-328.38"
         r="0"
         id="circle72" />
      <circle
         cx="-330.35"
         cy="-328.37"
         r="0"
         id="circle74" />
      <circle
         cx="-330.35"
         cy="-328.37"
         r="0"
         id="circle76" />
      <circle
         cx="-352.63"
         cy="-336.83"
         r="0"
         id="circle78" />
    </g>
    <g
       transform="translate(-50.449 -9.4932)"
       id="g90">
      <circle
         cx="-330.35"
         cy="-328.38"
         r="0"
         id="circle82" />
      <circle
         cx="-312.11"
         cy="-326.25"
         r="0"
         id="circle84" />
      <circle
         cx="-306.02"
         cy="-333.07"
         r="0"
         id="circle86" />
      <circle
         cx="-308.84"
         cy="-326.01"
         r="0"
         id="circle88" />
    </g>
    <circle
       cx="-358.13"
       cy="-329.9"
       r="0"
       id="circle92" />
  </g>
  <path
     id="rect943"
     style="opacity:1;fill:#755303;fill-rule:evenodd;stroke-width:1.05831;stroke-linecap:square;fill-opacity:0.58882236"
     d="m 10.032595,3.8519199 h 4.261157 V 11.732897 L 12.163174,9.1720421 10.032595,11.732897 Z"
     sodipodi:nodetypes="cccccc" />
</svg>
