<?xml version="1.0" encoding="UTF-8" standalone="no"?>
<!-- Created with Inkscape (http://www.inkscape.org/) -->

<svg
   width="32"
   height="32"
   viewBox="0 0 32 32"
   version="1.1"
   id="svg5"
   inkscape:version="1.1.2 (0a00cf5339, 2022-02-04)"
   sodipodi:docname="weather-storm.svg"
   xmlns:inkscape="http://www.inkscape.org/namespaces/inkscape"
   xmlns:sodipodi="http://sodipodi.sourceforge.net/DTD/sodipodi-0.dtd"
   xmlns:xlink="http://www.w3.org/1999/xlink"
   xmlns="http://www.w3.org/2000/svg"
   xmlns:svg="http://www.w3.org/2000/svg">
  <sodipodi:namedview
     id="namedview7"
     pagecolor="#ffffff"
     bordercolor="#666666"
     borderopacity="1.0"
     inkscape:pageshadow="2"
     inkscape:pageopacity="0.0"
     inkscape:pagecheckerboard="0"
     inkscape:document-units="px"
     showgrid="false"
     units="px"
     height="48px"
     inkscape:zoom="24.75"
     inkscape:cx="13.454545"
     inkscape:cy="13.878788"
     inkscape:window-width="1920"
     inkscape:window-height="995"
     inkscape:window-x="0"
     inkscape:window-y="0"
     inkscape:window-maximized="1"
     inkscape:current-layer="svg5"
     inkscape:lockguides="true"
     inkscape:showpageshadow="2"
     inkscape:deskcolor="#d1d1d1" />
  <defs
     id="defs2">
    <linearGradient
       inkscape:collect="always"
       id="linearGradient1468">
      <stop
         style="stop-color:#d6eeff;stop-opacity:1"
         offset="0"
         id="stop1464" />
      <stop
         style="stop-color:#ebf6ff;stop-opacity:1"
         offset="0.46016201"
         id="stop4677" />
      <stop
         style="stop-color:#e4f1f5;stop-opacity:1"
         offset="0.59705883"
         id="stop4225" />
      <stop
         style="stop-color:#d9e8f1;stop-opacity:1;"
         offset="0.73483342"
         id="stop4611" />
      <stop
         style="stop-color:#bdd8f0;stop-opacity:1"
         offset="1"
         id="stop1466" />
    </linearGradient>
    <linearGradient
       inkscape:collect="always"
       xlink:href="#linearGradient1468"
       id="linearGradient7441"
       x1="1.0583333"
       y1="1.5875"
       x2="7.9375"
       y2="6.3499999"
       gradientUnits="userSpaceOnUse"
       gradientTransform="matrix(3.7795276,0,0,3.7795276,-0.99999998,2e-7)" />
    <linearGradient
       inkscape:collect="always"
       xlink:href="#linearGradient1468"
       id="linearGradient1141"
       x1="8.1438713"
       y1="3.4821353"
       x2="6.6347365"
       y2="5.5634847"
       gradientUnits="userSpaceOnUse"
       gradientTransform="matrix(3.7795276,0,0,3.7795276,-0.99999808,-8.9999996)" />
    <linearGradient
       inkscape:collect="always"
       xlink:href="#linearGradient6166"
       id="linearGradient6168"
       x1="11.1125"
       y1="11.524107"
       x2="11.1125"
       y2="8.4666662"
       gradientUnits="userSpaceOnUse"
       gradientTransform="scale(1.8897637)" />
    <linearGradient
       inkscape:collect="always"
       id="linearGradient6166">
      <stop
         style="stop-color:#ffd934;stop-opacity:1;"
         offset="0"
         id="stop6162" />
      <stop
         style="stop-color:#ffa934;stop-opacity:1;"
         offset="1"
         id="stop6164" />
    </linearGradient>
  </defs>
  <path
     d="M 21.5,6.0000003 C 19.036473,6.0019503 16.874731,7.6418059 16.208985,10.013672 14.395709,10.164965 13.000807,11.680424 13,13.5 c 0,1.932996 1.567004,3.5 3.5,3.5 h 9 c 2.485282,-1e-6 4.5,-2.014719 4.5,-4.5 C 29.999484,10.111467 28.132949,8.1394722 25.748047,8.0078127 24.703549,6.7369337 23.145025,6.0003072 21.5,6.0000003 Z"
     style="opacity:0.2;fill:#000000;fill-opacity:1;stroke-width:1.75;stroke-linecap:round;stroke-linejoin:round"
     id="path4269" />
  <path
     id="path379"
     style="fill:url(#linearGradient1141);fill-opacity:1;stroke-width:1.75;stroke-linecap:round;stroke-linejoin:round"
     d="M 21.5,5 C 19.036473,5.00195 16.874731,6.6418056 16.208985,9.013672 14.395709,9.164965 13.000807,10.680424 13,12.5 c 0,1.932996 1.567004,3.499999 3.5,3.499999 h 9 C 27.985282,15.999999 30,13.985281 30,11.5 29.999484,9.1114665 28.132949,7.1394719 25.748047,7.0078124 24.703549,5.7369334 23.145025,5.0003069 21.5,5 Z"
     sodipodi:nodetypes="cccccccc" />
  <path
     d="M 16,7.0000001 C 12.106296,7.0026624 8.6558605,9.5089178 7.4492188,13.210938 4.8276012,13.912362 3.0031957,16.286171 3.0000001,19 c 0,3.313708 2.6862916,6 6,6 H 23.5 C 27.089851,25 30,22.08985 30,18.499999 29.99909,15.134112 27.42881,12.325702 24.076172,12.027344 22.562095,8.949471 19.430121,6.9998456 16,7.0000001 Z"
     style="opacity:0.2;fill:#000000;fill-opacity:1;stroke-width:2.4;stroke-linecap:round;stroke-linejoin:round"
     id="path4304" />
  <path
     id="path5944"
     style="opacity:1;fill:url(#linearGradient7441);fill-opacity:1;stroke-width:2.4;stroke-linecap:round;stroke-linejoin:round"
     d="M 16,6.0000003 C 12.106296,6.0026626 8.6558605,8.508918 7.4492188,12.210938 4.8276012,12.912362 3.0031956,15.286171 3,18 c 0,3.313708 2.6862917,6 6.0000001,6 H 23.5 C 27.089851,24 30,21.08985 30,17.499999 29.99909,14.134112 27.42881,11.325702 24.076172,11.027344 22.562095,7.9494712 19.430121,5.9998457 16,6.0000003 Z"
     sodipodi:nodetypes="cccccccc" />
  <path
     d="m 15,17 h 4.5 L 18,21.000002 h 3 l -6,7.999996 2,-5.999997 h -4 z"
     style="opacity:0.2;fill:#000000;fill-opacity:1;stroke-width:0.925818;stroke-linecap:round;stroke-linejoin:round"
     id="path7630"
     sodipodi:nodetypes="cccccccc" />
  <path
     id="rect380"
     style="fill:url(#linearGradient6168);fill-opacity:1;stroke-width:0.925818;stroke-linecap:round;stroke-linejoin:round"
     d="m 15,15.999999 h 4.5 L 18,20 h 3 l -6,7.999999 2,-6 h -4 z"
     sodipodi:nodetypes="cccccccc" />
  <path
     id="path8322"
     style="fill:#ff9e16;fill-opacity:1;stroke-width:0.925818;stroke-linecap:round;stroke-linejoin:round"
     d="M 15,15.999999 13,22 h 1 l 2,-6.000001 z M 17,22 15,28 16.800781,25.599609 18,22 Z" />
</svg>
