<?xml version="1.0" encoding="UTF-8" standalone="no"?>
<!-- Created with Inkscape (http://www.inkscape.org/) -->

<svg
   width="32"
   height="32"
   viewBox="0 0 32 32"
   version="1.1"
   id="svg5"
   inkscape:version="1.1.2 (0a00cf5339, 2022-02-04)"
   sodipodi:docname="weather-snow.svg"
   xmlns:inkscape="http://www.inkscape.org/namespaces/inkscape"
   xmlns:sodipodi="http://sodipodi.sourceforge.net/DTD/sodipodi-0.dtd"
   xmlns:xlink="http://www.w3.org/1999/xlink"
   xmlns="http://www.w3.org/2000/svg"
   xmlns:svg="http://www.w3.org/2000/svg">
  <sodipodi:namedview
     id="namedview7"
     pagecolor="#ffffff"
     bordercolor="#666666"
     borderopacity="1.0"
     inkscape:pageshadow="2"
     inkscape:pageopacity="0.0"
     inkscape:pagecheckerboard="0"
     inkscape:document-units="px"
     showgrid="false"
     units="px"
     height="48px"
     inkscape:zoom="24.75"
     inkscape:cx="4.4040404"
     inkscape:cy="19.616162"
     inkscape:window-width="1920"
     inkscape:window-height="995"
     inkscape:window-x="0"
     inkscape:window-y="0"
     inkscape:window-maximized="1"
     inkscape:current-layer="svg5"
     inkscape:lockguides="true"
     inkscape:showpageshadow="2"
     inkscape:deskcolor="#d1d1d1" />
  <defs
     id="defs2">
    <linearGradient
       inkscape:collect="always"
       id="linearGradient1468">
      <stop
         style="stop-color:#d6eeff;stop-opacity:1"
         offset="0"
         id="stop1464" />
      <stop
         style="stop-color:#ebf6ff;stop-opacity:1"
         offset="0.46016201"
         id="stop4677" />
      <stop
         style="stop-color:#e4f1f5;stop-opacity:1"
         offset="0.59705883"
         id="stop4225" />
      <stop
         style="stop-color:#d9e8f1;stop-opacity:1;"
         offset="0.73483342"
         id="stop4611" />
      <stop
         style="stop-color:#bdd8f0;stop-opacity:1"
         offset="1"
         id="stop1466" />
    </linearGradient>
    <linearGradient
       inkscape:collect="always"
       xlink:href="#linearGradient1468"
       id="linearGradient7441"
       x1="1.0583333"
       y1="1.5875"
       x2="7.9375"
       y2="6.3499999"
       gradientUnits="userSpaceOnUse"
       gradientTransform="matrix(3.7795276,0,0,3.7795276,-0.99999998,-0.99999999)" />
  </defs>
  <path
     id="path5944"
     style="opacity:1;fill:url(#linearGradient7441);fill-opacity:1;stroke-width:2.4;stroke-linecap:round;stroke-linejoin:round"
     d="M 16,5 C 12.106296,5.0027 8.6558606,7.508918 7.4492188,11.210937 4.8276012,11.912362 3.0031956,14.286171 3,16.999999 3,20.313708 5.6862918,23 9.0000001,23 H 23.5 C 27.089851,23 30,20.08985 30,16.499999 29.99909,13.134112 27.42881,10.325702 24.076172,10.027344 22.562095,6.949471 19.430121,4.999845 16,5 Z"
     sodipodi:nodetypes="cccccccc" />
  <path
     id="rect850"
     style="fill:#3e98ea;fill-opacity:1;stroke-width:1.58841;stroke-linecap:round;stroke-linejoin:round"
     d="m 16.500001,18.166451 c -0.454921,0 -0.82093,0.366009 -0.82093,0.82093 v 1.594131 l -1.126393,-1.126393 c -0.321679,-0.321677 -0.838125,-0.321677 -1.159803,0 -0.321677,0.321677 -0.321677,0.838124 0,1.159802 l 1.126393,1.126393 h -1.594131 c -0.454921,0 -0.82093,0.366009 -0.82093,0.82093 0,0.454921 0.366009,0.82093 0.82093,0.82093 h 1.594131 l -1.126393,1.126393 c -0.321677,0.321679 -0.321677,0.838125 0,1.159803 0.321678,0.321677 0.838124,0.321677 1.159803,0 l 1.126393,-1.126393 v 1.594131 c 0,0.454921 0.366008,0.82093 0.82093,0.82093 0.45492,0 0.82093,-0.366009 0.82093,-0.82093 v -1.594131 l 1.126393,1.126393 c 0.321678,0.321677 0.838125,0.321677 1.159802,0 0.321677,-0.321678 0.321677,-0.838124 0,-1.159803 l -1.126393,-1.126393 h 1.594131 c 0.454921,0 0.82093,-0.366009 0.82093,-0.82093 0,-0.454921 -0.366009,-0.82093 -0.82093,-0.82093 h -1.594131 l 1.126393,-1.126393 c 0.321677,-0.321678 0.321677,-0.838125 0,-1.159802 -0.321678,-0.321677 -0.838124,-0.321677 -1.159802,0 l -1.126393,1.126393 v -1.594131 c 0,-0.454921 -0.366009,-0.82093 -0.82093,-0.82093 z" />
</svg>
